<svg width="48" height="48" viewBox="0 0 48 48" fill="none" xmlns="http://www.w3.org/2000/svg">
<path d="M43.9025 45.6749H4.09753C1.83816 45.6749 0 43.8368 0 41.5774V13.9411C0 11.5267 2.13619 9.51319 3.67828 11.0244L24 30.9409L44.3217 11.0243C45.0066 10.3532 46.1037 10.3553 46.7858 11.03C47.5688 11.8046 48 12.8384 48 13.9411V41.5774C48 43.8368 46.1618 45.6749 43.9025 45.6749Z" fill="#FCE277"/>
<path d="M46.7858 11.0301C46.1037 10.3555 45.0066 10.3532 44.3217 11.0244L24 30.9409V45.6749H43.9025C46.1618 45.6749 48 43.8368 48 41.5774V13.9411C48 12.8384 47.5688 11.8046 46.7858 11.0301Z" fill="#FDDC55"/>
<path d="M47.1246 13.0541C47.2009 12.9267 47.2456 12.815 47.2714 12.7017C47.4234 12.1822 47.3246 11.5901 46.8227 11.0705C46.8106 11.0578 46.7998 11.0441 46.7873 11.0317C46.7857 11.0301 46.7839 11.0286 46.7822 11.0269C46.7813 11.026 46.7808 11.0253 46.7799 11.0244L42.1453 6.48196C41.4527 5.80321 40.3407 5.81427 39.6619 6.50699C38.9832 7.19971 38.9943 8.31159 39.687 8.99034L40.5895 9.87487C39.7758 10.028 39.1599 10.7413 39.1599 11.5995V16.821C39.1599 18.3742 41.037 19.1616 42.1452 18.0752C44.8884 15.3866 46.1747 14.1996 46.7774 13.5113C46.9153 13.3768 47.0328 13.222 47.1246 13.0541Z" fill="#FF9800"/>
<path d="M7.41045 9.87497L8.31298 8.99044C9.0057 8.31169 9.01686 7.19981 8.33801 6.50709C7.65908 5.81438 6.54739 5.80313 5.85467 6.48206L1.21995 11.0243C1.21911 11.0252 1.21855 11.0259 1.2177 11.0268C1.21592 11.0284 1.21423 11.0301 1.21245 11.0317C1.19942 11.0445 1.18827 11.0587 1.1757 11.072C0.679859 11.5867 0.579453 12.1774 0.727203 12.6974C0.750172 12.7997 0.788328 12.9007 0.851047 13.0129C0.954266 13.2172 1.09583 13.4026 1.26477 13.5592C1.88445 14.2542 3.17361 15.4477 5.85458 18.0751C6.95661 19.1551 8.83986 18.383 8.83986 16.8209V11.5994C8.84014 10.7415 8.22411 10.0282 7.41045 9.87497Z" fill="#FDBF00"/>
<path d="M22.7708 34.654C4.37291 16.6229 5.32803 17.8456 5.32803 16.8211V4.08112C5.32803 3.11128 6.11431 2.325 7.08416 2.325H40.916C41.8859 2.325 42.6721 3.11128 42.6721 4.08112V16.821C42.6721 17.8649 43.583 16.6661 25.2293 34.6539C24.5463 35.3232 23.4538 35.3232 22.7708 34.654Z" fill="#E0E0E2"/>
<path d="M42.672 16.8211V4.08112C42.672 3.11128 41.8857 2.325 40.9159 2.325H24V35.1558C24.4438 35.1558 24.8878 34.9885 25.2292 34.6539C43.5828 16.6662 42.672 17.8651 42.672 16.8211Z" fill="#C7C5CA"/>
<path d="M28.077 12.6762H19.9231C18.9533 12.6762 18.167 11.8899 18.167 10.9201C18.167 9.95025 18.9533 9.16397 19.9231 9.16397H28.077C29.0469 9.16397 29.8331 9.95025 29.8331 10.9201C29.8331 11.89 29.0468 12.6762 28.077 12.6762Z" fill="#797680"/>
<path d="M32.4279 19.3728H15.572C14.6022 19.3728 13.8159 18.5865 13.8159 17.6167C13.8159 16.6468 14.6022 15.8605 15.572 15.8605H32.4281C33.398 15.8605 34.1842 16.6468 34.1842 17.6167C34.184 18.5865 33.3978 19.3728 32.4279 19.3728Z" fill="#797680"/>
<path d="M28.077 9.16406H24V12.6762H28.077C29.0468 12.6762 29.8331 11.8899 29.8331 10.9201C29.8331 9.95025 29.0468 9.16406 28.077 9.16406Z" fill="#56565C"/>
<path d="M32.4279 15.8606H24V19.3728H32.4279C33.3978 19.3728 34.1841 18.5865 34.1841 17.6167C34.1841 16.6468 33.3978 15.8606 32.4279 15.8606Z" fill="#56565C"/>
</svg>
