<svg width="48" height="48" viewBox="0 0 48 48" fill="none" xmlns="http://www.w3.org/2000/svg">
<g clip-path="url(#clip0_63_1646)">
<path d="M48 9.91303V38.0869C48 40.6852 45.9026 42.7826 43.3043 42.7826H4.69566C2.09738 42.7826 0 40.6852 0 38.0869V9.91303C0 9.82959 0 9.74606 0.0104063 9.66262C0.135656 7.26262 2.04516 5.35303 4.44516 5.22787C4.52859 5.21747 4.61212 5.21747 4.69556 5.21747H43.3042C43.3877 5.21747 43.4816 5.21747 43.5652 5.22787C45.9548 5.35312 47.8643 7.26262 47.9895 9.65222C48 9.73565 48 9.82959 48 9.91303Z" fill="#E6F3FF"/>
<path d="M43.5653 5.22778C43.4816 5.21738 43.388 5.21738 43.3043 5.21738H24V42.7826H43.3043C45.9026 42.7826 48 40.6852 48 38.087V9.91303C48 9.82959 48 9.73566 47.9896 9.65213C47.8643 7.26263 45.9548 5.35303 43.5653 5.22778Z" fill="#CFDBE6"/>
<path d="M47.9896 9.65222C47.8643 7.26263 45.9548 5.35313 43.5653 5.22788C35.8959 12.8971 31.5892 17.204 24 24.793C21.121 21.9124 7.27594 8.05856 4.44525 5.22778C2.04525 5.35303 0.135656 7.26253 0.0105 9.66253C0 9.74606 0 9.8296 0 9.91303V38.087C0 40.6852 2.09738 42.7826 4.69566 42.7826H6.26091V15.913L21.7879 31.4296C22.3931 32.0452 23.1966 32.3479 24.0001 32.3479C24.8035 32.3479 25.6071 32.0452 26.2123 31.4296L41.7393 15.9026V42.7826H43.3045C45.9028 42.7826 48.0002 40.6852 48.0002 38.087V9.91303C48 9.8296 48 9.73566 47.9896 9.65222Z" fill="#FF4B26"/>
<path d="M26.2121 31.4296L41.7391 15.9026V42.7826H43.3043C45.9026 42.7826 48 40.6852 48 38.087V9.91303C48 9.8296 48 9.73566 47.9896 9.65213C47.8643 7.26253 45.9548 5.35303 43.5653 5.22778C35.896 12.8971 31.5892 17.204 24 24.793V32.3478C24.8034 32.3478 25.607 32.0452 26.2121 31.4296Z" fill="#D93F21"/>
</g>
<defs>
<clipPath id="clip0_63_1646">
<rect width="48" height="48" fill="white"/>
</clipPath>
</defs>
</svg>
