<svg width="16" height="16" viewBox="0 0 16 16" fill="none" xmlns="http://www.w3.org/2000/svg">
<path d="M12.5942 14.8172H5.67959C5.09013 14.8172 4.52482 14.583 4.108 14.1662C3.69119 13.7494 3.45703 13.1841 3.45703 12.5946V5.67996C3.45703 5.0905 3.69119 4.52518 4.108 4.10837C4.52482 3.69156 5.09013 3.4574 5.67959 3.4574H12.5942C13.1837 3.4574 13.749 3.69156 14.1658 4.10837C14.5826 4.52518 14.8168 5.0905 14.8168 5.67996V12.5946C14.8168 13.1841 14.5826 13.7494 14.1658 14.1662C13.749 14.583 13.1837 14.8172 12.5942 14.8172Z" fill="#00E592"/>
<path d="M4.9395 2.4695H12.2209C12.0672 2.03648 11.7833 1.66162 11.4082 1.39634C11.033 1.13106 10.585 0.988348 10.1255 0.987793H3.21084C2.62138 0.987793 2.05607 1.22195 1.63925 1.63877C1.22244 2.05558 0.988281 2.62089 0.988281 3.21035V10.125C0.988836 10.5845 1.13154 11.0325 1.39683 11.4077C1.66211 11.7828 2.03697 12.0667 2.46999 12.2204V4.93901C2.46999 4.28406 2.73017 3.65593 3.19329 3.1928C3.65642 2.72968 4.28455 2.4695 4.9395 2.4695Z" fill="#00E592"/>
</svg>
