<svg width="18" height="18" viewBox="0 0 18 18" fill="none" xmlns="http://www.w3.org/2000/svg">
<path d="M16.6671 0H6.71726C6.00814 0 5.43127 0.5769 5.43127 1.28598V4.30427H6.60519V1.28598C6.60519 1.2242 6.65547 1.17391 6.71726 1.17391H16.6671C16.7288 1.17391 16.7791 1.2242 16.7791 1.28598V11.2358C16.7791 11.2976 16.7288 11.3479 16.6671 11.3479H13.7429V12.5218H16.6671C17.3761 12.5218 17.953 11.9449 17.953 11.2358V1.28598C17.953 0.5769 17.3761 0 16.6671 0Z" fill="black"/>
<path d="M11.2829 5.47818H1.33314C0.624019 5.47818 0.0471191 6.05508 0.0471191 6.76421V16.714C0.0471583 17.4231 0.624019 18 1.33314 18H11.2829C11.992 18 12.5689 17.4231 12.5689 16.714V6.76421C12.569 6.05508 11.992 5.47818 11.2829 5.47818ZM11.283 16.8261H1.33314C1.27131 16.8261 1.22103 16.7758 1.22103 16.714V6.76421C1.22103 6.70238 1.27131 6.6521 1.33314 6.6521H11.2829C11.3447 6.6521 11.395 6.70238 11.395 6.76421V16.714H11.3951C11.3951 16.7758 11.3447 16.8261 11.283 16.8261Z" fill="black"/>
</svg>
