<svg width="18" height="18" viewBox="0 0 18 18" fill="none" xmlns="http://www.w3.org/2000/svg">
<path d="M9.00084 5.78587V3.8573M9.00084 5.78587C7.93369 5.78587 7.07227 5.78587 7.07227 7.07159C7.07227 9.00016 10.9294 9.00016 10.9294 10.9287C10.9294 12.2144 10.068 12.2144 9.00084 12.2144M9.00084 5.78587C10.068 5.78587 10.9294 6.27444 10.9294 7.07159M7.07227 10.9287C7.07227 11.893 7.93369 12.2144 9.00084 12.2144M9.00084 12.2144V14.143" stroke="#00C895" stroke-linecap="round" stroke-linejoin="round"/>
<path d="M9.00028 17.3572C4.38476 17.3572 0.643137 13.6155 0.643137 9.00003C0.643137 4.3845 4.38476 0.642883 9.00028 0.642883C13.6158 0.642883 17.3574 4.3845 17.3574 9.00003C17.3574 13.6155 13.6158 17.3572 9.00028 17.3572Z" stroke="#005AE4" stroke-linecap="round" stroke-linejoin="round"/>
</svg>
