<svg width="23" height="23" viewBox="0 0 23 23" fill="none" xmlns="http://www.w3.org/2000/svg">
<path d="M1.84432 18.5849C2.04808 18.5849 2.21317 18.4197 2.21317 18.216V17.4804C2.21317 17.2766 2.04808 17.1115 1.84432 17.1115C1.64055 17.1115 1.47546 17.2766 1.47546 17.4804V18.216C1.47546 18.4198 1.64055 18.5849 1.84432 18.5849Z" fill="black"/>
<path d="M1.84432 12.6996C2.04808 12.6996 2.21317 12.5345 2.21317 12.3308V11.5951C2.21317 11.3913 2.04808 11.2263 1.84432 11.2263C1.64055 11.2263 1.47546 11.3913 1.47546 11.5951V12.3308C1.47546 12.5345 1.64055 12.6996 1.84432 12.6996Z" fill="black"/>
<path d="M2.51689 8.84857H2.09022C1.83125 8.84857 1.5915 9.02233 1.50727 9.27115C1.44191 9.46409 1.54532 9.67352 1.73831 9.73883C1.77757 9.75213 1.81737 9.75842 1.85663 9.75842C1.98223 9.75842 2.10096 9.69378 2.16866 9.58632H2.5168C2.72052 9.58632 2.88566 9.42124 2.88566 9.21747C2.88575 9.0137 2.72061 8.84857 2.51689 8.84857Z" fill="black"/>
<path d="M2.21317 20.6724V20.4231C2.21317 20.2193 2.04808 20.0542 1.84432 20.0542C1.64055 20.0542 1.47546 20.2193 1.47546 20.4231V20.7743C1.47546 21.1075 1.75703 21.3891 2.09022 21.3891H2.09296C2.29673 21.3891 2.46047 21.224 2.46047 21.0202C2.46042 20.8596 2.35688 20.723 2.21317 20.6724Z" fill="black"/>
<path d="M1.84432 15.6422C2.04808 15.6422 2.21317 15.4771 2.21317 15.2734V14.5377C2.21317 14.334 2.04808 14.1689 1.84432 14.1689C1.64055 14.1689 1.47546 14.334 1.47546 14.5377V15.2734C1.47546 15.4771 1.64055 15.6422 1.84432 15.6422Z" fill="black"/>
<path d="M16.4945 9.58628H17.2301C17.4339 9.58628 17.599 9.42119 17.599 9.21743C17.599 9.01366 17.4339 8.84857 17.2301 8.84857H16.4945C16.2907 8.84857 16.1256 9.01366 16.1256 9.21743C16.1256 9.42119 16.2907 9.58628 16.4945 9.58628Z" fill="black"/>
<path d="M16.6923 7.08686C16.724 7.08686 16.7563 7.08272 16.7884 7.07405L18.0579 6.73229C18.2547 6.67932 18.3712 6.47695 18.3183 6.28024C18.2653 6.08348 18.0626 5.96695 17.8662 6.01992L16.5966 6.36168C16.3999 6.41465 16.2833 6.61702 16.3363 6.81373C16.3806 6.97841 16.5296 7.08686 16.6923 7.08686Z" fill="black"/>
<path d="M13.5518 9.58628H14.2875C14.4912 9.58628 14.6563 9.42119 14.6563 9.21743C14.6563 9.01366 14.4912 8.84857 14.2875 8.84857H13.5518C13.3481 8.84857 13.183 9.01366 13.183 9.21743C13.183 9.42119 13.3481 9.58628 13.5518 9.58628Z" fill="black"/>
<path d="M5.03565 20.6514H4.30001C4.09624 20.6514 3.93115 20.8165 3.93115 21.0203C3.93115 21.224 4.09624 21.3891 4.30001 21.3891H5.03565C5.23941 21.3891 5.4045 21.224 5.4045 21.0203C5.4045 20.8165 5.23937 20.6514 5.03565 20.6514Z" fill="black"/>
<path d="M21.1557 16.0655C20.952 16.0655 20.7869 16.2306 20.7869 16.4343V17.17C20.7869 17.3737 20.952 17.5388 21.1557 17.5388C21.3595 17.5388 21.5246 17.3737 21.5246 17.17V16.4343C21.5246 16.2306 21.3595 16.0655 21.1557 16.0655Z" fill="black"/>
<path d="M21.1557 19.0081C20.952 19.0081 20.7869 19.1732 20.7869 19.377V20.1126C20.7869 20.3164 20.952 20.4815 21.1557 20.4815C21.3595 20.4815 21.5246 20.3164 21.5246 20.1126V19.377C21.5246 19.1733 21.3595 19.0081 21.1557 19.0081Z" fill="black"/>
<path d="M20.1729 8.84857H19.4372C19.2334 8.84857 19.0684 9.01366 19.0684 9.21743C19.0684 9.42119 19.2334 9.58628 19.4372 9.58628H20.1729C20.3766 9.58628 20.5417 9.42119 20.5417 9.21743C20.5417 9.0137 20.3766 8.84857 20.1729 8.84857Z" fill="black"/>
<path d="M19.7489 20.6514H19.0131C18.8094 20.6514 18.6443 20.8165 18.6443 21.0203C18.6443 21.224 18.8094 21.3891 19.0131 21.3891H19.7489C19.9526 21.3891 20.1177 21.224 20.1177 21.0203C20.1177 20.8165 19.9525 20.6514 19.7489 20.6514Z" fill="black"/>
<path d="M21.8255 7.58485L20.0344 0.932547C19.9597 0.655154 19.7813 0.423312 19.5318 0.279697C19.2824 0.136082 18.9923 0.0981678 18.7149 0.172828L2.27224 4.59997C1.9948 4.67467 1.763 4.85315 1.61939 5.10255C1.47577 5.352 1.43786 5.64211 1.51252 5.9195L1.90621 7.38166C0.83959 7.47528 0 8.37287 0 9.46334V20.7744C0 21.9269 0.937654 22.8646 2.09021 22.8646H20.9098C22.0623 22.8646 23 21.9269 23 20.7744V9.46334C23 8.63912 22.5203 7.92495 21.8255 7.58485ZM2.25872 5.47069C2.304 5.39198 2.37691 5.33579 2.4641 5.31234L18.9069 0.885199C18.9938 0.86175 19.0851 0.873834 19.1638 0.919025C19.2425 0.964306 19.2987 1.03726 19.3221 1.12441L21.0052 7.37556C20.9735 7.37416 20.9418 7.37313 20.9098 7.37313H20.5405L19.0137 1.70251C18.9883 1.60808 18.9264 1.52758 18.8416 1.47875C18.7567 1.42992 18.656 1.4168 18.5616 1.44227L3.04215 5.62077C2.94768 5.64624 2.86723 5.7081 2.81835 5.79291C2.76957 5.87768 2.75645 5.97839 2.78188 6.07287L3.132 7.37313H2.66787L2.22485 5.72764C2.20144 5.64058 2.21348 5.5493 2.25872 5.47069ZM12.819 6.43687C12.7806 6.29442 12.6757 6.22596 12.5715 6.19811C12.3366 6.13904 12.0882 6.12448 11.8216 6.15548L11.8038 6.08904C11.7667 5.95122 11.628 5.87162 11.4904 5.90863C11.3526 5.94574 11.2727 6.08423 11.3099 6.22196L11.3253 6.27892C10.7847 6.48597 10.4843 6.89687 10.5574 7.37317H8.98065C9.20889 6.23971 10.0609 5.31427 11.1996 5.00768C11.9937 4.79381 12.8238 4.90207 13.5367 5.31247C14.2496 5.72292 14.7599 6.38647 14.9738 7.18064C14.9909 7.24434 15.0053 7.30862 15.0183 7.37313H12.1241L11.9668 6.78856C12.1038 6.78735 12.2521 6.80842 12.4043 6.84386C12.4642 6.85833 12.5249 6.85725 12.582 6.84188C12.7623 6.79328 12.8676 6.61727 12.819 6.43687ZM11.6453 7.37313H11.3195C11.292 7.33948 11.2742 7.29968 11.2617 7.25332C11.2208 7.1014 11.2898 6.96066 11.5087 6.86596L11.6453 7.37313ZM13.9048 4.67315C13.0211 4.16432 11.9922 4.03009 11.0077 4.29526C9.54787 4.68828 8.46818 5.90207 8.23104 7.37308H6.34333C6.60904 6.76345 6.69695 6.08962 6.59197 5.429L15.3953 3.05879C15.6818 3.80463 16.2105 4.42504 16.9125 4.82929C17.4505 5.13907 18.0472 5.29725 18.6518 5.29725C18.8361 5.29725 19.0212 5.28224 19.2056 5.25268L19.7765 7.37313H15.7687C15.7476 7.24402 15.7201 7.11568 15.6861 6.98891C15.421 6.00436 14.7883 5.18193 13.9048 4.67315ZM16.1129 2.86558L18.3972 2.25051L19.0123 4.53492C18.4149 4.61367 17.8116 4.49561 17.2806 4.18997C16.7498 3.88427 16.3448 3.42167 16.1129 2.86558ZM5.51753 7.37313H3.89603L3.59016 6.23723L5.87389 5.62239C5.95246 6.2278 5.82848 6.8431 5.51753 7.37313ZM22.2623 20.7744C22.2623 21.5201 21.6555 22.1269 20.9098 22.1269H2.09021C1.34447 22.1269 0.737707 21.5201 0.737707 20.7744V9.46334C0.737707 8.7176 1.34447 8.11084 2.09021 8.11084H20.9098C21.6555 8.11084 22.2623 8.7176 22.2623 9.46334V20.7744Z" fill="black"/>
<path d="M16.8063 20.6514H16.0706C15.8669 20.6514 15.7018 20.8165 15.7018 21.0203C15.7018 21.224 15.8669 21.3891 16.0706 21.3891H16.8063C17.01 21.3891 17.1751 21.224 17.1751 21.0203C17.1751 20.8165 17.01 20.6514 16.8063 20.6514Z" fill="black"/>
<path d="M21.1557 10.1802C20.952 10.1802 20.7869 10.3453 20.7869 10.549V11.2847C20.7869 11.4884 20.952 11.6535 21.1557 11.6535C21.3595 11.6535 21.5246 11.4884 21.5246 11.2847V10.549C21.5246 10.3453 21.3595 10.1802 21.1557 10.1802Z" fill="black"/>
<path d="M21.1557 13.1228C20.952 13.1228 20.7869 13.2879 20.7869 13.4917V14.2273C20.7869 14.4311 20.952 14.5962 21.1557 14.5962C21.3595 14.5962 21.5246 14.4311 21.5246 14.2273V13.4917C21.5246 13.2879 21.3595 13.1228 21.1557 13.1228Z" fill="black"/>
<path d="M7.97827 20.6514H7.24263C7.03887 20.6514 6.87378 20.8165 6.87378 21.0203C6.87378 21.224 7.03887 21.3891 7.24263 21.3891H7.97827C8.18204 21.3891 8.34713 21.224 8.34713 21.0203C8.34713 20.8165 8.18199 20.6514 7.97827 20.6514Z" fill="black"/>
<path d="M8.4021 8.84857H7.66646C7.4627 8.84857 7.29761 9.01366 7.29761 9.21743C7.29761 9.42119 7.4627 9.58628 7.66646 9.58628H8.4021C8.60587 9.58628 8.77096 9.42119 8.77096 9.21743C8.77096 9.0137 8.60582 8.84857 8.4021 8.84857Z" fill="black"/>
<path d="M5.45947 8.84857H4.72383C4.52007 8.84857 4.35498 9.01366 4.35498 9.21743C4.35498 9.42119 4.52007 9.58628 4.72383 9.58628H5.45947C5.66324 9.58628 5.82833 9.42119 5.82833 9.21743C5.82837 9.0137 5.6632 8.84857 5.45947 8.84857Z" fill="black"/>
<path d="M10.9209 20.6514H10.1853C9.98149 20.6514 9.81641 20.8165 9.81641 21.0203C9.81641 21.224 9.98149 21.3891 10.1853 21.3891H10.9209C11.1247 21.3891 11.2898 21.224 11.2898 21.0203C11.2898 20.8165 11.1246 20.6514 10.9209 20.6514Z" fill="black"/>
<path d="M19.4428 18.8075V16.7911C19.4428 16.5873 19.2778 16.4222 19.074 16.4222H14.6477C14.4439 16.4222 14.2788 16.5873 14.2788 16.7911V18.8075C14.2788 19.0113 14.4439 19.1764 14.6477 19.1764H19.074C19.2777 19.1764 19.4428 19.0112 19.4428 18.8075ZM18.7051 18.4386H15.0165V17.1599H18.7051V18.4386Z" fill="black"/>
<path d="M11.3449 8.84857H10.6092C10.4054 8.84857 10.2404 9.01366 10.2404 9.21743C10.2404 9.42119 10.4054 9.58628 10.6092 9.58628H11.3449C11.5486 9.58628 11.7137 9.42119 11.7137 9.21743C11.7137 9.0137 11.5486 8.84857 11.3449 8.84857Z" fill="black"/>
<path d="M13.8635 20.6514H13.1279C12.9241 20.6514 12.759 20.8165 12.759 21.0203C12.759 21.224 12.9241 21.3891 13.1279 21.3891H13.8635C14.0673 21.3891 14.2324 21.224 14.2324 21.0203C14.2324 20.8165 14.0672 20.6514 13.8635 20.6514Z" fill="black"/>
</svg>
