<svg width="25" height="26" viewBox="0 0 25 26" fill="none" xmlns="http://www.w3.org/2000/svg">
<path d="M12.4973 0.549561C19.3883 0.549561 24.9946 6.15921 24.9946 13.0571C24.9946 19.9538 19.3883 25.5647 12.4973 25.5647C8.58938 25.5647 4.97767 23.7849 2.59069 20.6842C2.2845 20.2853 2.35824 19.7137 2.7569 19.4085C3.15307 19.1008 3.72294 19.1771 4.03037 19.5736C6.07118 22.2252 9.15676 23.7461 12.4973 23.7461C18.386 23.7461 23.1775 18.9519 23.1775 13.0571C23.1775 7.16356 18.386 2.36816 12.4973 2.36816C6.60856 2.36816 1.81711 7.16356 1.81711 13.0571C1.81711 13.605 1.85835 14.149 1.93958 14.6819C2.01456 15.1772 1.67464 15.6412 1.17849 15.7175C0.679852 15.8 0.218702 15.4536 0.143719 14.957C0.0487394 14.3342 0 13.695 0 13.0571C0 6.15921 5.60628 0.549561 12.4973 0.549561ZM12.51 16.8668C13.0274 16.8668 13.4473 17.2871 13.4473 17.8049C13.4473 18.3227 13.0274 18.7429 12.51 18.7429C11.9926 18.7429 11.5665 18.3227 11.5665 17.8049C11.5665 17.2871 11.9801 16.8668 12.4975 16.8668H12.51ZM12.4973 7.37131C13.0147 7.37131 13.4346 7.79157 13.4346 8.30938V13.8377C13.4346 14.3555 13.0147 14.7758 12.4973 14.7758C11.9799 14.7758 11.56 14.3555 11.56 13.8377V8.30938C11.56 7.79157 11.9799 7.37131 12.4973 7.37131Z" fill="black"/>
</svg>
