<svg width="15" height="15" viewBox="0 0 15 15" fill="none" xmlns="http://www.w3.org/2000/svg">
<path d="M7.39283 0.580566L8.12893 0.621905L8.85578 0.745402L9.56423 0.949503L10.2454 1.23164L10.8907 1.58827L11.4919 2.01491L12.0417 2.50618L12.533 3.05592L12.9596 3.65721L13.3162 4.30248L13.5984 4.98362L13.8025 5.69208L13.926 6.41893L13.9673 7.15503L13.926 7.89114L13.8025 8.61799L13.5984 9.32644L13.3162 10.0076L12.9596 10.6529L12.533 11.2541L12.0417 11.8039L11.4919 12.2952L10.8907 12.7218L10.2454 13.0784L9.56423 13.3606L8.85578 13.5647L8.12893 13.6882L7.39283 13.7295L6.65672 13.6882L5.92987 13.5647L5.22142 13.3606L4.54027 13.0784L3.895 12.7218L3.29371 12.2952L2.74398 11.8039L2.2527 11.2541L1.82607 10.6529L1.46944 10.0076L1.1873 9.32644L0.983195 8.61799L0.859698 7.89114L0.818359 7.15503L0.859698 6.41893L0.983195 5.69208L1.1873 4.98362L1.46944 4.30248L1.82607 3.65721L2.2527 3.05592L2.74398 2.50618L3.29371 2.01491L3.895 1.58827L4.54027 1.23164L5.22142 0.949503L5.92987 0.745402L6.65672 0.621905L7.39283 0.580566Z" fill="#C2CCDE" fill-opacity="0.25"/>
<path d="M7.39283 8.65777V8.56847C7.39283 8.02053 7.68156 7.51315 8.15263 7.23328L8.56098 6.99067C9.14691 6.64257 9.50605 6.01146 9.50605 5.32993C9.50605 4.26306 8.64118 3.39819 7.57432 3.39819H7.39283C6.22573 3.39819 5.2796 4.34432 5.2796 5.51142V5.63074M7.39283 10.3483V10.724M7.39283 0.580566L8.12893 0.621905L8.85578 0.745402L9.56423 0.949503L10.2454 1.23164L10.8907 1.58827L11.4919 2.01491L12.0417 2.50618L12.533 3.05592L12.9596 3.65721L13.3162 4.30248L13.5984 4.98362L13.8025 5.69208L13.926 6.41893L13.9673 7.15503L13.926 7.89114L13.8025 8.61799L13.5984 9.32644L13.3162 10.0076L12.9596 10.6529L12.533 11.2541L12.0417 11.8039L11.4919 12.2952L10.8907 12.7218L10.2454 13.0784L9.56423 13.3606L8.85578 13.5647L8.12893 13.6882L7.39283 13.7295L6.65672 13.6882L5.92987 13.5647L5.22142 13.3606L4.54027 13.0784L3.895 12.7218L3.29371 12.2952L2.74398 11.8039L2.2527 11.2541L1.82607 10.6529L1.46944 10.0076L1.1873 9.32644L0.983195 8.61799L0.859698 7.89114L0.818359 7.15503L0.859698 6.41893L0.983195 5.69208L1.1873 4.98362L1.46944 4.30248L1.82607 3.65721L2.2527 3.05592L2.74398 2.50618L3.29371 2.01491L3.895 1.58827L4.54027 1.23164L5.22142 0.949503L5.92987 0.745402L6.65672 0.621905L7.39283 0.580566Z" stroke="#075AFD" stroke-width="1.17401" stroke-linecap="round" stroke-linejoin="round"/>
</svg>
