<svg width="24" height="25" viewBox="0 0 24 25" fill="none" xmlns="http://www.w3.org/2000/svg">
<path d="M20.5 14.1495C21.2 13.9495 21.6 13.2495 21.6 12.5495C21.6 11.8495 21.2 11.2495 20.5 10.9495L20 10.7495L20.5 10.5495C21.2 10.3495 21.6 9.64954 21.6 8.94954C21.6 8.24954 21.2 7.64954 20.5 7.34954L12.6 4.54954C12.2 4.34954 11.8 4.34954 11.4 4.54954L3.40002 7.34954C2.80002 7.64954 2.40002 8.34954 2.40002 9.04954C2.40002 9.74954 2.80002 10.3495 3.50002 10.6495L4.00002 10.7495L3.50002 10.9495C2.80002 11.1495 2.40002 11.8495 2.40002 12.5495C2.40002 13.2495 2.80002 13.8495 3.50002 14.1495L4.00002 14.3495L3.50002 14.5495C2.80002 14.7495 2.40002 15.4495 2.40002 16.1495C2.40002 16.8495 2.80002 17.4495 3.50002 17.7495L11.4 20.5495C11.6 20.5495 11.8 20.5495 12 20.5495C12.2 20.5495 12.4 20.5495 12.5 20.4495L20.5 17.6495C21.2 17.4495 21.6 16.7495 21.6 16.0495C21.6 15.3495 21.2 14.7495 20.5 14.4495L20 14.3495L20.5 14.1495ZM12 6.54954L19 9.04954L12 11.5495L5.00002 9.04954L12 6.54954ZM12 18.5495L5.00002 16.0495L7.00002 15.3495L11.4 16.8495C11.5 16.8495 11.6 16.9495 11.7 16.9495H11.8C11.9 16.9495 12 16.9495 12 16.9495C12.2 16.9495 12.4 16.9495 12.5 16.8495L16.9 15.2495L18.9 15.9495L12 18.5495ZM12 15.0495L5.00002 12.5495L7.00002 11.8495L11.4 13.3495C11.5 13.3495 11.6 13.4495 11.7 13.4495H11.8C11.9 13.4495 12 13.4495 12 13.4495C12.2 13.4495 12.4 13.4495 12.5 13.3495L16.9 11.7495L18.9 12.4495L12 15.0495Z" fill="black"/>
</svg>
