<svg width="17" height="13" viewBox="0 0 17 13" fill="none" xmlns="http://www.w3.org/2000/svg">
<path d="M4.86275 6.22921C4.77478 6.6478 4.50425 7.00513 4.12523 7.20336C3.7096 7.42074 3.21386 7.42074 2.79824 7.20336C2.41922 7.00513 2.14869 6.6478 2.06072 6.22921L2.03022 6.08408C1.93968 5.65327 2.03684 5.20429 2.29739 4.84945L2.34679 4.78218C2.6074 4.42726 3.02141 4.21762 3.46173 4.21762C3.90205 4.21762 4.31607 4.42726 4.57668 4.78217L4.62608 4.84945C4.88663 5.20429 4.98379 5.65327 4.89325 6.08408L4.86275 6.22921Z" fill="#C2CCDE" fill-opacity="0.25"/>
<path d="M0.878906 10.1802C0.878906 10.4222 1.07514 10.6185 1.31721 10.6185H4.00428C4.17705 9.85089 4.6471 9.17984 5.31082 8.75534C5.19136 8.67013 5.05991 8.5991 4.91845 8.54511L4.8194 8.50732C3.94504 8.17365 2.97843 8.17365 2.10406 8.50732L2.00501 8.54511C1.32691 8.80389 0.878906 9.45436 0.878906 10.1802Z" fill="#C2CCDE" fill-opacity="0.25"/>
<path d="M15.468 10.6185H12.7809C12.6081 9.85093 12.1381 9.17987 11.4744 8.75536C11.5938 8.67017 11.7253 8.59914 11.8667 8.54516L11.9658 8.50737C12.8401 8.1737 13.8067 8.1737 14.6811 8.50737L14.7802 8.54516C15.4583 8.80394 15.9063 9.45442 15.9063 10.1802C15.9063 10.4223 15.71 10.6185 15.468 10.6185Z" fill="#C2CCDE" fill-opacity="0.25"/>
<path d="M11.9224 6.22926C12.0104 6.64785 12.2809 7.00518 12.6599 7.20341C13.0756 7.42079 13.5713 7.42079 13.9869 7.20341C14.3659 7.00518 14.6365 6.64785 14.7244 6.22926L14.7549 6.08413C14.8455 5.65332 14.7483 5.20434 14.4878 4.8495L14.4384 4.78223C14.1778 4.42731 13.7638 4.21767 13.3234 4.21767C12.8831 4.21767 12.4691 4.42731 12.2085 4.78223L12.1591 4.8495C11.8985 5.20434 11.8014 5.65332 11.8919 6.08413L11.9224 6.22926Z" fill="#C2CCDE" fill-opacity="0.25"/>
<path d="M12.1025 12.0273H4.68271C4.26774 12.0273 3.93134 11.6909 3.93134 11.276C3.93134 10.0323 4.70063 8.91833 5.86365 8.47784L6.0589 8.4039C7.56257 7.83439 9.2226 7.83439 10.7263 8.4039L10.9215 8.47784C12.0845 8.91833 12.8538 10.0323 12.8538 11.276C12.8538 11.6909 12.5174 12.0273 12.1025 12.0273Z" fill="#C2CCDE" fill-opacity="0.25"/>
<path d="M7.25175 6.17556C7.967 6.54683 8.81817 6.54683 9.53341 6.17556C10.1913 5.83408 10.6615 5.21588 10.8151 4.49076L10.8631 4.26381C11.0207 3.51954 10.8519 2.74341 10.3995 2.13182L10.3219 2.02699C9.86934 1.41529 9.1535 1.05444 8.39258 1.05444C7.63166 1.05444 6.91582 1.41529 6.46326 2.027L6.3857 2.13182C5.93322 2.74341 5.76443 3.51954 5.92203 4.26382L5.97008 4.49076C6.12362 5.21588 6.59391 5.83408 7.25175 6.17556Z" fill="#C2CCDE" fill-opacity="0.25"/>
<path d="M4.86275 6.22921C4.77478 6.6478 4.50425 7.00513 4.12523 7.20336C3.7096 7.42074 3.21386 7.42074 2.79824 7.20336C2.41922 7.00513 2.14869 6.6478 2.06072 6.22921L2.03022 6.08408C1.93968 5.65327 2.03684 5.20429 2.29739 4.84945L2.34679 4.78218C2.6074 4.42726 3.02141 4.21762 3.46173 4.21762C3.90205 4.21762 4.31607 4.42726 4.57668 4.78217L4.62608 4.84945C4.88663 5.20429 4.98379 5.65327 4.89325 6.08408L4.86275 6.22921Z" stroke="#075AFD" stroke-width="1.17401" stroke-linecap="round" stroke-linejoin="round"/>
<path d="M0.878906 10.1802C0.878906 10.4222 1.07514 10.6185 1.31721 10.6185H4.00428C4.17705 9.85089 4.6471 9.17984 5.31082 8.75534C5.19136 8.67013 5.05991 8.5991 4.91845 8.54511L4.8194 8.50732C3.94504 8.17365 2.97843 8.17365 2.10406 8.50732L2.00501 8.54511C1.32691 8.80389 0.878906 9.45436 0.878906 10.1802Z" stroke="#075AFD" stroke-width="1.17401" stroke-linecap="round" stroke-linejoin="round"/>
<path d="M15.468 10.6185H12.7809C12.6081 9.85093 12.1381 9.17987 11.4744 8.75536C11.5938 8.67017 11.7253 8.59914 11.8667 8.54516L11.9658 8.50737C12.8401 8.1737 13.8067 8.1737 14.6811 8.50737L14.7802 8.54516C15.4583 8.80394 15.9063 9.45442 15.9063 10.1802C15.9063 10.4223 15.71 10.6185 15.468 10.6185Z" stroke="#075AFD" stroke-width="1.17401" stroke-linecap="round" stroke-linejoin="round"/>
<path d="M11.9224 6.22926C12.0104 6.64785 12.2809 7.00518 12.6599 7.20341C13.0756 7.42079 13.5713 7.42079 13.9869 7.20341C14.3659 7.00518 14.6365 6.64785 14.7244 6.22926L14.7549 6.08413C14.8455 5.65332 14.7483 5.20434 14.4878 4.8495L14.4384 4.78223C14.1778 4.42731 13.7638 4.21767 13.3234 4.21767C12.8831 4.21767 12.4691 4.42731 12.2085 4.78223L12.1591 4.8495C11.8985 5.20434 11.8014 5.65332 11.8919 6.08413L11.9224 6.22926Z" stroke="#075AFD" stroke-width="1.17401" stroke-linecap="round" stroke-linejoin="round"/>
<path d="M12.1025 12.0273H4.68271C4.26774 12.0273 3.93134 11.6909 3.93134 11.276C3.93134 10.0323 4.70063 8.91833 5.86365 8.47784L6.0589 8.4039C7.56257 7.83439 9.2226 7.83439 10.7263 8.4039L10.9215 8.47784C12.0845 8.91833 12.8538 10.0323 12.8538 11.276C12.8538 11.6909 12.5174 12.0273 12.1025 12.0273Z" stroke="#075AFD" stroke-width="1.17401" stroke-linecap="round" stroke-linejoin="round"/>
<path d="M7.25175 6.17556C7.967 6.54683 8.81817 6.54683 9.53341 6.17556C10.1913 5.83408 10.6615 5.21588 10.8151 4.49076L10.8631 4.26381C11.0207 3.51954 10.8519 2.74341 10.3995 2.13182L10.3219 2.02699C9.86934 1.41529 9.1535 1.05444 8.39258 1.05444C7.63166 1.05444 6.91582 1.41529 6.46326 2.027L6.3857 2.13182C5.93322 2.74341 5.76443 3.51954 5.92203 4.26382L5.97008 4.49076C6.12362 5.21588 6.59391 5.83408 7.25175 6.17556Z" stroke="#075AFD" stroke-width="1.17401" stroke-linecap="round" stroke-linejoin="round"/>
</svg>
