<svg width="19" height="19" viewBox="0 0 19 19" fill="none" xmlns="http://www.w3.org/2000/svg">
<path d="M3.91365 9.50757L7.04435 6.37687M3.91365 9.50757L7.04435 12.6383M3.91365 9.50757H11.7404M7.82702 16.5516C8.75206 16.5516 9.66805 16.3694 10.5227 16.0154C11.3773 15.6614 12.1538 15.1426 12.8079 14.4885C13.462 13.8344 13.9809 13.0578 14.3349 12.2032C14.6889 11.3486 14.8711 10.4326 14.8711 9.50757C14.8711 8.58253 14.6889 7.66655 14.3349 6.81192C13.9809 5.9573 13.462 5.18076 12.8079 4.52666C12.1538 3.87256 11.3773 3.3537 10.5227 2.9997C9.66805 2.6457 8.75206 2.4635 7.82702 2.4635" stroke="#FF3333" stroke-width="1.17401" stroke-linecap="round" stroke-linejoin="round"/>
</svg>
