<svg width="23" height="23" viewBox="0 0 23 23" fill="none" xmlns="http://www.w3.org/2000/svg">
<path d="M14.4465 15.8114C14.9192 15.8114 15.303 16.1861 15.303 16.6476V17.6695C15.303 20.3259 13.0894 22.487 10.3674 22.487H4.94564C2.2192 22.487 0 20.3204 0 17.6576C0 17.1961 0.383771 16.8225 0.856533 16.8225C1.32929 16.8225 1.71307 17.1961 1.71307 17.6576C1.71307 19.3995 3.16361 20.8146 4.94564 20.8146H10.3674C12.145 20.8146 13.59 19.4039 13.59 17.6695V16.6476C13.59 16.1861 13.9737 15.8114 14.4465 15.8114ZM21.9864 10.7905C22.3335 10.7905 22.6461 10.9946 22.7784 11.3085C22.9108 11.6212 22.8363 11.9818 22.5916 12.2207L19.3412 15.3798C19.1732 15.5417 18.9552 15.6242 18.736 15.6242C18.5169 15.6242 18.2967 15.5417 18.1298 15.3777C17.7961 15.0497 17.7961 14.5208 18.132 14.195L19.9129 12.464H8.62228C8.14952 12.464 7.76464 12.0893 7.76464 11.6277C7.76464 11.1662 8.14952 10.7905 8.62228 10.7905H21.9864ZM10.3565 0.768066C13.084 0.768066 15.3032 2.93462 15.3032 5.59746V6.60852C15.3032 7.06898 14.9195 7.44365 14.4467 7.44365C13.9739 7.44365 13.5902 7.06898 13.5902 6.60852V5.59746C13.5902 3.85554 12.1396 2.44049 10.3565 2.44049H4.93585C3.15827 2.44049 1.71329 3.85228 1.71329 5.58552V13.8553C1.71329 14.3169 1.32952 14.6915 0.856755 14.6915C0.383994 14.6915 0.000222476 14.3169 0.000222476 13.8553V5.58552C0.000222476 2.92919 2.21386 0.768066 4.93585 0.768066H10.3565ZM18.1276 7.88119C18.4613 7.55105 19.0019 7.54888 19.339 7.87468L20.1577 8.66528C20.4947 8.99107 20.4969 9.51995 20.1643 9.84792C19.9964 10.013 19.7761 10.0966 19.5559 10.0966C19.3378 10.0966 19.1198 10.0152 18.953 9.85444L18.1331 9.06275C17.7972 8.73804 17.795 8.20808 18.1276 7.88119Z" fill="black"/>
</svg>
