<svg width="24" height="25" viewBox="0 0 24 25" fill="none" xmlns="http://www.w3.org/2000/svg">
<path d="M1.07082 6.3379C1.32135 6.28934 1.58135 6.34037 1.79327 6.4797C2.21189 6.75791 2.33327 7.30833 2.06906 7.73036L1.99975 7.86674C1.7378 8.46713 1.97178 9.17732 2.56549 9.50932C3.04586 9.79701 3.44128 10.202 3.71278 10.6845C4.5582 12.2023 4.03352 14.1015 2.52136 14.9971C1.88198 15.3546 1.65981 16.1508 2.02494 16.7761L2.78612 18.0591C2.95931 18.3648 3.25263 18.5883 3.59827 18.6778C3.94391 18.7674 4.31196 18.7152 4.61737 18.5335C5.10981 18.2543 5.66975 18.1091 6.23902 18.113C8.0668 18.113 9.54851 19.5611 9.54851 21.3474C9.55457 22.0697 10.1554 22.652 10.8944 22.652L10.8833 22.6736C11.2262 22.6736 11.5431 22.8524 11.7145 23.1426C11.886 23.4328 11.886 23.7903 11.7145 24.0806C11.5431 24.3708 11.2262 24.5496 10.8833 24.5496C9.05556 24.5496 7.57385 23.1014 7.57385 21.3151C7.57682 21.0877 7.51576 20.8639 7.39734 20.6682C7.0272 20.042 6.20918 19.8252 5.56609 20.183L5.37004 20.2794C3.85295 20.9649 2.03169 20.4349 1.15344 19.0186L0.403284 17.7356C-0.442137 16.2179 0.0825371 14.3187 1.5947 13.423C1.79512 13.3078 1.96218 13.1445 2.08009 12.9486C2.30134 12.6472 2.38085 12.2681 2.29874 11.9059C2.21663 11.5438 1.98066 11.2329 1.64986 11.0511L1.46601 10.934C0.0963511 9.99781 -0.351753 8.193 0.458443 6.73846L0.552399 6.62165C0.689263 6.47678 0.870397 6.37675 1.07082 6.3379ZM20.8519 9.45394C21.2867 9.30141 21.7816 9.46684 22.0253 9.86511C22.295 10.3089 22.1471 10.8823 21.6943 11.1481C21.4939 11.2633 21.3269 11.4266 21.209 11.6225C21.0292 11.9224 20.9793 12.2801 21.0705 12.6161C21.1616 12.9521 21.3862 13.2387 21.6943 13.4122C23.2554 14.3267 23.7679 16.3015 22.8416 17.8327L22.0915 19.1157L21.9717 19.2953C21.0138 20.634 19.1671 21.0719 17.6788 20.2801C17.2661 20.0366 16.7507 20.0316 16.3331 20.267C15.9155 20.5024 15.6619 20.9411 15.6711 21.4121C15.6183 21.8943 15.202 22.2599 14.7058 22.2599C14.2097 22.2599 13.7933 21.8943 13.7405 21.4121C13.7642 20.2817 14.3902 19.2455 15.3914 18.6791C16.3926 18.1127 17.6238 18.0983 18.6386 18.6413C18.9435 18.8205 19.3097 18.8711 19.6535 18.7814C19.9966 18.6874 20.2892 18.4671 20.4698 18.1669L21.22 16.8839C21.3993 16.5856 21.4488 16.2296 21.3576 15.8953C21.2664 15.561 21.042 15.2764 20.7346 15.1049C20.2176 14.7971 19.8007 14.3522 19.5321 13.8219C18.6867 12.3042 19.2114 10.405 20.7236 9.50932L20.8519 9.45394ZM11.6445 8.2263C12.7436 8.22345 13.7987 8.64815 14.5769 9.40668C15.3551 10.1652 15.7924 11.1952 15.7924 12.2694L15.7856 12.5142C15.6948 14.056 14.7116 15.423 13.2395 16.0223C11.6899 16.6532 9.90402 16.309 8.71544 15.1505C7.52686 13.992 7.16996 12.2475 7.81132 10.7313C8.45269 9.21518 9.96585 8.2263 11.6445 8.2263ZM11.6445 10.1239C10.426 10.1239 9.4382 11.0893 9.4382 12.2802C9.4382 13.4711 10.426 14.4365 11.6445 14.4365C12.863 14.4365 13.8509 13.4711 13.8509 12.2802L13.8435 12.1033C13.7515 10.9951 12.8021 10.1239 11.6445 10.1239ZM12.4057 0C14.2335 0 15.7152 1.44812 15.7152 3.23446C15.7122 3.46183 15.7733 3.68562 15.8917 3.88135C16.0674 4.18438 16.3598 4.40615 16.7038 4.49728C17.0477 4.58841 17.4147 4.54133 17.723 4.36652C19.2759 3.54027 21.2192 4.05305 22.1356 5.53093C22.3889 5.98193 22.2332 6.5479 21.7826 6.81393C21.3247 7.06939 20.742 6.92102 20.4698 6.4797L20.3832 6.35269C19.9801 5.83004 19.2331 5.67137 18.6386 6.00532C17.6255 6.54746 16.3966 6.53422 15.396 5.97039C14.3954 5.40656 13.768 4.37371 13.7405 3.24524C13.7525 2.89184 13.6172 2.54883 13.3655 2.29477C13.1139 2.04071 12.7675 1.89736 12.4057 1.89755H10.8944C10.5316 1.89744 10.1842 2.04046 9.93081 2.29417C9.67744 2.54789 9.53959 2.89082 9.54851 3.24524C9.53828 4.37986 8.91035 5.42323 7.90066 5.98331C6.89097 6.54338 5.65245 6.53534 4.65047 5.96219L4.60634 5.91906L4.5002 5.84448C4.13534 5.54958 4.04055 5.02919 4.29745 4.62528C4.57771 4.18465 5.1704 4.04949 5.62125 4.3234C5.82249 4.43816 6.05021 4.50122 6.28315 4.50668C6.64017 4.52128 6.98848 4.39651 7.25129 4.15988C7.5141 3.92325 7.66983 3.5942 7.68417 3.24524C7.67738 1.49193 9.10119 0.0525871 10.8944 0H12.4057Z" fill="black"/>
</svg>
