<svg width="17" height="17" viewBox="0 0 17 17" fill="none" xmlns="http://www.w3.org/2000/svg">
<path d="M6.29069 15.4361C5.07495 15.0732 3.97391 14.4016 3.09473 13.4868C3.3776 13.1513 3.55393 12.739 3.60117 12.3027C3.6484 11.8664 3.56439 11.426 3.35987 11.0377C3.15536 10.6495 2.83965 10.331 2.45314 10.1232C2.06663 9.91539 1.62691 9.82761 1.19023 9.87112C1.09075 9.38383 1.04076 8.88772 1.04102 8.39038C1.04102 7.62226 1.15862 6.88133 1.37767 6.18525H1.40854C1.78332 6.18537 2.15195 6.08996 2.47962 5.90804C2.80729 5.72612 3.08318 5.46369 3.28126 5.14553C3.47933 4.82736 3.59304 4.46396 3.61165 4.08964C3.63027 3.71532 3.55317 3.34243 3.38764 3.00619C4.24933 2.20382 5.29142 1.62057 6.42594 1.30566C6.61058 1.66819 6.8919 1.97257 7.23879 2.18513C7.58568 2.39768 7.98461 2.51013 8.39145 2.51003C8.79828 2.51013 9.19721 2.39768 9.5441 2.18513C9.89099 1.97257 10.1723 1.66819 10.357 1.30566C11.4915 1.62057 12.5336 2.20382 13.3953 3.00619C13.2285 3.34479 13.1515 3.72052 13.1715 4.09741C13.1916 4.47431 13.308 4.83976 13.5097 5.15877C13.7114 5.47778 13.9916 5.73969 14.3235 5.91941C14.6554 6.09914 15.0278 6.19067 15.4052 6.18525C15.629 6.89887 15.7426 7.64248 15.7419 8.39038C15.7419 8.89756 15.6904 9.39298 15.5927 9.87149C15.156 9.82798 14.7163 9.91576 14.3298 10.1236C13.9432 10.3314 13.6275 10.6498 13.423 11.0381C13.2185 11.4264 13.1345 11.8668 13.1817 12.3031C13.229 12.7394 13.4053 13.1517 13.6882 13.4872C12.8089 14.4018 11.7079 15.0733 10.4922 15.4361C10.3494 14.9912 10.0691 14.603 9.69153 14.3277C9.31398 14.0523 8.85875 13.9039 8.39145 13.9039C7.92415 13.9039 7.46891 14.0523 7.09137 14.3277C6.71382 14.603 6.43346 14.9912 6.29069 15.4361Z" stroke="#075AFD" stroke-width="1.17401" stroke-linejoin="round"/>
<path d="M8.39296 10.9629C8.73081 10.9629 9.06535 10.8964 9.37747 10.7671C9.6896 10.6378 9.97321 10.4483 10.2121 10.2094C10.451 9.97052 10.6405 9.68692 10.7698 9.37479C10.8991 9.06266 10.9656 8.72812 10.9656 8.39028C10.9656 8.05243 10.8991 7.7179 10.7698 7.40577C10.6405 7.09364 10.451 6.81003 10.2121 6.57114C9.97321 6.33225 9.6896 6.14275 9.37747 6.01346C9.06535 5.88417 8.73081 5.81763 8.39296 5.81763C7.71065 5.81763 7.05629 6.08867 6.57382 6.57114C6.09136 7.0536 5.82031 7.70797 5.82031 8.39028C5.82031 9.07259 6.09136 9.72695 6.57382 10.2094C7.05629 10.6919 7.71065 10.9629 8.39296 10.9629Z" stroke="#00E592" stroke-width="1.17401" stroke-linejoin="round"/>
</svg>
