<svg width="24" height="25" viewBox="0 0 24 25" fill="none" xmlns="http://www.w3.org/2000/svg">
<path d="M13.2 10.7496L11.5 13.2496L11 12.7496C10.6 12.3496 10 12.3496 9.60005 12.7496C9.20005 13.1496 9.20005 13.7496 9.60005 14.1496L11 15.5496C11.2 15.7496 11.4 15.8496 11.7 15.8496H11.8C12.1 15.8496 12.4 15.6496 12.5 15.4496L14.9 11.8496C15.2 11.3496 15.1 10.7496 14.6 10.4496C14.1 10.1496 13.5 10.2496 13.2 10.7496Z" fill="black"/>
<path d="M20.8 9.74956C20.4 9.34956 20.2 8.84956 20.2 8.34956C20.2 6.14956 18.4 4.34956 16.2 4.34956C15.7 4.34956 15.2 4.14956 14.8 3.74956C13.2 2.14956 10.7 2.14956 9.1 3.74956C8.8 4.14956 8.3 4.34956 7.8 4.34956C5.6 4.34956 3.8 6.14956 3.8 8.34956C3.8 8.84956 3.6 9.34956 3.2 9.74956C1.6 11.3496 1.6 13.8496 3.2 15.4496C3.6 15.8496 3.8 16.3496 3.8 16.8496C3.8 19.0496 5.6 20.8496 7.8 20.8496C8.3 20.8496 8.8 21.0496 9.2 21.4496C10 22.1496 11 22.5496 12 22.5496C13 22.5496 14.1 22.1496 14.8 21.3496C15.2 20.9496 15.7 20.7496 16.2 20.7496C18.4 20.7496 20.2 18.9496 20.2 16.7496C20.2 16.2496 20.4 15.7496 20.7 15.3496C22.4 13.8496 22.4 11.2496 20.8 9.74956ZM19.4 13.9496C18.6 14.7496 18.2 15.7496 18.2 16.7496C18.2 17.8496 17.3 18.7496 16.2 18.7496C15.1 18.7496 14.1 19.1496 13.4 19.9496C12.6 20.7496 11.3 20.7496 10.6 19.9496C9.8 19.1496 8.8 18.7496 7.8 18.7496C6.7 18.7496 5.8 17.8496 5.8 16.7496C5.8 15.6496 5.4 14.6496 4.6 13.9496C3.8 13.1496 3.8 11.9496 4.6 11.1496C5.4 10.3496 5.8 9.34956 5.8 8.34956C5.8 7.24956 6.7 6.34956 7.8 6.34956C8.9 6.34956 9.9 5.94956 10.6 5.14956C11 4.74956 11.5 4.54956 12 4.54956C12.5 4.54956 13 4.74956 13.4 5.14956C14.2 5.94956 15.2 6.34956 16.2 6.34956C17.3 6.34956 18.2 7.24956 18.2 8.34956C18.2 9.44956 18.6 10.4496 19.4 11.1496C20.2 11.9496 20.2 13.1496 19.4 13.9496Z" fill="black"/>
</svg>
