<svg width="15" height="15" viewBox="0 0 15 15" fill="none" xmlns="http://www.w3.org/2000/svg">
<path d="M7.39283 0.875244L8.12893 0.916583L8.85578 1.04008L9.56423 1.24418L10.2454 1.52632L10.8907 1.88295L11.4919 2.30959L12.0417 2.80086L12.533 3.3506L12.9596 3.95188L13.3162 4.59716L13.5984 5.2783L13.8025 5.98675L13.926 6.7136L13.9673 7.44971L13.926 8.18582L13.8025 8.91267L13.5984 9.62112L13.3162 10.3023L12.9596 10.9475L12.533 11.5488L12.0417 12.0986L11.4919 12.5898L10.8907 13.0165L10.2454 13.3731L9.56423 13.6552L8.85578 13.8593L8.12893 13.9828L7.39283 14.0242L6.65672 13.9828L5.92987 13.8593L5.22142 13.6552L4.54027 13.3731L3.895 13.0165L3.29371 12.5898L2.74398 12.0986L2.2527 11.5488L1.82607 10.9475L1.46944 10.3023L1.1873 9.62112L0.983195 8.91267L0.859698 8.18582L0.818359 7.44971L0.859698 6.7136L0.983195 5.98675L1.1873 5.2783L1.46944 4.59716L1.82607 3.95188L2.2527 3.3506L2.74398 2.80086L3.29371 2.30959L3.895 1.88295L4.54027 1.52632L5.22142 1.24418L5.92987 1.04008L6.65672 0.916583L7.39283 0.875244Z" fill="#C2CCDE" fill-opacity="0.25"/>
<path d="M7.38526 3.69287V8.95245M7.38526 10.643V11.0187M7.39283 0.875244L8.12893 0.916583L8.85578 1.04008L9.56423 1.24418L10.2454 1.52632L10.8907 1.88295L11.4919 2.30959L12.0417 2.80086L12.533 3.3506L12.9596 3.95188L13.3162 4.59716L13.5984 5.2783L13.8025 5.98675L13.926 6.7136L13.9673 7.44971L13.926 8.18582L13.8025 8.91267L13.5984 9.62112L13.3162 10.3023L12.9596 10.9475L12.533 11.5488L12.0417 12.0986L11.4919 12.5898L10.8907 13.0165L10.2454 13.3731L9.56423 13.6552L8.85578 13.8593L8.12893 13.9828L7.39283 14.0242L6.65672 13.9828L5.92987 13.8593L5.22142 13.6552L4.54027 13.3731L3.895 13.0165L3.29371 12.5898L2.74398 12.0986L2.2527 11.5488L1.82607 10.9475L1.46944 10.3023L1.1873 9.62112L0.983195 8.91267L0.859698 8.18582L0.818359 7.44971L0.859698 6.7136L0.983195 5.98675L1.1873 5.2783L1.46944 4.59716L1.82607 3.95188L2.2527 3.3506L2.74398 2.80086L3.29371 2.30959L3.895 1.88295L4.54027 1.52632L5.22142 1.24418L5.92987 1.04008L6.65672 0.916583L7.39283 0.875244Z" stroke="#075AFD" stroke-width="1.17401" stroke-linecap="round" stroke-linejoin="round"/>
</svg>
