<svg width="24" height="31" viewBox="0 0 24 31" fill="none" xmlns="http://www.w3.org/2000/svg">
<path d="M21.1428 11.1803H15.4286V12.1967H21.1428C22.0879 12.1967 22.8571 12.8807 22.8571 13.7213V15.7673C22.3783 15.4446 21.7885 15.246 21.1428 15.246H2.85719C1.91207 15.246 1.14285 14.562 1.14285 13.7213C1.14285 12.8807 1.91207 12.1967 2.85719 12.1967H9.14293V11.1803H2.85719C1.28182 11.1803 0 12.3202 0 13.7213V28.459C0 29.86 1.2817 31 2.85719 31H21.1428C22.7182 31 24 29.8601 24 28.459V26.9343V19.8196V17.7868V13.7212C23.9999 12.3202 22.7182 11.1803 21.1428 11.1803ZM22.857 25.918H15.9999C14.4246 25.918 13.1427 24.7782 13.1427 23.377C13.1427 21.9758 14.4244 20.836 15.9999 20.836H22.857V25.918ZM22.857 19.8197H15.9999C13.7942 19.8197 11.9999 21.4159 11.9999 23.3771C11.9999 25.3383 13.7942 26.9345 15.9999 26.9345H22.857V28.459C22.857 29.2995 22.0879 29.9836 21.1427 29.9836H2.85707C1.91194 29.9836 1.14273 29.2996 1.14273 28.459V15.753C1.62047 16.0726 2.21415 16.2623 2.85707 16.2623H21.1427C22.0878 16.2623 22.857 16.9462 22.857 17.7869V19.8197Z" fill="black"/>
<path d="M21.1428 13.213H2.85718V14.2294H21.1428V13.213Z" fill="black"/>
<path d="M12.0001 13.7213C14.5248 13.7213 16.5715 11.9011 16.5715 9.65578C16.5715 7.41043 14.5248 5.59021 12.0001 5.59021C9.4754 5.59021 7.42871 7.41043 7.42871 9.65578C7.42871 11.9011 9.4754 13.7213 12.0001 13.7213Z" fill="#E8BC2A"/>
<path d="M12.5713 11.1803H11.4284C11.1136 11.1803 10.857 10.952 10.857 10.672H9.71411C9.71411 11.5126 10.4832 12.1967 11.4284 12.1967V12.7049H12.5713V12.1967C13.5164 12.1967 14.2856 11.5127 14.2856 10.672C14.2856 9.83136 13.5165 9.14737 12.5713 9.14737H11.4284C11.1136 9.14737 10.857 8.91916 10.857 8.63912C10.857 8.35908 11.1136 8.13109 11.4284 8.13109H12.5713C12.8862 8.13109 13.1428 8.3593 13.1428 8.63934H14.2856C14.2856 7.7988 13.5165 7.1147 12.5713 7.1147V6.60645H11.4284V7.1147C10.4833 7.1147 9.71411 7.79869 9.71411 8.63934C9.71411 9.47999 10.4832 10.164 11.4284 10.164H12.5713C12.8862 10.164 13.1428 10.3922 13.1428 10.6722C13.1428 10.9523 12.8862 11.1803 12.5713 11.1803Z" fill="black"/>
<path d="M14.2856 23.3769C14.2856 24.2175 15.0547 24.9016 16 24.9016C16.9452 24.9016 17.7143 24.2176 17.7143 23.3769C17.7143 22.5363 16.9452 21.8523 16 21.8523C15.0547 21.8523 14.2856 22.5364 14.2856 23.3769ZM16.5713 23.3769C16.5713 23.6574 16.3147 23.8852 15.9999 23.8852C15.685 23.8852 15.4284 23.6575 15.4284 23.3769C15.4284 23.0964 15.685 22.8687 15.9999 22.8687C16.3147 22.8687 16.5713 23.0965 16.5713 23.3769Z" fill="black"/>
<path d="M12.5713 0H11.4285V4.06557H12.5713V0Z" fill="black"/>
<path d="M16.5713 1.52472H15.4285V5.59029H16.5713V1.52472Z" fill="black"/>
<path d="M8.57156 2.54102H7.42871V5.59019H8.57156V2.54102Z" fill="black"/>
</svg>
