<svg width="268" height="282" viewBox="0 0 268 282" fill="none" xmlns="http://www.w3.org/2000/svg">
<g clip-path="url(#clip0_47_1714)">
<path d="M263.785 72.8736L267.047 70.5567M164.172 25.4073L164.39 26.7275M262.84 88.9172L264.004 88.244M180.046 37.228L181.227 37.8575M186.116 0.900391L182.128 1.24137M156.247 12.4763L154.279 8.98776" stroke="#FECAAE" stroke-width="0.85" stroke-linecap="round" stroke-linejoin="round"/>
<path d="M248.67 149.918C248.67 149.918 255.02 149.612 257.968 140.519C260.915 131.426 256.393 128.13 252.23 129.905C248.067 131.68 245.469 138.797 251.775 137.625C258.081 136.453 263.513 128.681 266.259 121.774C269.006 114.867 266.714 110.548 266.714 110.548M23.6676 34.5176C23.6676 34.5176 18.1836 56.4628 28.0409 62.2507C37.8981 68.0386 45.7699 61.2365 45.009 55.4923C44.248 49.7568 35.764 48.5852 34.487 58.2901C33.2188 67.9949 38.5541 74.6921 45.2626 74.596C51.9712 74.491 54.1578 71.8506 54.1578 71.8506" stroke="#1009C1" stroke-width="0.92" stroke-linecap="round" stroke-linejoin="round"/>
<path d="M211.243 45.5254L218.503 45.1407L211.69 48.769L214.506 57.7307L208.978 50.439L206.433 57.3373L205.899 49.4073L202.217 51.9515L205.383 46.9243L199.488 40.3494L206.888 43.8642L207.474 35.6544L209.835 43.5494L214.165 41.4511L211.252 45.5341L211.243 45.5254ZM42.9705 35.9429L35.7109 36.3276L42.5244 32.6992L39.7081 23.7375L45.2358 31.0293L47.781 24.131L48.3146 32.061L51.9968 29.5167L48.8306 34.544L54.7257 41.1188L47.3262 37.6041L46.7402 45.8139L44.3787 37.9189L40.0492 40.0172L42.9617 35.9342L42.9705 35.9429Z" stroke="#FFCD48" stroke-width="0.75" stroke-linecap="round" stroke-linejoin="round"/>
<path d="M130.157 17.9058H130.174L129.973 17.6872C129.903 17.6085 129.859 17.5648 129.859 17.5648L127.839 15.5277C127.716 15.3965 127.524 15.3528 127.358 15.3965C122.827 16.6643 118.69 16.7867 114.054 17.1277C111.553 17.1277 108.457 16.9878 106.043 17.6348C105.439 17.8009 104.827 17.9582 104.215 18.1069C103.935 18.1331 103.734 18.2468 103.611 18.4479C104.136 20.756 104.556 23.0642 104.879 25.3462C104.984 26.0893 105.308 27.3571 105.334 28.4063C105.334 28.5112 105.29 28.5811 105.186 28.6161L103.567 29.1494C103.445 29.1844 103.375 29.1494 103.34 29.027C102.054 24.6555 96.8676 23.9036 94.6198 27.9254C94.2612 28.5724 93.9376 29.3855 93.6489 30.356C93.6489 30.356 93.6315 30.4084 93.6052 30.4959C93.5615 30.6532 93.5178 30.8193 93.474 30.9855C93.474 30.9855 93.4915 31.003 93.5003 31.0117C93.2116 32.7253 93.1679 37.2106 100.672 37.3679L99.3604 49.5121L102.535 51.9165C102.535 51.9165 102.518 51.9165 102.5 51.9165L103.27 52.4848L103.681 52.817C103.987 53.0443 104.302 53.2629 104.608 53.4902L104.652 53.5252C108.842 56.559 113.066 59.4967 117.317 62.3382C117.78 62.4781 118.148 62.3382 118.428 61.9098L124.515 49.5995L125.713 47.6061C125.101 47.44 123.885 44.9395 123.474 44.275C117.78 45.4466 111.369 44.9482 105.728 43.6717C105.588 43.6367 105.518 43.558 105.509 43.4182L104.661 30.8806C104.652 30.7319 104.722 30.6532 104.871 30.6445L108.535 30.356C108.702 30.3472 108.78 30.4172 108.798 30.5833C109.016 33.827 111.518 35.9603 114.492 36.8958C120.623 39.0903 125.74 37.7963 129.824 33.0139C131.39 30.4434 132.098 27.7505 131.967 24.9527H131.985C132.256 20.9222 130.821 18.6839 130.165 17.8883L130.157 17.9058Z" fill="#FF7D90"/>
<path d="M244.962 177.913C244.962 177.913 244.945 177.852 244.919 177.834C244.953 176.689 244.892 172.624 244.919 171.408C243.895 156.108 221.968 157.245 224.775 176.733V179.198L224.793 188.562C224.767 188.825 244.814 188.527 244.892 188.615C245.155 188.632 244.875 178.001 244.962 177.913Z" fill="#1009C1"/>
<path d="M242.487 169.45C242.154 170.001 241.507 170.219 241.043 169.939C240.58 169.66 240.475 168.986 240.807 168.436C241.14 167.885 241.787 167.666 242.25 167.946C242.714 168.226 242.819 168.899 242.487 169.45Z" fill="#1009C1"/>
<path d="M241.525 172.082C241.963 172.51 242.006 173.174 241.613 173.568C241.228 173.961 240.554 173.944 240.117 173.515C239.68 173.087 239.636 172.423 240.03 172.029C240.414 171.636 241.088 171.653 241.525 172.082Z" fill="#1009C1"/>
<path d="M54.4124 147.505C54.6573 147.645 54.771 147.819 54.7535 148.029C54.6135 149.699 54.6398 151.151 54.8409 152.383L54.666 152.497L49.7068 152.418C49.5931 152.418 49.5319 152.48 49.5319 152.593C49.4181 157.245 49.3919 161.896 49.4531 166.556C49.5406 173.515 49.4356 180.475 49.4531 187.434L49.4356 188.519C49.4356 188.641 49.3744 188.694 49.252 188.694L44.9662 188.632C44.9837 167.999 44.9924 147.374 44.9662 126.749C44.9662 125.122 44.8787 123.968 44.6951 123.295C43.9953 120.637 41.9399 118.6 39.1935 118.25C36.4647 117.909 33.5346 119.684 32.6512 122.36C32.4325 123.015 32.3188 124.169 32.3013 125.813C32.2489 130.246 32.2751 134.67 32.3801 139.103L28.0068 139.059C28.0156 134.801 27.9981 130.561 27.9369 126.346C27.9106 124.03 28.0418 122.333 28.3479 121.258C31.243 111.037 46.5406 111.719 49.077 121.879C49.3132 122.832 49.4356 124.353 49.4356 126.443C49.4444 133.402 49.4444 140.362 49.4356 147.321C49.4356 147.444 49.4969 147.496 49.6106 147.496H54.4036L54.4124 147.505Z" fill="#17175F"/>
<path d="M28.0149 139.068L32.3881 139.111L33.3327 139.225L33.4202 145.363L25.8633 145.572L24.4638 145.441C24.3239 145.424 24.2539 145.354 24.2539 145.214V139.557C24.2539 139.26 24.4026 139.111 24.7 139.103L28.0236 139.068H28.0149Z" fill="#304BC1"/>
<path d="M33.332 139.225H36.2533C36.3496 139.216 36.4195 139.286 36.4195 139.382V145.197C36.4195 145.31 36.3583 145.371 36.2446 145.38L35.0463 145.476L33.4195 145.363L33.332 139.225Z" fill="#273192"/>
<path d="M61.2168 152.418L54.8407 152.383C54.6483 151.151 54.6133 149.699 54.7532 148.029C54.7707 147.811 54.657 147.636 54.4121 147.505C54.4296 147.452 54.4558 147.408 54.5083 147.356C54.5695 147.286 54.6045 147.199 54.6045 147.102L54.4821 140.003C54.4821 139.767 54.6658 139.566 54.9019 139.566L60.3597 139.522C60.8058 139.522 61.1644 139.872 61.1731 140.318L61.2168 152.41V152.418Z" fill="#273192"/>
<path d="M33.421 145.363L35.0478 145.476L35.0303 154.115C35.0303 154.228 34.9778 154.29 34.8641 154.29H26.1264C25.9603 154.29 25.8203 154.15 25.8203 153.983L25.864 145.581L33.421 145.372V145.363Z" fill="#4360D5"/>
<path d="M54.8406 152.383L61.2168 152.418L61.2518 154.971C59.0302 154.805 56.8086 154.831 54.5957 155.059L54.6657 152.506L54.8406 152.392V152.383Z" fill="#E0486B"/>
<path d="M61.2505 154.971C61.443 157.166 61.7666 159.369 62.2039 161.581C62.2302 161.73 62.1427 161.87 61.994 161.905C61.9765 161.905 61.959 161.905 61.9415 161.905H54.1397C53.921 161.905 53.7461 161.73 53.7461 161.52C53.7461 161.485 53.7461 161.441 53.7636 161.406C54.0172 160.506 54.4021 159.806 54.4196 158.836C54.4371 157.568 54.4983 156.309 54.5858 155.05C56.7986 154.823 59.0202 154.797 61.2418 154.963L61.2505 154.971Z" fill="#FF7A62"/>
<path d="M74.8252 185.555V188.388C74.8164 188.527 74.7027 188.641 74.5628 188.641H52.0932C51.9707 188.641 51.9007 188.58 51.8657 188.466C51.822 188.326 51.8133 188.178 51.8308 188.038L51.7695 169.686C51.7695 169.502 51.857 169.415 52.0407 169.415L74.5365 169.529C74.6502 169.529 74.7027 169.59 74.7115 169.704L74.8339 185.546L74.8252 185.555ZM69.3849 173.314C69.3849 172.702 68.8863 172.204 68.2741 172.204C67.6618 172.204 67.1633 172.702 67.1633 173.314C67.1633 173.926 67.6618 174.425 68.2741 174.425C68.8863 174.425 69.3849 173.926 69.3849 173.314ZM64.5831 174.311C65.0117 173.953 65.0292 173.279 64.6268 172.807C64.2245 172.344 63.5598 172.257 63.1399 172.624C62.7113 172.982 62.6938 173.655 63.0962 174.128C63.4985 174.591 64.1633 174.678 64.5831 174.311Z" fill="#FF7A62"/>
<path d="M68.2651 172.204C68.8774 172.204 69.3759 172.702 69.3759 173.314C69.3759 173.926 68.8774 174.425 68.2651 174.425C67.6528 174.425 67.1543 173.926 67.1543 173.314C67.1543 172.702 67.6528 172.204 68.2651 172.204Z" fill="#FEFEFE"/>
<path d="M64.6184 172.807C65.0207 173.271 64.9945 173.944 64.5747 174.311C64.1461 174.67 63.4814 174.591 63.0878 174.128C62.6854 173.664 62.7117 172.991 63.1315 172.624C63.5601 172.265 64.2248 172.344 64.6184 172.807Z" fill="#FEFEFE"/>
<path d="M42.0873 188.554C41.9561 188.597 41.58 188.746 41.4576 188.746C35.5975 188.702 29.7548 188.65 23.9297 188.597C24.0084 183.71 24.0259 178.875 23.9734 174.075C23.9559 172.082 27.9093 172.711 29.1426 172.702C29.2738 172.702 29.3875 172.746 29.4749 172.833C31.128 174.425 31.0318 176.514 34.0581 176.479C36.647 176.453 39.2272 176.453 41.8074 176.488C41.9386 176.488 41.9999 176.549 41.9999 176.68L42.0873 188.545V188.554ZM38.9736 179.837C39.1135 179.373 38.7899 178.857 38.2476 178.7C37.7053 178.534 37.1456 178.779 37.0056 179.242C36.8657 179.706 37.1893 180.221 37.7316 180.379C38.2739 180.545 38.8336 180.3 38.9736 179.837Z" fill="#4360D5"/>
<path d="M38.2482 178.691C38.7905 178.858 39.1229 179.365 38.9742 179.828C38.8343 180.291 38.2745 180.536 37.7322 180.37C37.1899 180.204 36.8576 179.697 37.0062 179.234C37.1462 178.77 37.706 178.525 38.2482 178.691Z" fill="#789AFF"/>
<path d="M222.754 166.18C222.728 166.014 222.824 165.332 222.658 165.218C222.334 163.487 221.311 162.009 221.311 162.009C219.483 159.072 216.728 157.393 213.92 154.901C213.186 154.254 213.457 151.911 213.457 151.072L204.29 151.483C204.29 152.401 204.527 154.385 203.862 154.971C200.984 157.507 198.492 159.229 196.838 162.009C196.008 163.137 195.675 164.283 195.553 165.087C195.334 167.596 195.509 174.897 195.457 177.493C195.684 181.393 195.352 184.488 195.544 188.055C195.754 188.641 196.524 188.073 196.847 188.702H222.649C223.191 188.763 222.579 166.363 222.763 166.18H222.754Z" fill="#00E2B8"/>
<path d="M204.343 149.481C207.431 149.288 210.466 149.341 213.466 149.629V151.072L204.291 151.483L204.343 149.472V149.481Z" fill="#273192"/>
<path d="M199.735 175.832C200.353 175.832 200.854 175.331 200.854 174.713C200.854 174.095 200.353 173.594 199.735 173.594C199.116 173.594 198.615 174.095 198.615 174.713C198.615 175.331 199.116 175.832 199.735 175.832Z" fill="#FEFEFE"/>
<path d="M200.949 179.653C200.984 180.554 200.512 181.297 199.899 181.314C199.287 181.332 198.771 180.624 198.736 179.723C198.701 178.822 199.174 178.079 199.786 178.062C200.398 178.044 200.914 178.753 200.949 179.653Z" fill="#FEFEFE"/>
<path d="M215.163 142.486C215.163 140.134 212.093 138.228 208.305 138.228C205.664 138.228 203.372 139.155 202.227 140.51C197.862 140.309 192.527 140.117 193.113 145.922C193.121 146.01 193.174 146.062 193.261 146.062H194.958C195.089 146.062 195.168 145.992 195.177 145.861C195.544 142.609 198.754 142.687 201.501 143.011C201.842 144.733 203.827 146.132 206.46 146.587C206.46 146.858 206.434 147.129 206.355 147.417H204.072C203.985 147.417 203.923 147.452 203.88 147.531C203.25 148.501 203.407 149.148 204.343 149.481C207.431 149.288 210.466 149.341 213.466 149.629C214.052 149.201 214.174 148.536 213.833 147.653C213.781 147.522 213.684 147.461 213.544 147.461L210.553 147.417L210.387 146.543C213.151 145.992 215.163 144.383 215.163 142.486Z" fill="#FF7A62"/>
<path d="M156.57 177.441L195.457 177.502C195.676 181.384 195.361 184.462 195.536 188.003C195.544 188.204 195.719 188.361 195.921 188.353C195.938 188.353 195.956 188.353 195.973 188.353C196.305 188.283 196.594 188.405 196.839 188.711L156.833 188.729L156.57 177.45V177.441Z" fill="#273192"/>
<path d="M163.602 95.8594L164.53 96.4714C164.696 96.6463 164.801 96.7599 164.844 97.0222C165.649 102.356 169.865 107.374 175.83 105.827C179.433 104.891 182.329 101.333 183.649 97.8353C183.676 97.7566 183.78 97.7304 183.955 97.7566C183.868 100.24 183.562 102.487 183.046 104.506C180.553 114.167 170.687 116.231 163.051 111.029C161.223 106.404 161.171 101.77 162.885 97.1184C163.051 96.6637 163.296 96.2441 163.611 95.8594H163.602Z" fill="#075AFD"/>
<path d="M261.773 187.321H5.82514C2.60644 187.321 0 189.926 0 193.144V202.551C0 212.256 7.87181 220.125 17.5804 220.125H250.026C259.735 220.125 267.606 212.256 267.606 202.551V193.144C267.606 189.926 265 187.321 261.781 187.321H261.773Z" fill="#FECAAE"/>
<path d="M133.584 12.8522C135.22 15.1692 133.742 18.4041 130.751 18.1506C130.646 18.1418 130.541 18.1068 130.453 18.0544L130.173 17.897L127.829 15.5364C127.698 15.4052 127.514 15.3615 127.348 15.4052C122.818 16.673 118.68 16.7954 114.045 17.1364C111.543 17.1364 108.447 16.9965 106.033 17.6435C105.421 17.8096 104.817 17.967 104.205 18.1156C105.683 17.2937 107.161 16.5156 108.666 15.7812C109.567 15.3353 109.995 13.8664 108.64 13.6129C109.838 12.9309 111.089 12.3714 112.4 11.9255C112.514 11.8905 112.593 11.9255 112.645 12.0304C112.943 12.6774 112.121 13.132 111.596 13.3856C111.5 13.438 111.386 13.4555 111.281 13.4555C111.027 13.438 109.54 13.6828 109.899 14.2249C109.96 14.3211 110.048 14.3473 110.161 14.3036C111.368 13.814 112.505 13.5692 113.564 13.5604C120.124 13.5167 127.095 13.7703 133.584 12.8522Z" fill="#17175F"/>
<path d="M124.522 17.7922C126.814 14.7671 129.604 20.4501 124.723 18.5004C124.487 18.4042 124.374 18.1332 124.461 17.8971C124.479 17.8621 124.496 17.8271 124.522 17.7922Z" fill="#17175F"/>
<path d="M103.61 18.4565C104.135 20.7647 104.555 23.0729 104.879 25.3548C104.984 26.098 105.307 27.3658 105.333 28.4149C105.333 28.5199 105.29 28.5898 105.185 28.6248L103.567 29.1581C103.444 29.1931 103.374 29.1581 103.339 29.0357C102.054 24.6641 96.8669 23.9122 94.6191 27.9341C94.1817 28.7209 93.7969 29.7439 93.4733 31.0029C91.759 31.8073 90.482 31.6062 89.6336 30.3996C87.7619 27.733 91.794 24.4718 93.7882 23.4401C97.0331 21.7702 100.304 20.109 103.619 18.4565H103.61Z" fill="#17175F"/>
<path d="M113.8 18.5789L114.43 18.78C114.535 18.815 114.605 18.8849 114.64 18.9898C115.051 20.2488 112.672 21.5865 112.086 22.1723C111.701 22.1723 111.36 22.0499 111.089 21.7876C109.899 20.6947 112.628 18.3516 113.8 18.5789Z" fill="#17175F"/>
<path d="M114.229 30.1987C116.547 31.4577 119.022 32.1397 121.655 32.2446C122.608 32.2796 123.22 33.5648 122.039 33.7834C120.5 34.0719 118.978 33.9495 117.482 33.4249C117.185 33.3287 110.748 30.8195 112.969 29.8927C113.363 29.7266 113.835 30.0501 114.229 30.1987Z" fill="#17175F"/>
<path d="M114.474 36.9046C120.606 39.0991 125.722 37.8052 129.807 33.0227C131.066 33.5648 131.801 34.4303 132.002 35.6369C132.816 40.6117 127.367 43.3745 123.474 44.2925C117.781 45.4641 111.369 44.9658 105.728 43.6893C105.588 43.6543 105.518 43.5756 105.509 43.4357L104.661 30.8981C104.652 30.7495 104.722 30.6708 104.871 30.662L108.536 30.3735C108.702 30.3648 108.78 30.4347 108.798 30.6008C109.017 33.8445 111.518 35.9779 114.492 36.9134L114.474 36.9046Z" fill="#17175F"/>
<path d="M93.9375 32.3843L94.3485 33.9143C94.0074 33.4684 93.8675 32.9526 93.9375 32.3843Z" fill="#FECDC8"/>
<path d="M125.714 47.6235L126.142 47.7371C127.804 49.8005 129.632 51.7065 131.626 53.4464L135.361 57.6606C135.501 57.8267 135.483 58.0715 135.326 58.2114C135.273 58.2551 135.212 58.2901 135.142 58.2988L133.131 58.6835C128.206 59.6453 123.3 60.7207 118.428 61.9185L124.515 49.6082L125.714 47.6147V47.6235Z" fill="#17175F"/>
<path d="M126.141 47.7285C127.295 48.5154 128.546 49.0225 129.893 49.2498L131.625 53.4378C129.63 51.6979 127.802 49.7919 126.141 47.7285Z" fill="#E0486B"/>
<path d="M102.491 51.9339L103.261 52.5022C103.261 52.5022 103.182 52.5109 103.147 52.5197C103.103 52.5371 103.068 52.5721 103.059 52.6246L101.118 66.2726C101.083 66.5261 101.258 66.7622 101.511 66.7971C101.564 66.7971 101.616 66.7971 101.677 66.7971L117.062 63.501C122.275 83.9511 125.896 105.695 126.675 126.854L120.998 126.95C119.555 126.224 118.208 125.35 116.975 124.318C115.226 110.486 111.911 97.057 107.013 84.0385C103.261 74.0539 98.3101 64.7163 91.5753 56.4016C91.0767 55.7896 90.552 55.3524 89.9922 55.0901C90.4557 54.6093 91.6628 54.2858 91.8552 53.9185C91.9077 53.8224 91.9776 53.7349 92.0738 53.6825L98.9923 49.512C99.0972 49.4421 99.2372 49.4508 99.3421 49.5295L102.482 51.9251L102.491 51.9339Z" fill="#075AFD"/>
<path d="M103.26 52.5022L103.671 52.8344L102.569 64.9961C102.552 65.1622 102.631 65.2234 102.788 65.1972L117.307 62.3557C117.771 62.4956 118.138 62.3557 118.418 61.9273C123.298 60.7295 128.196 59.6541 133.121 58.6923L133.261 59.5841C128.301 60.9393 123.325 62.1284 118.322 63.1338C117.841 63.0551 117.412 63.1775 117.036 63.501L101.651 66.7972C101.397 66.8496 101.152 66.6922 101.1 66.4387C101.091 66.3862 101.082 66.3338 101.1 66.2726L103.042 52.6246C103.05 52.5721 103.077 52.5372 103.129 52.5197C103.164 52.5109 103.208 52.5022 103.243 52.5022H103.26Z" fill="#0225FD"/>
<path d="M103.671 52.8345C108.175 56.1219 112.724 59.2956 117.307 62.3557L102.788 65.1972C102.622 65.2322 102.552 65.1622 102.569 64.9961L103.671 52.8345Z" fill="#17175F"/>
<path d="M118.339 63.1251C118.794 64.2705 119.048 65.6169 119.293 66.5874C124.305 86.3731 127.27 106.456 128.197 126.854H126.675C125.888 105.678 122.275 83.9337 117.062 63.4924C117.439 63.1689 117.867 63.0465 118.348 63.1251H118.339Z" fill="#FEFEFE"/>
<path d="M173.634 71.7021L173.547 75.4704L173.372 75.7239C173.048 75.4791 172.786 75.5666 172.593 75.9775C171.544 78.2944 170.468 80.6201 169.375 82.937C169.331 83.0419 169.261 83.1206 169.165 83.1905L168.369 83.7763C166.751 81.9578 164.984 80.2529 163.068 78.6616C164.275 75.9513 166.541 71.9906 169.777 71.5622C170.573 71.4573 173.713 71.0376 173.625 71.7021H173.634Z" fill="#F2F4FE"/>
<path d="M173.371 75.7327L173.328 77.1141C172.733 78.4605 172.059 79.9294 171.307 81.5119C168.963 86.443 166.435 91.3653 164.529 96.4801L163.602 95.868C163.951 92.0998 166.61 87.5971 168.473 84.3271C168.605 84.1086 168.561 83.9424 168.368 83.7851L169.164 83.1993C169.252 83.1293 169.322 83.0507 169.374 82.9457C170.468 80.6288 171.543 78.3031 172.593 75.9862C172.785 75.5666 173.039 75.4791 173.371 75.7327Z" fill="#FEFEFE"/>
<path d="M170.434 83.3392C166.901 73.7568 143.889 57.7219 143.889 57.7219L151.787 103.081C151.787 103.081 151.717 103.125 151.682 103.151L151.586 103.308L151.516 103.466L151.673 103.483C151.778 103.492 151.848 103.545 151.892 103.641C152.128 104.165 152.451 104.585 152.854 104.908C156.134 107.147 159.536 109.193 163.061 111.029C162.956 110.758 162.851 110.487 162.764 110.224C160.446 102.399 170.452 83.3392 170.452 83.3392H170.434Z" fill="#0225FD"/>
<path d="M137.958 84.126L138.246 85.4112C138.176 85.6648 137.993 85.8571 137.704 85.8746C134.695 86.0582 131.669 86.3467 128.616 86.7577C128.336 86.7926 128.083 86.6003 128.039 86.3205C128.039 86.2943 128.039 86.2768 128.039 86.2506V85.5161C128.039 85.35 128.118 85.2626 128.284 85.2451L137.966 84.126H137.958Z" fill="#FEFEFE"/>
<path d="M57.1064 84.1697C46.6107 83.6189 36.0187 83.9249 25.5055 84.0123C23.625 84.1173 23.7649 86.5304 25.6892 86.5216C35.7651 86.4779 45.841 86.5216 55.9169 86.6528C57.43 86.7839 57.9023 85.1927 57.1064 84.1785V84.1697Z" stroke="#FFCD48" stroke-linecap="round" stroke-linejoin="round"/>
<path d="M18.6834 92.6857C18.2198 93.56 17.3452 93.1928 17.0391 92.5195C17.074 90.8496 17.4064 89.2234 18.0187 87.6409C18.0624 87.5185 18.1499 87.4398 18.2636 87.3961C19.1644 87.0551 19.7505 87.7196 19.6368 88.6201C19.4443 90.1064 19.1295 91.4616 18.6834 92.6857Z" fill="#1009C1" stroke="#1009C1" stroke-linecap="round" stroke-linejoin="round"/>
<path d="M16.2871 101.659L16.4405 97.2467C16.4578 96.7487 16.8739 96.3607 17.3722 96.378L17.4508 96.3807C17.9491 96.398 18.3372 96.8139 18.3199 97.312L18.1665 101.725C18.1492 102.223 17.7331 102.611 17.2349 102.593L17.1562 102.591C16.658 102.573 16.2698 102.157 16.2871 101.659Z" fill="#1009C1" stroke="#1009C1" stroke-linecap="round" stroke-linejoin="round"/>
<path d="M109.286 115.295C104.327 109.988 99.3852 104.672 94.4522 99.3478C93.1489 97.9402 91.6096 96.62 89.5367 97.3806C88.6358 97.7129 87.9885 98.1762 87.6037 98.7795C87.49 99.3915 87.2626 99.82 86.9215 100.047L84.7961 103.247C84.7261 103.352 84.7086 103.457 84.7524 103.579L90.0002 127.903L111.07 126.941C110.668 122.98 110.082 119.098 109.295 115.295H109.286Z" fill="#0225FD"/>
<path d="M29.4053 98.0712C30.4461 98.1062 31.277 98.6395 31.2508 99.2603C31.2246 99.881 30.3674 100.344 29.3266 100.309C28.2857 100.274 27.4548 99.7411 27.4811 99.1204C27.5073 98.4996 28.3645 98.0362 29.4053 98.0712Z" fill="#1009C1" stroke="#1009C1" stroke-linecap="round" stroke-linejoin="round"/>
<path d="M46.47 98.3772H35.1696C34.6865 98.3772 34.2949 98.7686 34.2949 99.2515V99.2952C34.2949 99.7781 34.6865 100.17 35.1696 100.17H46.47C46.953 100.17 47.3446 99.7781 47.3446 99.2952V99.2515C47.3446 98.7686 46.953 98.3772 46.47 98.3772Z" fill="#1009C1" stroke="#1009C1" stroke-linecap="round" stroke-linejoin="round"/>
<path d="M22.2775 102.102C23.2046 102.058 23.9918 102.67 24.0268 103.457C24.0618 104.244 23.3358 104.926 22.4087 104.961C21.4816 105.005 20.6944 104.393 20.6594 103.606C20.6244 102.819 21.3504 102.137 22.2775 102.102Z" fill="#1009C1" stroke="#1009C1" stroke-linecap="round" stroke-linejoin="round"/>
<path d="M54.0697 114.499C52.8889 110.705 52.9764 106.945 54.3409 103.23C57.5158 102.994 60.2884 104.532 60.9444 107.828C61.303 109.638 60.9794 111.492 59.5362 112.733C57.8569 114.176 56.4662 115.295 54.061 114.499H54.0697Z" fill="#075AFD"/>
<path d="M153.221 112.139C152.993 110.137 152.862 108.397 152.827 106.919C152.827 106.543 152.827 106.159 152.818 105.774C152.818 105.468 152.827 105.179 152.845 104.9C152.827 104.891 152.818 104.873 152.801 104.856C152.495 95.4833 150.168 83.3478 147.964 73.7392L148.095 73.5818L146.311 66.8671C144.938 61.359 143.888 57.7218 143.888 57.7218C142.358 55.2563 129.894 49.2498 129.894 49.2498L133.279 59.5754C128.32 60.9305 123.343 62.1196 118.34 63.1251C118.795 64.2704 119.048 65.6168 119.293 66.5873C124.305 86.373 127.27 106.456 128.197 126.854L140.967 126.679C140.967 126.679 140.967 126.661 140.967 126.652C143.705 126.652 146.792 126.679 146.792 126.679C149.154 126.749 151.576 126.696 154.043 126.521C153.71 118.845 153.431 114.045 153.221 112.13V112.139Z" fill="#075AFD"/>
<path d="M18.0793 188.711C17.4846 188.868 16.8811 188.868 16.2776 188.711C16.3475 161.258 16.0152 129.73 16.2688 108.03C16.2688 107.697 16.4962 107.409 16.9423 107.147C17.0385 107.094 17.1347 107.077 17.2397 107.103C17.7995 107.243 18.0793 107.645 18.0793 108.301C18.0793 135.098 18.0793 161.905 18.0793 188.711Z" fill="#8EA7FC"/>
<path d="M154.043 126.53C151.577 126.705 149.162 126.749 146.792 126.687C144.85 126.845 142.909 126.845 140.967 126.687L128.197 126.862H126.675L120.999 126.95L117.553 127.028C117.422 127.028 117.343 126.967 117.325 126.836L116.976 124.327C115.226 110.495 111.911 97.0658 107.013 84.0473C103.261 74.0627 98.3106 64.725 91.5759 56.4103C91.0773 55.7983 90.5525 55.3612 89.9928 55.0989L89.8965 55.1688L86.293 57.4245L85.5496 57.9404C94.3572 69.6037 100.55 82.5522 104.792 96.9084L107.818 108.126L109.287 115.313C110.066 119.116 110.661 122.998 111.063 126.958L101.993 126.976C102.745 134.224 99.5964 142.136 92.5992 145.162L91.777 145.494C91.2872 145.774 90.8149 145.931 90.3601 145.975C88.5059 147.111 86.3542 147.854 84.2201 148.37L83.4941 151.256C84.9985 150.88 86.4942 150.521 87.9811 150.189C94.9257 148.615 100.139 144.838 105.142 139.872C105.247 139.767 105.369 139.723 105.518 139.723L107.075 139.776C107.215 139.776 107.258 139.846 107.215 139.986C104.774 146.316 101.284 151.028 94.7158 153.258C91.5146 154.342 88.0423 153.992 86.5466 157.463C85.9781 158.775 85.6195 160.217 85.4708 161.791C85.4621 161.922 85.5233 162.036 85.6283 162.097C86.0481 162.333 86.4942 162.412 86.9665 162.342C87.1064 162.324 87.1764 162.246 87.1851 162.106C87.3688 159.168 88.086 156.326 91.3572 155.828C100.497 154.429 106.174 148.484 108.929 140.029C108.964 139.916 109.051 139.855 109.174 139.855L128.853 139.706L130.244 139.75C137.635 139.339 145.13 139.575 152.539 139.435C153.256 139.426 153.964 139.496 154.664 139.662L154.043 126.556V126.53Z" fill="#17175F"/>
<path d="M229.017 87.8505C229.481 87.9904 229.936 87.9642 230.373 87.7544C230.504 87.6932 230.565 87.5882 230.574 87.4571C230.828 83.0681 230.766 78.1544 230.592 74.5698C230.592 74.4474 230.539 74.3512 230.443 74.2725C229.157 73.1971 228.396 75.2342 228.387 76.1697C228.352 80.349 227.871 84.9303 228.79 87.632C228.825 87.7456 228.903 87.8156 229.017 87.8505Z" fill="#FFCD48"/>
<path d="M222.973 76.5195H202.384C201.781 76.5195 201.291 77.0088 201.291 77.6124V77.9447C201.291 78.5482 201.781 79.0375 202.384 79.0375H222.973C223.577 79.0375 224.067 78.5482 224.067 77.9447V77.6124C224.067 77.0088 223.577 76.5195 222.973 76.5195Z" fill="#FFCD48"/>
<path d="M202.287 84.1435C200.407 83.8463 201.098 89.0746 201.072 89.914C200.993 93.3325 200.984 96.7511 201.028 100.17C201.045 101.56 201.325 102.469 202.996 101.944C203.101 101.91 203.171 101.822 203.188 101.717C203.319 100.694 203.381 99.6363 203.381 98.5522C203.389 94.4604 203.372 90.3686 203.319 86.2856C203.302 85.3151 203.477 84.3359 202.287 84.1523V84.1435Z" fill="#FFCD48"/>
<path d="M229.629 90.8406H229.506C228.898 90.8406 228.404 91.3338 228.404 91.9422V95.2471C228.404 95.8555 228.898 96.3487 229.506 96.3487H229.629C230.237 96.3487 230.731 95.8555 230.731 95.2471V91.9422C230.731 91.3338 230.237 90.8406 229.629 90.8406Z" fill="#FFCD48"/>
<path d="M217.161 101.289L215.615 101.364C214.964 101.396 214.461 101.95 214.493 102.601L214.501 102.767C214.533 103.418 215.087 103.92 215.738 103.888L217.285 103.812C217.936 103.781 218.438 103.227 218.406 102.576L218.398 102.41C218.366 101.759 217.813 101.257 217.161 101.289Z" fill="#FFCD48"/>
<path d="M116.975 124.318C118.217 125.35 119.555 126.224 120.998 126.95L117.552 127.028C117.421 127.028 117.342 126.967 117.324 126.836L116.975 124.327V124.318Z" fill="#E0486B"/>
<path d="M103.06 129.328C102.964 130.832 102.667 132.51 102.098 134.373C102.098 134.373 97.6898 151.509 81.2727 149.026C81.2727 149.026 71.1268 147.89 74.1443 134.303C74.1443 134.18 74.1006 134.084 74.0132 134.006L72.43 132.607C68.1705 129.634 64.1209 126.39 60.29 122.876C57.7098 120.506 55.3307 117.813 54.0625 114.5C56.4678 115.295 57.8497 114.185 59.5378 112.734C60.9809 111.492 61.3046 109.639 60.946 107.829C60.29 104.524 57.5173 102.994 54.3424 103.23C54.9896 101.053 55.8643 98.9632 56.9751 96.9785C63.7098 100.957 70.2347 105.258 76.5496 109.866C76.5496 109.866 77.7216 118.801 80.8529 124.038C80.8529 124.038 100.865 114.744 103.069 129.337L103.06 129.328Z" fill="#FECDC8"/>
<path d="M141.944 129.553L141.848 129.555C141.36 129.565 140.973 129.969 140.983 130.457L141.047 133.516C141.058 134.004 141.461 134.391 141.949 134.38L142.045 134.378C142.533 134.368 142.92 133.965 142.91 133.477L142.846 130.418C142.836 129.93 142.432 129.543 141.944 129.553Z" fill="#FEFEFE"/>
<path d="M112.729 130.749L112.608 130.762C112.118 130.815 111.764 131.255 111.817 131.745L112.098 134.344C112.151 134.834 112.591 135.188 113.081 135.135L113.203 135.121C113.693 135.068 114.047 134.628 113.994 134.139L113.712 131.54C113.659 131.05 113.219 130.696 112.729 130.749Z" fill="#FEFEFE"/>
<path d="M216.746 123.758H170.442C170.048 123.75 169.725 123.426 169.725 123.033C169.725 123.015 169.725 122.998 169.725 122.98C169.777 122.106 170.293 121.931 171.107 121.931C186.212 121.949 201.308 121.94 216.413 121.931C224.792 121.861 233.163 121.87 241.542 121.966C242.285 121.966 242.722 122.167 242.635 122.998C242.591 123.426 242.233 123.75 241.804 123.75H216.754L216.746 123.758Z" fill="#FECAAE"/>
<path d="M172.226 127.474C173.494 127.483 174.518 127.964 174.509 128.541C174.509 129.118 173.477 129.581 172.209 129.573C170.94 129.564 169.917 129.083 169.926 128.506C169.926 127.929 170.958 127.465 172.226 127.474Z" fill="#FECAAE"/>
<path d="M180.562 128.551L180.56 128.63C180.553 129.103 180.931 129.492 181.404 129.5L184.718 129.552C185.192 129.559 185.581 129.182 185.589 128.709L185.59 128.63C185.598 128.157 185.22 127.767 184.747 127.76L181.432 127.708C180.959 127.7 180.569 128.078 180.562 128.551Z" fill="#FECAAE"/>
<path d="M191.817 127.806C192.613 127.806 193.269 128.252 193.269 128.829C193.269 129.406 192.631 129.879 191.835 129.879C191.039 129.879 190.383 129.433 190.383 128.856C190.383 128.279 191.021 127.806 191.817 127.806Z" fill="#FECAAE"/>
<path d="M211.103 127.736C212.004 127.728 212.748 128.209 212.756 128.803C212.756 129.406 212.031 129.896 211.13 129.905C210.229 129.913 209.485 129.433 209.477 128.838C209.477 128.235 210.203 127.745 211.103 127.736Z" fill="#FECAAE"/>
<path d="M198.608 128.845L198.61 128.766C198.62 128.285 199.022 127.9 199.503 127.91L203.613 127.996C204.093 128.006 204.479 128.408 204.469 128.889L204.467 128.967C204.457 129.448 204.055 129.833 203.574 129.823L199.464 129.737C198.983 129.727 198.598 129.325 198.608 128.845Z" fill="#FECAAE"/>
<path d="M217.445 128.866L217.445 128.936C217.444 129.428 217.843 129.828 218.335 129.829L222.455 129.836C222.948 129.837 223.348 129.439 223.349 128.946L223.349 128.876C223.35 128.384 222.951 127.984 222.458 127.983L218.339 127.976C217.846 127.975 217.446 128.373 217.445 128.866Z" fill="#FECAAE"/>
<path d="M229.47 129.092L229.471 129.013C229.476 128.532 229.865 128.152 230.346 128.157L233.687 128.192C234.168 128.197 234.549 128.585 234.543 129.066L234.543 129.145C234.538 129.626 234.149 130.006 233.668 130.001L230.327 129.966C229.846 129.961 229.465 129.573 229.47 129.092Z" fill="#FECAAE"/>
<path d="M240.606 128.069C241.375 128.034 242.023 128.462 242.058 129.039C242.084 129.616 241.48 130.106 240.711 130.15C239.941 130.185 239.294 129.756 239.259 129.179C239.232 128.602 239.836 128.113 240.606 128.069Z" fill="#FECAAE"/>
<path d="M129.063 131.007C129.894 131.059 130.541 131.54 130.506 132.091C130.471 132.642 129.772 133.044 128.941 132.991C128.11 132.939 127.462 132.458 127.497 131.907C127.532 131.356 128.232 130.954 129.063 131.007Z" fill="#FEFEFE"/>
<path d="M128.634 134.74C129.185 134.74 129.631 135.186 129.631 135.736C129.631 136.287 129.185 136.733 128.634 136.733C128.083 136.733 127.637 136.287 127.637 135.736C127.637 135.186 128.083 134.74 128.634 134.74Z" fill="#FEFEFE"/>
<path d="M235.201 139.251C235.766 139.251 236.224 138.793 236.224 138.228C236.224 137.663 235.766 137.205 235.201 137.205C234.636 137.205 234.178 137.663 234.178 138.228C234.178 138.793 234.636 139.251 235.201 139.251Z" fill="#8EA7FC"/>
<path d="M154.664 139.636L155.477 156.842C154.847 158.215 154.148 159.422 153.387 160.453C147.474 168.444 136.725 171.505 127.523 173.778C127.716 173.271 127.794 172.868 127.759 172.562C127.733 172.283 127.48 172.082 127.2 172.108C127.13 172.108 127.06 172.134 126.999 172.169C126.159 172.641 125.695 173.358 125.617 174.32C121.06 175.386 118.646 179.128 118.331 183.631L116.013 191.028L107.17 218.709L106.243 221.637L97.4093 248.68C92.66 248.741 87.6045 248.461 83.1876 248.426C79.0155 248.391 74.8435 248.278 70.6714 248.094C69.7005 248.05 68.7384 248.077 67.7676 248.181C67.9862 239.307 68.546 230.451 69.4556 221.629L69.858 218.857C71.1962 209.476 72.8055 200.121 74.6773 190.792L75.9018 185.056L83.4675 151.255C84.9718 150.88 86.4675 150.521 87.9544 150.189C94.8991 148.615 100.112 144.838 105.115 139.872C105.22 139.767 105.342 139.723 105.491 139.723L107.048 139.776C107.188 139.776 107.232 139.846 107.188 139.986C104.748 146.316 101.258 151.028 94.6892 153.258C91.488 154.342 88.0156 153.992 86.52 157.463C85.9514 158.775 85.5928 160.217 85.4442 161.791C85.4354 161.922 85.4966 162.036 85.6016 162.097C86.0214 162.333 86.4675 162.412 86.9398 162.342C87.0797 162.324 87.1497 162.246 87.1585 162.106C87.3421 159.168 88.0593 156.326 91.3305 155.828C100.471 154.429 106.147 148.484 108.902 140.029C108.937 139.916 109.025 139.854 109.147 139.854L128.827 139.706L129.211 158.425L128.993 163.487C128.993 163.601 129.036 163.679 129.141 163.732C131.599 164.886 130.663 158.451 130.532 157.551C130.628 157.393 130.672 157.201 130.672 156.991C130.637 151.693 130.488 145.948 130.208 139.75C137.599 139.339 145.095 139.575 152.503 139.435C153.22 139.426 153.929 139.496 154.629 139.662L154.664 139.636ZM82.689 174.468L82.0593 178.132C82.0418 178.237 82.1118 178.333 82.2167 178.35C84.001 178.56 85.7765 178.788 87.5346 179.032C91.3393 179.557 94.8728 179.059 96.3685 175.08C97.6017 171.776 98.074 168.243 98.73 164.737C98.7562 164.624 98.7038 164.562 98.5901 164.554L94.7679 164.248C91.6191 163.758 88.4792 163.452 85.3479 163.312C85.173 163.312 85.0768 163.382 85.0331 163.548L82.6803 174.468H82.689ZM128.678 165.953L127.313 170.167C127.243 170.368 127.357 170.595 127.567 170.656L127.917 170.77C128.415 170.936 129.054 170.333 129.343 169.424L129.885 167.745C130.174 166.836 130.016 165.979 129.518 165.813L129.159 165.699C128.958 165.638 128.73 165.752 128.669 165.953H128.678ZM83.275 180.938C83.3712 180.492 83.0914 180.047 82.6453 179.95L82.5753 179.933C82.1293 179.837 81.6832 180.116 81.587 180.562L80.31 186.28C80.2138 186.726 80.4937 187.172 80.9397 187.268L81.0097 187.286C81.4558 187.382 81.9018 187.102 81.9981 186.656L83.275 180.938ZM80.5899 191.395C81.1671 191.325 81.5782 190.739 81.4995 190.092C81.4208 189.445 80.8873 188.973 80.31 189.043C79.7327 189.113 79.3216 189.699 79.4004 190.346C79.4791 190.993 80.0126 191.465 80.5899 191.395ZM80.4237 195.679C80.5024 195.207 80.1963 194.761 79.724 194.682H79.654C79.1817 194.586 78.7356 194.901 78.6569 195.373L77.5374 201.694C77.4586 202.167 77.7648 202.612 78.2371 202.691H78.307C78.7794 202.787 79.2254 202.473 79.3041 202L80.4237 195.679ZM78.1059 207.019C78.6657 206.879 78.9805 206.241 78.8231 205.585C78.6657 204.929 78.0796 204.518 77.5199 204.65C76.9601 204.79 76.6452 205.428 76.8027 206.083C76.9601 206.739 77.5461 207.15 78.1059 207.019ZM78.0796 210.77C78.1234 210.394 77.8522 210.062 77.4761 210.018L77.0651 209.974C76.689 209.93 76.3566 210.201 76.3129 210.577L75.6131 216.934C75.5694 217.31 75.8405 217.642 76.2166 217.686L76.6277 217.729C77.0038 217.773 77.3362 217.502 77.3799 217.126L78.0796 210.77ZM76.0942 221.865C76.6365 221.795 77.0126 221.218 76.9251 220.562C76.8464 219.915 76.3391 219.443 75.7968 219.513C75.2545 219.583 74.8784 220.16 74.9659 220.816C75.0446 221.463 75.5519 221.935 76.0942 221.865ZM76.2516 224.584L75.1846 224.514C74.9397 224.496 74.7298 224.68 74.721 224.925L74.4324 229.428C74.3362 230.861 74.5111 232.042 74.8172 232.068L75.6569 232.12C75.963 232.129 76.2866 230.984 76.3741 229.55L76.6627 225.047C76.6802 224.802 76.4965 224.601 76.2516 224.584ZM75.1933 236.116C75.7356 236.037 76.1029 235.469 76.0155 234.84C75.928 234.21 75.412 233.764 74.8697 233.843C74.3274 233.922 73.9601 234.49 74.0475 235.119C74.135 235.749 74.651 236.195 75.1933 236.116ZM75.5869 246.223C75.5869 243.845 75.8231 241.511 75.7006 239.141C75.6919 238.984 75.6131 238.905 75.4557 238.896L74.2662 238.844C74.1175 238.844 74.0475 238.905 74.0388 239.054L73.6889 247.176C73.6889 247.342 73.7851 247.491 73.9426 247.543C74.9834 247.867 75.5782 247.272 75.5869 246.223Z" fill="#00E2B8"/>
<path d="M128.854 139.68L130.244 139.723C130.524 145.922 130.673 151.666 130.708 156.965C130.708 157.175 130.664 157.367 130.568 157.524L129.247 158.399L128.862 139.68H128.854Z" fill="#FEFEFE"/>
<path d="M232.035 143.124C232.591 143.124 233.041 142.674 233.041 142.119C233.041 141.564 232.591 141.114 232.035 141.114C231.48 141.114 231.029 141.564 231.029 142.119C231.029 142.674 231.48 143.124 232.035 143.124Z" fill="#8EA7FC"/>
<path d="M155.477 156.842L156.046 167.159V168.27L156.571 177.432L156.833 188.711L157.848 218.814L157.935 221.576L158.696 249.17L130.515 249.528L125.241 221.34L124.69 218.604L119.626 190.862L118.34 183.614C118.655 179.111 121.069 175.369 125.626 174.302L127.524 173.76C136.725 171.487 147.474 168.418 153.387 160.436C154.148 159.404 154.848 158.198 155.477 156.825V156.842Z" fill="#0BD29B"/>
<path d="M130.567 157.516C130.698 158.416 131.634 164.851 129.176 163.697C129.071 163.653 129.027 163.566 129.027 163.452L129.246 158.39L130.567 157.516Z" fill="#FEFEFE"/>
<path d="M168.581 161.164C168.589 160.536 167.731 160.015 166.664 160C165.596 159.985 164.724 160.482 164.715 161.11C164.706 161.738 165.565 162.258 166.632 162.273C167.699 162.288 168.572 161.791 168.581 161.164Z" fill="#8EA7FC"/>
<path d="M185.111 160.042H173.084C172.577 160.042 172.166 160.453 172.166 160.961V160.995C172.166 161.502 172.577 161.914 173.084 161.914H185.111C185.618 161.914 186.029 161.502 186.029 160.995V160.961C186.029 160.453 185.618 160.042 185.111 160.042Z" fill="#8EA7FC"/>
<path d="M94.777 164.239C94.2085 167.518 93.5525 173.498 90.7274 174.652C88.8557 175.421 84.9198 174.696 82.6895 174.468L85.0423 163.548C85.0772 163.382 85.1822 163.303 85.3571 163.312C88.4796 163.443 91.6196 163.758 94.777 164.248V164.239Z" fill="#17175F"/>
<path d="M94.7767 164.239L98.5989 164.545C98.7126 164.554 98.765 164.615 98.7388 164.729C98.0828 168.235 97.6105 171.767 96.3773 175.072C94.8904 179.05 91.3481 179.548 87.5434 179.024C85.7766 178.779 84.0098 178.551 82.2255 178.342C82.1206 178.333 82.0506 178.237 82.0593 178.132L82.6891 174.468C84.9194 174.705 88.8553 175.421 90.7271 174.652C93.5522 173.498 94.2082 167.518 94.7767 164.239Z" fill="#FF7A62"/>
<path d="M128.677 165.953C128.738 165.752 128.966 165.638 129.167 165.699L129.526 165.813C130.024 165.97 130.182 166.836 129.893 167.745L129.351 169.424C129.062 170.333 128.423 170.936 127.925 170.779L127.575 170.665C127.365 170.604 127.251 170.377 127.321 170.176L128.686 165.961L128.677 165.953Z" fill="#FEFEFE"/>
<path d="M127.523 173.778L125.625 174.32C125.704 173.367 126.159 172.65 127.007 172.169C127.252 172.029 127.567 172.117 127.698 172.361C127.733 172.423 127.75 172.493 127.759 172.562C127.794 172.869 127.715 173.271 127.523 173.778Z" fill="#FEFEFE"/>
<path d="M80.322 186.287L81.6014 180.57C81.7007 180.126 82.1498 179.842 82.5936 179.941L82.6619 179.956C83.1058 180.055 83.3926 180.496 83.2914 180.948L82.012 186.665C81.9128 187.108 81.4636 187.393 81.0198 187.294L80.9515 187.278C80.5076 187.179 80.2208 186.739 80.322 186.287Z" fill="#FEFEFE"/>
<path d="M81.4996 190.092C81.5783 190.739 81.176 191.325 80.59 191.395C80.0127 191.465 79.4792 190.993 79.4005 190.346C79.3217 189.699 79.7241 189.113 80.3101 189.043C80.8874 188.973 81.4209 189.445 81.4996 190.092Z" fill="#FEFEFE"/>
<path d="M78.6492 195.382L77.5333 201.702C77.4502 202.173 77.7646 202.622 78.2355 202.705L78.3044 202.717C78.7754 202.8 79.2245 202.486 79.3077 202.015L80.4236 195.695C80.5067 195.225 80.1923 194.776 79.7214 194.693L79.6524 194.68C79.1815 194.597 78.7324 194.912 78.6492 195.382Z" fill="#FEFEFE"/>
<path d="M78.8238 205.585C78.9813 206.241 78.6664 206.879 78.1066 207.019C77.5468 207.159 76.9696 206.739 76.8034 206.084C76.6372 205.428 76.9608 204.79 77.5206 204.65C78.0804 204.51 78.6576 204.929 78.8238 205.585Z" fill="#FEFEFE"/>
<path d="M76.3233 210.57L75.6217 216.923C75.5804 217.297 75.8505 217.634 76.225 217.676L76.6249 217.72C76.9994 217.761 77.3365 217.491 77.3779 217.117L78.0795 210.764C78.1208 210.39 77.8507 210.053 77.4762 210.012L77.0763 209.967C76.7018 209.926 76.3647 210.196 76.3233 210.57Z" fill="#FEFEFE"/>
<path d="M25.6883 218.691L45.4116 218.726C45.3154 219.749 45.3416 220.763 45.499 221.786C45.4728 221.795 45.4466 221.804 45.4116 221.812C37.8984 221.655 30.3939 221.655 22.8895 221.821L21.9186 218.997C21.8749 218.866 21.9186 218.796 22.0586 218.796L25.6883 218.691Z" fill="#EA7F54"/>
<path d="M124.697 218.621L125.248 221.358C124.479 221.541 123.831 221.629 123.307 221.629C117.63 221.62 111.945 221.629 106.26 221.637L107.187 218.709L124.697 218.621Z" fill="#EA7F54"/>
<path d="M45.4116 218.717L69.8842 218.84L69.4819 221.611L45.4991 221.769C45.3417 220.754 45.3154 219.731 45.4116 218.708V218.717Z" fill="#FFDECF"/>
<path d="M221.522 218.691L246.213 218.849L245.338 221.725C237.335 221.541 229.332 221.506 221.347 221.629C200.215 221.69 179.075 221.515 157.935 221.594L157.848 218.831L221.513 218.691H221.522Z" fill="#FFDECF"/>
<path d="M76.9347 220.562C77.0134 221.209 76.646 221.795 76.1037 221.865C75.5615 221.935 75.0542 221.463 74.9755 220.816C74.8967 220.169 75.2641 219.583 75.8064 219.513C76.3486 219.443 76.8559 219.915 76.9347 220.562Z" fill="#FEFEFE"/>
<path d="M130.786 251.084C130.514 250.595 130.427 250.088 130.532 249.545L125.258 221.358C124.488 221.541 123.841 221.629 123.316 221.629C117.64 221.62 111.954 221.629 106.269 221.637L97.4353 248.68L98.6424 248.759C98.7561 248.759 98.826 248.829 98.8523 248.942C98.9835 249.467 98.931 249.983 98.7123 250.49C97.9601 253.585 97.0855 256.645 96.1059 259.679C96.0621 259.801 95.9747 259.862 95.8522 259.862L91.7851 259.757C90.9542 263.998 91.7327 268.763 95.1 271.665C96.6132 272.968 99.1322 273.755 101.048 274.804C102.849 275.792 104.275 277.077 105.325 278.651H134.634C134.109 272.723 133.383 266.734 132.439 260.675L130.786 251.084Z" fill="#FECAAE"/>
<path d="M221.346 221.629C200.214 221.69 179.074 221.515 157.934 221.594L158.695 249.187L160.916 249.204C161.039 249.204 161.126 249.266 161.17 249.379C161.336 249.851 161.336 250.332 161.17 250.831L160.978 259.416C160.978 259.548 160.908 259.618 160.776 259.626L156.98 259.792L157.077 261.34L157.138 262.144C157.636 267.346 160.147 270.835 164.669 272.618C168.185 274 172.313 274.14 175.462 276.404C176.24 276.964 176.966 277.724 177.648 278.686C188.73 278.695 199.821 278.686 210.902 278.651C212.617 278.651 214.322 278.581 216.01 278.459C220.742 277.646 225.063 275.941 228.973 273.362C235.707 268.911 239.818 261.611 240.614 253.585C241.725 242.367 243.299 231.753 245.328 221.742C237.325 221.559 229.322 221.524 221.337 221.646L221.346 221.629Z" fill="#FECAAE"/>
<path d="M45.4111 221.803C45.5248 229.559 46.1021 238.275 48.2012 246.092C50.7902 255.727 56.2217 262.774 65.6241 266.769C66.1927 267.014 66.7612 267.268 67.3297 267.539L67.4871 259.224L67.7845 249.633C67.6358 249.152 67.6358 248.662 67.7845 248.173C68.0032 239.298 68.5629 230.442 69.4726 221.62L45.4898 221.777C45.4898 221.777 45.4373 221.795 45.4023 221.803H45.4111Z" fill="#FECAAE"/>
<path d="M45.4117 221.804C45.5254 229.559 46.1027 238.276 48.2018 246.092C50.7908 255.727 56.2223 262.774 65.6248 266.769C66.1933 267.014 66.7618 267.268 67.3303 267.539L67.1466 278.887C62.3536 279.097 57.5605 278.931 52.7762 278.389C39.6303 275.888 29.9567 267.591 28.19 253.891C26.7993 243.102 25.3386 232.47 22.8809 221.821C30.3853 221.655 37.8985 221.655 45.403 221.812L45.4117 221.804ZM36.3679 228.964C36.3854 228.405 35.8256 227.941 35.1259 227.924C34.4262 227.906 33.8489 228.343 33.8314 228.903C33.8139 229.462 34.3737 229.926 35.0734 229.943C35.7731 229.961 36.3504 229.524 36.3679 228.964ZM41.677 230.442C41.677 229.882 41.2222 229.428 40.6624 229.428C40.1026 229.428 39.6478 229.882 39.6478 230.442C39.6478 231.001 40.1026 231.456 40.6624 231.456C41.2222 231.456 41.677 231.001 41.677 230.442ZM35.8081 233.615C35.8081 233.038 35.3358 232.566 34.7585 232.566C34.1813 232.566 33.709 233.038 33.709 233.615C33.709 234.193 34.1813 234.665 34.7585 234.665C35.3358 234.665 35.8081 234.193 35.8081 233.615Z" fill="#FFA075"/>
<path d="M76.252 224.584C76.4969 224.602 76.6718 224.811 76.663 225.047L76.3744 229.55C76.2782 230.984 75.9633 232.129 75.6572 232.121L74.8175 232.068C74.5114 232.042 74.3365 230.862 74.4327 229.428L74.7213 224.925C74.7388 224.68 74.94 224.497 75.1849 224.514L76.252 224.584Z" fill="#FEFEFE"/>
<path d="M233.128 226.49C233.679 226.49 234.125 226.936 234.125 227.487C234.125 228.038 233.679 228.483 233.128 228.483C232.577 228.483 232.131 228.038 232.131 227.487C232.131 226.936 232.577 226.49 233.128 226.49Z" fill="#4360D5"/>
<path d="M35.1266 227.915C35.8263 227.933 36.3774 228.405 36.3686 228.955C36.3511 229.515 35.7738 229.952 35.0741 229.935C34.3744 229.917 33.8234 229.445 33.8321 228.894C33.8496 228.335 34.4269 227.898 35.1266 227.915Z" fill="#4360D5"/>
<path d="M40.663 229.428C41.2228 229.428 41.6776 229.882 41.6776 230.442C41.6776 231.001 41.2228 231.456 40.663 231.456C40.1033 231.456 39.6484 231.001 39.6484 230.442C39.6484 229.882 40.1033 229.428 40.663 229.428Z" fill="#4360D5"/>
<path d="M228.588 230.617C229.165 230.424 229.768 230.695 229.943 231.211C230.11 231.727 229.786 232.304 229.2 232.488C228.623 232.68 228.019 232.409 227.844 231.893C227.678 231.377 228.002 230.8 228.588 230.617Z" fill="#4360D5"/>
<path d="M237.037 230.783C237.614 230.862 238.026 231.351 237.956 231.876C237.886 232.4 237.361 232.768 236.784 232.689C236.206 232.61 235.795 232.121 235.865 231.596C235.935 231.071 236.46 230.704 237.037 230.783Z" fill="#4360D5"/>
<path d="M34.7664 232.566C35.3436 232.566 35.8159 233.039 35.8159 233.616C35.8159 234.193 35.3436 234.665 34.7664 234.665C34.1891 234.665 33.7168 234.193 33.7168 233.616C33.7168 233.039 34.1891 232.566 34.7664 232.566Z" fill="#4360D5"/>
<path d="M76.0238 234.848C76.1113 235.478 75.7439 236.046 75.2016 236.125C74.6594 236.204 74.1433 235.758 74.0558 235.128C73.9684 234.499 74.3357 233.93 74.878 233.852C75.4203 233.773 75.9363 234.219 76.0238 234.848Z" fill="#FEFEFE"/>
<path d="M232.419 234.56C232.996 234.56 233.468 235.032 233.468 235.609C233.468 236.186 232.996 236.658 232.419 236.658C231.841 236.658 231.369 236.186 231.369 235.609C231.369 235.032 231.841 234.56 232.419 234.56Z" fill="#4360D5"/>
<path d="M75.6997 239.15C75.8309 241.519 75.586 243.854 75.586 246.232C75.586 247.281 74.9825 247.884 73.9417 247.552C73.7842 247.5 73.6793 247.351 73.688 247.185L74.0379 239.063C74.0379 238.914 74.1166 238.844 74.2653 238.853L75.4548 238.905C75.6122 238.905 75.6909 238.993 75.6997 239.15Z" fill="#FEFEFE"/>
<path d="M97.4359 248.671L98.6429 248.75C98.7566 248.75 98.8266 248.82 98.8528 248.933C98.984 249.458 98.9315 249.974 98.7129 250.481C88.4271 249.913 78.0975 249.93 67.8029 249.624C67.6542 249.143 67.6542 248.654 67.8029 248.164C68.765 248.059 69.7359 248.033 70.7067 248.077C74.8788 248.26 79.0509 248.374 83.2229 248.409C87.6399 248.444 92.6953 248.724 97.4447 248.662L97.4359 248.671Z" fill="#FF7A62"/>
<path d="M158.704 249.187L160.925 249.204C161.048 249.204 161.135 249.266 161.179 249.379C161.345 249.851 161.345 250.332 161.179 250.831C151.051 251.032 140.913 251.119 130.785 251.084C130.514 250.595 130.426 250.088 130.531 249.545L158.712 249.187H158.704Z" fill="#FF7A62"/>
<path d="M67.7935 249.633C78.088 249.939 88.4176 249.922 98.7034 250.49C97.9512 253.585 97.0766 256.645 96.097 259.679C96.0533 259.801 95.9658 259.862 95.8433 259.862L91.7762 259.758L67.4961 259.224L67.7935 249.633Z" fill="#075AFD"/>
<path d="M161.18 250.831L160.988 259.417C160.988 259.548 160.918 259.618 160.786 259.626L156.99 259.792C148.795 259.924 140.608 260.221 132.43 260.676L130.777 251.084C140.914 251.111 151.043 251.032 161.171 250.831H161.18Z" fill="#075AFD"/>
<path d="M67.4959 259.224L91.776 259.757C90.9451 263.998 91.7235 268.763 95.0909 271.666C96.6041 272.968 99.123 273.755 101.039 274.804C102.84 275.792 104.266 277.077 105.316 278.651L105.569 279.858L67.2597 279.639C67.1723 279.429 67.1373 279.176 67.1548 278.879L67.3384 267.53L67.4959 259.215V259.224Z" fill="#0225FD"/>
<path d="M156.991 259.792L157.087 261.34L157.148 262.144C149.005 264.19 142.865 270.616 143.355 279.342C143.355 279.403 143.381 279.447 143.434 279.473L143.53 279.534C143.53 279.534 143.565 279.578 143.53 279.604C143.486 279.639 143.451 279.701 143.442 279.779L134.871 279.893L134.617 278.669C134.092 272.732 133.366 266.734 132.422 260.684C140.6 260.23 148.786 259.932 156.982 259.801L156.991 259.792Z" fill="#0225FD"/>
<path d="M157.148 262.135C157.646 267.338 160.156 270.826 164.678 272.61C168.194 273.991 172.323 274.131 175.472 276.395C176.25 276.955 176.976 277.716 177.658 278.677L177.798 279.788L143.451 279.77C143.46 279.692 143.486 279.639 143.538 279.595C143.573 279.569 143.573 279.552 143.538 279.526L143.442 279.464C143.39 279.438 143.363 279.394 143.363 279.333C142.874 270.608 149.014 264.181 157.156 262.135H157.148Z" fill="#1009C1" stroke="#1009C1" stroke-width="0.77" stroke-linecap="round" stroke-linejoin="round"/>
<path d="M191.075 265.615C191.609 265.467 192.151 265.747 192.282 266.236C192.414 266.726 192.09 267.242 191.556 267.39C191.023 267.539 190.481 267.259 190.349 266.769C190.218 266.28 190.542 265.764 191.075 265.615Z" fill="#4360D5"/>
<path d="M195.789 270.407C196.335 270.407 196.777 269.964 196.777 269.419C196.777 268.873 196.335 268.431 195.789 268.431C195.243 268.431 194.801 268.873 194.801 269.419C194.801 269.964 195.243 270.407 195.789 270.407Z" fill="#4360D5"/>
<path d="M189.596 271.902C190.165 271.631 190.829 271.823 191.074 272.339C191.319 272.855 191.066 273.493 190.497 273.773C189.929 274.044 189.264 273.851 189.019 273.336C188.774 272.82 189.028 272.181 189.596 271.902Z" fill="#4360D5"/>
<path d="M105.569 279.858C106.006 280.417 106.129 281.073 105.945 281.825C105.919 281.939 105.849 282 105.726 282L67.4518 281.746C67.3381 281.746 67.2507 281.694 67.1982 281.598C66.8483 281.029 66.8658 280.374 67.2594 279.639L105.569 279.858Z" fill="#FF7A62"/>
<path d="M143.451 279.771L177.798 279.788C178.139 280.391 178.2 281.038 177.982 281.738C177.947 281.851 177.842 281.93 177.728 281.93L135.124 281.965C134.993 281.965 134.914 281.904 134.87 281.781C134.634 281.126 134.634 280.496 134.87 279.893L143.442 279.779L143.451 279.771Z" fill="#FF7A62"/>
<path d="M61.7841 93.5337C60.9882 92.9479 60.1136 92.6069 59.1602 92.5107L58.1806 94.2506L56.9648 96.9785C63.6996 100.957 70.2245 105.249 76.5394 109.866L79.968 104.113C74.0029 100.432 67.9416 96.9085 61.7754 93.5424L61.7841 93.5337Z" fill="#075AFD"/>
<path d="M107.818 108.108L104.792 96.8909C100.55 82.5347 94.357 69.5861 85.5493 57.9229C78.2373 62.7316 72.0011 68.7206 66.8494 75.8987L65.7211 77.4549L62.4937 82.7707L61.5403 84.3445C61.4791 84.4407 61.4966 84.5194 61.5753 84.5806L60.8494 85.997C60.5695 85.8483 60.2896 85.6997 60.0097 85.5598C59.7473 85.4286 59.5461 85.4898 59.4062 85.7434L56.7998 90.6483C56.7473 90.7445 56.7823 90.8669 56.8785 90.9281L58.0942 91.6537C58.5403 91.8286 58.8989 92.1171 59.1526 92.5106C60.0972 92.6067 60.9718 92.9477 61.7765 93.5335C67.9427 96.8996 74.004 100.423 79.9691 104.104C80.8 104.891 81.7184 105.547 82.7242 106.08L84.7272 107.251L89.3628 97.4504C89.424 97.4242 89.4765 97.398 89.5465 97.3805C91.6194 96.6198 93.1588 97.9488 94.462 99.3477C99.395 104.672 104.337 109.988 109.296 115.295L107.827 108.108H107.818Z" fill="#075AFD"/>
<path d="M146.529 115.295C146.853 102.067 145.322 89.6429 143.319 79.3785L143.372 79.3173C142.217 73.6605 140.897 68.0387 139.418 62.4518L136.279 52.7995C136.156 52.4934 135.99 52.2749 135.771 52.1525C134.258 51.2519 132.299 50.2902 129.902 49.2498L133.139 58.6836L133.278 59.5754C134.538 64.113 135.588 68.7206 136.418 73.4157C138.999 90.3773 140.599 114.01 140.669 115.059C140.835 118.932 140.932 122.805 140.967 126.687C142.908 126.845 144.85 126.845 146.792 126.687C146.765 122.893 146.678 119.09 146.521 115.295H146.529Z" fill="#17175F"/>
<path d="M136.908 9.16269C136.532 9.03154 136.138 8.97034 135.736 8.97908C133.007 9.03154 130.278 9.01406 127.549 8.91788C127.435 8.91788 127.348 8.86542 127.287 8.76925C126.849 8.07854 126.333 7.47527 125.721 6.94194L124.505 5.72665C121.96 3.41847 119.065 1.8622 115.82 1.04909C108.858 -0.690787 102.464 1.36384 98.0647 5.71791C91.1725 10.6665 91.5486 24.9615 91.5486 24.9615L112.732 13.6042C113.012 13.5692 113.283 13.5517 113.555 13.5517C120.114 13.508 127.085 13.7616 133.575 12.8435C134.87 11.8643 136.007 10.719 136.978 9.39001C137.056 9.27635 137.039 9.19766 136.899 9.15394L136.908 9.16269Z" fill="#1009C1" stroke="#1009C1" stroke-linecap="round" stroke-linejoin="round"/>
<path d="M116.38 24.0783C116.38 25.1362 115.881 25.9931 115.278 25.9931C114.674 25.9931 114.176 25.1362 114.176 24.0783C114.176 23.0204 114.674 22.1636 115.278 22.1636C115.881 22.1636 116.38 23.0204 116.38 24.0783Z" fill="#17175F"/>
<path d="M126.771 23.4313C126.771 24.4893 126.272 25.3461 125.668 25.3461C125.065 25.3461 124.566 24.4893 124.566 23.4313C124.566 22.3734 125.065 21.5166 125.668 21.5166C126.272 21.5166 126.771 22.3734 126.771 23.4313Z" fill="#17175F"/>
<path d="M140.502 48.0171C143.756 50.4127 147.805 50.9985 149.485 51.1384C149.957 51.1734 150.42 51.1733 150.858 51.1559C156.053 50.9897 161.126 54.5045 161.179 54.5394L206.774 88.1829C207.045 88.384 207.202 88.4977 207.299 88.5588C209.73 90.3424 212.197 89.4332 213.57 87.7807C213.64 87.702 213.701 87.6146 213.762 87.5272C215.092 85.7086 215.372 82.9108 212.826 81.0398L166.89 47.5012C165.359 45.639 163.759 42.5264 162.692 40.2532C162.044 38.8805 161.301 37.5866 160.47 36.4062L140.511 48.0258L140.502 48.0171ZM208.173 86.207C207.334 85.5075 207.22 84.266 207.92 83.4266C208.619 82.5873 209.861 82.4736 210.701 83.1731C211.541 83.8725 211.654 85.1141 210.955 85.9534C210.255 86.7927 209.013 86.9064 208.173 86.207Z" fill="#17175F"/>
<path d="M140.502 48.0171L160.462 36.3975C159.526 35.0598 158.476 33.8445 157.322 32.7516C150.884 26.7014 145.129 27.9342 145.068 27.9429L144.858 27.9954L150.184 36.7647L147.779 39.3352L142.435 39.1166L137.765 30.8369L137.616 31.0118C134.826 34.3691 135.98 40.5767 136.033 40.8478C136.645 44.2139 138.403 46.4871 140.485 48.0171H140.502Z" fill="#304BC1"/>
<path d="M168.054 54.1548C168.701 53.2805 169.934 53.0882 170.818 53.7351L205.384 79.1513C206.258 79.7983 206.451 81.0311 205.803 81.9142C205.156 82.7885 203.923 82.9808 203.039 82.3338L168.473 56.9176C167.599 56.2706 167.406 55.0379 168.054 54.1548Z" fill="#304BC1"/>
<path d="M156.709 40.8216C157.129 40.5593 157.689 40.6905 157.951 41.1101L159.972 44.3451C160.234 44.7647 160.103 45.3243 159.683 45.5866C159.263 45.8489 158.703 45.7177 158.441 45.2981L156.421 42.0631C156.158 41.6434 156.289 41.0839 156.709 40.8216Z" fill="#304BC1"/>
<path d="M154.139 42.4217C154.559 42.1594 155.118 42.2905 155.381 42.7102L157.401 45.9452C157.664 46.3648 157.532 46.9244 157.113 47.1867C156.693 47.449 156.133 47.3178 155.871 46.8982L153.85 43.6632C153.588 43.2435 153.719 42.684 154.139 42.4217Z" fill="#304BC1"/>
<path d="M151.567 44.0303C151.986 43.768 152.546 43.8992 152.809 44.3189L154.829 47.5538C155.091 47.9735 154.96 48.533 154.54 48.7953C154.121 49.0576 153.561 48.9265 153.298 48.5068L151.278 45.2719C151.016 44.8522 151.147 44.2926 151.567 44.0303Z" fill="#304BC1"/>
<path d="M191.041 62.4082C190.262 51.6892 181.254 50.2641 176.198 50.3165C174.003 50.3428 171.939 51.3832 170.653 53.158C164.084 62.2421 170.618 68.2312 173.041 69.9973L166.315 92.1086C165.685 93.5512 165.081 95.0025 164.539 96.4714C164.705 96.6462 164.81 96.7599 164.854 97.0222C165.659 102.355 169.874 107.374 175.839 105.826C179.443 104.891 182.338 101.333 183.659 97.8353C183.685 97.7566 183.79 97.7304 183.965 97.7566L184.612 86.4693L184.682 85.1053L184.927 77.5251V75.724L185.163 72.2268C191.163 72.2268 191.058 62.3995 191.058 62.3995L191.041 62.4082Z" fill="#FECDC8"/>
<path fill-rule="evenodd" clip-rule="evenodd" d="M125.869 26.4305C127.26 26.3343 128.415 26.5616 128.441 26.9463C128.467 27.331 127.365 27.7157 125.974 27.8119C124.584 27.9081 123.429 27.6807 123.403 27.296C123.377 26.9113 124.479 26.5266 125.869 26.4305Z" fill="#FF5767"/>
<path fill-rule="evenodd" clip-rule="evenodd" d="M115.225 27.1473C116.615 27.0511 117.77 27.2784 117.796 27.6631C117.822 28.0478 116.72 28.4325 115.33 28.5287C113.939 28.6249 112.785 28.3975 112.758 28.0128C112.732 27.6281 113.834 27.2434 115.225 27.1473Z" fill="#FF5767"/>
</g>
<defs>
<clipPath id="clip0_47_1714">
<rect width="268" height="282" fill="white"/>
</clipPath>
</defs>
</svg>
