<svg xmlns="http://www.w3.org/2000/svg" width="311" height="556" viewBox="0 0 311 556">
  <g id="_3" data-name="3" transform="translate(0 0)">
    <g id="text" transform="translate(82.012 435.947)">
      <g id="Group_375" data-name="Group 375" transform="translate(1.442)">
        <path id="Path_2420" data-name="Path 2420" d="M594.687,361.725V368.9h-25.8q-10.781,0-10.782-12.565h7.179q0,5.389,3.6,5.39H578.2V361.7h2.711q3.572,0,3.573-5.361V339.9h7.207v16.432a19.9,19.9,0,0,1-.662,5.39Zm-13.923-3.374H569.032V354.2h1.584a7.5,7.5,0,0,1,.461-2.71,7.287,7.287,0,0,1,9.311-4.294l.2.086.174.059-1.5,3.862-.287-.115a3.125,3.125,0,0,0-4.007,1.846,3.515,3.515,0,0,0-.174,1.266h5.968Z" transform="translate(-558.106 -338.146)" fill="#02aaf1"/>
        <path id="Path_2421" data-name="Path 2421" d="M586.138,348.2h7.177v8.994q0,12.565-10.78,12.565h-5.765v-7.175h5.765q3.6,0,3.6-5.39Zm-3.112-2.018a3.608,3.608,0,0,1-2.538-6.14,3.656,3.656,0,0,1,5.1,0,3.62,3.62,0,0,1,0,5.073A3.5,3.5,0,0,1,583.026,346.181Zm10.78-6.081a3.452,3.452,0,0,1,1.037,2.538,3.506,3.506,0,0,1-1.037,2.534,3.6,3.6,0,0,1-6.14-2.534,3.588,3.588,0,0,1,6.14-2.538Z" transform="translate(-540.308 -339.004)" fill="#02aaf1"/>
        <path id="Path_2422" data-name="Path 2422" d="M605.721,343.726v20.35a11.069,11.069,0,0,1-11.067,11.1,10.634,10.634,0,0,1-7.842-3.257l-.144-.145-.115-.115,5.247-4.929.086.115A3.774,3.774,0,0,0,594.654,368a3.681,3.681,0,0,0,2.737-1.153,3.769,3.769,0,0,0,1.153-2.766v-20.35Z" transform="translate(-530.98 -334.501)" fill="#02aaf1"/>
        <path id="Path_2423" data-name="Path 2423" d="M610.654,361.725V368.9h-2.682q-10.781,0-10.78-12.565V339.9h7.177v16.432q0,5.389,3.6,5.39Z" transform="translate(-520.835 -338.146)" fill="#02aaf1"/>
        <path id="Path_2424" data-name="Path 2424" d="M626.777,358.066v7.2H624.07a10.565,10.565,0,0,1-7.177-2.278,10.643,10.643,0,0,1-7.179,2.278H603.95v-7.2h5.763q3.575,0,3.575-5.361v-8.994h7.177v9.051q.029,5.3,3.6,5.3ZM610.2,367.75a3.414,3.414,0,0,1,2.538,1.067,3.587,3.587,0,0,1-5.073,5.073,3.6,3.6,0,0,1,2.536-6.14Zm8.215.059a3.5,3.5,0,0,1,2.567,1.067,3.621,3.621,0,0,1,0,5.073,3.561,3.561,0,0,1-2.567,1.037,3.567,3.567,0,0,1-2.506-6.111A3.366,3.366,0,0,1,618.418,367.808Z" transform="translate(-514.39 -334.516)" fill="#02aaf1"/>
        <path id="Path_2425" data-name="Path 2425" d="M655.974,343.711v8.994q0,12.565-10.78,12.565h-29.6V358.1h6.257q3.6,0,3.6-5.39v-8.994h7.177v8.994a19.821,19.821,0,0,1-.662,5.39h2.508q3.572,0,3.575-5.39v-8.994h7.175v8.994a20.691,20.691,0,0,1-.633,5.39h.606q3.6,0,3.6-5.39v-8.994Z" transform="translate(-503.291 -334.516)" fill="#02aaf1"/>
      </g>
      <g id="Group_376" data-name="Group 376" transform="translate(59.811 43.889)">
        <path id="Path_2426" data-name="Path 2426" d="M619.21,373.049v4.695h-6.146v-6.316a1.169,1.169,0,1,0-2.338,0v4.581q0,8.223-7.055,8.221h-8.637q-7.051,0-7.05-8.221v-5.882h4.694v5.882q0,3.528,2.356,3.526h8.637q2.359,0,2.358-3.526v-4.581q0-5.867,5.865-5.865t5.864,5.865v1.621Zm-21.4,12.087a2.261,2.261,0,0,1,1.661.678,2.359,2.359,0,0,1-1.661,4.019,2.362,2.362,0,0,1-1.659-4.019A2.3,2.3,0,0,1,597.806,385.136Zm5.394.037a2.348,2.348,0,0,1,1.66,4,2.348,2.348,0,1,1-3.321-3.319A2.261,2.261,0,0,1,603.2,385.173Z" transform="translate(-587.984 -357.567)" fill="#e8bc05"/>
        <path id="Path_2427" data-name="Path 2427" d="M621.892,381.646H603.939v-4.694h3.884a7.272,7.272,0,0,1-.451-2.565,7.251,7.251,0,0,1,14.5-.076h.02Zm-4.716-4.694v-2.565a2.534,2.534,0,0,0-4.356-1.792,2.411,2.411,0,0,0-.754,1.792,2.465,2.465,0,0,0,.754,1.809,2.492,2.492,0,0,0,1.774.756Zm-2.546-10.788a2.358,2.358,0,1,1,2.339-2.358,2.258,2.258,0,0,1-.68,1.661A2.222,2.222,0,0,1,614.631,366.164Z" transform="translate(-572.77 -361.47)" fill="#e8bc05"/>
      </g>
      <g id="Group_377" data-name="Group 377" transform="translate(0 50.244)">
        <path id="Path_2428" data-name="Path 2428" d="M597.467,387.037v21.329q0,17.987-15.429,17.986H572.8q-15.428,0-15.429-17.986v-3.342q0-15.425,17.987-15.427h1.692v10.272h-1.692q-7.716,0-7.713,5.155v3.342q0,7.716,5.156,7.717h9.24q5.158,0,5.156-7.717V387.037Zm-18.522-3.464a4.939,4.939,0,0,1-3.632-1.487,5,5,0,0,1-1.526-3.671,4.827,4.827,0,0,1,1.526-3.591,5.116,5.116,0,0,1,8.746,3.591,5.072,5.072,0,0,1-1.487,3.671A4.933,4.933,0,0,1,578.945,383.574Z" transform="translate(-557.368 -356.544)" fill="#02aaf1"/>
        <path id="Path_2429" data-name="Path 2429" d="M599.27,406.114v10.272h-3.837q-15.431,0-15.427-17.986V374.884h10.27V398.4q0,7.716,5.158,7.715Z" transform="translate(-535.781 -355.034)" fill="#02aaf1"/>
        <path id="Path_2430" data-name="Path 2430" d="M589.676,390.87h27.889v10.272H589.676Z" transform="translate(-526.56 -339.79)" fill="#02aaf1"/>
        <path id="Path_2431" data-name="Path 2431" d="M641,384.529A15.9,15.9,0,0,1,619.5,407.921q-4.457,3.71-13.327,3.712h-2.309V401.361h2.309q7.716,0,7.717-5.156v-.455a16.633,16.633,0,0,1,.33-3.384,15.183,15.183,0,0,1,4.29-7.838,15.887,15.887,0,0,1,22.484,0Zm-7.261,15.183a5.477,5.477,0,0,0,1.608-3.962,5.571,5.571,0,0,0-9.53-3.919,5.266,5.266,0,0,0-1.651,3.919,5.6,5.6,0,0,0,9.572,3.962Z" transform="translate(-513.027 -350.281)" fill="#02aaf1"/>
        <path id="Path_2432" data-name="Path 2432" d="M643.4,375.5v6.023H626.442V375.5h2.311a10.472,10.472,0,0,1,.66-3.837,10.467,10.467,0,0,1,13.446-6.271l.291.123.248.123-2.147,5.57a1.316,1.316,0,0,0-.453-.166,4.251,4.251,0,0,0-3.424.125,4.4,4.4,0,0,0-2.35,2.516,5.156,5.156,0,0,0-.248,1.817Zm-13.614,9.074h10.272v41.5H629.784Z" transform="translate(-491.501 -364.723)" fill="#02aaf1"/>
      </g>
    </g>
    <g id="car" transform="translate(0 0)">
      <g id="Group_386" data-name="Group 386">
        <path id="Path_2442" data-name="Path 2442" d="M562.933,325.4s-73.44-51.17-34.628-132.585c26.266-55.1,91.479-41.339,91.479-41.339s36.109-6.132,96.192-29.983C798.831,88.6,891.381,219.275,759.321,325.4Z" transform="translate(-516.984 -116.323)" fill="#d4ebf5"/>
        <g id="Group_385" data-name="Group 385" transform="translate(66.298 59.822)">
          <path id="Path_2443" data-name="Path 2443" d="M583.742,153.118H547.867s.174-1.493,4.161-2.688,6.845,1.866,11.35,0,6.9-4.542,12.7-3.049A11.462,11.462,0,0,1,583.742,153.118Z" transform="translate(-547.867 -146.945)" fill="#fff"/>
          <path id="Path_2444" data-name="Path 2444" d="M685.025,158.092H637.133s.23-2.313,5.552-4.165,9.139,2.893,15.154,0,9.207-7.041,16.957-4.728A16.15,16.15,0,0,1,685.025,158.092Z" transform="translate(-462.746 -145.439)" fill="#fff"/>
        </g>
      </g>
      <g id="Group_417" data-name="Group 417" transform="translate(9.727 75.844)">
        <path id="Path_2445" data-name="Path 2445" d="M529.178,279.747,813.9,273.863s1.3-32.4,1.213-36.356c-.052-2.422-3.265-6.4-11.166-7.67,0,0-79.5-9.522-85.45-13.714s-43.124-56.663-43.124-56.663c4.085-.994,7.884-.43,5.685-3.174-3.419-4.265-64.258,4.7-73.337,6.373-8.567,1.58-56.2,11.221-51.842,16.285,1.025,1.239,3.2.906,3.2.906s-12.059,30.7-15.352,34.129S529.541,221.346,528,225.095,520.723,263.554,529.178,279.747Z" transform="translate(-519.384 -155.147)" fill="#1c4391"/>
        <g id="Group_387" data-name="Group 387" transform="translate(5.284 90.278)">
          <path id="Path_2446" data-name="Path 2446" d="M529.178,235.681,813.9,229.8s.7-17.6,1.041-28.438l-290.242,6C524.461,217.554,525.408,228.459,529.178,235.681Z" transform="translate(-524.668 -201.359)" fill="#2f54b2"/>
        </g>
        <path id="Path_2447" data-name="Path 2447" d="M537.048,208.8a2.239,2.239,0,0,0,.229,2.09,2.325,2.325,0,0,0,1.875,1.014l151.767,3.391a2.6,2.6,0,0,0,2.334-1.324,2.506,2.506,0,0,0-.125-2.643l-36.2-52.645a2.612,2.612,0,0,0-2.288-1.117c-10.137.529-70.3,4.249-104.879,19.438C547.07,183.733,539.914,201.631,537.048,208.8Z" transform="translate(-507.731 -152.845)" fill="#8cd9f2"/>
        <g id="Group_388" data-name="Group 388" transform="translate(279.107 80.948)">
          <path id="Path_2448" data-name="Path 2448" d="M664.281,211.448c2.135.93,6.183,1.561,13.769.147.217-6.421.383-12.087.352-13.6a3.952,3.952,0,0,0-.332-1.412C668.007,200.242,656.643,208.125,664.281,211.448Z" transform="translate(-661.779 -196.583)" fill="#ecd492"/>
        </g>
        <g id="Group_389" data-name="Group 389" transform="translate(5.829 68.34)">
          <path id="Path_2449" data-name="Path 2449" d="M528.823,190.129h0c-2.858,1.885-3.8,17.059-3.874,18.809C536.37,209.569,532.1,191.664,528.823,190.129Z" transform="translate(-524.947 -190.129)" fill="#cb250c"/>
        </g>
        <g id="Group_392" data-name="Group 392" transform="translate(29.157 29.806)">
          <g id="Group_390" data-name="Group 390" transform="translate(130.504 10.122)">
            <path id="Path_2450" data-name="Path 2450" d="M613.005,184.356s2.885-7.974-.184-8.748-11.1,18.338-8.685,18.768,6.517-5.773,6.517-5.773a28.963,28.963,0,0,0-3.372,8.166,18.96,18.96,0,0,1,2.86.957l17.076.381a2.6,2.6,0,0,0,2.335-1.325,2.506,2.506,0,0,0-.125-2.643l-8.2-11.926h0C615.789,181.2,613.005,184.356,613.005,184.356Z" transform="translate(-603.691 -175.585)" fill="#0cb0c1"/>
          </g>
          <g id="Group_391" data-name="Group 391">
            <path id="Path_2451" data-name="Path 2451" d="M590.238,185.6c10.219-13.558-11.559-15.193-11.559-15.193l3.223,30.6,26.166.623C603.288,189.07,590.238,185.6,590.238,185.6Z" transform="translate(-497.038 -170.404)" fill="#0cb0c1"/>
            <path id="Path_2452" data-name="Path 2452" d="M547.8,185.3l-.068,0,0,.006Z" transform="translate(-526.551 -156.206)" fill="#0cb0c1"/>
            <path id="Path_2453" data-name="Path 2453" d="M560.128,186.767c2.694-3.36,12.247-11.118-3.12-15.857l-4.681,28.372,23.445.344A22.721,22.721,0,0,0,560.128,186.767Z" transform="translate(-522.166 -169.922)" fill="#0cb0c1"/>
            <path id="Path_2454" data-name="Path 2454" d="M541.59,177.98c-1.807,4.521-3.473,8.686-4.542,11.358a2.239,2.239,0,0,0,.229,2.09,2.151,2.151,0,0,0,.315.361l20.475.486C554.321,177.083,541.59,177.98,541.59,177.98Z" transform="translate(-536.888 -163.189)" fill="#0cb0c1"/>
          </g>
        </g>
        <g id="Group_393" data-name="Group 393" transform="translate(5.829 76.039)">
          <path id="Path_2455" data-name="Path 2455" d="M526.111,194.07a107.68,107.68,0,0,0-1.164,11.11c2.893.158,4.776-.873,5.927-2.522.023-.34.035-.682.029-1.033C530.817,197.6,528.711,194.347,526.111,194.07Z" transform="translate(-524.947 -194.07)" fill="#e7410c"/>
        </g>
        <g id="Group_394" data-name="Group 394" transform="translate(29.316 5.371)" opacity="0.2">
          <path id="Path_2456" data-name="Path 2456" d="M633.4,158.863c-20.292,2.206-34.41,4.507-34.41,4.507-35.692,10.782-58.039,35.152-58.039,35.152-.395.987-3.5,8.768-3.981,9.957,43.153-31.749,99.736-48.364,107.63-50.584C641.382,158.14,637.6,158.457,633.4,158.863Z" transform="translate(-536.97 -157.896)" fill="#f2f2f2"/>
          <path id="Path_2457" data-name="Path 2457" d="M669.68,186.844l-16.172-23.517c-40.093,3.645-103,41.84-105.719,43.5l46.559,1.039h.016Z" transform="translate(-526.653 -152.717)" fill="#f2f2f2"/>
        </g>
        <g id="Group_395" data-name="Group 395" transform="translate(279.107 80.948)">
          <path id="Path_2458" data-name="Path 2458" d="M664.281,211.448c2.135.93,6.183,1.561,13.769.147.217-6.421.383-12.087.352-13.6a3.952,3.952,0,0,0-.332-1.412C668.007,200.242,656.643,208.125,664.281,211.448Z" transform="translate(-661.779 -196.583)" fill="#f2c161"/>
        </g>
        <g id="Group_396" data-name="Group 396" transform="translate(280.776 88.167)">
          <path id="Path_2459" data-name="Path 2459" d="M671.269,201.4a17.1,17.1,0,0,0-8.635,6.089,6.856,6.856,0,0,0,.832.432c2.135.93,6.183,1.561,13.769.147.1-2.846.184-5.54.246-7.793A20.162,20.162,0,0,0,671.269,201.4Z" transform="translate(-662.634 -200.278)" fill="#f2e58f"/>
        </g>
        <path id="Path_2460" data-name="Path 2460" d="M557.243,165.014c4.538,3.735-2.794,38.46-9.481,45.676l9.4-.008c1.864-12.749,5.136-39.628,12.528-48.9Z" transform="translate(-496.263 -148.817)" fill="#1c4391"/>
        <path id="Path_2461" data-name="Path 2461" d="M588.279,157.456c-5.665,4.655,6.808,50.576,12.12,59.121l-10.514-.4c.778-11.042-3.481-46.718-16.709-56.722Z" transform="translate(-470.902 -152.945)" fill="#1c4391"/>
        <g id="Group_397" data-name="Group 397" transform="translate(194.981 61.92)">
          <path id="Path_2462" data-name="Path 2462" d="M631.087,238.8l-1.92.041a161.1,161.1,0,0,0-9.45-51.3l1.785-.7A162.989,162.989,0,0,1,631.087,238.8Z" transform="translate(-619.717 -186.843)" fill="#263d84"/>
        </g>
        <g id="Group_398" data-name="Group 398" transform="translate(23.95 57.421)">
          <path id="Path_2463" data-name="Path 2463" d="M707.616,189.039l-172.408-4.5a8.775,8.775,0,0,1-.984,1.41l180.211,4.788C711.572,190.135,709.239,189.563,707.616,189.039Z" transform="translate(-534.223 -184.54)" fill="#263d84"/>
        </g>
        <g id="Group_400" data-name="Group 400" transform="translate(62.326 70.436)">
          <ellipse id="Ellipse_95" data-name="Ellipse 95" cx="7.67" cy="2.069" rx="7.67" ry="2.069" transform="translate(0 0.324) rotate(-1.208)" fill="#2f54b2"/>
          <g id="Group_399" data-name="Group 399" transform="translate(1.078 2.091)">
            <ellipse id="Ellipse_96" data-name="Ellipse 96" cx="6.636" cy="1.035" rx="6.636" ry="1.035" transform="translate(0 0.28) rotate(-1.208)" fill="#263d84"/>
          </g>
        </g>
        <g id="Group_402" data-name="Group 402" transform="translate(135.517 68.925)">
          <ellipse id="Ellipse_97" data-name="Ellipse 97" cx="7.67" cy="2.069" rx="7.67" ry="2.069" transform="translate(0 0.324) rotate(-1.208)" fill="#2f54b2"/>
          <g id="Group_401" data-name="Group 401" transform="translate(1.078 2.091)">
            <ellipse id="Ellipse_98" data-name="Ellipse 98" cx="6.636" cy="1.035" rx="6.636" ry="1.035" transform="translate(0 0.28) rotate(-1.208)" fill="#263d84"/>
          </g>
        </g>
        <g id="Group_403" data-name="Group 403" transform="translate(171.392 50.443)">
          <path id="Path_2464" data-name="Path 2464" d="M621.62,189.283c-1.362.817-2.852.86-3.329.094s.238-2.051,1.6-2.868,2.852-.86,3.329-.094S622.982,188.465,621.62,189.283Z" transform="translate(-597.935 -176.296)" fill="#4b4353"/>
          <path id="Path_2465" data-name="Path 2465" d="M623.227,188.3l-6.21-4.9-.734,1.631s4.321,2.745,5.62,6.414Z" transform="translate(-599.709 -178.648)" fill="#4b4353"/>
          <path id="Path_2466" data-name="Path 2466" d="M607.8,187.616c-.289,4.71,22.114,5.892,18.2-4.1C623.485,177.09,607.995,184.467,607.8,187.616Z" transform="translate(-607.799 -180.968)" fill="#4b4353"/>
        </g>
        <g id="Group_404" data-name="Group 404" transform="translate(48.05 16.361)">
          <path id="Path_2467" data-name="Path 2467" d="M583.948,263.81c-8.7-24.791-36.256-24.5-36.534-24.494l-1.416.031.5-1.3c10.942-28.747,16.361-74.069,16.414-74.523l1.911.213c-.055.451-5.347,44.729-16.06,73.733,5.9.3,29.016,2.942,37.006,25.725Z" transform="translate(-545.998 -163.522)" fill="#263d84"/>
        </g>
        <g id="Group_405" data-name="Group 405" transform="translate(109.82 7.998)">
          <path id="Path_2468" data-name="Path 2468" d="M596.873,265.1c-5.421-62.76-19.75-104.834-19.9-105.25l1.821-.606c.145.418,14.548,42.709,19.989,105.694Z" transform="translate(-576.978 -159.241)" fill="#263d84"/>
        </g>
        <g id="Group_406" data-name="Group 406" transform="translate(6.878 96.175)">
          <path id="Path_2469" data-name="Path 2469" d="M525.484,224.539a34.314,34.314,0,0,0,2.883,8.264l284.774-5.884s.14-3.495.325-8.328l-45.272.934c-7.85-21.952-36.367-18.621-41.767.863l-129.794,2.68c-4.79-16.623-32.058-23.585-41.442.858Z" transform="translate(-525.484 -204.378)" fill="#263d84"/>
        </g>
        <path id="Path_2470" data-name="Path 2470" d="M546.937,227.526l-21.026.443c-4.741-11.932-3.888-17.482-3.888-17.482l21.026-.443Z" transform="translate(-521.963 -102.799)" fill="#e5d8c6"/>
        <g id="Group_407" data-name="Group 407" transform="translate(1.103 115.995)">
          <path id="Path_2471" data-name="Path 2471" d="M525.372,223.7l21.026-.443-1.942-8.732-21.929.463A67.32,67.32,0,0,0,525.372,223.7Z" transform="translate(-522.528 -214.523)" fill="#b7afbc"/>
        </g>
        <g id="Group_409" data-name="Group 409" transform="translate(36.5 101.604)">
          <ellipse id="Ellipse_99" data-name="Ellipse 99" cx="18.542" cy="20.986" rx="18.542" ry="20.986" transform="translate(0 3.083) rotate(-4.77)" fill="#655b6d"/>
          <g id="Group_408" data-name="Group 408" transform="translate(1.828 1.485)">
            <path id="Path_2472" data-name="Path 2472" d="M559.13,207.923c-9.117.258-16.392,7.918-17.547,17.766l36.541-.77C576.267,215.025,568.329,207.661,559.13,207.923Z" transform="translate(-541.583 -207.917)" fill="#4b4353"/>
          </g>
          <ellipse id="Ellipse_100" data-name="Ellipse 100" cx="10.858" cy="12.716" rx="10.858" ry="12.716" transform="matrix(0.995, -0.098, 0.098, 0.995, 8.17, 10.865)" fill="#4b4353"/>
          <ellipse id="Ellipse_101" data-name="Ellipse 101" cx="10.345" cy="12.115" rx="10.345" ry="12.115" transform="matrix(0.995, -0.098, 0.098, 0.995, 8.74, 11.413)" fill="#988770"/>
          <path id="Path_2473" data-name="Path 2473" d="M561.752,240.423c-10.24.291-18.92-8.859-19.389-20.436a23.666,23.666,0,0,1,.414-5.456,23.118,23.118,0,0,0-1.26,8.576c.469,11.577,9.149,20.727,19.387,20.438,8.576-.244,15.523-7.033,17.279-16.035C575.59,234.917,569.3,240.21,561.752,240.423Z" transform="translate(-539.836 -200.125)" fill="#4b4353"/>
          <path id="Path_2474" data-name="Path 2474" d="M557.306,231.678c-5.714.152-10.6-5.14-10.9-11.819a13.775,13.775,0,0,1,.461-4.222,13.456,13.456,0,0,0-1.153,6.164c.307,6.681,5.189,11.971,10.9,11.819,4.448-.119,8.078-3.507,9.328-8.15A9.928,9.928,0,0,1,557.306,231.678Z" transform="translate(-535.834 -199.069)" fill="#81705c"/>
          <path id="Path_2475" data-name="Path 2475" d="M553.888,219.3c-.443,2.635-2.221,4.544-3.968,4.261s-2.805-2.647-2.36-5.282,2.221-4.544,3.968-4.261S554.332,216.663,553.888,219.3Z" transform="translate(-534.151 -200.642)" fill="#ecd492"/>
        </g>
        <g id="Group_411" data-name="Group 411" transform="translate(208.464 98.077)">
          <ellipse id="Ellipse_102" data-name="Ellipse 102" cx="18.542" cy="20.986" rx="18.542" ry="20.986" transform="translate(0 3.083) rotate(-4.769)" fill="#655b6d"/>
          <g id="Group_410" data-name="Group 410" transform="translate(1.828 1.484)">
            <path id="Path_2476" data-name="Path 2476" d="M644.714,206.117c-9.117.26-16.392,7.918-17.547,17.768l36.542-.77C661.853,213.218,653.915,205.857,644.714,206.117Z" transform="translate(-627.167 -206.111)" fill="#4b4353"/>
          </g>
          <ellipse id="Ellipse_103" data-name="Ellipse 103" cx="10.858" cy="12.716" rx="10.858" ry="12.716" transform="matrix(0.995, -0.098, 0.098, 0.995, 8.17, 10.865)" fill="#4b4353"/>
          <ellipse id="Ellipse_104" data-name="Ellipse 104" cx="10.345" cy="12.115" rx="10.345" ry="12.115" transform="translate(8.739 11.413) rotate(-5.628)" fill="#988770"/>
          <path id="Path_2477" data-name="Path 2477" d="M647.336,238.618c-10.241.291-18.92-8.859-19.387-20.438a23.455,23.455,0,0,1,.414-5.456A23.135,23.135,0,0,0,627.1,221.3c.469,11.577,9.149,20.727,19.389,20.436,8.574-.242,15.521-7.033,17.279-16.033C661.173,233.111,654.889,238.4,647.336,238.618Z" transform="translate(-625.42 -198.32)" fill="#4b4353"/>
          <path id="Path_2478" data-name="Path 2478" d="M642.892,229.872c-5.716.154-10.6-5.138-10.907-11.819a13.715,13.715,0,0,1,.463-4.222A13.44,13.44,0,0,0,631.293,220c.309,6.679,5.191,11.971,10.9,11.819,4.448-.119,8.078-3.507,9.33-8.15A9.926,9.926,0,0,1,642.892,229.872Z" transform="translate(-621.419 -197.265)" fill="#81705c"/>
          <path id="Path_2479" data-name="Path 2479" d="M639.472,217.493c-.443,2.635-2.219,4.542-3.968,4.261s-2.8-2.649-2.36-5.284,2.221-4.542,3.968-4.259S639.917,214.858,639.472,217.493Z" transform="translate(-619.736 -198.836)" fill="#ecd492"/>
        </g>
        <g id="Group_412" data-name="Group 412" transform="translate(3.166 122.671)">
          <path id="Path_2480" data-name="Path 2480" d="M524.366,220.441,545.392,220l-.459-2.057-21.349.451C523.826,219.054,524.084,219.733,524.366,220.441Z" transform="translate(-523.584 -217.94)" fill="#877991"/>
        </g>
        <g id="Group_415" data-name="Group 415" transform="translate(256.408 101.033)">
          <path id="Path_2481" data-name="Path 2481" d="M650.16,225.372l41.593-.877c4.233-12.124,3.147-17.631,3.147-17.631l-9.969.209a12.7,12.7,0,0,1-12.374,9.545l-21.233.447Z" transform="translate(-650.16 -206.864)" fill="#e5d8c6"/>
          <g id="Group_413" data-name="Group 413" transform="translate(0 9.238)">
            <path id="Path_2482" data-name="Path 2482" d="M672.558,212.109l-21.233.447-1.164,8.307,41.593-.877a67.944,67.944,0,0,0,2.385-8.393l-20.247.426C673.46,212.064,673.021,212.1,672.558,212.109Z" transform="translate(-650.16 -211.593)" fill="#b7afbc"/>
          </g>
          <g id="Group_414" data-name="Group 414" transform="translate(0 15.984)">
            <path id="Path_2483" data-name="Path 2483" d="M650.16,217.57l41.593-.877c.2-.568.375-1.108.551-1.647l-41.914.883Z" transform="translate(-650.16 -215.046)" fill="#877991"/>
          </g>
        </g>
        <g id="Group_416" data-name="Group 416" transform="translate(36.09 2.354)">
          <path id="Path_2484" data-name="Path 2484" d="M663.275,156.891a.689.689,0,0,0,.16-.539c-64.818,2.549-110.279,17.4-123,21.687a3.623,3.623,0,0,0,2.481.7l.416-.035s21.46-7.648,55.962-13.771,57.945-6.619,57.945-6.619Z" transform="translate(-540.437 -156.352)" fill="#263d84"/>
        </g>
      </g>
    </g>
    <g id="persons" transform="translate(67.76 159.13)">
      <ellipse id="Ellipse_105" data-name="Ellipse 105" cx="102.324" cy="4.336" rx="102.324" ry="4.336" transform="translate(0 239.81)" fill="#d4ebf5"/>
      <g id="Group_444" data-name="Group 444" transform="translate(4.887)">
        <g id="Group_420" data-name="Group 420" transform="translate(39.989 51.46)">
          <path id="Path_2485" data-name="Path 2485" d="M571.954,227.569s2.333,33.375,8.158,42.724c6.04,9.7,28.764,16.635,28.764,16.635l-.52-5.687s-18.293-8.055-23.273-15.857c-5.126-8.033-5.72-38.208-5.72-38.208S575.963,219.495,571.954,227.569Z" transform="translate(-571.237 -223.875)" fill="#e7e7e7"/>
          <path id="Path_2486" data-name="Path 2486" d="M590.683,253.251s7.752-.289,7.267,2.325c-.434,2.327-.93,3.094-2.567,3.524-1.016.268-4.843-2.727-4.843-2.727S589.787,253.274,590.683,253.251Z" transform="translate(-553.796 -195.873)" fill="#ffc2bd"/>
          <path id="Path_2487" data-name="Path 2487" d="M590.33,270.459c-2.128-1.6-4.12-3.806-4.591-5.638-2.166-8.439-6.025-37.676-6.025-37.676s-4.118-7.592-8.127.483c0,0,2.589,33.59,8.875,42.635a22.58,22.58,0,0,0,7.054,5.857Z" transform="translate(-571.587 -223.844)" fill="#e7e7e7"/>
          <g id="Group_419" data-name="Group 419" transform="translate(5.107 36.96)">
            <path id="Path_2488" data-name="Path 2488" d="M577.084,249.244a25.461,25.461,0,0,1-2.884-6.449c1.069,3.979,2.319,7.373,3.768,9.457a22.58,22.58,0,0,0,7.054,5.857l.893-1.881C582.871,254.434,578.536,251.334,577.084,249.244Z" transform="translate(-574.201 -242.795)" fill="#e7e7e7"/>
          </g>
          <path id="Path_2489" data-name="Path 2489" d="M593.983,253.868s4.411,2.78,4.216,3.565-4.165-2.034-4.165-2.034Z" transform="translate(-550.231 -195.276)" fill="#eba85f"/>
          <path id="Path_2490" data-name="Path 2490" d="M593.76,254.635s4.409,2.778,4.216,3.565-4.165-2.034-4.165-2.034Z" transform="translate(-550.443 -194.544)" fill="#ffc2bd"/>
          <path id="Path_2491" data-name="Path 2491" d="M593.39,255.139s4.269,3.106,4.036,3.876-4.057-2.342-4.057-2.342Z" transform="translate(-550.816 -194.064)" fill="#ffc2bd"/>
          <path id="Path_2492" data-name="Path 2492" d="M592.369,255.193s4,2.907,3.778,3.626-3.8-2.192-3.8-2.192Z" transform="translate(-551.788 -194.012)" fill="#ffc2bd"/>
        </g>
        <path id="Path_2493" data-name="Path 2493" d="M584.38,273.864c-5.56,5.769-27.6,4.755-27.6,4.755V255.907h28.766S587.5,270.625,584.38,273.864Z" transform="translate(-545.715 -141.872)" fill="#004672"/>
        <path id="Path_2494" data-name="Path 2494" d="M571.456,321.073s-2.506,3.618,7.8,3.749c13.671.176,16.3-2.829-.26-3.794Z" transform="translate(-531.978 -79.774)" fill="#201926"/>
        <path id="Path_2495" data-name="Path 2495" d="M558.327,321.07s-2.506,3.618,7.8,3.751c17.76.229,20.383-2.59-.26-3.794Z" transform="translate(-544.497 -79.775)" fill="#201926"/>
        <g id="Group_423" data-name="Group 423" transform="translate(25.449 105.664)">
          <g id="Group_422" data-name="Group 422">
            <g id="Group_421" data-name="Group 421">
              <path id="Path_2496" data-name="Path 2496" d="M580.863,259.434,587,309.756c.623,6.548.879,9.356.4,12.942l-.994,64.558h-8.236l-2.276-68.3-11.753-67.334Z" transform="translate(-564.144 -251.622)" fill="#ffc2bd"/>
            </g>
          </g>
        </g>
        <g id="Group_425" data-name="Group 425" transform="translate(9.873 104.586)">
          <g id="Group_424" data-name="Group 424">
            <path id="Path_2497" data-name="Path 2497" d="M556.171,251.07l1.231,32.447,2.647,40.648.182,63.628,7.973-.109,4.768-66.577a86.424,86.424,0,0,0,.852-10.1l-2.018-53.569Z" transform="translate(-556.171 -251.07)" fill="#ffc2bd"/>
          </g>
        </g>
        <path id="Path_2498" data-name="Path 2498" d="M587.146,255.827s5.649,51.832,6.2,56.812-6.316,6.462-7.133,1.9-7.836-38.929-7.836-38.929l-8.644,1.1s.563,32.527.781,36.08-7.592,7.224-8.229,3.432-5.57-59.92-5.57-59.92C566.321,252.12,575.34,256.37,587.146,255.827Z" transform="translate(-545.777 -143.271)" fill="#00537c"/>
        <g id="Group_427" data-name="Group 427" transform="translate(0 51.213)">
          <g id="Group_426" data-name="Group 426">
            <path id="Path_2499" data-name="Path 2499" d="M595.58,224.059s-6.64-.4-14.366-.289-16.545.752-20.9,2.835c-9.983,4.776-10.284,9.344-8.09,12.72s6.884,5.556,6.884,5.556c-.02.424,1.86,83.867,3.167,103.621,1.477,22.323-3.819,65.224-1.914,63.876l22-.031h24.216s-2.131-51.291-2.245-68.582c-.172-26.352-6.672-105.879-6.672-105.879l-1.043-6.912Z" transform="translate(-551.117 -223.749)" fill="#e7e7e7"/>
            <path id="Path_2500" data-name="Path 2500" d="M574.016,245.627l.328-6.886s4.394,18.664,2.379,14.6A53.411,53.411,0,0,1,574.016,245.627Z" transform="translate(-529.281 -209.454)" fill="#e7e7e7" style="mix-blend-mode: multiply;isolation: isolate"/>
          </g>
        </g>
        <g id="Group_429" data-name="Group 429" transform="translate(16.781 6.399)">
          <path id="Path_2501" data-name="Path 2501" d="M578.817,218.332l-1.782,14.1c-1.383,3.53-5.956,1.954-7.832,7.373h0c-1.424-8.213-3.528-.59-7.445-5.218l4.849-21.823Z" transform="translate(-557.75 -189.414)" fill="#ffc2bd"/>
          <path id="Path_2502" data-name="Path 2502" d="M575.354,227.692l-11.59-11.943,12.483,4.7Z" transform="translate(-555.838 -186.564)" fill="#000201"/>
          <path id="Path_2503" data-name="Path 2503" d="M579.177,239.655s6.908,2.284,9.553-11.317l1.379-13.448a12.728,12.728,0,0,0-10.893-13.952h0c-6.961-.973-14.613,3.71-15.588,10.67l-.623,13.46C562.257,231.868,571.187,239.331,579.177,239.655Z" transform="translate(-556.604 -200.81)" fill="#ffc2bd"/>
          <g id="Group_428" data-name="Group 428" transform="translate(0 10.88)">
            <path id="Path_2504" data-name="Path 2504" d="M559.758,215.1a5.218,5.218,0,0,0,10.334,1.446c.4-2.852-1.674-9.752-4.528-10.153S560.156,212.252,559.758,215.1Z" transform="translate(-559.707 -206.379)" fill="#ffc2bd"/>
            <path id="Path_2505" data-name="Path 2505" d="M561.585,210.259" transform="translate(-557.916 -202.679)" fill="none" stroke="#000402" stroke-linecap="round" stroke-linejoin="round" stroke-width="0.261"/>
            <path id="Path_2506" data-name="Path 2506" d="M563.192,212.131" transform="translate(-556.384 -200.893)" fill="none" stroke="#000402" stroke-linecap="round" stroke-linejoin="round" stroke-width="0.261"/>
          </g>
        </g>
        <path id="Path_2507" data-name="Path 2507" d="M557.992,217.818c1.768,7.379,10.5,16.554,10.5,16.554s.031-.035.086-.105c.252-.322,1.1-1.373,2.376-2.848l0-.006.869-1.037-.342-2.725s-5.777-1.205-6.439-5.378.752-8.414,5.63-5.189l-.176-5.312s8.3,5.8,22.609,2.413c11.757-3.612-5.865-12.481-5.865-12.481-2.315-1.09-3.429-2.21-6.789-3.116a21.452,21.452,0,0,0-9.973.02,11.324,11.324,0,0,0-6.683,5.083C558.1,204.5,556.216,210.44,557.992,217.818Z" transform="translate(-545.175 -197.074)" fill="#1e1e1e"/>
        <path id="Path_2508" data-name="Path 2508" d="M562.656,269.344" transform="translate(-540.114 -129.059)" fill="#ffc2bd"/>
        <path id="Path_2509" data-name="Path 2509" d="M563.78,269.242" transform="translate(-539.042 -129.156)" fill="#ffc2bd"/>
        <g id="Group_431" data-name="Group 431" transform="translate(80.536 88.136)">
          <path id="Path_2510" data-name="Path 2510" d="M593.41,242.672a1.692,1.692,0,0,0-1.018,2.118c.207,1.01,1,1.7,1.772,1.541a1.691,1.691,0,0,0,1.02-2.118C594.975,243.2,594.182,242.514,593.41,242.672Zm.358,1.608c-.237.049-.481-.164-.545-.475a.52.52,0,0,1,.313-.651c.238-.049.483.162.545.475A.52.52,0,0,1,593.768,244.28Z" transform="translate(-592.342 -242.649)" fill="#343138"/>
          <path id="Path_2511" data-name="Path 2511" d="M592.932,244.536l.388,2.769.6.4.42-.531-.137-1.06-.3-.285.218-.435-.256-.38.154-.322-.046-.232Z" transform="translate(-591.78 -240.926)" fill="#726a7a"/>
          <path id="Path_2512" data-name="Path 2512" d="M593.171,242.675a1.991,1.991,0,0,1,1.08,1.457,1.852,1.852,0,0,1-.662,1.967l.012,0,.045.232-.154.322.256.381-.217.434.3.285.137,1.061-.4.5.123.082.42-.529-.137-1.061-.3-.285.217-.434-.256-.381.154-.322-.045-.232-.012,0a1.852,1.852,0,0,0,.662-1.967A1.935,1.935,0,0,0,593.171,242.675Z" transform="translate(-591.552 -242.625)" fill="#5d5566"/>
          <path id="Path_2513" data-name="Path 2513" d="M593.146,244a.628.628,0,0,1-.276-.41.52.52,0,0,1,.313-.65.358.358,0,0,1,.129.006.37.37,0,0,0-.272-.063.52.52,0,0,0-.313.651A.567.567,0,0,0,593.146,244Z" transform="translate(-591.989 -242.434)" fill="#1d1b21"/>
          <g id="Group_430" data-name="Group 430" transform="translate(1.619 0.05)">
            <path id="Path_2514" data-name="Path 2514" d="M594.251,244.132a1.852,1.852,0,0,1-.662,1.967l.012,0,.024.123a1,1,0,0,0,.107-.064h0a1.476,1.476,0,0,0,.588-.772l.016-.041a2.028,2.028,0,0,0,.1-.506c0-.029,0-.059,0-.088a2.391,2.391,0,0,0-.043-.561,2.35,2.35,0,0,0-.16-.481c-.016-.035-.031-.07-.047-.1a2.15,2.15,0,0,0-.25-.4l0,0a1.8,1.8,0,0,0-.322-.3l-.061-.043a1.447,1.447,0,0,0-.379-.184A1.991,1.991,0,0,1,594.251,244.132Z" transform="translate(-593.171 -242.675)" fill="#1d1b21"/>
          </g>
        </g>
        <path id="Path_2515" data-name="Path 2515" d="M641.259,225.917,632.3,258.035l-34.16-8.23L597.511,254s2.512,1.7,34.969,10.985c14.72,4.212,18.752-37.563,18.752-37.563Z" transform="translate(-506.877 -170.469)" fill="#ffc2bd"/>
        <path id="Path_2516" data-name="Path 2516" d="M624.766,221.074s-8.347,15.023-8.025,30.048h10.467Z" transform="translate(-488.548 -175.087)" fill="#bce8dc"/>
        <path id="Path_2517" data-name="Path 2517" d="M657.681,296.616s-3.755,1.33-18.064,1.346-18.067-1.346-18.067-1.346l-1.418-47.481s-1.881-20.968,1.846-26.525a64.945,64.945,0,0,1,18.444-3.139c7.851-.09,15.689.813,22.661,6.757C663.083,234.239,657.681,296.616,657.681,296.616Z" transform="translate(-485.759 -176.622)" fill="#2d81ba"/>
        <g id="Group_432" data-name="Group 432" transform="translate(138.57 42.415)">
          <path id="Path_2518" data-name="Path 2518" d="M644.624,247.517s1.534-15.959,6.388-26.447a44.083,44.083,0,0,0-25.4.094,42.327,42.327,0,0,0-3,24.263C626.355,245.426,644.624,247.517,644.624,247.517Z" transform="translate(-622.049 -219.245)" fill="#bce8dc"/>
        </g>
        <g id="Group_433" data-name="Group 433" transform="translate(165.286 48.478)">
          <path id="Path_2519" data-name="Path 2519" d="M636.214,252.522s2.075,12.065,8.483,13.6c1.461-17.766,3.065-38.276,3.065-42.642-.469-.4-.942-.774-1.418-1.127C642.708,223.25,633.51,227.952,636.214,252.522Z" transform="translate(-635.724 -222.349)" fill="#2d81ba"/>
        </g>
        <path id="Path_2520" data-name="Path 2520" d="M646.838,222.926s-8.246.656-9.936,17.74,7.441,19.358,7.441,19.358Z" transform="translate(-469.514 -173.321)" fill="#9cd9cd"/>
        <path id="Path_2521" data-name="Path 2521" d="M608.181,253.759s4.5,3.764,7.877,3.682a30.986,30.986,0,0,0,8.009-1.8c.971-1.709,1.233-3.178,0-5.648a27.522,27.522,0,0,0-6.625-.5C614.446,252.3,611.947,249.156,608.181,253.759Z" transform="translate(-496.703 -148.063)" fill="#ffc2bd"/>
        <path id="Path_2522" data-name="Path 2522" d="M656.758,258.957V382.118h-8.629l-7.3-101.868-6-.21-5.247,102.078H622.3l-1.671-123.161Z" transform="translate(-484.835 -138.963)" fill="#1e76b2"/>
        <path id="Path_2523" data-name="Path 2523" d="M639.42,229.225l-12.806,1.389s1.7-3.964-.334-14.068c-.455-2.268,8.492-6,8.492-6S637.238,219.174,639.42,229.225Z" transform="translate(-479.46 -185.123)" fill="#ffc2bd"/>
        <path id="Path_2524" data-name="Path 2524" d="M617.769,205.848c1.081,6.755,5.568,28.391,12.388,27.7a14.366,14.366,0,0,0,11.11-8.211,31.983,31.983,0,0,0,1.707-5.845s2.172-8.062-.389-13.671S617.769,205.848,617.769,205.848Z" transform="translate(-487.56 -192.003)" fill="#ffc2bd"/>
        <path id="Path_2525" data-name="Path 2525" d="M625.52,221.169s-2.606,9.109,3.954,9.389c7.056.3,19.485-11,7.605-10.989C637.08,219.569,627.925,218.553,625.52,221.169Z" transform="translate(-480.655 -176.708)" fill="#ffc2bd"/>
        <path id="Path_2526" data-name="Path 2526" d="M656.757,259.691s-2.915,60.947-2.915,66.646-9.131,7.224-9.508,1.954-3.5-47.161-3.5-47.161l-7.883-.365s-2.526,43.643-2.735,47.685-8.465,4.227-8.729-.143-.859-68.469-.859-68.469C632.779,256.5,642.436,258.617,656.757,259.691Z" transform="translate(-484.835 -139.844)" fill="#3f8dcc"/>
        <path id="Path_2527" data-name="Path 2527" d="M624.861,268.191a44.33,44.33,0,0,0,17.856.268s1.819-.072-5.356,2.985l-7.883-.365S622.173,268.621,624.861,268.191Z" transform="translate(-481.363 -130.158)" fill="#2d81ba"/>
        <path id="Path_2528" data-name="Path 2528" d="M656.66,233.3l.483,36-40.83-3.952V271s36.967,11.674,46.431,4.843c3.528-2.547,9.53-41.732,9.53-41.732Z" transform="translate(-488.948 -163.424)" fill="#ffc2bd"/>
        <path id="Path_2529" data-name="Path 2529" d="M646.783,222.926s-11.866,0-9.789,26.4c0,0,4.782,5.743,16.392,5.415C653.386,254.74,652.976,226.876,646.783,222.926Z" transform="translate(-469.46 -173.321)" fill="#bce8dc"/>
        <path id="Path_2530" data-name="Path 2530" d="M647.372,251.926a6.068,6.068,0,0,1-6.6,6.042L627.1,256.759a6.066,6.066,0,0,1-5.532-6.042V234.524l25.8,2.282Z" transform="translate(-483.938 -162.262)" fill="#4299d4"/>
        <path id="Path_2531" data-name="Path 2531" d="M641.65,239.964l-18.7-1.73v-1.78l18.7,1.73Z" transform="translate(-482.623 -160.421)" fill="#2d81ba"/>
        <g id="Group_434" data-name="Group 434" transform="translate(133.546 65.814)">
          <path id="Path_2532" data-name="Path 2532" d="M639.9,232.8l-5.755-.512a.552.552,0,0,0-.4.129.54.54,0,0,0-.194.377l-.176,2.262.549.049.145-1.864a.465.465,0,0,1,.506-.428l4.861.432a.462.462,0,0,1,.422.5l.016,1.844h0c-.035.537.033,1.67.033,1.67.125,0,.234-.324.234-.324l.088-1.27.176-2.274A.549.549,0,0,0,639.9,232.8Z" transform="translate(-606.232 -230.206)" fill="#285873"/>
          <path id="Path_2533" data-name="Path 2533" d="M640.146,234.255a31.363,31.363,0,0,1-6.693-.547,31.671,31.671,0,0,1,6.693.547Z" transform="translate(-606.15 -228.904)" fill="#285873"/>
          <path id="Path_2534" data-name="Path 2534" d="M620.032,231.233l4.782-.01a.557.557,0,0,1,.391.166.544.544,0,0,1,.156.395l.215,2.268-.551,0-.223-1.87a.467.467,0,0,0-.463-.473l-3.884.016a.465.465,0,0,0-.469.457l.147,3.446c-.125-.012-.223-.344-.223-.344l-.434-3.507A.552.552,0,0,1,620.032,231.233Z" transform="translate(-619.477 -231.223)" fill="#285873"/>
          <path id="Path_2535" data-name="Path 2535" d="M625.264,232.68a21.961,21.961,0,0,1-5.607.1,21.957,21.957,0,0,1,5.607-.1Z" transform="translate(-619.305 -229.965)" fill="#285873"/>
        </g>
        <path id="Path_2536" data-name="Path 2536" d="M616.474,217.818c4.5.131,16.255-8.219,16.926-8.152,1.528.152,3.061,1.018,3.88,3.509,2.012,6.117,2.037,7.947,2.037,7.947l4.177-1.444,2.44,8.877s7.263-10.467.791-27.049a17.768,17.768,0,0,0-14.908-3.63C619.318,198.067,614.821,208.476,616.474,217.818Z" transform="translate(-489.109 -197.534)" fill="#63310d"/>
        <path id="Path_2537" data-name="Path 2537" d="M635.335,211.132c.375,2.712-1.856,5.261-3.645,5.507s-2.459-1.9-2.833-4.612.772-5.111,2.561-5.359S634.959,208.42,635.335,211.132Z" transform="translate(-477.055 -188.844)" fill="#ffc2bd"/>
        <path id="Path_2538" data-name="Path 2538" d="M635.228,207.253c-.819-2.491-2.352-3.356-3.88-3.509-.522-.051-7.748,4.982-13.054,7.16l.065.3a64.316,64.316,0,0,0,13.315-6.349s2.411.215,4.941,7.039C636.313,210.73,635.873,209.214,635.228,207.253Z" transform="translate(-487.058 -191.613)" fill="#ffc2bd"/>
        <path id="Path_2539" data-name="Path 2539" d="M584.971,268.944l4.28-5.409,42.11-15.637,6.639.337Z" transform="translate(-518.834 -149.509)" fill="#cde7eb"/>
        <path id="Path_2540" data-name="Path 2540" d="M585.772,271.292s41.439-16.15,53.311-20.02l-1.08-3.2s-35.953,12.882-53.032,20.71Z" transform="translate(-518.835 -149.345)" fill="#bedde5"/>
        <rect id="Rectangle_696" data-name="Rectangle 696" width="59.164" height="0.862" transform="translate(65.667 122.382) rotate(-20.832)" fill="#332b3b"/>
        <path id="Path_2541" data-name="Path 2541" d="M613.516,249.513l-.984-.212.176.52Z" transform="translate(-492.553 -148.171)" fill="#5f576b"/>
        <path id="Path_2542" data-name="Path 2542" d="M587.212,261.125a125.959,125.959,0,0,1,12.695-5.027S590.613,259.826,587.212,261.125Z" transform="translate(-516.698 -141.689)" fill="#a5cdd6"/>
        <path id="Path_2543" data-name="Path 2543" d="M590.694,264.311s30.276-11.977,40.865-15.57C631.559,248.741,600.851,260.574,590.694,264.311Z" transform="translate(-513.378 -148.705)" fill="#a5cdd6"/>
        <path id="Path_2544" data-name="Path 2544" d="M598.418,258.926s19.9-7.75,23.954-8.959C622.372,249.967,604.742,256.818,598.418,258.926Z" transform="translate(-506.012 -147.536)" fill="#a5cdd6"/>
        <path id="Path_2545" data-name="Path 2545" d="M619.894,252.234s-4.538-4.933-6.1-5.173c0,0-2.141.156-.8,2.4s1.158,2.491,1.158,2.491Z" transform="translate(-492.529 -150.307)" fill="#ffc2bd"/>
        <path id="Path_2546" data-name="Path 2546" d="M613.974,249.861a12.852,12.852,0,0,0-2.387-.883s-.221-2.137.266-2.311,3.192.867,3.192.867S614.5,250.23,613.974,249.861Z" transform="translate(-493.503 -150.702)" fill="#ffc2bd"/>
        <path id="Path_2547" data-name="Path 2547" d="M585.4,268.312l51.381-20.092S599.488,261.377,585.4,268.312Z" transform="translate(-518.429 -149.202)" fill="#ebebeb"/>
        <g id="Group_435" data-name="Group 435" transform="translate(70.573 99.86)">
          <path id="Path_2548" data-name="Path 2548" d="M628.789,249.043l-3.558-.392-36.1,13.4-1.893,2.89Z" transform="translate(-587.242 -248.651)" fill="#a2c9db"/>
        </g>
        <path id="Path_2549" data-name="Path 2549" d="M612.428,248.627l-2.012.729-2.3-.146,1.942-.748s.346-1.129.885-1.092,1.748,0,1.748,0Z" transform="translate(-496.764 -150.015)" fill="#332b3b"/>
        <path id="Path_2550" data-name="Path 2550" d="M613.558,246.657s-3.761,1.588-3.809,2.422,1.844.631,2.61.338a5.229,5.229,0,0,0,1.2-.621Z" transform="translate(-495.209 -150.692)" fill="#ffc2bd"/>
        <path id="Path_2551" data-name="Path 2551" d="M603.021,239.917s-5.216-2.944-8.133-3.608c-1.528-.348-3.786,3.5-1.561,4.282,3.147,1.106,1.725,3.028,2.18,3.89.377.715.678.946,1.182,1.047,2.334.467,5.7-1.418,5.7-1.418A5.946,5.946,0,0,0,603.021,239.917Z" transform="translate(-511.756 -160.581)" fill="#ffc2bd"/>
        <path id="Path_2552" data-name="Path 2552" d="M596.26,236.3s-5.41,2.821-5.841,4.427,2.977,6.349,3.393,6.349,1.117-.145-.492-5.03l2.94-2.229Z" transform="translate(-513.676 -160.57)" fill="#ffc2bd"/>
        <g id="Group_436" data-name="Group 436" transform="translate(79.108 88.23)">
          <path id="Path_2553" data-name="Path 2553" d="M593.214,242.7c-.785-.072-1.5.7-1.592,1.729a1.692,1.692,0,0,0,1.244,1.993c.785.072,1.5-.7,1.592-1.729A1.693,1.693,0,0,0,593.214,242.7Zm-.129,1.643a.521.521,0,0,1-.383-.613c.029-.315.248-.553.49-.531a.522.522,0,0,1,.383.613C593.546,244.13,593.328,244.367,593.086,244.345Z" transform="translate(-591.611 -242.698)" fill="#726a7a"/>
          <path id="Path_2554" data-name="Path 2554" d="M592.247,244.469l-.636,3.843.454.553.557-.385.178-1.054-.2-.359.336-.352-.134-.438.242-.263.223-1.316Z" transform="translate(-591.611 -241.008)" fill="#726a7a"/>
          <path id="Path_2555" data-name="Path 2555" d="M593.555,242.8a1.99,1.99,0,0,1,.61,1.709,1.855,1.855,0,0,1-1.205,1.688l.01,0-.223,1.317-.242.264.133.438-.334.352.2.359-.178,1.055-.531.367.094.113.557-.385.178-1.055-.2-.357.336-.354-.135-.438.242-.264.223-1.315-.01,0a1.847,1.847,0,0,0,1.205-1.688A1.925,1.925,0,0,0,593.555,242.8Z" transform="translate(-591.436 -242.604)" fill="#5d5566"/>
          <path id="Path_2556" data-name="Path 2556" d="M592.372,244.006a.626.626,0,0,1-.143-.473c.029-.315.248-.553.49-.531a.328.328,0,0,1,.119.045.366.366,0,0,0-.24-.141c-.24-.022-.459.215-.488.531A.562.562,0,0,0,592.372,244.006Z" transform="translate(-591.138 -242.5)" fill="#5d5566"/>
        </g>
        <path id="Path_2557" data-name="Path 2557" d="M593.19,245.1c-.616,0-1.115-.764-1.115-1.705s.5-1.707,1.115-1.707V241.4c-.721,0-1.3.893-1.3,1.995s.584,1.993,1.3,1.993Z" transform="translate(-512.242 -155.701)" fill="#332b3b"/>
        <g id="Group_437" data-name="Group 437" transform="translate(79.643 85.703)">
          <path id="Path_2558" data-name="Path 2558" d="M592.836,245.008a1.79,1.79,0,0,1-.762-1.61c0-.944.5-1.707,1.115-1.707s1.117.764,1.117,1.707a2.565,2.565,0,0,1-.047.463,1.284,1.284,0,0,1,.187.041,2.989,2.989,0,0,0,.047-.5c0-1.1-.584-1.995-1.3-1.995s-1.3.893-1.3,1.995a2.081,2.081,0,0,0,.9,1.887A2.107,2.107,0,0,1,592.836,245.008Z" transform="translate(-591.885 -241.404)" fill="#332b3b"/>
          <path id="Path_2559" data-name="Path 2559" d="M593.053,243.441A2.076,2.076,0,0,0,593.3,243a.414.414,0,0,0-.182-.088,1.75,1.75,0,0,1-.176.3A2.17,2.17,0,0,1,593.053,243.441Z" transform="translate(-590.881 -239.966)" fill="#332b3b"/>
        </g>
        <path id="Path_2560" data-name="Path 2560" d="M595.459,240.183a4.458,4.458,0,0,1-1.3,1.7c-.815.547-1.762.83-1.811,1.285s.854,1.682,6.339-1.4Z" transform="translate(-511.807 -156.865)" fill="#ffc2bd"/>
        <path id="Path_2561" data-name="Path 2561" d="M634.372,321.691s2.516,3.632-7.832,3.764c-13.726.176-16.363-2.841.26-3.809Z" transform="translate(-489.941 -79.185)" fill="#201926"/>
        <path id="Path_2562" data-name="Path 2562" d="M648.791,321.691s2.518,3.632-7.832,3.764c-13.724.176-16.363-2.841.262-3.809Z" transform="translate(-476.191 -79.185)" fill="#201926"/>
        <path id="Path_2563" data-name="Path 2563" d="M557.078,234.871s-1.629,39.136,32.33,35.75c1.713-.17-31.388,2.878-31.388,2.878Z" transform="translate(-545.444 -161.931)" fill="#e7e7e7" style="mix-blend-mode: multiply;isolation: isolate"/>
        <g id="Group_443" data-name="Group 443" transform="translate(0 58.329)">
          <g id="Group_439" data-name="Group 439" transform="translate(0 1.325)" style="mix-blend-mode: multiply;isolation: isolate">
            <path id="Path_2564" data-name="Path 2564" d="M578.2,277.552c-3.4-.381-9.574-2.923-10.9-4.81-6.685-9.49-4.968-40.724-4.968-40.724s-5.318-8.924-11.215.061c0,0,2,38.54,10.233,49.259,1.9,2.475,11.452,3.841,16.09,3.874Z" transform="translate(-551.117 -228.07)" fill="#e7e7e7"/>
            <g id="Group_438" data-name="Group 438" transform="translate(26.121 47.71)">
              <path id="Path_2565" data-name="Path 2565" d="M565.389,253.647l-.9,8.277c8.7.707,8.707.078,33.945-2.333-2.854-4.169-2.477-7.1-2.477-7.1S577.946,255.426,565.389,253.647Z" transform="translate(-564.488 -252.492)" fill="#e7e7e7"/>
            </g>
          </g>
          <g id="Group_441" data-name="Group 441">
            <path id="Path_2566" data-name="Path 2566" d="M578.2,276.874c-3.4-.383-9.574-2.922-10.9-4.81-6.685-9.492-4.968-40.724-4.968-40.724s-5.318-8.924-11.215.059c0,0,2,38.542,10.233,49.259,1.9,2.477,11.452,3.841,16.09,3.876Z" transform="translate(-551.117 -227.392)" fill="#e7e7e7"/>
            <g id="Group_440" data-name="Group 440" transform="translate(26.322 48.328)">
              <path id="Path_2567" data-name="Path 2567" d="M565.353,253.285l-.762,7.66c8.572.7,33.807-1.715,33.807-1.715-2.856-4.169-2.477-7.1-2.477-7.1S577.91,255.066,565.353,253.285Z" transform="translate(-564.591 -252.13)" fill="#e7e7e7"/>
            </g>
          </g>
          <g id="Group_442" data-name="Group 442" transform="translate(56.408 41.462)">
            <path id="Path_2568" data-name="Path 2568" d="M582.823,250.857l3.2-.126-2.155,1.714Z" transform="translate(-577.291 -246.598)" fill="#ffc2bd"/>
            <path id="Path_2569" data-name="Path 2569" d="M580.8,254.867s8.7-6.414,9.3-3.407c.533,2.674,1.369,4.73-.481,6.16-1.147.889-7.553.574-7.553.574S579.686,255.429,580.8,254.867Z" transform="translate(-579.505 -246.669)" fill="#ffc2bd"/>
            <path id="Path_2570" data-name="Path 2570" d="M584.2,251.774s4.829-2.491,5.359-1.727-5.249,3.348-5.249,3.348Z" transform="translate(-575.973 -247.389)" fill="#ffc2bd"/>
            <path id="Path_2571" data-name="Path 2571" d="M583.927,253.613s5.847-3.62,6.433-2.9-4.972,3.778-4.972,3.778Z" transform="translate(-576.238 -246.707)" fill="#ffc2bd"/>
            <path id="Path_2572" data-name="Path 2572" d="M583.75,254.9s5.708-3.849,6.322-3.155-4.829,3.974-4.829,3.974Z" transform="translate(-576.407 -245.713)" fill="#ffc2bd"/>
            <path id="Path_2573" data-name="Path 2573" d="M584.645,254.469s2.774-2.038,3.323-1.367-2.756,2.458-2.756,2.458Z" transform="translate(-575.554 -244.466)" fill="#ffc2bd"/>
            <path id="Path_2574" data-name="Path 2574" d="M580.8,254.725s3.12-4.423,3.956-4.058-.166,3.024-.166,3.024Z" transform="translate(-579.222 -246.679)" fill="#ffc2bd"/>
            <path id="Path_2575" data-name="Path 2575" d="M585.857,253.9s-6.07-4.231-5.861-5.179,6.931,4.64,6.931,4.64Z" transform="translate(-579.991 -248.616)" fill="#332b3b"/>
          </g>
        </g>
      </g>
      <g id="Group_384" data-name="Group 384" transform="translate(25.659 47.923)">
        <g id="Group_379" data-name="Group 379" transform="translate(6.246 7.224)">
          <rect id="Rectangle_695" data-name="Rectangle 695" width="2.372" height="11.657" transform="translate(0.146 0.147)" fill="#c2c2c2"/>
          <path id="Path_2433" data-name="Path 2433" d="M567.465,237.713h-2.372a.145.145,0,0,1-.146-.147V225.91a.146.146,0,0,1,.146-.147h2.372a.148.148,0,0,1,.146.147v11.657A.146.146,0,0,1,567.465,237.713Zm-2.227-.293h2.081V226.056h-2.081Z" transform="translate(-564.947 -225.763)" fill="#848383"/>
        </g>
        <g id="Group_383" data-name="Group 383" transform="translate(6.762 10.502)">
          <g id="Group_380" data-name="Group 380">
            <path id="Path_2434" data-name="Path 2434" d="M566.627,228.187a.671.671,0,1,1-.67-.672A.672.672,0,0,1,566.627,228.187Z" transform="translate(-565.14 -227.37)" fill="#fff"/>
            <path id="Path_2435" data-name="Path 2435" d="M566.027,229.074a.817.817,0,1,1,.817-.817A.816.816,0,0,1,566.027,229.074Zm0-1.342a.526.526,0,1,0,.526.526A.527.527,0,0,0,566.027,227.732Z" transform="translate(-565.211 -227.441)" fill="#c9c9c8"/>
          </g>
          <g id="Group_381" data-name="Group 381" transform="translate(0 2.913)">
            <path id="Path_2436" data-name="Path 2436" d="M566.627,229.679a.671.671,0,1,1-.67-.672A.67.67,0,0,1,566.627,229.679Z" transform="translate(-565.14 -228.86)" fill="#fff"/>
            <path id="Path_2437" data-name="Path 2437" d="M566.027,230.567a.818.818,0,1,1,.817-.817A.816.816,0,0,1,566.027,230.567Zm0-1.342a.525.525,0,1,0,.526.526A.526.526,0,0,0,566.027,229.225Z" transform="translate(-565.211 -228.932)" fill="#c9c9c8"/>
          </g>
          <g id="Group_382" data-name="Group 382" transform="translate(0 5.827)">
            <path id="Path_2438" data-name="Path 2438" d="M566.627,231.171a.671.671,0,1,1-.67-.672A.671.671,0,0,1,566.627,231.171Z" transform="translate(-565.14 -230.352)" fill="#fff"/>
            <path id="Path_2439" data-name="Path 2439" d="M566.027,232.059a.818.818,0,1,1,.817-.817A.817.817,0,0,1,566.027,232.059Zm0-1.342a.525.525,0,1,0,.526.525A.526.526,0,0,0,566.027,230.717Z" transform="translate(-565.211 -230.424)" fill="#c9c9c8"/>
          </g>
        </g>
        <path id="Path_2440" data-name="Path 2440" d="M573.169,226.077,565.8,230.54l.218-5.185,7.349-3.29Z" transform="translate(-557.886 -222.065)" fill="#c2c2c2" stroke="#757575" stroke-miterlimit="10" stroke-width="0.25"/>
        <path id="Path_2441" data-name="Path 2441" d="M561.75,225.985l7.408,4.542.1-5.263-7.25-3.1Z" transform="translate(-561.75 -221.973)" fill="#c2c2c2" stroke="#757575" stroke-miterlimit="10" stroke-width="0.25"/>
      </g>
    </g>
  </g>
</svg>
