<svg width="318" height="307" viewBox="0 0 318 307" fill="none" xmlns="http://www.w3.org/2000/svg">
<path d="M157.922 51.9563C95.9867 51.9563 45.752 101.994 45.4336 163.836H270.411C270.093 101.994 219.858 51.9563 157.922 51.9563Z" fill="#FFE5D9"/>
<path d="M268.579 43.3972C267.306 43.3972 266.085 43.6448 264.971 44.0869C262.716 39.2237 257.807 35.8372 252.085 35.8372C246.363 35.8372 241.154 39.4182 238.996 44.5113C237.634 43.804 236.086 43.3884 234.45 43.3884C229.09 43.3884 224.739 47.6768 224.615 53.0086H278.423C278.299 47.6768 273.948 43.3884 268.588 43.3884L268.579 43.3972Z" fill="#FFE5D9"/>
<path d="M301.293 82.0375C300.462 82.0375 299.675 82.1967 298.949 82.4885C297.49 79.3318 294.297 77.1301 290.583 77.1301C286.868 77.1301 283.481 79.4556 282.084 82.7626C281.199 82.3028 280.2 82.0375 279.13 82.0375C275.645 82.0375 272.824 84.8228 272.744 88.2801H307.679C307.599 84.814 304.769 82.0375 301.293 82.0375Z" fill="#FFE5D9"/>
<path d="M97.9844 20.1423C97.1531 20.1423 96.366 20.3014 95.6407 20.5932C94.1815 17.4366 90.9887 15.2349 87.2742 15.2349C83.5596 15.2349 80.1723 17.5604 78.775 20.8673C77.8905 20.4075 76.8912 20.1423 75.821 20.1423C72.3364 20.1423 69.5151 22.9275 69.4355 26.3848H104.37C104.29 22.9187 101.46 20.1423 97.9844 20.1423Z" fill="#FFE5D9"/>
<path d="M158.132 58.2964C159.617 58.2964 160.821 57.093 160.821 55.6084C160.821 54.1239 159.617 52.9204 158.132 52.9204C156.647 52.9204 155.443 54.1239 155.443 55.6084C155.443 57.093 156.647 58.2964 158.132 58.2964Z" fill="#00E592"/>
<path d="M158.133 49.4187C159.822 49.4187 161.352 50.0996 162.475 51.2048L164.377 49.3038C162.767 47.7122 160.565 46.7307 158.133 46.7307C155.7 46.7307 153.498 47.7122 151.889 49.3038L153.79 51.2048C154.905 50.0996 156.443 49.4187 158.133 49.4187Z" fill="#00E592"/>
<path d="M158.133 43.3177C161.503 43.3177 164.563 44.6793 166.783 46.8899L168.684 44.9888C165.978 42.292 162.246 40.6296 158.124 40.6296C154.003 40.6296 150.28 42.3008 147.564 44.9888L149.466 46.8899C151.686 44.6882 154.746 43.3177 158.116 43.3177H158.133Z" fill="#00E592"/>
<path d="M158.133 37.1724C163.201 37.1724 167.791 39.2238 171.134 42.5484L173.035 40.6474C169.215 36.8452 163.943 34.4844 158.133 34.4844C152.322 34.4844 147.06 36.8364 143.23 40.6474L145.132 42.5484C148.466 39.2326 153.065 37.1724 158.133 37.1724Z" fill="#00E592"/>
<path d="M76.9181 122.19H74.707V125.682H76.9181V122.19Z" fill="#3C2469"/>
<path d="M65.6777 122.198H85.7805V122.702C85.7805 123.136 85.4267 123.489 84.9933 123.489H66.4649C66.0315 123.489 65.6777 123.136 65.6777 122.702V122.198Z" fill="#6B44B4"/>
<path d="M66.1546 122.756H85.2933C85.7886 122.756 86.0008 122.119 85.594 121.827L80.2787 118.007C79.9514 117.769 79.5535 117.645 79.1555 117.645H65.8716C65.4913 117.645 65.1906 117.972 65.2348 118.352L65.6505 122.296C65.677 122.561 65.8981 122.756 66.1634 122.756H66.1546Z" fill="#FFB515"/>
<mask id="mask0_47_1879" style="mask-type:luminance" maskUnits="userSpaceOnUse" x="65" y="117" width="21" height="6">
<path d="M66.1546 122.756H85.2933C85.7886 122.756 86.0008 122.119 85.594 121.827L80.2787 118.007C79.9514 117.769 79.5535 117.645 79.1555 117.645H65.8716C65.4913 117.645 65.1906 117.972 65.2348 118.352L65.6505 122.296C65.677 122.561 65.8981 122.756 66.1634 122.756H66.1546Z" fill="white"/>
</mask>
<g mask="url(#mask0_47_1879)">
<path d="M74.4071 116.631L73.9375 117.074L80.2867 123.801L80.7562 123.358L74.4071 116.631Z" fill="#6B44B4"/>
<path d="M69.8515 116.677L69.2793 116.976L72.892 123.888L73.4643 123.589L69.8515 116.677Z" fill="#6B44B4"/>
<path d="M84.3126 119.458H64.8555V120.103H84.3126V119.458Z" fill="#6B44B4"/>
</g>
<g opacity="0.2">
<path d="M65.8716 117.645C65.4913 117.645 65.1906 117.972 65.2348 118.352L65.6505 122.296C65.677 122.561 65.8981 122.756 66.1634 122.756H66.8444L77.6254 117.645H65.8716Z" fill="white"/>
</g>
<path d="M50.9864 122.19H48.7754V125.682H50.9864V122.19Z" fill="#3C2469"/>
<path d="M39.3555 122.198H59.4582V122.702C59.4582 123.136 59.1044 123.489 58.6711 123.489H40.1426C39.7092 123.489 39.3555 123.136 39.3555 122.702V122.198Z" fill="#6B44B4"/>
<path d="M58.937 122.756H39.7983C39.303 122.756 39.0908 122.119 39.4976 121.827L44.8129 118.007C45.1402 117.769 45.5381 117.645 45.9361 117.645H59.22C59.6003 117.645 59.901 117.972 59.8568 118.352L59.4411 122.296C59.4146 122.561 59.1935 122.756 58.9282 122.756H58.937Z" fill="#FFB515"/>
<mask id="mask1_47_1879" style="mask-type:luminance" maskUnits="userSpaceOnUse" x="39" y="117" width="21" height="6">
<path d="M58.937 122.756H39.7983C39.303 122.756 39.0908 122.119 39.4976 121.827L44.8129 118.007C45.1402 117.769 45.5381 117.645 45.9361 117.645H59.22C59.6003 117.645 59.901 117.972 59.8568 118.352L59.4411 122.296C59.4146 122.561 59.1935 122.756 58.9282 122.756H58.937Z" fill="white"/>
</mask>
<g mask="url(#mask1_47_1879)">
<path d="M50.689 116.641L44.3398 123.368L44.8094 123.811L51.1586 117.084L50.689 116.641Z" fill="#6B44B4"/>
<path d="M55.2436 116.666L51.6309 123.578L52.2031 123.877L55.8158 116.965L55.2436 116.666Z" fill="#6B44B4"/>
<path d="M60.2364 119.458H40.7793V120.103H60.2364V119.458Z" fill="#6B44B4"/>
</g>
<g opacity="0.2">
<path d="M45.9364 117.645C45.5296 117.645 45.1405 117.769 44.8132 118.007L39.4979 121.827C39.0911 122.119 39.2945 122.756 39.7986 122.756H42.5226L53.3036 117.645H45.9364Z" fill="white"/>
</g>
<path d="M95.7819 125.532H36.084V162.13H95.7819V125.532Z" fill="#FFD6D0"/>
<path d="M86.9112 133.897H43.6191V162.13H86.9112V133.897Z" fill="#075AFD"/>
<path d="M82.3829 133.897H46.9355V162.13H82.3829V133.897Z" fill="#1009C1" stroke="#1009C1" stroke-width="0.77" stroke-linecap="round" stroke-linejoin="round"/>
<path d="M86.9112 133.897H43.6191V145.781H86.9112V133.897Z" fill="#FFB515"/>
<path d="M43.6191 133.897V145.781H44.8662V135.276H85.6553V145.781H86.9112V133.897H43.6191Z" fill="#DEC3C0"/>
<path d="M86.2219 137.389H44.168V138.291H86.2219V137.389Z" fill="#DEC3C0"/>
<path d="M86.2219 140.148H44.168V141.05H86.2219V140.148Z" fill="#DEC3C0"/>
<path d="M86.2219 142.898H44.168V143.8H86.2219V142.898Z" fill="#DEC3C0"/>
<g style="mix-blend-mode:multiply" opacity="0.5">
<path d="M95.4105 161.838L95.2778 131.81H95.2867V129.962H36.084V131.943L93.4294 131.819V161.838H95.4105Z" fill="#C3C4CB"/>
</g>
<path d="M95.2687 125.364H30.6445V130.139H95.2687V125.364Z" fill="#1009C1" stroke="#1009C1" stroke-width="0.77" stroke-linecap="round" stroke-linejoin="round"/>
<path d="M52.9688 84.7432H72.7V115.717" stroke="#00E592" stroke-width="0.73" stroke-miterlimit="10"/>
<path d="M72.7 118.777C73.545 118.777 74.23 118.092 74.23 117.247C74.23 116.402 73.545 115.717 72.7 115.717C71.8549 115.717 71.1699 116.402 71.1699 117.247C71.1699 118.092 71.8549 118.777 72.7 118.777Z" fill="#00E592"/>
<path d="M53.163 96.689C59.7326 96.689 65.0583 91.3644 65.0583 84.7963C65.0583 78.2281 59.7326 72.9036 53.163 72.9036C46.5933 72.9036 41.2676 78.2281 41.2676 84.7963C41.2676 91.3644 46.5933 96.689 53.163 96.689Z" fill="#00E592"/>
<path d="M57.2488 84.1419C55.595 87.0156 53.9323 89.8893 52.2696 92.7541C52.2696 92.7541 52.2519 92.7718 52.2519 92.7895C52.1369 93.0017 52.0042 93.2051 51.7212 93.099C51.4294 92.9929 51.5001 92.7364 51.5355 92.5154C51.6682 91.7903 51.8008 91.0741 51.9423 90.3491C52.1811 89.0846 52.4287 87.8114 52.6675 86.5469C52.6852 86.4408 52.6941 86.3259 52.7118 86.1756C52.5526 86.1756 52.4199 86.1579 52.2872 86.1579C51.3498 86.1579 50.4123 86.1667 49.4748 86.1667C48.9176 86.1667 48.7938 85.9368 49.068 85.4505C50.7218 82.5768 52.3845 79.7031 54.0472 76.8382C54.0561 76.8294 54.0649 76.8205 54.0649 76.8029C54.1799 76.5906 54.3126 76.3873 54.5956 76.4934C54.8874 76.5995 54.8167 76.8559 54.7813 77.077C54.6486 77.802 54.516 78.5182 54.3745 79.2433C54.1357 80.5077 53.888 81.781 53.6492 83.0454C53.6316 83.1515 53.6227 83.2665 53.605 83.4168C53.7642 83.4256 53.8969 83.4345 54.0295 83.4345C54.967 83.4345 55.9045 83.4345 56.842 83.4345C57.3992 83.4345 57.5318 83.6644 57.2488 84.1507V84.1419Z" fill="white"/>
<path d="M95.5273 111.597V163.085H220.071V111.597L157.799 76.2988L95.5273 111.597Z" fill="#FFD6D0"/>
<path d="M107.547 104.488V162.899H146.594V82.6033L107.547 104.488Z" fill="#CDA7A1"/>
<g style="mix-blend-mode:multiply" opacity="0.5">
<path d="M220.06 111.588L157.726 76.3875V76.3963L95.4902 111.677V113.666L157.726 78.2443L220.06 113.569V111.588Z" fill="#C3C4CB"/>
</g>
<path d="M159.85 65.7148H155.994V72.4703H159.85V65.7148Z" fill="#6B3F91"/>
<path d="M225.42 114.541L157.727 76.3873L91.3078 114.126L88.4512 109.095L157.71 69.738L228.259 109.501L225.42 114.541Z" fill="#1009C1" stroke="#1009C1" stroke-width="0.77" stroke-linecap="round" stroke-linejoin="round"/>
<path d="M126.985 139.618C121.865 139.618 117.717 143.765 117.717 148.884V162.475H136.263V148.884C136.263 143.765 132.115 139.618 126.994 139.618H126.985Z" fill="#1009C1" stroke="#1009C1" stroke-width="0.77" stroke-linecap="round" stroke-linejoin="round"/>
<path d="M126.985 142.987C123.377 142.987 120.449 145.913 120.449 149.521V161.909H133.53V149.521C133.53 145.913 130.602 142.987 126.994 142.987H126.985Z" fill="#075AFD"/>
<g style="mix-blend-mode:multiply" opacity="0.5">
<path d="M146.521 134.365L107.527 134.498V132.517H146.521V134.365Z" fill="#C3C4CB"/>
</g>
<path d="M136.316 106.857H117.77V127.354H136.316V106.857Z" fill="#075AFD"/>
<path d="M138.42 104.62H115.664V106.875H138.42V104.62Z" fill="#1009C1" stroke="#1009C1" stroke-width="0.77" stroke-linecap="round" stroke-linejoin="round"/>
<path opacity="0.47" d="M126.179 113.631H109.773V125.205H126.179V113.631Z" fill="white"/>
<path opacity="0.47" d="M144.355 113.631H127.949V125.205H144.355V113.631Z" fill="white"/>
<path d="M146.601 112.578H107.527V113.701H146.601V112.578Z" fill="#FFE8E4"/>
<path d="M147.99 126.788H106.184V132.5H147.99V126.788Z" fill="#FFD6D0"/>
<path d="M98.8516 50.2322H131.23V155.905" stroke="#00E592" stroke-width="0.73" stroke-miterlimit="10"/>
<path d="M131.134 157.682C131.979 157.682 132.664 156.997 132.664 156.153C132.664 155.308 131.979 154.623 131.134 154.623C130.289 154.623 129.604 155.308 129.604 156.153C129.604 156.997 130.289 157.682 131.134 157.682Z" fill="#00E592"/>
<path d="M74.3621 152.023C75.2071 152.023 75.8921 151.338 75.8921 150.494C75.8921 149.649 75.2071 148.964 74.3621 148.964C73.5171 148.964 72.832 149.649 72.832 150.494C72.832 151.338 73.5171 152.023 74.3621 152.023Z" fill="#00E592"/>
<path d="M74.0879 150.6H131.124" stroke="#00E592" stroke-width="0.73" stroke-miterlimit="10"/>
<path d="M98.2333 62.2134C104.803 62.2134 110.129 56.8889 110.129 50.3207C110.129 43.7525 104.803 38.428 98.2333 38.428C91.6636 38.428 86.3379 43.7525 86.3379 50.3207C86.3379 56.8889 91.6636 62.2134 98.2333 62.2134Z" fill="#00E592"/>
<path d="M102.841 48.9768H102.566V47.7035C102.566 45.3426 100.691 43.3708 98.3565 43.3354C98.2946 43.3354 98.162 43.3354 98.1 43.3354C95.7563 43.3797 93.8902 45.3515 93.8902 47.7035V48.9768H93.6161C93.2004 48.9768 92.8555 49.41 92.8555 49.9494V56.3423C92.8555 56.8728 93.2004 57.3149 93.6161 57.3149H102.841C103.256 57.3149 103.601 56.8816 103.601 56.3423V49.9494C103.601 49.41 103.256 48.9768 102.841 48.9768ZM99.0906 53.1414V55.0778C99.0906 55.2989 98.9049 55.4846 98.6838 55.4846H97.7728C97.5517 55.4846 97.366 55.2989 97.366 55.0778V53.1414C97.1537 52.9292 97.0299 52.6374 97.0299 52.3102C97.0299 51.7001 97.5075 51.1696 98.1089 51.1431C98.1708 51.1431 98.3035 51.1431 98.3654 51.1431C98.9668 51.1696 99.4444 51.6913 99.4444 52.3102C99.4444 52.6374 99.3205 52.9292 99.1083 53.1414H99.0906ZM100.771 48.9768H95.6856V47.7035C95.6856 46.2976 96.8265 45.1393 98.2327 45.1393C99.6389 45.1393 100.78 46.2976 100.78 47.7035V48.9768H100.771Z" fill="white"/>
<path d="M235.97 129.918H170.09V162.616H235.97V129.918Z" fill="#FFE8E4"/>
<g style="mix-blend-mode:multiply" opacity="0.5">
<path d="M235.802 131.969L170.09 132.102V130.112H235.802V131.969Z" fill="#C3C4CB"/>
</g>
<g style="mix-blend-mode:multiply" opacity="0.5">
<path d="M170.081 130.103L170.222 163.81H168.232V130.103H170.081Z" fill="#C3C4CB"/>
</g>
<path d="M246.45 125.258H157.814V130.139H246.45V125.258Z" fill="#1009C1" stroke="#1009C1" stroke-width="0.77" stroke-linecap="round" stroke-linejoin="round"/>
<path d="M225.367 139.759H179.492V162.121H225.367V139.759Z" fill="#075AFD"/>
<mask id="mask2_47_1879" style="mask-type:luminance" maskUnits="userSpaceOnUse" x="197" y="139" width="23" height="24">
<path d="M219.042 139.759H197.18V162.758H219.042V139.759Z" fill="white"/>
</mask>
<g mask="url(#mask2_47_1879)">
<path d="M216.995 134.551L213.375 132.942L199.19 164.84L202.81 166.449L216.995 134.551Z" fill="#4188F9"/>
<path d="M219.281 136.213L218.202 135.736L204.016 167.63L207.642 169.239L207.854 168.761L205.307 167.63L219.281 136.213Z" fill="#4188F9"/>
</g>
<path d="M204.326 140.157H202.398V162.342H204.326V140.157Z" fill="#1009C1" stroke="#1009C1" stroke-width="0.77" stroke-linecap="round" stroke-linejoin="round"/>
<path d="M226.764 138.866H177.635V141.121H226.764V138.866Z" fill="#1009C1" stroke="#1009C1" stroke-width="0.77" stroke-linecap="round" stroke-linejoin="round"/>
<path d="M171.027 91.1448H159.105V120.209H171.027V91.1448Z" fill="#075AFD"/>
<path d="M171.019 105.089H159.105V106.265H171.019V105.089Z" fill="#4188F9"/>
<path d="M165.632 105.336H164.35V119.714H165.632V105.336Z" fill="#4188F9"/>
<path d="M172.753 118.29H157.744V120.545H172.753V118.29Z" fill="#075AFD"/>
<path d="M172.753 90.6938H157.744V92.9486H172.753V90.6938Z" fill="#1009C1" stroke="#1009C1" stroke-width="0.77" stroke-linecap="round" stroke-linejoin="round"/>
<path d="M205.502 108.254H193.58V120.518H205.502V108.254Z" fill="#075AFD"/>
<path d="M199.514 112.852H193.58V114.028H199.514V112.852Z" fill="#4188F9"/>
<path d="M200.177 108.511H198.895V119.714H200.177V108.511Z" fill="#4188F9"/>
<path d="M207.077 118.29H192.068V120.545H207.077V118.29Z" fill="#1009C1" stroke="#1009C1" stroke-width="0.77" stroke-linecap="round" stroke-linejoin="round"/>
<path d="M207.077 106.557H192.068V108.811H207.077V106.557Z" fill="#1009C1" stroke="#1009C1" stroke-width="0.77" stroke-linecap="round" stroke-linejoin="round"/>
<path d="M263.503 147.549H258.842V162.819H263.503V147.549Z" fill="#075AFD"/>
<path d="M261.168 98.8376L251.51 150.476H270.834L261.168 98.8376Z" fill="#00C87F"/>
<path d="M280.385 147.549H275.725V162.819H280.385V147.549Z" fill="#075AFD"/>
<path d="M278.05 84.6902L268.393 150.476H287.717L278.05 84.6902Z" fill="#00E2B8"/>
<path d="M306.503 161.918H9.33984V166.94H306.503V161.918Z" fill="#00E592"/>
<path d="M199.534 154.808C200.379 154.808 201.064 154.124 201.064 153.279C201.064 152.434 200.379 151.749 199.534 151.749C198.689 151.749 198.004 152.434 198.004 153.279C198.004 154.124 198.689 154.808 199.534 154.808Z" fill="#00E592"/>
<path d="M199.533 153.447H241.11V84.7432H263.087" stroke="#00E592" stroke-width="0.73" stroke-miterlimit="10"/>
<path d="M263.089 96.1673C269.658 96.1673 274.984 90.8427 274.984 84.2745C274.984 77.7064 269.658 72.3818 263.089 72.3818C256.519 72.3818 251.193 77.7064 251.193 84.2745C251.193 90.8427 256.519 96.1673 263.089 96.1673Z" fill="#00E592"/>
<path d="M264.84 90.0043V90.4553C264.84 90.809 264.575 91.1096 264.239 91.1627L264.132 91.5694C264.07 91.7905 263.876 91.9408 263.646 91.9408H262.549C262.319 91.9408 262.116 91.7905 262.063 91.5694L261.957 91.1627C261.612 91.1096 261.355 90.8178 261.355 90.4553V90.0043C261.355 89.7656 261.55 89.5711 261.789 89.5711H264.424C264.663 89.5711 264.858 89.7656 264.858 90.0043H264.84ZM266.865 83.9651C266.865 84.982 266.458 85.9104 265.804 86.5824C265.309 87.0953 264.981 87.7584 264.875 88.4658C264.831 88.7664 264.566 88.9963 264.256 88.9963H261.913C261.603 88.9963 261.338 88.7753 261.293 88.4746C261.187 87.7673 260.86 87.1041 260.356 86.5913C259.71 85.9193 259.312 85.0174 259.304 84.0182C259.277 81.9138 260.957 80.2161 263.053 80.1984C265.149 80.1807 266.856 81.8784 266.856 83.974L266.865 83.9651ZM263.513 81.675C263.513 81.4451 263.328 81.2506 263.089 81.2506C261.585 81.2506 260.365 82.4708 260.365 83.974C260.365 84.2039 260.551 84.3984 260.789 84.3984C261.028 84.3984 261.214 84.2127 261.214 83.974C261.214 82.9394 262.054 82.0994 263.089 82.0994C263.328 82.0994 263.513 81.9138 263.513 81.675ZM263.089 78.9428C263.319 78.9428 263.513 78.7571 263.513 78.5184V77.024C263.513 76.7941 263.328 76.5996 263.089 76.5996C262.85 76.5996 262.664 76.7853 262.664 77.024V78.5184C262.664 78.7571 262.859 78.9428 263.089 78.9428ZM258.074 83.9563C258.074 83.7264 257.888 83.5319 257.65 83.5319H256.155C255.925 83.5319 255.73 83.7176 255.73 83.9563C255.73 84.195 255.916 84.3807 256.155 84.3807H257.65C257.888 84.3807 258.074 84.195 258.074 83.9563ZM270.023 83.5319H268.528C268.298 83.5319 268.103 83.7176 268.103 83.9563C268.103 84.195 268.289 84.3807 268.528 84.3807H270.023C270.253 84.3807 270.447 84.195 270.447 83.9563C270.447 83.7176 270.261 83.5319 270.023 83.5319ZM258.941 87.502L257.88 88.5631C257.712 88.7311 257.712 88.9963 257.88 89.1643C257.959 89.2439 258.074 89.2881 258.18 89.2881C258.286 89.2881 258.401 89.2439 258.481 89.1643L259.542 88.1121C259.71 87.9441 259.71 87.6788 259.542 87.5108C259.374 87.3428 259.109 87.3428 258.941 87.5108V87.502ZM266.936 80.5344C267.042 80.5344 267.157 80.4902 267.237 80.4106L268.298 79.3584C268.466 79.1904 268.466 78.9251 268.298 78.7571C268.13 78.5891 267.865 78.5891 267.697 78.7571L266.635 79.8182C266.467 79.9862 266.467 80.2514 266.635 80.4194C266.724 80.499 266.83 80.5432 266.936 80.5432V80.5344ZM258.941 80.4106C259.02 80.4902 259.135 80.5344 259.242 80.5344C259.348 80.5344 259.463 80.4902 259.542 80.4106C259.71 80.2426 259.71 79.9773 259.542 79.8093L258.481 78.7483C258.313 78.5803 258.048 78.5803 257.88 78.7483C257.712 78.9163 257.712 79.1815 257.88 79.3495L258.941 80.4106ZM267.237 87.502C267.069 87.334 266.803 87.334 266.635 87.502C266.467 87.67 266.467 87.9353 266.635 88.1033L267.697 89.1555C267.776 89.2351 267.891 89.2793 267.997 89.2793C268.103 89.2793 268.218 89.2351 268.298 89.1555C268.466 88.9875 268.466 88.7222 268.298 88.5542L267.246 87.4932L267.237 87.502Z" fill="white"/>
<path d="M199.534 114.974C200.379 114.974 201.064 114.29 201.064 113.445C201.064 112.6 200.379 111.915 199.534 111.915C198.689 111.915 198.004 112.6 198.004 113.445C198.004 114.29 198.689 114.974 199.534 114.974Z" fill="#00E592"/>
<path d="M165.014 107.176C165.859 107.176 166.544 106.491 166.544 105.646C166.544 104.801 165.859 104.116 165.014 104.116C164.169 104.116 163.484 104.801 163.484 105.646C163.484 106.491 164.169 107.176 165.014 107.176Z" fill="#00E592"/>
<path d="M199.488 113.462H217.928V53.4241" stroke="#00E592" stroke-width="0.73" stroke-miterlimit="10"/>
<path d="M218.222 62.284C224.791 62.284 230.117 56.9594 230.117 50.3912C230.117 43.8231 224.791 38.4985 218.222 38.4985C211.652 38.4985 206.326 43.8231 206.326 50.3912C206.326 56.9594 211.652 62.284 218.222 62.284Z" fill="#00E592"/>
<path d="M220.159 54.0609V43.6448C220.159 42.566 219.292 41.6907 218.213 41.6907C217.134 41.6907 216.268 42.566 216.268 43.6448V54.0609C215.675 54.5914 215.33 55.3518 215.33 56.2095C215.33 57.8099 216.63 59.1009 218.231 59.1009C219.832 59.1009 221.123 57.8011 221.123 56.2095C221.123 55.3607 220.752 54.5914 220.168 54.0609H220.159ZM218.213 42.6279C218.762 42.6279 219.213 43.0789 219.213 43.6359V44.5378H218.213V45.484H219.213V46.4831H218.213V47.4292H219.213V48.4284H218.213V49.3745H219.213V50.3737H217.205V43.6359C217.205 43.0789 217.656 42.6279 218.204 42.6279H218.213Z" fill="white"/>
<path d="M165.068 105.673V85.9722H217.903" stroke="#00E592" stroke-width="0.73" stroke-miterlimit="10"/>
<path d="M70.2402 196.623V247.758C70.2402 257.168 77.8705 264.796 87.2829 264.796H228.55C237.963 264.796 245.593 257.168 245.593 247.758V196.623C245.593 187.213 237.963 179.584 228.55 179.584H87.2829C77.8705 179.584 70.2402 187.213 70.2402 196.623Z" fill="#1009C1" stroke="#1009C1" stroke-width="0.77" stroke-linecap="round" stroke-linejoin="round"/>
<path d="M238.196 227.986C241.576 226.587 243.181 222.712 241.781 219.333C240.381 215.954 236.506 214.349 233.126 215.749C229.746 217.149 228.141 221.023 229.541 224.402C230.941 227.781 234.816 229.386 238.196 227.986Z" fill="#FFCD48"/>
<path d="M107.855 179.832V178.842C107.855 178.134 108.429 177.56 109.137 177.56H119.591C120.298 177.56 120.873 178.134 120.873 178.842V179.832H107.846H107.855Z" fill="#2A184D"/>
<path d="M124.101 179.832V178.842C124.101 178.134 124.676 177.56 125.383 177.56H135.837C136.544 177.56 137.119 178.134 137.119 178.842V179.832H124.092H124.101Z" fill="#2A184D"/>
<path d="M82.0649 214.095V229.649C82.0649 230.277 81.5608 230.781 80.9328 230.781C80.3049 230.781 79.8008 230.277 79.8008 229.649V214.095C79.8008 213.468 80.3049 212.964 80.9328 212.964C81.5608 212.964 82.0649 213.468 82.0649 214.095Z" fill="#FFCD48"/>
<path d="M91.0859 183.696V261.507H225.57V183.696H91.0859Z" fill="#075AFD"/>
<path d="M157.921 208.021L141.861 221.258C141.861 221.258 141.861 221.302 141.843 221.337C141.843 221.372 141.834 221.399 141.834 221.417V234.821C141.834 235.308 142.011 235.723 142.365 236.077C142.718 236.431 143.134 236.608 143.621 236.608H154.348V225.882H161.495V236.608H172.214C172.7 236.608 173.116 236.431 173.469 236.077C173.823 235.723 174 235.308 174 234.821V221.417C174 221.337 173.991 221.284 173.974 221.249L157.913 208.012L157.921 208.021Z" fill="#00E592"/>
<path d="M180.12 218.242L174.009 213.158V201.769C174.009 201.504 173.929 201.292 173.761 201.124C173.593 200.956 173.381 200.876 173.116 200.876H167.756C167.5 200.876 167.279 200.956 167.11 201.124C166.942 201.292 166.863 201.504 166.863 201.769V207.216L160.053 201.522C159.46 201.035 158.753 200.797 157.93 200.797C157.108 200.797 156.4 201.035 155.808 201.522L135.723 218.242C135.537 218.393 135.431 218.587 135.413 218.843C135.395 219.091 135.457 219.312 135.608 219.498L137.341 221.567C137.491 221.735 137.686 221.841 137.925 221.876C138.146 221.894 138.376 221.832 138.597 221.682L157.921 205.571L177.246 221.682C177.396 221.814 177.591 221.876 177.83 221.876H177.918C178.157 221.841 178.351 221.735 178.502 221.567L180.235 219.498C180.386 219.312 180.447 219.091 180.43 218.843C180.412 218.596 180.306 218.393 180.12 218.242Z" fill="#00E592"/>
<path d="M107.971 198.993H144.09V212.981" stroke="#00E592" stroke-width="0.73" stroke-miterlimit="10"/>
<path d="M107.971 204.351C110.931 204.351 113.33 201.952 113.33 198.993C113.33 196.034 110.931 193.635 107.971 193.635C105.011 193.635 102.611 196.034 102.611 198.993C102.611 201.952 105.011 204.351 107.971 204.351Z" fill="#00E592"/>
<path d="M109.916 198.215C109.138 199.559 108.368 200.903 107.59 202.247C107.59 202.247 107.59 202.247 107.59 202.264C107.537 202.362 107.475 202.459 107.342 202.406C107.21 202.353 107.236 202.238 107.254 202.132C107.316 201.796 107.378 201.46 107.439 201.115C107.554 200.523 107.669 199.93 107.776 199.338C107.776 199.285 107.784 199.232 107.793 199.161C107.723 199.161 107.661 199.161 107.599 199.161C107.165 199.161 106.723 199.161 106.281 199.161C106.024 199.161 105.963 199.055 106.095 198.825C106.873 197.481 107.643 196.137 108.421 194.793C108.421 194.793 108.421 194.793 108.421 194.775C108.474 194.678 108.536 194.581 108.669 194.634C108.801 194.687 108.775 194.802 108.757 194.908C108.695 195.244 108.633 195.58 108.572 195.925C108.457 196.517 108.342 197.109 108.235 197.702C108.235 197.755 108.227 197.808 108.218 197.879C108.289 197.879 108.35 197.879 108.412 197.879C108.846 197.879 109.288 197.879 109.73 197.879C109.987 197.879 110.049 197.985 109.916 198.215Z" fill="#FFCD48"/>
<path d="M107.971 238.358C110.931 238.358 113.33 235.959 113.33 233C113.33 230.041 110.931 227.642 107.971 227.642C105.011 227.642 102.611 230.041 102.611 233C102.611 235.959 105.011 238.358 107.971 238.358Z" fill="#00E592"/>
<path d="M108.82 234.6V229.64C108.82 229.127 108.404 228.711 107.891 228.711C107.378 228.711 106.963 229.127 106.963 229.64V234.6C106.68 234.848 106.512 235.219 106.512 235.617C106.512 236.378 107.131 236.997 107.891 236.997C108.652 236.997 109.262 236.378 109.262 235.617C109.262 235.21 109.085 234.848 108.802 234.6H108.82ZM107.891 229.162C108.157 229.162 108.369 229.375 108.369 229.64V232.85H107.414V229.64C107.414 229.375 107.626 229.162 107.891 229.162Z" fill="#FFCD48"/>
<path d="M113.181 251.243C113.876 248.366 112.106 245.472 109.229 244.777C106.352 244.083 103.456 245.852 102.761 248.729C102.067 251.605 103.836 254.5 106.714 255.195C109.591 255.889 112.487 254.12 113.181 251.243Z" fill="#00E592"/>
<path d="M108.987 252.214V252.461C108.987 252.656 108.837 252.824 108.651 252.85L108.589 253.08C108.554 253.204 108.448 253.293 108.315 253.293H107.705C107.572 253.293 107.466 253.204 107.43 253.08L107.369 252.85C107.174 252.824 107.033 252.656 107.033 252.453V252.205C107.033 252.072 107.139 251.966 107.271 251.966H108.739C108.872 251.966 108.978 252.072 108.978 252.205L108.987 252.214ZM110.119 248.323C110.119 248.889 109.898 249.411 109.527 249.782C109.252 250.074 109.067 250.436 109.005 250.834C108.978 251.002 108.828 251.126 108.66 251.126H107.351C107.183 251.126 107.033 251.002 107.006 250.834C106.944 250.445 106.767 250.065 106.484 249.782C106.122 249.411 105.9 248.898 105.9 248.341C105.892 247.165 106.82 246.219 107.997 246.21C109.164 246.21 110.119 247.147 110.119 248.314V248.323Z" fill="#FFCD48"/>
<path d="M113.175 217.231C113.87 214.354 112.1 211.459 109.223 210.765C106.346 210.07 103.45 211.84 102.756 214.716C102.061 217.593 103.831 220.488 106.708 221.182C109.585 221.877 112.481 220.107 113.175 217.231Z" fill="#00E592"/>
<path d="M110.384 214.882H110.251V214.263C110.251 213.114 109.34 212.15 108.199 212.132C108.164 212.132 108.102 212.132 108.075 212.132C106.935 212.15 106.024 213.114 106.024 214.263V214.882H105.891C105.688 214.882 105.52 215.094 105.52 215.351V218.472C105.52 218.729 105.688 218.95 105.891 218.95H110.384C110.587 218.95 110.755 218.737 110.755 218.472V215.351C110.755 215.094 110.587 214.882 110.384 214.882ZM108.553 216.907V217.853C108.553 217.959 108.465 218.057 108.359 218.057H107.916C107.81 218.057 107.722 217.968 107.722 217.853V216.907C107.616 216.801 107.554 216.66 107.554 216.5C107.554 216.2 107.784 215.943 108.075 215.934C108.111 215.934 108.173 215.934 108.199 215.934C108.491 215.943 108.721 216.2 108.721 216.5C108.721 216.66 108.659 216.801 108.553 216.907ZM109.376 214.882H106.899V214.263C106.899 213.582 107.456 213.017 108.137 213.017C108.818 213.017 109.376 213.582 109.376 214.263V214.882Z" fill="#FFCD48"/>
<path d="M111.826 215.926H125.765V229.861H151.28" stroke="#00E592" stroke-width="0.73" stroke-miterlimit="10"/>
<path d="M127.135 254.354C127.135 253.691 127.674 253.151 128.338 253.151C129.001 253.151 129.54 253.691 129.54 254.354C129.54 255.017 129.001 255.556 128.338 255.556C127.674 255.556 127.135 255.017 127.135 254.354Z" fill="#00E592"/>
<path d="M128.339 251.595C129.09 251.595 129.78 251.896 130.276 252.391L131.125 251.542C130.408 250.834 129.426 250.392 128.339 250.392C127.251 250.392 126.269 250.834 125.553 251.542L126.402 252.391C126.897 251.896 127.587 251.595 128.339 251.595Z" fill="#00E592"/>
<path d="M128.338 248.871C129.841 248.871 131.203 249.482 132.194 250.463L133.043 249.614C131.831 248.412 130.169 247.669 128.338 247.669C126.507 247.669 124.836 248.412 123.633 249.614L124.482 250.463C125.472 249.482 126.834 248.871 128.338 248.871Z" fill="#00E592"/>
<path d="M128.338 246.131C130.602 246.131 132.645 247.05 134.14 248.527L134.989 247.678C133.282 245.98 130.93 244.928 128.338 244.928C125.747 244.928 123.394 245.98 121.688 247.678L122.537 248.527C124.022 247.05 126.074 246.131 128.338 246.131Z" fill="#00E592"/>
<g opacity="0.61">
<mask id="mask3_47_1879" style="mask-type:luminance" maskUnits="userSpaceOnUse" x="90" y="183" width="136" height="79">
<path d="M225.801 183.908H90.8125V261.489H225.801V183.908Z" fill="white"/>
</mask>
<g mask="url(#mask3_47_1879)">
<path d="M217.195 165.505L204.361 159.801L154.135 272.746L166.968 278.45L217.195 165.505Z" fill="#4188F9"/>
<path d="M225.244 171.352L221.441 169.663L171.215 282.613L184.048 288.316L184.799 286.627L175.77 282.613L225.244 171.352Z" fill="#4188F9"/>
</g>
</g>
<path opacity="0.85" d="M198.011 234.786C205.469 234.786 211.516 228.741 211.516 221.284C211.516 213.827 205.469 207.782 198.011 207.782C190.552 207.782 184.506 213.827 184.506 221.284C184.506 228.741 190.552 234.786 198.011 234.786Z" fill="#00E592"/>
<path opacity="0.85" d="M203.981 226.737C206.998 223.441 206.772 218.323 203.475 215.306C200.179 212.289 195.06 212.515 192.042 215.811C189.024 219.107 189.251 224.225 192.547 227.242C195.844 230.259 200.963 230.032 203.981 226.737Z" fill="#A1E5CF"/>
<path d="M215.035 247.616C215.062 247.713 215.079 247.784 215.088 247.784L215.035 247.616Z" fill="#FFD0AB"/>
<path d="M257.621 298.75C257.621 298.75 256.409 294.868 256.409 294.851C256.099 293.852 256.71 292.136 256.825 291.084C257.09 288.732 257.276 286.389 257.293 284.019C257.355 272.745 254.667 259.836 250.528 249.358L248.476 242.912C247.609 240.012 244.558 238.358 241.648 239.225C239.747 239.791 238.261 241.577 237.766 243.416L237.562 242.611C236.642 239.516 233.388 237.757 230.301 238.685C228.081 239.348 226.551 241.692 226.206 243.858C226.162 243.646 226.153 243.522 226.189 243.504L225.932 242.558C224.942 239.402 221.643 237.633 218.565 238.597C215.593 239.534 213.842 243.036 214.612 246.113C214.585 246.113 214.567 246.113 214.541 246.122L205.467 220.161C204.344 216.995 200.868 215.342 197.702 216.465C194.535 217.588 192.89 221.063 194.005 224.22C194.005 224.22 203.963 253.646 208.589 267.086L204.777 271.737C202.336 274.717 201.549 278.723 202.681 282.401L204.662 288.865C205.405 291.287 206.926 293.401 208.996 294.868C213.709 298.202 221.643 303.162 224.88 305.161C225.516 305.559 226.082 305.886 226.357 306.045L226.79 307.009L261.026 306.982L257.621 298.759V298.75Z" fill="#FFD0AB"/>
<path opacity="0.5" d="M198.383 218.516C195.924 219.401 194.562 221.912 195.358 224.113C195.358 224.113 195.862 225.484 196.145 225.776C197.348 227.04 204.264 224.706 204.662 222.672C204.742 222.257 204.291 220.913 204.291 220.913C203.504 218.711 200.859 217.641 198.392 218.525L198.383 218.516Z" fill="#ECF0F2"/>
<path d="M208.88 266.963C209.712 268.245 210.419 269.58 211.091 270.924C211.746 272.277 212.365 273.647 212.931 275.035C213.506 276.424 214.054 277.821 214.549 279.244C215.045 280.659 215.513 282.091 215.885 283.568C215.956 283.86 215.779 284.152 215.487 284.231C215.248 284.293 215 284.178 214.885 283.975C214.125 282.666 213.461 281.313 212.825 279.952C212.188 278.59 211.604 277.211 211.038 275.814C210.472 274.425 209.959 273.011 209.482 271.587C209.013 270.155 208.588 268.704 208.288 267.21C208.252 267.033 208.367 266.856 208.544 266.821C208.677 266.795 208.809 266.856 208.88 266.963Z" fill="#FFA088"/>
<path d="M215.479 246.705C216.319 247.987 217.027 249.322 217.699 250.666C218.362 252.019 218.981 253.39 219.556 254.778C220.131 256.166 220.688 257.563 221.183 258.987C221.687 260.402 222.156 261.834 222.536 263.311C222.607 263.603 222.43 263.894 222.147 263.974C221.908 264.036 221.661 263.921 221.546 263.718C220.776 262.409 220.113 261.056 219.467 259.694C218.822 258.333 218.238 256.953 217.672 255.556C217.097 254.168 216.584 252.753 216.098 251.33C215.629 249.897 215.196 248.447 214.895 246.953C214.86 246.776 214.975 246.599 215.152 246.564C215.284 246.537 215.417 246.599 215.488 246.705H215.479Z" fill="#FFA088"/>
<path d="M226.843 244.132C227.639 245.352 228.302 246.625 228.93 247.916C229.549 249.207 230.124 250.516 230.655 251.842C231.185 253.169 231.698 254.504 232.149 255.857C232.609 257.21 233.034 258.58 233.361 259.986C233.432 260.278 233.246 260.57 232.954 260.64C232.715 260.693 232.476 260.587 232.361 260.384C231.636 259.137 231.017 257.846 230.416 256.546C229.814 255.247 229.275 253.929 228.753 252.594C228.222 251.268 227.754 249.915 227.32 248.553C226.896 247.183 226.507 245.803 226.25 244.371C226.215 244.194 226.339 244.026 226.516 243.991C226.648 243.964 226.781 244.026 226.852 244.132H226.843Z" fill="#FFA088"/>
<path d="M238.093 243.487C238.854 244.61 239.482 245.786 240.075 246.97C240.658 248.164 241.207 249.367 241.684 250.605C242.179 251.834 242.648 253.072 243.073 254.327C243.497 255.583 243.886 256.856 244.178 258.165C244.24 258.456 244.054 258.748 243.763 258.819C243.524 258.872 243.294 258.766 243.179 258.563C242.489 257.413 241.905 256.219 241.339 255.017C240.773 253.814 240.269 252.594 239.783 251.365C239.287 250.136 238.854 248.88 238.456 247.616C238.067 246.343 237.713 245.061 237.492 243.725C237.466 243.549 237.581 243.381 237.766 243.345C237.899 243.327 238.023 243.381 238.093 243.487Z" fill="#FFA088"/>
<path d="M298.49 54.2997L305.831 53.9107L298.941 57.5802L301.789 66.6434L296.199 59.269L293.626 66.2455L293.086 58.2256L289.363 60.7987L292.564 55.7145L286.604 49.0652L294.086 52.6197L294.678 44.3169L297.066 52.3014L301.444 50.1793L298.499 54.3086L298.49 54.2997ZM54.9754 44.5026L47.6348 44.8917L54.5244 41.2222L51.6765 32.1589L57.266 39.5333L59.8397 32.5568L60.3792 40.5767L64.1026 38.0036L60.901 43.0879L66.8619 49.7372L59.3798 46.1826L58.7872 54.4854L56.3993 46.5009L52.0215 48.623L54.9666 44.4938L54.9754 44.5026Z" stroke="#FFCD48" stroke-width="0.75" stroke-linecap="round" stroke-linejoin="round"/>
<path d="M289.275 73.16L292.573 70.8168M188.549 25.1559L188.77 26.491M288.319 89.3854L289.496 88.7045M204.601 37.1105L205.795 37.7471M210.747 0.380127L206.714 0.724971M180.545 12.0872L178.555 8.55913" stroke="#FECAAE" stroke-width="0.85" stroke-linecap="round" stroke-linejoin="round"/>
<path d="M111.101 135.135L114.4 132.792M10.3836 87.1307L10.6047 88.4659M110.154 151.36L111.331 150.679M26.4357 99.0942L27.6297 99.7308M32.5735 62.355L28.5406 62.6998M2.37079 74.062L0.380859 70.534" stroke="#FECAAE" stroke-width="0.85" stroke-linecap="round" stroke-linejoin="round"/>
<path d="M298.456 138.194C298.456 138.194 304.877 137.885 307.857 128.689C310.837 119.493 306.265 116.159 302.055 117.954C297.845 119.749 295.219 126.947 301.595 125.762C307.972 124.577 313.464 116.716 316.241 109.731C319.018 102.746 316.701 98.3778 316.701 98.3778M163.804 3.86394C163.804 3.86394 142.418 -4.26201 135.423 4.94268C128.436 14.1474 134.335 22.8658 140.19 22.7862C146.045 22.7066 148.229 14.3242 138.633 11.8926C129.037 9.46103 121.67 14.0147 120.971 20.7613C120.273 27.5079 122.669 30.0191 122.669 30.0191" stroke="#1009C1" stroke-width="0.92" stroke-linecap="round" stroke-linejoin="round"/>
</svg>
