<svg id="Layer_1" data-name="Layer 1" xmlns="http://www.w3.org/2000/svg" xmlns:xlink="http://www.w3.org/1999/xlink" viewBox="0 0 327 280"><defs><clipPath id="clip-path"><rect width="327" height="280" rx="24" style="fill:none"/></clipPath><radialGradient id="radial-gradient" cx="-141.19" cy="552.82" r="0.98" gradientTransform="translate(9580.98 -169705.01) rotate(-13) scale(335.7 295.54)" gradientUnits="userSpaceOnUse"><stop offset="0" stop-color="#0081d1"/><stop offset="0.24" stop-color="#0099d1"/><stop offset="1" stop-color="#005082"/></radialGradient><radialGradient id="radial-gradient-2" cx="-140.57" cy="551.8" r="1.08" gradientTransform="matrix(232.18, 201.75, 230.92, -265.75, -94835.78, 175372.5)" gradientUnits="userSpaceOnUse"><stop offset="0" stop-color="#0081d1"/><stop offset="0.24" stop-color="#0081d1"/><stop offset="1" stop-color="#004b82"/></radialGradient></defs><g id="Group_108" data-name="Group 108"><g id="offer"><g id="Group_107" data-name="Group 107"><rect id="Background-4" width="327" height="280" rx="24" style="fill:#f2fbff"/><g style="clip-path:url(#clip-path)"><g id="Mask_Group_1" data-name="Mask Group 1"><g id="Group_96" data-name="Group 96"><g id="Group_95" data-name="Group 95"><g id="Group_103" data-name="Group 103"><path id="Path_1311" data-name="Path 1311" d="M228.76,398.5c-8.36-2-16.59-4.95-22.89-10.1-9-7.35-13.08-18.28-19.65-27.48-8.58-12-21.75-21.26-37-25.92-15.93-4.88-33.52-4.77-50.67-3.28-16.7,1.46-35.33,3.75-48.18-5.14-13.1-9.07-15.17-26.64-27.08-36.93C11.22,279.19-8,278.6-22.92,271.48c-17.82-8.51-28.46-27-26.67-45.45S-33.88,190-15,181.55c10.72-4.76,22.56-6.69,33.7-10.49,24.43-8.34,45.41-25.65,70.93-29.63,22.24-3.47,44.18,3.89,63.23,13.45s36.69,21.48,57.25,28.37c21.77,7.3,47.13,9.17,64.15,23,7.13,5.82,12.29,13.43,19.75,18.93,12.75,9.4,30.45,11.49,45.89,17.12,3.65,1.33,7.27,2.92,10,5.41a20.19,20.19,0,0,1,5.85,10.8c6.41,29.23-31.86,57.17-26.5,86.62,1.3,7.15,5.19,14,4.16,21.27-2.08,14.64-24,24.79-37.76,29.86C275,403.93,249.27,403.4,228.76,398.5Z" style="fill:url(#radial-gradient)"/><path id="Path_1312" data-name="Path 1312" d="M321.69,200.22c-8.92-6.8-18.93-12.6-30.19-14.48-16.09-2.69-32.87,2.83-49.4,4.28a96.11,96.11,0,0,1-60.76-14.87c-18.33-12-31.71-30.12-43-49-11-18.41-22.46-39.55-43.43-44.82C73.5,75.93,50,89.43,28,86.37,5.66,83.26-9.85,64.09-30.2,55.13c-24.29-10.7-55.53-5.2-77.2,13.05s-32.95,48.16-28.91,75c2.28,15.21,9,29.07,12.79,43.86,8.36,32.45,2.88,69.34,17.51,99C-93.25,312-67.21,328-40.65,339s55,18.52,79.39,33.47c25.83,15.83,47.65,40.17,78,45.27,12.75,2.15,26.2.67,38.79,3.43,21.54,4.72,37.74,21,56.63,31.83,4.46,2.55,9.22,4.85,14.44,5.45,6,.69,12.27-.94,18-3.61,41.41-19.4,46.89-83.47,87.75-104.14,9.93-5,21.43-7.1,29.75-14.65,16.67-15.13,12.49-46.63,8.26-65.24C364,242.84,343.55,216.89,321.69,200.22Z" style="opacity:0.30000001192092896;isolation:isolate;fill:url(#radial-gradient-2)"/></g></g></g></g></g><rect id="Background-5" width="327" height="280" rx="24" style="fill:#1caaf1;opacity:0.5;isolation:isolate"/><g id="Group_97" data-name="Group 97" style="opacity:0.5"><path id="Path_1313" data-name="Path 1313" d="M38.16,165.93l0,0h0s0,0,0,0Z" style="fill:#fff"/><path id="Path_1314" data-name="Path 1314" d="M43.39,166.47s.06,0,.06.06a.06.06,0,0,1-.05.06h0a.07.07,0,0,1-.06-.07.05.05,0,0,1,.05-.05Z" style="fill:#fff"/><path id="Path_1315" data-name="Path 1315" d="M48.61,167a.17.17,0,0,1,.15.16.13.13,0,0,1-.13.13h0a.16.16,0,0,1-.14-.16.12.12,0,0,1,.12-.13Z" style="fill:#fff"/><path id="Path_1316" data-name="Path 1316" d="M53.84,167.5a.24.24,0,0,1,.2.22.18.18,0,0,1-.18.18h0a.23.23,0,0,1-.2-.22.18.18,0,0,1,.17-.19Z" style="fill:#fff"/><path id="Path_1317" data-name="Path 1317" d="M59.06,168.07a.25.25,0,0,1,.22.24.19.19,0,0,1-.19.19h0a.26.26,0,0,1-.22-.24.2.2,0,0,1,.19-.2Z" style="fill:#fff"/><path id="Path_1318" data-name="Path 1318" d="M64.28,168.67a.23.23,0,0,1,.2.22.17.17,0,0,1-.17.18h0a.23.23,0,0,1-.2-.22.19.19,0,0,1,.17-.19Z" style="fill:#fff"/><path id="Path_1319" data-name="Path 1319" d="M69.5,169.31a.16.16,0,0,1,.15.16.12.12,0,0,1-.12.13h0a.16.16,0,0,1-.14-.16.12.12,0,0,1,.12-.13Z" style="fill:#fff"/><path id="Path_1320" data-name="Path 1320" d="M74.73,170a.07.07,0,0,1,.07.08.06.06,0,0,1-.06.06h0a.08.08,0,0,1-.07-.08s0-.06.06-.07Z" style="fill:#fff"/><path id="Path_1321" data-name="Path 1321" d="M80,170.61h0s0,0,0,0h0v0Z" style="fill:#fff"/><path id="Path_1322" data-name="Path 1322" d="M33,160.09a.07.07,0,0,1,0,0,0,0,0,0,1,0,0h0s0,0,0-.05,0,0,0,0Z" style="fill:#fff"/><path id="Path_1323" data-name="Path 1323" d="M38.17,160.52a.24.24,0,0,1,.2.22.19.19,0,0,1-.18.19s0,0,0,0a.22.22,0,0,1-.2-.22.17.17,0,0,1,.17-.18Z" style="fill:#fff"/><path id="Path_1324" data-name="Path 1324" d="M43.39,161a.41.41,0,0,1,.35.39.3.3,0,0,1-.29.31h-.06a.4.4,0,0,1-.35-.38.3.3,0,0,1,.29-.31S43.37,161,43.39,161Z" style="fill:#fff"/><path id="Path_1325" data-name="Path 1325" d="M48.61,161.43a.54.54,0,0,1,.47.51.42.42,0,0,1-.4.42h-.07a.54.54,0,0,1-.46-.52.41.41,0,0,1,.4-.42Z" style="fill:#fff"/><path id="Path_1326" data-name="Path 1326" d="M53.83,162a.61.61,0,0,1,.53.58.46.46,0,0,1-.45.47h-.08a.61.61,0,0,1-.52-.58.47.47,0,0,1,.45-.47Z" style="fill:#fff"/><path id="Path_1327" data-name="Path 1327" d="M59.06,162.51a.63.63,0,0,1,.55.61.48.48,0,0,1-.47.5h-.08a.63.63,0,0,1-.55-.61.47.47,0,0,1,.47-.49Z" style="fill:#fff"/><path id="Path_1328" data-name="Path 1328" d="M64.28,163.12a.6.6,0,0,1,.52.58.45.45,0,0,1-.44.47h-.08a.61.61,0,0,1-.52-.58.45.45,0,0,1,.45-.47Z" style="fill:#fff"/><path id="Path_1329" data-name="Path 1329" d="M69.5,163.77a.54.54,0,0,1,.47.51.41.41,0,0,1-.4.42H69.5a.53.53,0,0,1-.46-.51.41.41,0,0,1,.4-.42Z" style="fill:#fff"/><path id="Path_1330" data-name="Path 1330" d="M74.73,164.45a.43.43,0,0,1,.36.4.33.33,0,0,1-.31.33h0a.43.43,0,0,1-.37-.4.32.32,0,0,1,.31-.33Z" style="fill:#fff"/><path id="Path_1331" data-name="Path 1331" d="M80,165.2a.23.23,0,0,1,.2.22.18.18,0,0,1-.17.18h0a.23.23,0,0,1-.2-.22.19.19,0,0,1,.18-.19Z" style="fill:#fff"/><path id="Path_1332" data-name="Path 1332" d="M85.17,165.93a.06.06,0,0,1,.06.06,0,0,0,0,1,0,0h0a.06.06,0,0,1,0-.06s0,0,0,0Z" style="fill:#fff"/><path id="Path_1333" data-name="Path 1333" d="M27.72,154.26s.07,0,.08.08a.07.07,0,0,1-.07.06h0a.08.08,0,0,1-.07-.08.06.06,0,0,1,.06-.06Z" style="fill:#fff"/><path id="Path_1334" data-name="Path 1334" d="M32.94,154.62a.35.35,0,0,1,.3.33.26.26,0,0,1-.25.26h-.05a.33.33,0,0,1-.29-.32.26.26,0,0,1,.25-.26Z" style="fill:#fff"/><path id="Path_1335" data-name="Path 1335" d="M38.17,155a.56.56,0,0,1,.48.53.42.42,0,0,1-.41.43h-.07a.56.56,0,0,1-.48-.53.41.41,0,0,1,.41-.43Z" style="fill:#fff"/><path id="Path_1336" data-name="Path 1336" d="M43.39,155.45a.72.72,0,0,1,.64.71.57.57,0,0,1-.55.57h-.09a.73.73,0,0,1-.64-.71.57.57,0,0,1,.55-.57Z" style="fill:#fff"/><path id="Path_1337" data-name="Path 1337" d="M48.61,155.92a.86.86,0,0,1,.76.83.67.67,0,0,1-.65.68h-.11a.86.86,0,0,1-.75-.83.66.66,0,0,1,.65-.68Z" style="fill:#fff"/><path id="Path_1338" data-name="Path 1338" d="M53.84,156.43a1,1,0,0,1,.82.92.73.73,0,0,1-.71.74h-.11a1,1,0,0,1-.83-.92.73.73,0,0,1,.71-.74Z" style="fill:#fff"/><path id="Path_1339" data-name="Path 1339" d="M59.06,157a1,1,0,0,1,.84.93.73.73,0,0,1-.72.75h-.12a1,1,0,0,1-.84-.94.74.74,0,0,1,.72-.75Z" style="fill:#fff"/><path id="Path_1340" data-name="Path 1340" d="M64.28,157.6a.94.94,0,0,1,.83.91.72.72,0,0,1-.71.74h-.12a1,1,0,0,1-.82-.92.72.72,0,0,1,.7-.74Z" style="fill:#fff"/><path id="Path_1341" data-name="Path 1341" d="M69.5,158.25a.87.87,0,0,1,.76.84.66.66,0,0,1-.65.68H69.5a.86.86,0,0,1-.75-.84.66.66,0,0,1,.65-.67Z" style="fill:#fff"/><path id="Path_1342" data-name="Path 1342" d="M74.73,159a.72.72,0,0,1,.63.71.54.54,0,0,1-.54.57.27.27,0,0,1-.09,0,.74.74,0,0,1-.64-.71.56.56,0,0,1,.55-.57Z" style="fill:#fff"/><path id="Path_1343" data-name="Path 1343" d="M80,159.68a.56.56,0,0,1,.49.55.42.42,0,0,1-.42.44H80a.56.56,0,0,1-.49-.55.42.42,0,0,1,.42-.44Z" style="fill:#fff"/><path id="Path_1344" data-name="Path 1344" d="M85.17,160.47a.32.32,0,0,1,.29.32.24.24,0,0,1-.24.26h0a.34.34,0,0,1-.29-.32.26.26,0,0,1,.25-.26Z" style="fill:#fff"/><path id="Path_1345" data-name="Path 1345" d="M90.39,161.26a.1.1,0,0,1,.09.1.08.08,0,0,1-.07.08h0a.11.11,0,0,1-.08-.1.07.07,0,0,1,.07-.08Z" style="fill:#fff"/><path id="Path_1346" data-name="Path 1346" d="M22.5,148.48a0,0,0,0,1,0,.05s0,0,0,0h0a.07.07,0,0,1,0,0s0,0,0,0Z" style="fill:#fff"/><path id="Path_1347" data-name="Path 1347" d="M27.72,148.82a.32.32,0,0,1,.29.32.25.25,0,0,1-.25.26h0a.35.35,0,0,1-.29-.33.26.26,0,0,1,.25-.26Z" style="fill:#fff"/><path id="Path_1348" data-name="Path 1348" d="M33,149.17a.6.6,0,0,1,.52.58.47.47,0,0,1-.45.47H33a.6.6,0,0,1-.53-.58.46.46,0,0,1,.45-.46Z" style="fill:#fff"/><path id="Path_1349" data-name="Path 1349" d="M38.17,149.55a.83.83,0,0,1,.72.81.64.64,0,0,1-.62.65h-.1a.84.84,0,0,1-.73-.8.64.64,0,0,1,.62-.65A.41.41,0,0,1,38.17,149.55Z" style="fill:#fff"/><path id="Path_1350" data-name="Path 1350" d="M43.39,150a1,1,0,0,1,.88,1,.76.76,0,0,1-.75.79h-.13a1,1,0,0,1-.88-1,.77.77,0,0,1,.75-.79Z" style="fill:#fff"/><path id="Path_1351" data-name="Path 1351" d="M48.61,150.43a1.17,1.17,0,0,1,1,1.13.89.89,0,0,1-.87.91h-.15a1.15,1.15,0,0,1-1-1.13.89.89,0,0,1,.87-.91Z" style="fill:#fff"/><path id="Path_1352" data-name="Path 1352" d="M53.84,150.94a1.25,1.25,0,0,1,1.08,1.21,1,1,0,0,1-.93,1h-.15a1.24,1.24,0,0,1-1.09-1.21,1,1,0,0,1,.92-1Z" style="fill:#fff"/><path id="Path_1353" data-name="Path 1353" d="M59.06,151.5a1.27,1.27,0,0,1,1.11,1.24,1,1,0,0,1-1,1h-.16a1.29,1.29,0,0,1-1.12-1.24,1,1,0,0,1,1-1Z" style="fill:#fff"/><path id="Path_1354" data-name="Path 1354" d="M64.28,152.11a1.26,1.26,0,0,1,1.09,1.21,1,1,0,0,1-.93,1,.43.43,0,0,1-.16,0,1.23,1.23,0,0,1-1.08-1.2,1,1,0,0,1,.93-1Z" style="fill:#fff"/><path id="Path_1355" data-name="Path 1355" d="M69.5,152.77a1.17,1.17,0,0,1,1,1.13.9.9,0,0,1-.87.91H69.5a1.17,1.17,0,0,1-1-1.13.89.89,0,0,1,.87-.91Z" style="fill:#fff"/><path id="Path_1356" data-name="Path 1356" d="M74.73,153.47a1,1,0,0,1,.9,1,.79.79,0,0,1-.77.81h-.13a1,1,0,0,1-.9-1,.79.79,0,0,1,.76-.81Z" style="fill:#fff"/><path id="Path_1357" data-name="Path 1357" d="M80,154.21a.86.86,0,0,1,.74.83.65.65,0,0,1-.63.66H80a.84.84,0,0,1-.74-.82.65.65,0,0,1,.63-.66Z" style="fill:#fff"/><path id="Path_1358" data-name="Path 1358" d="M85.17,155a.62.62,0,0,1,.54.6.47.47,0,0,1-.46.48h-.08a.61.61,0,0,1-.53-.6.46.46,0,0,1,.45-.48Z" style="fill:#fff"/><path id="Path_1359" data-name="Path 1359" d="M90.4,155.82a.35.35,0,0,1,.3.34.28.28,0,0,1-.27.27h0a.35.35,0,0,1-.3-.34.25.25,0,0,1,.26-.27Z" style="fill:#fff"/><path id="Path_1360" data-name="Path 1360" d="M95.62,156.65a.07.07,0,0,1,.06.07.06.06,0,0,1-.05.05h0a.09.09,0,0,1-.06-.07,0,0,0,0,1,0,0Z" style="fill:#fff"/><path id="Path_1361" data-name="Path 1361" d="M17.28,142.7s0,0,0,0h0l0,0h0Z" style="fill:#fff"/><path id="Path_1362" data-name="Path 1362" d="M22.5,143.1a.23.23,0,0,1,.2.22.17.17,0,0,1-.17.18h0a.23.23,0,0,1-.2-.22.19.19,0,0,1,.17-.19Z" style="fill:#fff"/><path id="Path_1363" data-name="Path 1363" d="M27.72,143.41a.55.55,0,0,1,.48.53.42.42,0,0,1-.41.43h-.07a.55.55,0,0,1-.48-.53.43.43,0,0,1,.41-.43Z" style="fill:#fff"/><path id="Path_1364" data-name="Path 1364" d="M33,143.75a.83.83,0,0,1,.72.8.64.64,0,0,1-.62.65H33a.84.84,0,0,1-.73-.81.64.64,0,0,1,.63-.64Z" style="fill:#fff"/><path id="Path_1365" data-name="Path 1365" d="M38.17,144.11a1.08,1.08,0,0,1,.94,1,.82.82,0,0,1-.8.84h-.14a1.07,1.07,0,0,1-.94-1,.83.83,0,0,1,.81-.85Z" style="fill:#fff"/><path id="Path_1366" data-name="Path 1366" d="M43.39,144.52a1.29,1.29,0,0,1,1.12,1.24,1,1,0,0,1-1,1h-.16a1.29,1.29,0,0,1-1.12-1.24,1,1,0,0,1,1-1Z" style="fill:#fff"/><path id="Path_1367" data-name="Path 1367" d="M48.61,145a1.43,1.43,0,0,1,1.25,1.38,1.1,1.1,0,0,1-1.07,1.12h-.18a1.42,1.42,0,0,1-1.24-1.39A1.09,1.09,0,0,1,48.44,145Z" style="fill:#fff"/><path id="Path_1368" data-name="Path 1368" d="M53.84,145.48A1.52,1.52,0,0,1,55.17,147,1.17,1.17,0,0,1,54,148.15h-.19a1.54,1.54,0,0,1-1.34-1.48,1.18,1.18,0,0,1,1.15-1.2Z" style="fill:#fff"/><path id="Path_1369" data-name="Path 1369" d="M59.06,146a1.57,1.57,0,0,1,1.36,1.51,1.19,1.19,0,0,1-1.16,1.22.66.66,0,0,1-.2,0,1.56,1.56,0,0,1-1.36-1.51A1.18,1.18,0,0,1,58.86,146Z" style="fill:#fff"/><path id="Path_1370" data-name="Path 1370" d="M64.28,146.64a1.53,1.53,0,0,1,1.33,1.49,1.16,1.16,0,0,1-1.14,1.19h-.19A1.53,1.53,0,0,1,63,147.83a1.17,1.17,0,0,1,1.14-1.2Z" style="fill:#fff"/><path id="Path_1371" data-name="Path 1371" d="M69.5,147.32a1.43,1.43,0,0,1,1.25,1.38,1.1,1.1,0,0,1-1.07,1.12H69.5a1.42,1.42,0,0,1-1.24-1.39,1.1,1.1,0,0,1,1.07-1.12Z" style="fill:#fff"/><path id="Path_1372" data-name="Path 1372" d="M74.73,148a1.3,1.3,0,0,1,1.13,1.25,1,1,0,0,1-1,1h-.16A1.28,1.28,0,0,1,73.6,149a1,1,0,0,1,1-1Z" style="fill:#fff"/><path id="Path_1373" data-name="Path 1373" d="M80,148.78a1.1,1.1,0,0,1,1,1.06.85.85,0,0,1-.82.86H80a1.11,1.11,0,0,1-1-1.07.84.84,0,0,1,.82-.85Z" style="fill:#fff"/><path id="Path_1374" data-name="Path 1374" d="M85.17,149.58a.84.84,0,0,1,.74.82.65.65,0,0,1-.63.66h-.11a.85.85,0,0,1-.74-.82.66.66,0,0,1,.64-.66Z" style="fill:#fff"/><path id="Path_1375" data-name="Path 1375" d="M90.4,150.41a.57.57,0,0,1,.49.54.45.45,0,0,1-.42.45H90.4a.57.57,0,0,1-.5-.54.45.45,0,0,1,.42-.45Z" style="fill:#fff"/><path id="Path_1376" data-name="Path 1376" d="M95.62,151.27a.24.24,0,0,1,.21.24.18.18,0,0,1-.18.19h0a.24.24,0,0,1-.22-.24.19.19,0,0,1,.18-.19S95.61,151.27,95.62,151.27Z" style="fill:#fff"/><path id="Path_1377" data-name="Path 1377" d="M100.84,152.06h0s0,0,0,0h0s0,0,0,0,0,0,0,0Z" style="fill:#fff"/><path id="Path_1378" data-name="Path 1378" d="M17.28,137.43a.08.08,0,0,1,0,.07,0,0,0,0,1,0,.05h0a.06.06,0,0,1-.06-.06.06.06,0,0,1,.05-.06Z" style="fill:#fff"/><path id="Path_1379" data-name="Path 1379" d="M22.5,137.73a.41.41,0,0,1,.35.39.31.31,0,0,1-.29.31H22.5a.41.41,0,0,1-.35-.39.29.29,0,0,1,.29-.31Z" style="fill:#fff"/><path id="Path_1380" data-name="Path 1380" d="M27.72,138a.74.74,0,0,1,.64.71.55.55,0,0,1-.55.57h-.09a.72.72,0,0,1-.63-.71.55.55,0,0,1,.54-.57Z" style="fill:#fff"/><path id="Path_1381" data-name="Path 1381" d="M32.94,138.36a1,1,0,0,1,.89,1,.78.78,0,0,1-.76.8h-.13a1,1,0,0,1-.88-1,.78.78,0,0,1,.76-.8Z" style="fill:#fff"/><path id="Path_1382" data-name="Path 1382" d="M38.17,138.72A1.27,1.27,0,0,1,39.28,140a1,1,0,0,1-1,1h-.15a1.3,1.3,0,0,1-1.12-1.25,1,1,0,0,1,1-1A.45.45,0,0,1,38.17,138.72Z" style="fill:#fff"/><path id="Path_1383" data-name="Path 1383" d="M43.39,139.11a1.5,1.5,0,0,1,1.3,1.45,1.15,1.15,0,0,1-1.12,1.17h-.18a1.5,1.5,0,0,1-1.3-1.45,1.15,1.15,0,0,1,1.12-1.17Z" style="fill:#fff"/><path id="Path_1384" data-name="Path 1384" d="M48.61,139.57a1.64,1.64,0,0,1,1.44,1.59,1.27,1.27,0,0,1-1.23,1.29l-.21,0a1.64,1.64,0,0,1-1.43-1.59,1.26,1.26,0,0,1,1.23-1.29Z" style="fill:#fff"/><path id="Path_1385" data-name="Path 1385" d="M53.84,140.05a1.76,1.76,0,0,1,1.53,1.71,1.33,1.33,0,0,1-1.31,1.37h-.22a1.76,1.76,0,0,1-1.54-1.71A1.34,1.34,0,0,1,53.62,140Z" style="fill:#fff"/><path id="Path_1386" data-name="Path 1386" d="M59.06,140.6a1.8,1.8,0,0,1,1.56,1.74,1.36,1.36,0,0,1-1.34,1.4.81.81,0,0,1-.22,0A1.81,1.81,0,0,1,57.49,142a1.38,1.38,0,0,1,1.34-1.4Z" style="fill:#fff"/><path id="Path_1387" data-name="Path 1387" d="M64.28,141.22a1.77,1.77,0,0,1,1.54,1.71,1.35,1.35,0,0,1-1.32,1.37h-.22a1.76,1.76,0,0,1-1.53-1.71,1.33,1.33,0,0,1,1.31-1.37A.81.81,0,0,1,64.28,141.22Z" style="fill:#fff"/><path id="Path_1388" data-name="Path 1388" d="M69.5,141.89A1.66,1.66,0,0,1,71,143.5a1.27,1.27,0,0,1-1.24,1.3H69.5a1.66,1.66,0,0,1-1.44-1.61,1.27,1.27,0,0,1,1.24-1.3Z" style="fill:#fff"/><path id="Path_1389" data-name="Path 1389" d="M74.73,142.62a1.5,1.5,0,0,1,1.3,1.45,1.15,1.15,0,0,1-1.12,1.17h-.18a1.51,1.51,0,0,1-1.3-1.45,1.13,1.13,0,0,1,1.11-1.17Z" style="fill:#fff"/><path id="Path_1390" data-name="Path 1390" d="M80,143.38a1.29,1.29,0,0,1,1.13,1.25,1,1,0,0,1-1,1H80a1.3,1.3,0,0,1-1.13-1.25,1,1,0,0,1,1-1Z" style="fill:#fff"/><path id="Path_1391" data-name="Path 1391" d="M85.17,144.18a1.06,1.06,0,0,1,.92,1,.8.8,0,0,1-.79.81h-.13a1,1,0,0,1-.91-1,.8.8,0,0,1,.78-.82Z" style="fill:#fff"/><path id="Path_1392" data-name="Path 1392" d="M90.4,145a.74.74,0,0,1,.65.72.57.57,0,0,1-.56.58H90.4a.76.76,0,0,1-.66-.73.58.58,0,0,1,.56-.58Z" style="fill:#fff"/><path id="Path_1393" data-name="Path 1393" d="M95.62,145.89a.43.43,0,0,1,.38.41.34.34,0,0,1-.33.34h0a.45.45,0,0,1-.38-.42.34.34,0,0,1,.32-.34Z" style="fill:#fff"/><path id="Path_1394" data-name="Path 1394" d="M100.84,146.78a.07.07,0,0,1,.07.08.06.06,0,0,1-.06.06h0a.08.08,0,0,1-.07-.08.07.07,0,0,1,.06-.07Z" style="fill:#fff"/><path id="Path_1395" data-name="Path 1395" d="M17.28,132.12a.16.16,0,0,1,.14.16.12.12,0,0,1-.12.13h0a.17.17,0,0,1-.15-.16.13.13,0,0,1,.13-.13Z" style="fill:#fff"/><path id="Path_1396" data-name="Path 1396" d="M22.5,132.39a.52.52,0,0,1,.46.52.4.4,0,0,1-.39.41H22.5a.54.54,0,0,1-.46-.52.4.4,0,0,1,.39-.41Z" style="fill:#fff"/><path id="Path_1397" data-name="Path 1397" d="M27.72,132.69a.84.84,0,0,1,.75.83.65.65,0,0,1-.64.68h-.11a.86.86,0,0,1-.75-.83.66.66,0,0,1,.64-.68Z" style="fill:#fff"/><path id="Path_1398" data-name="Path 1398" d="M32.94,133a1.17,1.17,0,0,1,1,1.13.88.88,0,0,1-.87.9.75.75,0,0,1-.15,0,1.17,1.17,0,0,1-1-1.13.89.89,0,0,1,.87-.91Z" style="fill:#fff"/><path id="Path_1399" data-name="Path 1399" d="M38.17,133.36a1.42,1.42,0,0,1,1.24,1.39,1.08,1.08,0,0,1-1.06,1.11.55.55,0,0,1-.18,0,1.44,1.44,0,0,1-1.25-1.38A1.11,1.11,0,0,1,38,133.35Z" style="fill:#fff"/><path id="Path_1400" data-name="Path 1400" d="M43.39,133.76a1.64,1.64,0,0,1,1.44,1.59,1.27,1.27,0,0,1-1.23,1.29h-.21A1.66,1.66,0,0,1,42,135a1.25,1.25,0,0,1,1.23-1.28A.67.67,0,0,1,43.39,133.76Z" style="fill:#fff"/><ellipse id="Ellipse_1" data-name="Ellipse 1" cx="48.61" cy="135.78" rx="1.51" ry="1.69" transform="translate(-79.98 70.48) rotate(-43.38)" style="fill:#fff"/><path id="Path_1401" data-name="Path 1401" d="M53.84,134.67a1.93,1.93,0,0,1,1.69,1.88,1.49,1.49,0,0,1-1.45,1.52h-.24a2,2,0,0,1-1.7-1.89,1.49,1.49,0,0,1,1.45-1.52Z" style="fill:#fff"/><path id="Path_1402" data-name="Path 1402" d="M59.06,135.22a2,2,0,0,1,1.72,1.92,1.5,1.5,0,0,1-1.47,1.54,1,1,0,0,1-.25,0,2,2,0,0,1-1.72-1.92,1.51,1.51,0,0,1,1.47-1.54Z" style="fill:#fff"/><path id="Path_1403" data-name="Path 1403" d="M64.28,135.84a2,2,0,0,1,1.7,1.88,1.5,1.5,0,0,1-1.46,1.52l-.24,0a1.93,1.93,0,0,1-1.69-1.88A1.49,1.49,0,0,1,64,135.82Z" style="fill:#fff"/><ellipse id="Ellipse_2" data-name="Ellipse 2" cx="69.51" cy="138.12" rx="1.51" ry="1.68" transform="translate(-75.89 85.51) rotate(-43.4)" style="fill:#fff"/><path id="Path_1404" data-name="Path 1404" d="M74.73,137.25a1.65,1.65,0,0,1,1.44,1.61,1.27,1.27,0,0,1-1.24,1.3h-.2a1.66,1.66,0,0,1-1.45-1.61,1.27,1.27,0,0,1,1.24-1.3Z" style="fill:#fff"/><path id="Path_1405" data-name="Path 1405" d="M80,138a1.44,1.44,0,0,1,1.26,1.4,1.1,1.1,0,0,1-1.07,1.13H80a1.46,1.46,0,0,1-1.26-1.4A1.11,1.11,0,0,1,79.76,138Z" style="fill:#fff"/><path id="Path_1406" data-name="Path 1406" d="M85.17,138.84a1.19,1.19,0,0,1,1,1.15.9.9,0,0,1-.88.92h-.15a1.18,1.18,0,0,1-1-1.14.9.9,0,0,1,.88-.92Z" style="fill:#fff"/><path id="Path_1407" data-name="Path 1407" d="M90.39,139.69a.88.88,0,0,1,.77.85.67.67,0,0,1-.66.69h-.11a.88.88,0,0,1-.76-.86.67.67,0,0,1,.66-.69Z" style="fill:#fff"/><path id="Path_1408" data-name="Path 1408" d="M95.62,140.56a.56.56,0,0,1,.48.53.42.42,0,0,1-.41.43h-.07a.56.56,0,0,1-.48-.53.42.42,0,0,1,.41-.43Z" style="fill:#fff"/><path id="Path_1409" data-name="Path 1409" d="M100.84,141.46a.19.19,0,0,1,.16.18.14.14,0,0,1-.14.14h0a.18.18,0,0,1-.16-.18.14.14,0,0,1,.14-.14Z" style="fill:#fff"/><path id="Path_1410" data-name="Path 1410" d="M17.28,126.84a.25.25,0,0,1,.2.23.18.18,0,0,1-.18.18h0a.23.23,0,0,1-.2-.23.17.17,0,0,1,.17-.18Z" style="fill:#fff"/><path id="Path_1411" data-name="Path 1411" d="M22.5,127.11a.6.6,0,0,1,.52.58.46.46,0,0,1-.45.47H22.5a.6.6,0,0,1-.52-.58.46.46,0,0,1,.44-.47Z" style="fill:#fff"/><path id="Path_1412" data-name="Path 1412" d="M27.72,127.39a1,1,0,0,1,.83.92.73.73,0,0,1-.71.74h-.12a1,1,0,0,1-.82-.92.72.72,0,0,1,.7-.74Z" style="fill:#fff"/><path id="Path_1413" data-name="Path 1413" d="M32.94,127.71A1.25,1.25,0,0,1,34,128.92a1,1,0,0,1-.93,1h-.16a1.25,1.25,0,0,1-1.08-1.21,1,1,0,0,1,.93-1Z" style="fill:#fff"/><path id="Path_1414" data-name="Path 1414" d="M38.17,128.05a1.53,1.53,0,0,1,1.33,1.48,1.18,1.18,0,0,1-1.14,1.2h-.19a1.52,1.52,0,0,1-1.33-1.48A1.17,1.17,0,0,1,38,128Z" style="fill:#fff"/><path id="Path_1415" data-name="Path 1415" d="M43.39,128.43a1.78,1.78,0,0,1,1.54,1.71,1.36,1.36,0,0,1-1.32,1.38l-.22,0a1.75,1.75,0,0,1-1.53-1.7,1.34,1.34,0,0,1,1.31-1.38Z" style="fill:#fff"/><path id="Path_1416" data-name="Path 1416" d="M48.61,128.86a2,2,0,0,1,1.7,1.89,1.49,1.49,0,0,1-1.46,1.51h-.24a2,2,0,0,1-1.69-1.89,1.48,1.48,0,0,1,1.45-1.51Z" style="fill:#fff"/><path id="Path_1417" data-name="Path 1417" d="M53.84,129.33a2.09,2.09,0,0,1,1.81,2A1.59,1.59,0,0,1,54.1,133a1.11,1.11,0,0,1-.26,0,2.07,2.07,0,0,1-1.81-2,1.59,1.59,0,0,1,1.55-1.63Z" style="fill:#fff"/><path id="Path_1418" data-name="Path 1418" d="M59.06,129.87a2.13,2.13,0,0,1,1.85,2.06,1.62,1.62,0,0,1-1.59,1.66,1.15,1.15,0,0,1-.26,0,2.13,2.13,0,0,1-1.85-2.06,1.62,1.62,0,0,1,1.58-1.67Z" style="fill:#fff"/><path id="Path_1419" data-name="Path 1419" d="M64.28,130.5a2.07,2.07,0,0,1,1.81,2,1.58,1.58,0,0,1-1.55,1.62,1.13,1.13,0,0,1-.26,0,2.07,2.07,0,0,1-1.81-2A1.59,1.59,0,0,1,64,130.48Z" style="fill:#fff"/><ellipse id="Ellipse_3" data-name="Ellipse 3" cx="69.5" cy="132.89" rx="1.62" ry="1.81" transform="translate(-72.29 84.04) rotate(-43.38)" style="fill:#fff"/><path id="Path_1420" data-name="Path 1420" d="M74.73,131.94a1.76,1.76,0,0,1,1.53,1.71A1.35,1.35,0,0,1,75,135l-.22,0a1.76,1.76,0,0,1-1.54-1.7,1.35,1.35,0,0,1,1.32-1.38Z" style="fill:#fff"/><path id="Path_1421" data-name="Path 1421" d="M80,132.72a1.54,1.54,0,0,1,1.35,1.5,1.19,1.19,0,0,1-1.15,1.21H80a1.55,1.55,0,0,1-1.35-1.5,1.19,1.19,0,0,1,1.15-1.22Z" style="fill:#fff"/><path id="Path_1422" data-name="Path 1422" d="M85.17,133.53a1.29,1.29,0,0,1,1.12,1.24,1,1,0,0,1-1,1h-.16a1.28,1.28,0,0,1-1.11-1.24,1,1,0,0,1,1-1Z" style="fill:#fff"/><path id="Path_1423" data-name="Path 1423" d="M90.4,134.39a1,1,0,0,1,.84.94.75.75,0,0,1-.72.75H90.4a1,1,0,0,1-.84-.93.74.74,0,0,1,.72-.76Z" style="fill:#fff"/><path id="Path_1424" data-name="Path 1424" d="M95.62,135.27a.63.63,0,0,1,.55.61.47.47,0,0,1-.47.49h-.08a.63.63,0,0,1-.55-.61.48.48,0,0,1,.47-.5Z" style="fill:#fff"/><path id="Path_1425" data-name="Path 1425" d="M100.84,136.18a.26.26,0,0,1,.22.24.19.19,0,0,1-.19.2h0a.27.27,0,0,1-.22-.24.2.2,0,0,1,.19-.2Z" style="fill:#fff"/><path id="Path_1426" data-name="Path 1426" d="M17.28,121.61a.23.23,0,0,1,.21.24.18.18,0,0,1-.18.19h0a.25.25,0,0,1-.22-.24.2.2,0,0,1,.18-.2Z" style="fill:#fff"/><path id="Path_1427" data-name="Path 1427" d="M22.5,121.86a.63.63,0,0,1,.55.61.47.47,0,0,1-.47.49H22.5a.63.63,0,0,1-.55-.61.48.48,0,0,1,.47-.5Z" style="fill:#fff"/><path id="Path_1428" data-name="Path 1428" d="M27.72,122.15a1,1,0,0,1,.84.94.74.74,0,0,1-.72.75h-.12a1,1,0,0,1-.84-.93.75.75,0,0,1,.72-.76Z" style="fill:#fff"/><path id="Path_1429" data-name="Path 1429" d="M32.94,122.46a1.29,1.29,0,0,1,1.12,1.24,1,1,0,0,1-1,1h-.16a1.28,1.28,0,0,1-1.11-1.24,1,1,0,0,1,1-1Z" style="fill:#fff"/><ellipse id="Ellipse_4" data-name="Ellipse 4" cx="38.17" cy="124.16" rx="1.29" ry="1.44" transform="translate(-74.87 60.18) rotate(-43.4)" style="fill:#fff"/><path id="Path_1430" data-name="Path 1430" d="M43.39,123.19A1.79,1.79,0,0,1,45,124.93a1.37,1.37,0,0,1-1.34,1.4h-.22a1.8,1.8,0,0,1-1.56-1.74,1.37,1.37,0,0,1,1.34-1.41Z" style="fill:#fff"/><path id="Path_1431" data-name="Path 1431" d="M48.61,123.61a2,2,0,0,1,1.73,1.91,1.52,1.52,0,0,1-1.48,1.55,1.06,1.06,0,0,1-.25,0,2,2,0,0,1-1.72-1.91,1.51,1.51,0,0,1,1.48-1.55Z" style="fill:#fff"/><path id="Path_1432" data-name="Path 1432" d="M53.84,124.06a2.13,2.13,0,0,1,1.85,2.06,1.63,1.63,0,0,1-1.59,1.67l-.26,0A2.13,2.13,0,0,1,52,125.71a1.62,1.62,0,0,1,1.59-1.66Z" style="fill:#fff"/><path id="Path_1433" data-name="Path 1433" d="M59.06,124.59A2.19,2.19,0,0,1,61,126.71a1.68,1.68,0,0,1-1.63,1.72,1.27,1.27,0,0,1-.28,0,2.18,2.18,0,0,1-1.91-2.12,1.68,1.68,0,0,1,1.63-1.72Z" style="fill:#fff"/><path id="Path_1434" data-name="Path 1434" d="M64.28,125.22a2.13,2.13,0,0,1,1.87,2.07,1.64,1.64,0,0,1-1.6,1.68,1.23,1.23,0,0,1-.27,0,2.15,2.15,0,0,1-1.87-2.07A1.64,1.64,0,0,1,64,125.2,1.23,1.23,0,0,1,64.28,125.22Z" style="fill:#fff"/><path id="Path_1435" data-name="Path 1435" d="M69.5,125.93a2,2,0,0,1,1.74,1.94,1.51,1.51,0,0,1-1.48,1.55,1.13,1.13,0,0,1-.26,0,2,2,0,0,1-1.73-1.93,1.52,1.52,0,0,1,1.48-1.56Z" style="fill:#fff"/><path id="Path_1436" data-name="Path 1436" d="M74.73,126.68a1.81,1.81,0,0,1,1.58,1.75A1.39,1.39,0,0,1,75,129.85l-.22,0a1.8,1.8,0,0,1-1.58-1.75,1.39,1.39,0,0,1,1.35-1.42Z" style="fill:#fff"/><path id="Path_1437" data-name="Path 1437" d="M80,127.46A1.59,1.59,0,0,1,81.33,129a1.22,1.22,0,0,1-1.18,1.24H80a1.6,1.6,0,0,1-1.38-1.53,1.22,1.22,0,0,1,1.18-1.24Z" style="fill:#fff"/><path id="Path_1438" data-name="Path 1438" d="M85.17,128.29a1.3,1.3,0,0,1,1.13,1.26,1,1,0,0,1-1,1h-.16A1.31,1.31,0,0,1,84,129.29a1,1,0,0,1,1-1Z" style="fill:#fff"/><path id="Path_1439" data-name="Path 1439" d="M90.4,129.14a1,1,0,0,1,.87,1,.77.77,0,0,1-.75.77H90.4a1,1,0,0,1-.87-1,.76.76,0,0,1,.74-.78Z" style="fill:#fff"/><path id="Path_1440" data-name="Path 1440" d="M95.62,130a.64.64,0,0,1,.56.63.49.49,0,0,1-.49.5h-.07a.65.65,0,0,1-.57-.63.51.51,0,0,1,.5-.51Z" style="fill:#fff"/><path id="Path_1441" data-name="Path 1441" d="M100.84,130.93a.29.29,0,0,1,.25.28.23.23,0,0,1-.21.22h0a.26.26,0,0,1-.24-.27.21.21,0,0,1,.2-.22Z" style="fill:#fff"/><path id="Path_1442" data-name="Path 1442" d="M106.07,131.75h0s0,0,0,0h0a0,0,0,0,1,0,0h0Z" style="fill:#fff"/><path id="Path_1443" data-name="Path 1443" d="M17.28,116.4a.24.24,0,0,1,.2.22.18.18,0,0,1-.18.18h0a.22.22,0,0,1-.2-.22.17.17,0,0,1,.17-.18Z" style="fill:#fff"/><ellipse id="Ellipse_5" data-name="Ellipse 5" cx="22.5" cy="117.19" rx="0.49" ry="0.55" transform="translate(-74.38 47.52) rotate(-43.41)" style="fill:#fff"/><path id="Path_1444" data-name="Path 1444" d="M27.72,116.94a1,1,0,0,1,.83.92.73.73,0,0,1-.71.74h-.12a1,1,0,0,1-.82-.92.72.72,0,0,1,.7-.74Z" style="fill:#fff"/><path id="Path_1445" data-name="Path 1445" d="M32.94,117.27A1.25,1.25,0,0,1,34,118.48a1,1,0,0,1-.93,1h-.16a1.24,1.24,0,0,1-1.08-1.21,1,1,0,0,1,.93-1Z" style="fill:#fff"/><path id="Path_1446" data-name="Path 1446" d="M38.17,117.61a1.52,1.52,0,0,1,1.33,1.48,1.17,1.17,0,0,1-1.14,1.19h-.19a1.52,1.52,0,0,1-1.33-1.48,1.17,1.17,0,0,1,1.14-1.2Z" style="fill:#fff"/><path id="Path_1447" data-name="Path 1447" d="M43.39,118a1.76,1.76,0,0,1,1.54,1.71,1.34,1.34,0,0,1-1.32,1.37h-.22a1.76,1.76,0,0,1-1.53-1.71A1.33,1.33,0,0,1,43.17,118,.79.79,0,0,1,43.39,118Z" style="fill:#fff"/><path id="Path_1448" data-name="Path 1448" d="M48.61,118.41a2,2,0,0,1,1.7,1.89,1.49,1.49,0,0,1-1.45,1.52l-.25,0a1.93,1.93,0,0,1-1.69-1.88,1.49,1.49,0,0,1,1.45-1.52Z" style="fill:#fff"/><path id="Path_1449" data-name="Path 1449" d="M53.84,118.88a2.1,2.1,0,0,1,1.81,2,1.59,1.59,0,0,1-1.56,1.62,1.06,1.06,0,0,1-.25,0,2.06,2.06,0,0,1-1.81-2,1.58,1.58,0,0,1,1.55-1.62Z" style="fill:#fff"/><path id="Path_1450" data-name="Path 1450" d="M59.06,119.41a2.16,2.16,0,0,1,1.87,2.08,1.64,1.64,0,0,1-1.6,1.67,1.22,1.22,0,0,1-.27,0,2.15,2.15,0,0,1-1.87-2.08,1.64,1.64,0,0,1,1.6-1.67A1.22,1.22,0,0,1,59.06,119.41Z" style="fill:#fff"/><path id="Path_1451" data-name="Path 1451" d="M64.28,120a2.1,2.1,0,0,1,1.83,2,1.6,1.6,0,0,1-1.57,1.63,1.15,1.15,0,0,1-.26,0,2.1,2.1,0,0,1-1.82-2A1.61,1.61,0,0,1,64,120Z" style="fill:#fff"/><path id="Path_1452" data-name="Path 1452" d="M69.51,120.74a2,2,0,0,1,1.7,1.9,1.5,1.5,0,0,1-1.46,1.53.93.93,0,0,1-.24,0,2,2,0,0,1-1.71-1.9,1.5,1.5,0,0,1,1.46-1.53Z" style="fill:#fff"/><path id="Path_1453" data-name="Path 1453" d="M74.72,121.48a1.78,1.78,0,0,1,1.55,1.73A1.35,1.35,0,0,1,75,124.6l-.23,0a1.77,1.77,0,0,1-1.55-1.72,1.37,1.37,0,0,1,1.33-1.39Z" style="fill:#fff"/><path id="Path_1454" data-name="Path 1454" d="M80,122.27a1.55,1.55,0,0,1,1.35,1.5A1.19,1.19,0,0,1,80.15,125H80a1.55,1.55,0,0,1-1.35-1.5,1.19,1.19,0,0,1,1.15-1.21Z" style="fill:#fff"/><path id="Path_1455" data-name="Path 1455" d="M85.17,123.09a1.28,1.28,0,0,1,1.12,1.24,1,1,0,0,1-1,1h-.16a1.28,1.28,0,0,1-1.11-1.24,1,1,0,0,1,1-1Z" style="fill:#fff"/><path id="Path_1456" data-name="Path 1456" d="M90.4,124a1,1,0,0,1,.84.93.74.74,0,0,1-.72.75H90.4a1,1,0,0,1-.84-.93.73.73,0,0,1,.72-.75Z" style="fill:#fff"/><path id="Path_1457" data-name="Path 1457" d="M95.62,124.82a.63.63,0,0,1,.55.61.47.47,0,0,1-.47.49h-.08a.63.63,0,0,1-.55-.61.48.48,0,0,1,.47-.5Z" style="fill:#fff"/><path id="Path_1458" data-name="Path 1458" d="M100.84,125.72a.27.27,0,0,1,.23.26.2.2,0,0,1-.19.21h0a.27.27,0,0,1-.23-.26.21.21,0,0,1,.19-.21Z" style="fill:#fff"/><path id="Path_1459" data-name="Path 1459" d="M17.28,111.23a.16.16,0,0,1,.14.16.12.12,0,0,1-.12.13h0a.17.17,0,0,1-.15-.16.13.13,0,0,1,.13-.13Z" style="fill:#fff"/><path id="Path_1460" data-name="Path 1460" d="M22.5,111.5A.52.52,0,0,1,23,112a.4.4,0,0,1-.39.42H22.5a.52.52,0,0,1-.46-.51.41.41,0,0,1,.39-.42Z" style="fill:#fff"/><path id="Path_1461" data-name="Path 1461" d="M27.72,111.79a.85.85,0,0,1,.75.84.65.65,0,0,1-.64.68h-.11a.86.86,0,0,1-.75-.84.66.66,0,0,1,.64-.67Z" style="fill:#fff"/><path id="Path_1462" data-name="Path 1462" d="M32.94,112.12a1.17,1.17,0,0,1,1,1.13.88.88,0,0,1-.87.9h-.15a1.17,1.17,0,0,1-1-1.13.89.89,0,0,1,.87-.91Z" style="fill:#fff"/><path id="Path_1463" data-name="Path 1463" d="M38.17,112.47a1.42,1.42,0,0,1,1.24,1.39A1.08,1.08,0,0,1,38.35,115h-.18a1.44,1.44,0,0,1-1.25-1.38A1.1,1.1,0,0,1,38,112.46Z" style="fill:#fff"/><path id="Path_1464" data-name="Path 1464" d="M43.39,112.85a1.67,1.67,0,0,1,1.45,1.61,1.27,1.27,0,0,1-1.24,1.3h-.21a1.67,1.67,0,0,1-1.45-1.61,1.28,1.28,0,0,1,1.24-1.3Z" style="fill:#fff"/><ellipse id="Ellipse_6" data-name="Ellipse 6" cx="48.61" cy="114.89" rx="1.51" ry="1.69" transform="translate(-65.63 64.77) rotate(-43.38)" style="fill:#fff"/><path id="Path_1465" data-name="Path 1465" d="M53.84,113.76a2,2,0,0,1,1.71,1.9,1.5,1.5,0,0,1-1.47,1.53,1,1,0,0,1-.24,0,2,2,0,0,1-1.71-1.9,1.5,1.5,0,0,1,1.46-1.53Z" style="fill:#fff"/><path id="Path_1466" data-name="Path 1466" d="M59.06,114.32a2,2,0,0,1,1.74,1.93,1.53,1.53,0,0,1-1.49,1.56l-.25,0a2,2,0,0,1-1.74-1.93,1.53,1.53,0,0,1,1.49-1.56Z" style="fill:#fff"/><path id="Path_1467" data-name="Path 1467" d="M64.28,114.93a2,2,0,0,1,1.71,1.9,1.5,1.5,0,0,1-1.47,1.53h-.24a2,2,0,0,1-1.71-1.9A1.5,1.5,0,0,1,64,114.92,1,1,0,0,1,64.28,114.93Z" style="fill:#fff"/><path id="Path_1468" data-name="Path 1468" d="M69.5,115.62a1.83,1.83,0,0,1,1.61,1.78,1.42,1.42,0,0,1-1.37,1.45l-.24,0a1.83,1.83,0,0,1-1.6-1.78,1.41,1.41,0,0,1,1.37-1.45Z" style="fill:#fff"/><path id="Path_1469" data-name="Path 1469" d="M74.73,116.34A1.68,1.68,0,0,1,76.19,118a1.27,1.27,0,0,1-1.25,1.31.74.74,0,0,1-.21,0,1.68,1.68,0,0,1-1.46-1.63,1.28,1.28,0,0,1,1.25-1.31Z" style="fill:#fff"/><ellipse id="Ellipse_7" data-name="Ellipse 7" cx="79.95" cy="118.39" rx="1.19" ry="1.33" transform="translate(-59.48 87.26) rotate(-43.38)" style="fill:#fff"/><path id="Path_1470" data-name="Path 1470" d="M85.17,117.94a1.19,1.19,0,0,1,1,1.15.92.92,0,0,1-.9.94h-.15a1.21,1.21,0,0,1-1-1.16.91.91,0,0,1,.89-.93A.38.38,0,0,1,85.17,117.94Z" style="fill:#fff"/><path id="Path_1471" data-name="Path 1471" d="M90.4,118.78a.91.91,0,0,1,.78.87.68.68,0,0,1-.67.7H90.4a.91.91,0,0,1-.79-.87.69.69,0,0,1,.67-.71Z" style="fill:#fff"/><path id="Path_1472" data-name="Path 1472" d="M95.62,119.67a.55.55,0,0,1,.48.53.43.43,0,0,1-.41.43h-.07a.56.56,0,0,1-.48-.54.41.41,0,0,1,.41-.42Z" style="fill:#fff"/><path id="Path_1473" data-name="Path 1473" d="M100.84,120.56a.2.2,0,0,1,.18.19.17.17,0,0,1-.15.16h0a.2.2,0,0,1-.17-.2.15.15,0,0,1,.15-.15Z" style="fill:#fff"/><path id="Path_1474" data-name="Path 1474" d="M17.28,106.08a.08.08,0,0,1,.07.08.07.07,0,0,1-.06.07h0s-.08,0-.08-.08a.07.07,0,0,1,.07-.07Z" style="fill:#fff"/><path id="Path_1475" data-name="Path 1475" d="M22.5,106.38a.41.41,0,0,1,.36.4.32.32,0,0,1-.31.32H22.5a.42.42,0,0,1-.36-.4.32.32,0,0,1,.31-.33Z" style="fill:#fff"/><path id="Path_1476" data-name="Path 1476" d="M27.72,106.69a.72.72,0,0,1,.64.71.57.57,0,0,1-.55.57h-.09a.71.71,0,0,1-.63-.71.55.55,0,0,1,.54-.57Z" style="fill:#fff"/><path id="Path_1477" data-name="Path 1477" d="M33,107a1,1,0,0,1,.9,1,.79.79,0,0,1-.77.81H33a1,1,0,0,1-.9-1,.78.78,0,0,1,.76-.81Z" style="fill:#fff"/><path id="Path_1478" data-name="Path 1478" d="M38.17,107.36a1.32,1.32,0,0,1,1.13,1.26,1,1,0,0,1-1,1h-.16A1.29,1.29,0,0,1,37,108.36a1,1,0,0,1,1-1Z" style="fill:#fff"/><path id="Path_1479" data-name="Path 1479" d="M43.39,107.77a1.51,1.51,0,0,1,1.3,1.45,1.14,1.14,0,0,1-1.12,1.17h-.18a1.5,1.5,0,0,1-1.3-1.45,1.15,1.15,0,0,1,1.12-1.17Z" style="fill:#fff"/><path id="Path_1480" data-name="Path 1480" d="M48.61,108.21a1.66,1.66,0,0,1,1.45,1.61,1.26,1.26,0,0,1-1.24,1.3h-.21a1.67,1.67,0,0,1-1.45-1.61,1.28,1.28,0,0,1,1.25-1.3Z" style="fill:#fff"/><path id="Path_1481" data-name="Path 1481" d="M53.84,108.71a1.75,1.75,0,0,1,1.53,1.71,1.34,1.34,0,0,1-1.31,1.37h-.22a1.76,1.76,0,0,1-1.54-1.71,1.35,1.35,0,0,1,1.32-1.38Z" style="fill:#fff"/><path id="Path_1482" data-name="Path 1482" d="M59.06,109.25A1.81,1.81,0,0,1,60.64,111a1.39,1.39,0,0,1-1.36,1.41h-.22a1.81,1.81,0,0,1-1.58-1.76,1.38,1.38,0,0,1,1.35-1.41Z" style="fill:#fff"/><path id="Path_1483" data-name="Path 1483" d="M64.28,109.87a1.77,1.77,0,0,1,1.55,1.72A1.35,1.35,0,0,1,64.51,113h-.23a1.79,1.79,0,0,1-1.55-1.73,1.37,1.37,0,0,1,1.33-1.39Z" style="fill:#fff"/><path id="Path_1484" data-name="Path 1484" d="M69.5,110.54A1.69,1.69,0,0,1,71,112.17a1.28,1.28,0,0,1-1.25,1.31H69.5a1.67,1.67,0,0,1-1.45-1.63,1.27,1.27,0,0,1,1.25-1.31Z" style="fill:#fff"/><path id="Path_1485" data-name="Path 1485" d="M74.73,111.27a1.51,1.51,0,0,1,1.32,1.46,1.18,1.18,0,0,1-1.14,1.19l-.18,0a1.51,1.51,0,0,1-1.32-1.46,1.15,1.15,0,0,1,1.13-1.18Z" style="fill:#fff"/><path id="Path_1486" data-name="Path 1486" d="M80,112a1.3,1.3,0,0,1,1.14,1.27,1,1,0,0,1-1,1H80A1.32,1.32,0,0,1,78.81,113a1,1,0,0,1,1-1Z" style="fill:#fff"/><path id="Path_1487" data-name="Path 1487" d="M85.17,112.84a1.06,1.06,0,0,1,.92,1,.8.8,0,0,1-.79.82h-.13a1.05,1.05,0,0,1-.91-1,.79.79,0,0,1,.78-.81A.56.56,0,0,1,85.17,112.84Z" style="fill:#fff"/><path id="Path_1488" data-name="Path 1488" d="M90.39,113.67a.77.77,0,0,1,.67.75.57.57,0,0,1-.57.59h-.1a.77.77,0,0,1-.66-.74.58.58,0,0,1,.57-.6Z" style="fill:#fff"/><path id="Path_1489" data-name="Path 1489" d="M95.62,114.55A.44.44,0,0,1,96,115a.35.35,0,0,1-.33.34h0a.44.44,0,0,1-.38-.42.32.32,0,0,1,.32-.33Z" style="fill:#fff"/><path id="Path_1490" data-name="Path 1490" d="M100.84,115.42a.11.11,0,0,1,.09.1.09.09,0,0,1-.08.08h0a.11.11,0,0,1-.09-.1.09.09,0,0,1,.08-.08Z" style="fill:#fff"/><path id="Path_1491" data-name="Path 1491" d="M17.28,100.92s0,0,0,0a0,0,0,0,1,0,0h0a0,0,0,0,1,0,0h0Z" style="fill:#fff"/><path id="Path_1492" data-name="Path 1492" d="M22.5,101.31a.24.24,0,0,1,.2.23.18.18,0,0,1-.17.18h0a.24.24,0,0,1-.2-.23.18.18,0,0,1,.17-.18Z" style="fill:#fff"/><path id="Path_1493" data-name="Path 1493" d="M27.72,101.61a.55.55,0,0,1,.49.55.43.43,0,0,1-.42.44h-.07a.56.56,0,0,1-.49-.54.44.44,0,0,1,.42-.45Z" style="fill:#fff"/><path id="Path_1494" data-name="Path 1494" d="M32.94,102a.84.84,0,0,1,.74.82.64.64,0,0,1-.63.66h-.11a.86.86,0,0,1-.73-.83.65.65,0,0,1,.63-.66Z" style="fill:#fff"/><path id="Path_1495" data-name="Path 1495" d="M38.17,102.32a1.09,1.09,0,0,1,.95,1.06.84.84,0,0,1-.81.86h-.14a1.1,1.1,0,0,1-1-1.06.84.84,0,0,1,.82-.86Z" style="fill:#fff"/><path id="Path_1496" data-name="Path 1496" d="M43.39,102.73A1.29,1.29,0,0,1,44.52,104a1,1,0,0,1-1,1h-.16a1.3,1.3,0,0,1-1.13-1.26,1,1,0,0,1,1-1Z" style="fill:#fff"/><path id="Path_1497" data-name="Path 1497" d="M48.61,103.18a1.45,1.45,0,0,1,1.26,1.4,1.1,1.1,0,0,1-1.07,1.13h-.19a1.45,1.45,0,0,1-1.26-1.4,1.1,1.1,0,0,1,1.07-1.13Z" style="fill:#fff"/><path id="Path_1498" data-name="Path 1498" d="M53.84,103.68a1.54,1.54,0,0,1,1.34,1.5A1.18,1.18,0,0,1,54,106.39h-.19a1.55,1.55,0,0,1-1.35-1.5,1.17,1.17,0,0,1,1.15-1.21A.69.69,0,0,1,53.84,103.68Z" style="fill:#fff"/><path id="Path_1499" data-name="Path 1499" d="M59.06,104.23a1.59,1.59,0,0,1,1.38,1.53A1.22,1.22,0,0,1,59.26,107h-.2a1.6,1.6,0,0,1-1.38-1.53,1.22,1.22,0,0,1,1.18-1.24Z" style="fill:#fff"/><path id="Path_1500" data-name="Path 1500" d="M64.28,104.85a1.55,1.55,0,0,1,1.35,1.5,1.18,1.18,0,0,1-1.15,1.21h-.2a1.55,1.55,0,0,1-1.35-1.5,1.18,1.18,0,0,1,1.15-1.21A.66.66,0,0,1,64.28,104.85Z" style="fill:#fff"/><path id="Path_1501" data-name="Path 1501" d="M69.5,105.52a1.44,1.44,0,0,1,1.26,1.4,1.1,1.1,0,0,1-1.07,1.13H69.5a1.46,1.46,0,0,1-1.26-1.4,1.11,1.11,0,0,1,1.08-1.13Z" style="fill:#fff"/><path id="Path_1502" data-name="Path 1502" d="M74.73,106.22a1.3,1.3,0,0,1,1.14,1.27,1,1,0,0,1-1,1h-.17a1.33,1.33,0,0,1-1.15-1.27,1,1,0,0,1,1-1Z" style="fill:#fff"/><path id="Path_1503" data-name="Path 1503" d="M80,107a1.11,1.11,0,0,1,1,1.08.85.85,0,0,1-.83.87H80a1.11,1.11,0,0,1-1-1.08.85.85,0,0,1,.83-.87Z" style="fill:#fff"/><path id="Path_1504" data-name="Path 1504" d="M85.17,107.78a.86.86,0,0,1,.76.84.67.67,0,0,1-.65.67h-.11a.87.87,0,0,1-.75-.84.66.66,0,0,1,.64-.68Z" style="fill:#fff"/><path id="Path_1505" data-name="Path 1505" d="M90.4,108.61a.58.58,0,0,1,.5.56.45.45,0,0,1-.43.46H90.4a.57.57,0,0,1-.51-.56.44.44,0,0,1,.43-.45Z" style="fill:#fff"/><path id="Path_1506" data-name="Path 1506" d="M95.62,109.47a.27.27,0,0,1,.23.26.2.2,0,0,1-.19.21h0a.25.25,0,0,1-.23-.25.19.19,0,0,1,.19-.21Z" style="fill:#fff"/><path id="Path_1507" data-name="Path 1507" d="M100.84,110.27h0a0,0,0,0,1,0,0h0s0,0,0,0,0,0,0,0Z" style="fill:#fff"/><path id="Path_1508" data-name="Path 1508" d="M22.5,96.24a.06.06,0,0,1,.06.06,0,0,0,0,1,0,0h0a.06.06,0,0,1-.06-.06,0,0,0,0,1,0-.05Z" style="fill:#fff"/><path id="Path_1509" data-name="Path 1509" d="M27.72,96.59a.33.33,0,0,1,.29.32.25.25,0,0,1-.25.26h0a.34.34,0,0,1-.29-.32.26.26,0,0,1,.25-.26Z" style="fill:#fff"/><path id="Path_1510" data-name="Path 1510" d="M32.94,96.93a.61.61,0,0,1,.54.6A.47.47,0,0,1,33,98h-.08a.6.6,0,0,1-.53-.6.47.47,0,0,1,.46-.48Z" style="fill:#fff"/><path id="Path_1511" data-name="Path 1511" d="M38.17,97.31a.85.85,0,0,1,.74.82.66.66,0,0,1-.64.66h-.1a.86.86,0,0,1-.74-.82.65.65,0,0,1,.63-.67Z" style="fill:#fff"/><path id="Path_1512" data-name="Path 1512" d="M43.39,97.72a1.05,1.05,0,0,1,.91,1,.79.79,0,0,1-.78.81h-.13a1.06,1.06,0,0,1-.92-1,.8.8,0,0,1,.79-.82Z" style="fill:#fff"/><path id="Path_1513" data-name="Path 1513" d="M48.61,98.19a1.17,1.17,0,0,1,1,1.14.9.9,0,0,1-.88.92.38.38,0,0,1-.15,0,1.18,1.18,0,0,1-1-1.14.9.9,0,0,1,.88-.92Z" style="fill:#fff"/><path id="Path_1514" data-name="Path 1514" d="M53.84,98.69A1.27,1.27,0,0,1,55,99.93a1,1,0,0,1-1,1h-.15a1.29,1.29,0,0,1-1.12-1.24,1,1,0,0,1,1-1Z" style="fill:#fff"/><path id="Path_1515" data-name="Path 1515" d="M59.06,99.26a1.3,1.3,0,0,1,1.13,1.25,1,1,0,0,1-1,1h-.16a1.29,1.29,0,0,1-1.13-1.25,1,1,0,0,1,1-1Z" style="fill:#fff"/><path id="Path_1516" data-name="Path 1516" d="M64.28,99.86a1.28,1.28,0,0,1,1.12,1.24,1,1,0,0,1-1,1h-.16a1.28,1.28,0,0,1-1.11-1.24,1,1,0,0,1,1-1Z" style="fill:#fff"/><path id="Path_1517" data-name="Path 1517" d="M69.5,100.51a1.21,1.21,0,0,1,1,1.16.92.92,0,0,1-.9.94H69.5a1.21,1.21,0,0,1-1-1.16.93.93,0,0,1,.89-.94Z" style="fill:#fff"/><path id="Path_1518" data-name="Path 1518" d="M74.73,101.23a1,1,0,0,1,.91,1,.8.8,0,0,1-.78.82h-.13a1,1,0,0,1-.91-1,.8.8,0,0,1,.78-.82Z" style="fill:#fff"/><path id="Path_1519" data-name="Path 1519" d="M80,102a.87.87,0,0,1,.75.84.65.65,0,0,1-.64.67H80a.87.87,0,0,1-.75-.84.65.65,0,0,1,.64-.67A.41.41,0,0,1,80,102Z" style="fill:#fff"/><path id="Path_1520" data-name="Path 1520" d="M85.17,102.76a.62.62,0,0,1,.55.61.48.48,0,0,1-.47.5h-.08a.63.63,0,0,1-.55-.61.48.48,0,0,1,.47-.49A.21.21,0,0,1,85.17,102.76Z" style="fill:#fff"/><path id="Path_1521" data-name="Path 1521" d="M90.39,103.58a.36.36,0,0,1,.32.35.29.29,0,0,1-.27.29h0a.36.36,0,0,1-.31-.35.28.28,0,0,1,.27-.29Z" style="fill:#fff"/><path id="Path_1522" data-name="Path 1522" d="M95.62,104.41a.08.08,0,0,1,.07.08.06.06,0,0,1-.06.06h0a.08.08,0,0,1-.07-.08.06.06,0,0,1,.06-.06Z" style="fill:#fff"/><path id="Path_1523" data-name="Path 1523" d="M27.72,91.57a.11.11,0,0,1,.09.1.08.08,0,0,1-.08.08h0a.11.11,0,0,1-.09-.1.08.08,0,0,1,.08-.08Z" style="fill:#fff"/><path id="Path_1524" data-name="Path 1524" d="M33,91.94a.35.35,0,0,1,.3.34.28.28,0,0,1-.26.27h0a.35.35,0,0,1-.3-.34.25.25,0,0,1,.26-.27Z" style="fill:#fff"/><path id="Path_1525" data-name="Path 1525" d="M38.17,92.33a.58.58,0,0,1,.49.55.43.43,0,0,1-.42.44h-.07a.58.58,0,0,1-.5-.55.44.44,0,0,1,.43-.44Z" style="fill:#fff"/><path id="Path_1526" data-name="Path 1526" d="M43.39,92.76a.74.74,0,0,1,.65.72.57.57,0,0,1-.56.59h-.09a.74.74,0,0,1-.65-.72.57.57,0,0,1,.56-.59Z" style="fill:#fff"/><path id="Path_1527" data-name="Path 1527" d="M48.61,93.23a.87.87,0,0,1,.77.85.67.67,0,0,1-.66.69h-.11a.87.87,0,0,1-.76-.85.67.67,0,0,1,.65-.69Z" style="fill:#fff"/><path id="Path_1528" data-name="Path 1528" d="M53.84,93.74a1,1,0,0,1,.84.93.75.75,0,0,1-.72.76h-.12a1,1,0,0,1-.84-.93.74.74,0,0,1,.71-.76Z" style="fill:#fff"/><path id="Path_1529" data-name="Path 1529" d="M59.06,94.3a1,1,0,0,1,.87,1,.78.78,0,0,1-.75.78h-.12a1,1,0,0,1-.87-1,.76.76,0,0,1,.74-.78Z" style="fill:#fff"/><path id="Path_1530" data-name="Path 1530" d="M64.28,94.91a1,1,0,0,1,.84.93.74.74,0,0,1-.72.76h-.12a1,1,0,0,1-.84-.94.74.74,0,0,1,.72-.75Z" style="fill:#fff"/><path id="Path_1531" data-name="Path 1531" d="M69.5,95.55a.91.91,0,0,1,.79.87.68.68,0,0,1-.67.7H69.5a.91.91,0,0,1-.78-.87.69.69,0,0,1,.67-.71Z" style="fill:#fff"/><path id="Path_1532" data-name="Path 1532" d="M74.73,96.25a.76.76,0,0,1,.66.74.58.58,0,0,1-.57.6h-.09a.76.76,0,0,1-.67-.74.57.57,0,0,1,.57-.59Z" style="fill:#fff"/><path id="Path_1533" data-name="Path 1533" d="M80,97a.57.57,0,0,1,.51.56A.45.45,0,0,1,80,98H80a.6.6,0,0,1-.51-.56.45.45,0,0,1,.44-.46Z" style="fill:#fff"/><path id="Path_1534" data-name="Path 1534" d="M85.17,97.77a.36.36,0,0,1,.32.35.29.29,0,0,1-.27.29h0a.38.38,0,0,1-.32-.36.28.28,0,0,1,.28-.28Z" style="fill:#fff"/><path id="Path_1535" data-name="Path 1535" d="M90.4,98.57a.14.14,0,0,1,.1.11.09.09,0,0,1-.09.09h0a.1.1,0,0,1-.1-.11.08.08,0,0,1,.08-.09Z" style="fill:#fff"/><path id="Path_1536" data-name="Path 1536" d="M32.94,87A.06.06,0,0,1,33,87a.06.06,0,0,1,0,.06h0a.08.08,0,0,1,0-.07,0,0,0,0,1,0-.05Z" style="fill:#fff"/><path id="Path_1537" data-name="Path 1537" d="M38.17,87.38a.27.27,0,0,1,.22.25.2.2,0,0,1-.19.19h0a.26.26,0,0,1-.22-.24.2.2,0,0,1,.19-.2Z" style="fill:#fff"/><path id="Path_1538" data-name="Path 1538" d="M43.39,87.81a.45.45,0,0,1,.38.42.34.34,0,0,1-.32.34h-.06a.41.41,0,0,1-.37-.41.32.32,0,0,1,.32-.34Z" style="fill:#fff"/><path id="Path_1539" data-name="Path 1539" d="M48.61,88.29a.56.56,0,0,1,.48.54.41.41,0,0,1-.41.42h-.07a.54.54,0,0,1-.47-.53.41.41,0,0,1,.4-.43Z" style="fill:#fff"/><path id="Path_1540" data-name="Path 1540" d="M53.84,88.8a.64.64,0,0,1,.55.62.49.49,0,0,1-.47.49h-.08a.63.63,0,0,1-.55-.62.48.48,0,0,1,.47-.49Z" style="fill:#fff"/><path id="Path_1541" data-name="Path 1541" d="M59.06,89.38a.63.63,0,0,1,.56.62.5.5,0,0,1-.49.51h-.07a.64.64,0,0,1-.57-.62.5.5,0,0,1,.5-.51Z" style="fill:#fff"/><path id="Path_1542" data-name="Path 1542" d="M64.28,90a.62.62,0,0,1,.55.61.48.48,0,0,1-.47.49h-.08a.64.64,0,0,1-.55-.62A.48.48,0,0,1,64.2,90Z" style="fill:#fff"/><path id="Path_1543" data-name="Path 1543" d="M69.5,90.64a.54.54,0,0,1,.48.53.42.42,0,0,1-.41.43H69.5a.54.54,0,0,1-.47-.53.42.42,0,0,1,.41-.43Z" style="fill:#fff"/><path id="Path_1544" data-name="Path 1544" d="M74.73,91.32a.42.42,0,0,1,.37.42.32.32,0,0,1-.32.33h0a.44.44,0,0,1-.38-.42.32.32,0,0,1,.32-.33Z" style="fill:#fff"/><path id="Path_1545" data-name="Path 1545" d="M80,92.05a.25.25,0,0,1,.23.26.19.19,0,0,1-.19.2h0a.25.25,0,0,1-.23-.26.19.19,0,0,1,.19-.2Z" style="fill:#fff"/><path id="Path_1546" data-name="Path 1546" d="M85.17,92.79a.11.11,0,0,1,.08.08.07.07,0,0,1-.07.07h0a.08.08,0,0,1-.07-.08.07.07,0,0,1,.06-.07Z" style="fill:#fff"/><path id="Path_1547" data-name="Path 1547" d="M38.16,82.37h0s0,0,0,0h0s0,0,0,0,0,0,0,0Z" style="fill:#fff"/><path id="Path_1548" data-name="Path 1548" d="M43.39,82.89a.08.08,0,0,1,.07.08s0,.07-.06.07h0a.08.08,0,0,1-.07-.08.07.07,0,0,1,.06-.07Z" style="fill:#fff"/><path id="Path_1549" data-name="Path 1549" d="M48.61,83.39a.18.18,0,0,1,.16.18.14.14,0,0,1-.14.14h0a.19.19,0,0,1-.16-.18.14.14,0,0,1,.14-.14Z" style="fill:#fff"/><path id="Path_1550" data-name="Path 1550" d="M53.84,83.92a.23.23,0,0,1,.21.24.18.18,0,0,1-.18.19h0a.24.24,0,0,1-.22-.24.2.2,0,0,1,.18-.2Z" style="fill:#fff"/><path id="Path_1551" data-name="Path 1551" d="M59.06,84.47a.3.3,0,0,1,.25.28.24.24,0,0,1-.21.22h0a.28.28,0,0,1-.25-.27.22.22,0,0,1,.21-.22Z" style="fill:#fff"/><path id="Path_1552" data-name="Path 1552" d="M64.28,85.07a.27.27,0,0,1,.23.26.2.2,0,0,1-.19.21h0a.25.25,0,0,1-.23-.25.2.2,0,0,1,.19-.21Z" style="fill:#fff"/><path id="Path_1553" data-name="Path 1553" d="M69.5,85.71a.21.21,0,0,1,.18.2.15.15,0,0,1-.15.15h0a.19.19,0,0,1-.17-.19.16.16,0,0,1,.15-.16Z" style="fill:#fff"/><path id="Path_1554" data-name="Path 1554" d="M74.73,86.39a.09.09,0,0,1,.08.1.07.07,0,0,1-.07.07h0a.1.1,0,0,1-.09-.1.07.07,0,0,1,.08-.07Z" style="fill:#fff"/><path id="Path_1555" data-name="Path 1555" d="M80,87.05s0,0,0,0,0,0,0,0h0v0s0,0,0,0Z" style="fill:#fff"/><path id="Path_1556" data-name="Path 1556" d="M59.06,79.48s0,0,0,0a0,0,0,0,1,0,0h0s0,0,0,0Z" style="fill:#fff"/></g><g id="Group_98" data-name="Group 98" style="opacity:0.5"><path id="Path_1557" data-name="Path 1557" d="M211.84,172.71l0,0s0,0,0,0h0a0,0,0,0,1,0,0l0,0Z" style="fill:#fff"/><path id="Path_1558" data-name="Path 1558" d="M219.93,173.55c.06,0,.09,0,.09.1a.07.07,0,0,1-.07.08h0a.11.11,0,0,1-.09-.1.08.08,0,0,1,.08-.08Z" style="fill:#fff"/><path id="Path_1559" data-name="Path 1559" d="M228,174.32a.25.25,0,0,1,.22.25.2.2,0,0,1-.2.2h0a.27.27,0,0,1-.23-.25.2.2,0,0,1,.2-.2Z" style="fill:#fff"/><path id="Path_1560" data-name="Path 1560" d="M236.12,175.13a.36.36,0,0,1,.31.35.27.27,0,0,1-.27.28h0a.36.36,0,0,1-.32-.35.28.28,0,0,1,.27-.28Z" style="fill:#fff"/><path id="Path_1561" data-name="Path 1561" d="M244.21,176a.39.39,0,0,1,.34.37.3.3,0,0,1-.3.3h0a.39.39,0,0,1-.34-.37.31.31,0,0,1,.3-.31Z" style="fill:#fff"/><path id="Path_1562" data-name="Path 1562" d="M252.3,176.94a.36.36,0,0,1,.31.35.27.27,0,0,1-.27.29h0a.35.35,0,0,1-.31-.35.27.27,0,0,1,.26-.28Z" style="fill:#fff"/><path id="Path_1563" data-name="Path 1563" d="M260.39,177.94a.27.27,0,0,1,.23.25.2.2,0,0,1-.2.2h0a.26.26,0,0,1-.22-.25.2.2,0,0,1,.2-.2Z" style="fill:#fff"/><path id="Path_1564" data-name="Path 1564" d="M268.49,179a.13.13,0,0,1,.11.12.1.1,0,0,1-.1.1h0a.13.13,0,0,1-.12-.12.1.1,0,0,1,.1-.1Z" style="fill:#fff"/><path id="Path_1565" data-name="Path 1565" d="M276.58,180l0,0a0,0,0,0,1,0,0h0a0,0,0,0,1,0,0l0,0Z" style="fill:#fff"/><path id="Path_1566" data-name="Path 1566" d="M203.75,163.67a.07.07,0,0,1,.07.07.06.06,0,0,1-.06.06h0a.08.08,0,0,1-.07-.08s0-.05.06-.06Z" style="fill:#fff"/><path id="Path_1567" data-name="Path 1567" d="M211.84,164.32a.37.37,0,0,1,.32.35.27.27,0,0,1-.27.28h0a.36.36,0,0,1-.31-.35.27.27,0,0,1,.27-.28Z" style="fill:#fff"/><path id="Path_1568" data-name="Path 1568" d="M219.93,165a.61.61,0,0,1,.54.6.48.48,0,0,1-.46.49h-.08a.6.6,0,0,1-.53-.6.46.46,0,0,1,.46-.48Z" style="fill:#fff"/><path id="Path_1569" data-name="Path 1569" d="M228,165.73a.81.81,0,0,1,.71.8.61.61,0,0,1-.61.64H228a.82.82,0,0,1-.72-.8.63.63,0,0,1,.61-.65Z" style="fill:#fff"/><path id="Path_1570" data-name="Path 1570" d="M236.12,166.55a.93.93,0,0,1,.81.9.71.71,0,0,1-.69.72h-.12a.93.93,0,0,1-.81-.9.71.71,0,0,1,.69-.73Z" style="fill:#fff"/><path id="Path_1571" data-name="Path 1571" d="M244.21,167.41a1,1,0,0,1,.85,1,.75.75,0,0,1-.73.76h-.12a1,1,0,0,1-.85-.94.74.74,0,0,1,.73-.77Z" style="fill:#fff"/><path id="Path_1572" data-name="Path 1572" d="M252.3,168.36a.93.93,0,0,1,.81.9.7.7,0,0,1-.69.72h-.12a.93.93,0,0,1-.81-.9.71.71,0,0,1,.69-.73Z" style="fill:#fff"/><path id="Path_1573" data-name="Path 1573" d="M260.39,169.35a.83.83,0,0,1,.72.8.63.63,0,0,1-.61.65h-.11a.81.81,0,0,1-.71-.8.63.63,0,0,1,.61-.64Z" style="fill:#fff"/><path id="Path_1574" data-name="Path 1574" d="M268.49,170.42a.64.64,0,0,1,.56.62.51.51,0,0,1-.49.51h-.07a.64.64,0,0,1-.57-.62.51.51,0,0,1,.48-.51Z" style="fill:#fff"/><path id="Path_1575" data-name="Path 1575" d="M276.58,171.57a.36.36,0,0,1,.31.35.28.28,0,0,1-.27.28h0a.36.36,0,0,1-.32-.35.28.28,0,0,1,.27-.28Z" style="fill:#fff"/><path id="Path_1576" data-name="Path 1576" d="M284.67,172.7a.1.1,0,0,1,.09.1.08.08,0,0,1-.08.08h0a.11.11,0,0,1-.09-.1.07.07,0,0,1,.08-.08Z" style="fill:#fff"/><path id="Path_1577" data-name="Path 1577" d="M195.66,154.62a.13.13,0,0,1,.11.13.1.1,0,0,1-.1.1h0a.13.13,0,0,1-.11-.13.1.1,0,0,1,.1-.1Z" style="fill:#fff"/><path id="Path_1578" data-name="Path 1578" d="M203.75,155.19a.52.52,0,0,1,.45.5.38.38,0,0,1-.38.4h-.07a.52.52,0,0,1-.45-.5.39.39,0,0,1,.39-.4Z" style="fill:#fff"/><path id="Path_1579" data-name="Path 1579" d="M211.84,155.81a.84.84,0,0,1,.74.82.65.65,0,0,1-.63.67h-.11a.85.85,0,0,1-.74-.82.66.66,0,0,1,.63-.67Z" style="fill:#fff"/><path id="Path_1580" data-name="Path 1580" d="M219.93,156.47a1.12,1.12,0,0,1,1,1.09.87.87,0,0,1-.84.89h-.15a1.13,1.13,0,0,1-1-1.1.85.85,0,0,1,.84-.88Z" style="fill:#fff"/><path id="Path_1581" data-name="Path 1581" d="M228,157.19a1.34,1.34,0,0,1,1.16,1.3,1,1,0,0,1-1,1H228a1.34,1.34,0,0,1-1.17-1.3,1,1,0,0,1,1-1Z" style="fill:#fff"/><path id="Path_1582" data-name="Path 1582" d="M236.12,158a1.48,1.48,0,0,1,1.28,1.43,1.12,1.12,0,0,1-1.1,1.14.55.55,0,0,1-.18,0,1.46,1.46,0,0,1-1.28-1.42,1.12,1.12,0,0,1,1.09-1.15Z" style="fill:#fff"/><path id="Path_1583" data-name="Path 1583" d="M244.21,158.87a1.49,1.49,0,0,1,1.3,1.45,1.14,1.14,0,0,1-1.12,1.16h-.18a1.5,1.5,0,0,1-1.3-1.45,1.12,1.12,0,0,1,1.11-1.16Z" style="fill:#fff"/><path id="Path_1584" data-name="Path 1584" d="M252.3,159.8a1.46,1.46,0,0,1,1.28,1.42,1.12,1.12,0,0,1-1.1,1.14.55.55,0,0,1-.18,0,1.46,1.46,0,0,1-1.28-1.42,1.12,1.12,0,0,1,1.1-1.14A.55.55,0,0,1,252.3,159.8Z" style="fill:#fff"/><path id="Path_1585" data-name="Path 1585" d="M260.39,160.81a1.34,1.34,0,0,1,1.17,1.3,1,1,0,0,1-1,1h-.17a1.33,1.33,0,0,1-1.16-1.3,1,1,0,0,1,1-1Z" style="fill:#fff"/><path id="Path_1586" data-name="Path 1586" d="M268.49,161.9a1.13,1.13,0,0,1,1,1.1.87.87,0,0,1-.84.89h-.14a1.13,1.13,0,0,1-1-1.1.86.86,0,0,1,.84-.89Z" style="fill:#fff"/><path id="Path_1587" data-name="Path 1587" d="M276.58,163a.89.89,0,0,1,.76.85.66.66,0,0,1-.65.68h-.11a.89.89,0,0,1-.77-.85.68.68,0,0,1,.66-.69Z" style="fill:#fff"/><path id="Path_1588" data-name="Path 1588" d="M284.67,164.25a.52.52,0,0,1,.45.5.39.39,0,0,1-.38.4h-.07a.52.52,0,0,1-.45-.5.38.38,0,0,1,.38-.4Z" style="fill:#fff"/><path id="Path_1589" data-name="Path 1589" d="M292.76,165.47a.14.14,0,0,1,.13.15.11.11,0,0,1-.11.12h0a.16.16,0,0,1-.14-.15.12.12,0,0,1,.12-.12Z" style="fill:#fff"/><path id="Path_1590" data-name="Path 1590" d="M187.57,145.67s.06,0,.06.07,0,.06,0,.06h0a.07.07,0,0,1-.07-.07.06.06,0,0,1,.06-.06Z" style="fill:#fff"/><path id="Path_1591" data-name="Path 1591" d="M195.66,146.19a.53.53,0,0,1,.45.5.41.41,0,0,1-.38.41h-.07a.51.51,0,0,1-.45-.5.39.39,0,0,1,.38-.4Z" style="fill:#fff"/><path id="Path_1592" data-name="Path 1592" d="M203.75,146.74a.92.92,0,0,1,.81.9.7.7,0,0,1-.69.72h-.12a.93.93,0,0,1-.81-.9.71.71,0,0,1,.69-.73Z" style="fill:#fff"/><path id="Path_1593" data-name="Path 1593" d="M211.84,147.33a1.28,1.28,0,0,1,1.12,1.25,1,1,0,0,1-1,1h-.17a1.28,1.28,0,0,1-1.12-1.25,1,1,0,0,1,1-1Z" style="fill:#fff"/><path id="Path_1594" data-name="Path 1594" d="M219.93,148a1.57,1.57,0,0,1,1.37,1.52,1.19,1.19,0,0,1-1.17,1.23h-.2a1.56,1.56,0,0,1-1.36-1.52,1.19,1.19,0,0,1,1.17-1.23Z" style="fill:#fff"/><path id="Path_1595" data-name="Path 1595" d="M228,148.7a1.79,1.79,0,0,1,1.57,1.74,1.39,1.39,0,0,1-1.35,1.41H228a1.8,1.8,0,0,1-1.57-1.75,1.37,1.37,0,0,1,1.34-1.41A.9.9,0,0,1,228,148.7Z" style="fill:#fff"/><path id="Path_1596" data-name="Path 1596" d="M236.12,149.49a1.93,1.93,0,0,1,1.68,1.87,1.48,1.48,0,0,1-1.44,1.51,1,1,0,0,1-.24,0,1.93,1.93,0,0,1-1.69-1.87,1.49,1.49,0,0,1,1.45-1.51Z" style="fill:#fff"/><path id="Path_1597" data-name="Path 1597" d="M244.21,150.35a2,2,0,0,1,1.73,1.92,1.52,1.52,0,0,1-1.48,1.55h-.25a2,2,0,0,1-1.73-1.93,1.5,1.5,0,0,1,1.48-1.54A1,1,0,0,1,244.21,150.35Z" style="fill:#fff"/><path id="Path_1598" data-name="Path 1598" d="M252.3,151.3a1.92,1.92,0,0,1,1.68,1.87,1.47,1.47,0,0,1-1.44,1.51h-.24a1.93,1.93,0,0,1-1.68-1.87,1.47,1.47,0,0,1,1.44-1.51A1,1,0,0,1,252.3,151.3Z" style="fill:#fff"/><path id="Path_1599" data-name="Path 1599" d="M260.39,152.32a1.79,1.79,0,0,1,1.57,1.75,1.36,1.36,0,0,1-1.34,1.4.89.89,0,0,1-.23,0,1.8,1.8,0,0,1-1.57-1.75,1.37,1.37,0,0,1,1.35-1.4A.81.81,0,0,1,260.39,152.32Z" style="fill:#fff"/><path id="Path_1600" data-name="Path 1600" d="M268.49,153.41a1.6,1.6,0,0,1,1.39,1.54,1.23,1.23,0,0,1-1.2,1.25h-.19a1.6,1.6,0,0,1-1.4-1.55,1.23,1.23,0,0,1,1.2-1.25Z" style="fill:#fff"/><path id="Path_1601" data-name="Path 1601" d="M276.58,154.56a1.3,1.3,0,0,1,1.14,1.27,1,1,0,0,1-1,1h-.17a1.33,1.33,0,0,1-1.15-1.28,1,1,0,0,1,1-1Z" style="fill:#fff"/><path id="Path_1602" data-name="Path 1602" d="M284.67,155.78a1,1,0,0,1,.83.92.72.72,0,0,1-.71.74h-.12a1,1,0,0,1-.83-.93.73.73,0,0,1,.71-.74Z" style="fill:#fff"/><path id="Path_1603" data-name="Path 1603" d="M292.76,157a.56.56,0,0,1,.47.53.41.41,0,0,1-.4.42h-.07a.54.54,0,0,1-.47-.52.41.41,0,0,1,.4-.42Z" style="fill:#fff"/><path id="Path_1604" data-name="Path 1604" d="M300.85,158.33a.1.1,0,0,1,.09.1.08.08,0,0,1-.08.08h0a.11.11,0,0,1-.09-.1.07.07,0,0,1,.08-.08Z" style="fill:#fff"/><path id="Path_1605" data-name="Path 1605" d="M179.48,136.72a0,0,0,0,1,0,0l0,0h0s0,0,0,0a0,0,0,0,1,0,0Z" style="fill:#fff"/><path id="Path_1606" data-name="Path 1606" d="M187.57,137.33a.36.36,0,0,1,.31.35.28.28,0,0,1-.27.28h0a.36.36,0,0,1-.32-.35.28.28,0,0,1,.27-.28Z" style="fill:#fff"/><path id="Path_1607" data-name="Path 1607" d="M195.66,137.81a.84.84,0,0,1,.74.82.66.66,0,0,1-.63.67h-.11a.84.84,0,0,1-.74-.82.65.65,0,0,1,.63-.67Z" style="fill:#fff"/><path id="Path_1608" data-name="Path 1608" d="M203.75,138.33a1.28,1.28,0,0,1,1.12,1.25,1,1,0,0,1-1,1h-.16a1.29,1.29,0,0,1-1.12-1.25,1,1,0,0,1,1-1Z" style="fill:#fff"/><path id="Path_1609" data-name="Path 1609" d="M211.84,138.9a1.68,1.68,0,0,1,1.46,1.63,1.27,1.27,0,0,1-1.25,1.3.74.74,0,0,1-.21,0,1.67,1.67,0,0,1-1.46-1.62,1.29,1.29,0,0,1,1.25-1.31Z" style="fill:#fff"/><path id="Path_1610" data-name="Path 1610" d="M219.93,139.54a2,2,0,0,1,1.73,1.92,1.51,1.51,0,0,1-1.48,1.55h-.25a2,2,0,0,1-1.72-1.93,1.51,1.51,0,0,1,1.48-1.54A1,1,0,0,1,219.93,139.54Z" style="fill:#fff"/><path id="Path_1611" data-name="Path 1611" d="M228,140.24a2.24,2.24,0,0,1,1.93,2.15,1.7,1.7,0,0,1-1.66,1.73,1.23,1.23,0,0,1-.27,0A2.2,2.2,0,0,1,226.1,142a1.68,1.68,0,0,1,1.65-1.73Z" style="fill:#fff"/><path id="Path_1612" data-name="Path 1612" d="M236.12,141a2.35,2.35,0,0,1,2.06,2.29,1.8,1.8,0,0,1-1.76,1.85,1.51,1.51,0,0,1-.3,0,2.37,2.37,0,0,1-2.07-2.29,1.81,1.81,0,0,1,1.77-1.85A1.51,1.51,0,0,1,236.12,141Z" style="fill:#fff"/><ellipse id="Ellipse_8" data-name="Ellipse 8" cx="244.21" cy="143.99" rx="1.99" ry="2.23" transform="translate(-32.16 207.15) rotate(-43.4)" style="fill:#fff"/><path id="Path_1613" data-name="Path 1613" d="M252.3,142.83a2.36,2.36,0,0,1,2.06,2.3A1.8,1.8,0,0,1,252.6,147l-.3,0a2.36,2.36,0,0,1-2.06-2.29,1.8,1.8,0,0,1,1.76-1.86A1.51,1.51,0,0,1,252.3,142.83Z" style="fill:#fff"/><path id="Path_1614" data-name="Path 1614" d="M260.39,143.87a2.2,2.2,0,0,1,1.93,2.14,1.69,1.69,0,0,1-1.65,1.73,1.31,1.31,0,0,1-.28,0,2.22,2.22,0,0,1-1.93-2.15,1.7,1.7,0,0,1,1.66-1.73A1.23,1.23,0,0,1,260.39,143.87Z" style="fill:#fff"/><path id="Path_1615" data-name="Path 1615" d="M268.49,145a2,2,0,0,1,1.75,2,1.55,1.55,0,0,1-1.5,1.57,1,1,0,0,1-.25,0,2,2,0,0,1-1.76-1.94,1.55,1.55,0,0,1,1.5-1.57Z" style="fill:#fff"/><path id="Path_1616" data-name="Path 1616" d="M276.58,146.13a1.71,1.71,0,0,1,1.48,1.65,1.3,1.3,0,0,1-1.27,1.32h-.21a1.69,1.69,0,0,1-1.48-1.65,1.29,1.29,0,0,1,1.27-1.32A.74.74,0,0,1,276.58,146.13Z" style="fill:#fff"/><path id="Path_1617" data-name="Path 1617" d="M284.67,147.37a1.3,1.3,0,0,1,1.14,1.27,1,1,0,0,1-1,1h-.17a1.31,1.31,0,0,1-1.15-1.27,1,1,0,0,1,1-1Z" style="fill:#fff"/><path id="Path_1618" data-name="Path 1618" d="M292.76,148.66a.86.86,0,0,1,.76.85.66.66,0,0,1-.65.68h-.11a.86.86,0,0,1-.76-.84.67.67,0,0,1,.65-.69Z" style="fill:#fff"/><path id="Path_1619" data-name="Path 1619" d="M300.85,150a.39.39,0,0,1,.34.37.3.3,0,0,1-.29.31h0a.39.39,0,0,1-.34-.37.3.3,0,0,1,.3-.3Z" style="fill:#fff"/><path id="Path_1620" data-name="Path 1620" d="M308.94,151.21a0,0,0,0,1,0,0l0,0h0s0,0,0,0l0,0Z" style="fill:#fff"/><path id="Path_1621" data-name="Path 1621" d="M179.48,128.56a.1.1,0,0,1,.09.1.09.09,0,0,1-.08.08h0a.1.1,0,0,1-.09-.1.07.07,0,0,1,.07-.08Z" style="fill:#fff"/><path id="Path_1622" data-name="Path 1622" d="M187.57,129a.63.63,0,0,1,.54.61.48.48,0,0,1-.47.48h-.07a.61.61,0,0,1-.54-.6.47.47,0,0,1,.46-.48Z" style="fill:#fff"/><path id="Path_1623" data-name="Path 1623" d="M195.66,129.47a1.15,1.15,0,0,1,1,1.1.87.87,0,0,1-.85.89h-.14a1.13,1.13,0,0,1-1-1.1.87.87,0,0,1,.85-.89Z" style="fill:#fff"/><path id="Path_1624" data-name="Path 1624" d="M203.75,130a1.57,1.57,0,0,1,1.37,1.52,1.21,1.21,0,0,1-1.17,1.23l-.2,0a1.57,1.57,0,0,1-1.37-1.52,1.21,1.21,0,0,1,1.17-1.23Z" style="fill:#fff"/><path id="Path_1625" data-name="Path 1625" d="M211.84,130.54a2,2,0,0,1,1.73,1.92,1.51,1.51,0,0,1-1.48,1.55,1,1,0,0,1-.25,0,2,2,0,0,1-1.73-1.92,1.52,1.52,0,0,1,1.48-1.55Z" style="fill:#fff"/><path id="Path_1626" data-name="Path 1626" d="M219.93,131.16a2.3,2.3,0,0,1,2,2.24,1.76,1.76,0,0,1-1.73,1.81,1.43,1.43,0,0,1-.29,0,2.31,2.31,0,0,1-2-2.25,1.76,1.76,0,0,1,1.72-1.81A1.37,1.37,0,0,1,219.93,131.16Z" style="fill:#fff"/><ellipse id="Ellipse_9" data-name="Ellipse 9" cx="228.02" cy="134.08" rx="2.1" ry="2.35" transform="translate(-29.8 193.24) rotate(-43.38)" style="fill:#fff"/><path id="Path_1627" data-name="Path 1627" d="M236.12,132.61a2.73,2.73,0,0,1,2.38,2.65,2.09,2.09,0,0,1-2,2.13l-.34,0a2.74,2.74,0,0,1-2.38-2.65,2.09,2.09,0,0,1,2-2.13A1.94,1.94,0,0,1,236.12,132.61Z" style="fill:#fff"/><path id="Path_1628" data-name="Path 1628" d="M244.21,133.47a2.78,2.78,0,0,1,2.42,2.7,2.12,2.12,0,0,1-2.07,2.17l-.35,0a2.78,2.78,0,0,1-2.42-2.7,2.12,2.12,0,0,1,2.07-2.17A2.06,2.06,0,0,1,244.21,133.47Z" style="fill:#fff"/><path id="Path_1629" data-name="Path 1629" d="M252.3,134.42a2.73,2.73,0,0,1,2.38,2.65,2.09,2.09,0,0,1-2,2.13l-.34,0a2.74,2.74,0,0,1-2.38-2.65,2.09,2.09,0,0,1,2-2.13Z" style="fill:#fff"/><path id="Path_1630" data-name="Path 1630" d="M260.39,135.46a2.59,2.59,0,0,1,2.25,2.5,2,2,0,0,1-1.93,2,1.17,1.17,0,0,1-.32,0,2.57,2.57,0,0,1-2.24-2.49,2,2,0,0,1,1.91-2Z" style="fill:#fff"/><path id="Path_1631" data-name="Path 1631" d="M268.49,136.59a2.33,2.33,0,0,1,2,2.25,1.77,1.77,0,0,1-1.73,1.81,1.42,1.42,0,0,1-.29,0,2.32,2.32,0,0,1-2-2.24,1.78,1.78,0,0,1,1.73-1.82Z" style="fill:#fff"/><path id="Path_1632" data-name="Path 1632" d="M276.58,137.77a2,2,0,0,1,1.75,1.94,1.53,1.53,0,0,1-1.5,1.57h-.25a2,2,0,0,1-1.75-2,1.53,1.53,0,0,1,1.5-1.57Z" style="fill:#fff"/><path id="Path_1633" data-name="Path 1633" d="M284.67,139a1.62,1.62,0,0,1,1.41,1.57,1.24,1.24,0,0,1-1.21,1.27h-.2a1.61,1.61,0,0,1-1.41-1.57,1.23,1.23,0,0,1,1.2-1.27Z" style="fill:#fff"/><path id="Path_1634" data-name="Path 1634" d="M292.76,140.32a1.15,1.15,0,0,1,1,1.12.88.88,0,0,1-.86.91h-.15a1.15,1.15,0,0,1-1-1.12.88.88,0,0,1,.86-.91Z" style="fill:#fff"/><path id="Path_1635" data-name="Path 1635" d="M300.85,141.65a.66.66,0,0,1,.58.65.5.5,0,0,1-.49.52h-.09a.67.67,0,0,1-.58-.65.5.5,0,0,1,.5-.52Z" style="fill:#fff"/><path id="Path_1636" data-name="Path 1636" d="M308.94,143a.14.14,0,0,1,.12.12.1.1,0,0,1-.1.1h0a.13.13,0,0,1-.11-.12.1.1,0,0,1,.1-.1Z" style="fill:#fff"/><path id="Path_1637" data-name="Path 1637" d="M179.48,120.33a.25.25,0,0,1,.22.25.2.2,0,0,1-.2.2h0a.27.27,0,0,1-.23-.25.2.2,0,0,1,.2-.2Z" style="fill:#fff"/><path id="Path_1638" data-name="Path 1638" d="M187.57,120.74a.83.83,0,0,1,.72.8.63.63,0,0,1-.62.64h-.1a.82.82,0,0,1-.72-.8.63.63,0,0,1,.61-.65Z" style="fill:#fff"/><path id="Path_1639" data-name="Path 1639" d="M195.66,121.2a1.35,1.35,0,0,1,1.17,1.3,1,1,0,0,1-1,1h-.17a1.35,1.35,0,0,1-1.17-1.3,1,1,0,0,1,1-1Z" style="fill:#fff"/><path id="Path_1640" data-name="Path 1640" d="M203.75,121.7a1.81,1.81,0,0,1,1.57,1.75,1.37,1.37,0,0,1-1.34,1.41h-.23a1.8,1.8,0,0,1-1.57-1.75,1.37,1.37,0,0,1,1.34-1.41Z" style="fill:#fff"/><path id="Path_1641" data-name="Path 1641" d="M211.84,122.25a2.21,2.21,0,0,1,1.93,2.15,1.7,1.7,0,0,1-1.65,1.73l-.28,0a2.22,2.22,0,0,1-1.93-2.15,1.7,1.7,0,0,1,1.66-1.73Z" style="fill:#fff"/><path id="Path_1642" data-name="Path 1642" d="M219.93,122.86a2.55,2.55,0,0,1,2.22,2.47,1.93,1.93,0,0,1-1.9,2,1.74,1.74,0,0,1-.32,0,2.57,2.57,0,0,1-2.22-2.47,2,2,0,0,1,1.9-2Z" style="fill:#fff"/><ellipse id="Ellipse_10" data-name="Ellipse 10" cx="228.02" cy="125.99" rx="2.33" ry="2.61" transform="translate(-24.24 191.03) rotate(-43.38)" style="fill:#fff"/><path id="Path_1643" data-name="Path 1643" d="M236.12,124.27a3,3,0,0,1,2.62,2.92,2.29,2.29,0,0,1-2.24,2.35,1.59,1.59,0,0,1-.38,0,3,3,0,0,1-2.63-2.92,2.3,2.3,0,0,1,2.25-2.35A2.48,2.48,0,0,1,236.12,124.27Z" style="fill:#fff"/><path id="Path_1644" data-name="Path 1644" d="M244.21,125.13a3.08,3.08,0,0,1,2.67,3,2.35,2.35,0,0,1-2.29,2.4,2.43,2.43,0,0,1-.38,0,3.05,3.05,0,0,1-2.67-3,2.34,2.34,0,0,1,2.29-2.39A2.48,2.48,0,0,1,244.21,125.13Z" style="fill:#fff"/><path id="Path_1645" data-name="Path 1645" d="M252.3,126.08a3,3,0,0,1,2.63,2.92,2.32,2.32,0,0,1-2.25,2.36,2.43,2.43,0,0,1-.38,0,3,3,0,0,1-2.62-2.92,2.29,2.29,0,0,1,2.24-2.35Z" style="fill:#fff"/><ellipse id="Ellipse_11" data-name="Ellipse 11" cx="260.39" cy="129.61" rx="2.33" ry="2.61" transform="translate(-17.89 214.25) rotate(-43.38)" style="fill:#fff"/><path id="Path_1646" data-name="Path 1646" d="M268.49,128.28a2.57,2.57,0,0,1,2.24,2.49,2,2,0,0,1-1.92,2,1.13,1.13,0,0,1-.32,0,2.57,2.57,0,0,1-2.25-2.49,2,2,0,0,1,1.92-2A1.22,1.22,0,0,1,268.49,128.28Z" style="fill:#fff"/><path id="Path_1647" data-name="Path 1647" d="M276.58,129.47a2.26,2.26,0,0,1,1.95,2.17,1.71,1.71,0,0,1-1.67,1.75,1.29,1.29,0,0,1-.28,0,2.25,2.25,0,0,1-2-2.17,1.71,1.71,0,0,1,1.68-1.75Z" style="fill:#fff"/><path id="Path_1648" data-name="Path 1648" d="M284.67,130.74a1.83,1.83,0,0,1,1.59,1.77,1.4,1.4,0,0,1-1.37,1.43.82.82,0,0,1-.22,0,1.83,1.83,0,0,1-1.6-1.77,1.4,1.4,0,0,1,1.38-1.42A.83.83,0,0,1,284.67,130.74Z" style="fill:#fff"/><path id="Path_1649" data-name="Path 1649" d="M292.76,132.05a1.36,1.36,0,0,1,1.19,1.32,1,1,0,0,1-1,1.07h-.17a1.37,1.37,0,0,1-1.19-1.33,1,1,0,0,1,1-1.06Z" style="fill:#fff"/><path id="Path_1650" data-name="Path 1650" d="M300.85,133.4a.86.86,0,0,1,.74.83.65.65,0,0,1-.63.66h-.11a.85.85,0,0,1-.74-.82.64.64,0,0,1,.64-.66Z" style="fill:#fff"/><path id="Path_1651" data-name="Path 1651" d="M308.94,134.8a.29.29,0,0,1,.25.28.21.21,0,0,1-.21.22h0a.28.28,0,0,1-.24-.28.21.21,0,0,1,.21-.22Z" style="fill:#fff"/><path id="Path_1652" data-name="Path 1652" d="M179.48,112.15a.36.36,0,0,1,.31.35.28.28,0,0,1-.27.28h0a.37.37,0,0,1-.32-.35.28.28,0,0,1,.27-.28Z" style="fill:#fff"/><path id="Path_1653" data-name="Path 1653" d="M187.57,112.56a.93.93,0,0,1,.81.9.73.73,0,0,1-.7.73h-.11a.92.92,0,0,1-.81-.9.7.7,0,0,1,.69-.72A.48.48,0,0,1,187.57,112.56Z" style="fill:#fff"/><path id="Path_1654" data-name="Path 1654" d="M195.66,113a1.46,1.46,0,0,1,1.28,1.42,1.13,1.13,0,0,1-1.1,1.15h-.18a1.48,1.48,0,0,1-1.28-1.43,1.12,1.12,0,0,1,1.09-1.14A.59.59,0,0,1,195.66,113Z" style="fill:#fff"/><path id="Path_1655" data-name="Path 1655" d="M203.75,113.5a1.92,1.92,0,0,1,1.68,1.87,1.47,1.47,0,0,1-1.44,1.51,1,1,0,0,1-.24,0,1.92,1.92,0,0,1-1.68-1.87,1.47,1.47,0,0,1,1.44-1.51Z" style="fill:#fff"/><path id="Path_1656" data-name="Path 1656" d="M211.84,114a2.38,2.38,0,0,1,2.07,2.3,1.81,1.81,0,0,1-1.77,1.85,1.51,1.51,0,0,1-.3,0,2.36,2.36,0,0,1-2.06-2.3,1.8,1.8,0,0,1,1.77-1.84A1.41,1.41,0,0,1,211.84,114Z" style="fill:#fff"/><path id="Path_1657" data-name="Path 1657" d="M219.93,114.62a2.72,2.72,0,0,1,2.38,2.64,2.09,2.09,0,0,1-2.38,2.11,2.73,2.73,0,0,1-2.37-2.64,2.09,2.09,0,0,1,2-2.14A1.87,1.87,0,0,1,219.93,114.62Z" style="fill:#fff"/><path id="Path_1658" data-name="Path 1658" d="M228,115.27a3,3,0,0,1,2.62,2.92,2.3,2.3,0,0,1-2.24,2.36,2.34,2.34,0,0,1-.38,0,3,3,0,0,1-2.63-2.92,2.31,2.31,0,0,1,2.25-2.35Z" style="fill:#fff"/><path id="Path_1659" data-name="Path 1659" d="M236.12,116a3.23,3.23,0,0,1,2.8,3.12,2.46,2.46,0,0,1-2.4,2.51,1.76,1.76,0,0,1-.4,0,3.21,3.21,0,0,1-2.8-3.12,2.45,2.45,0,0,1,2.4-2.51A1.79,1.79,0,0,1,236.12,116Z" style="fill:#fff"/><path id="Path_1660" data-name="Path 1660" d="M244.21,116.84a3.3,3.3,0,0,1,2.87,3.19,2.53,2.53,0,0,1-2.46,2.58,2.83,2.83,0,0,1-.41,0,3.29,3.29,0,0,1-2.87-3.19,2.53,2.53,0,0,1,2.46-2.58Z" style="fill:#fff"/><path id="Path_1661" data-name="Path 1661" d="M252.3,117.81a3.21,3.21,0,0,1,2.8,3.12,2.46,2.46,0,0,1-2.4,2.52,2.69,2.69,0,0,1-.4,0,3.22,3.22,0,0,1-2.8-3.12,2.46,2.46,0,0,1,2.4-2.51A2.61,2.61,0,0,1,252.3,117.81Z" style="fill:#fff"/><ellipse id="Ellipse_12" data-name="Ellipse 12" cx="260.39" cy="121.52" rx="2.5" ry="2.8" transform="translate(-12.33 212.04) rotate(-43.38)" style="fill:#fff"/><path id="Path_1662" data-name="Path 1662" d="M268.49,120.05a2.73,2.73,0,0,1,2.37,2.64,2.08,2.08,0,0,1-2,2.14l-.34,0a2.74,2.74,0,0,1-2.38-2.65,2.08,2.08,0,0,1,2-2.13A2.06,2.06,0,0,1,268.49,120.05Z" style="fill:#fff"/><path id="Path_1663" data-name="Path 1663" d="M276.58,121.25a2.39,2.39,0,0,1,2.08,2.32,1.82,1.82,0,0,1-1.79,1.87,1.37,1.37,0,0,1-.29,0,2.39,2.39,0,0,1-2.09-2.32,1.83,1.83,0,0,1,1.79-1.87A1.51,1.51,0,0,1,276.58,121.25Z" style="fill:#fff"/><path id="Path_1664" data-name="Path 1664" d="M284.67,122.51a2,2,0,0,1,1.73,1.92,1.53,1.53,0,0,1-1.49,1.55h-.24a2,2,0,0,1-1.73-1.92,1.51,1.51,0,0,1,1.48-1.55Z" style="fill:#fff"/><path id="Path_1665" data-name="Path 1665" d="M292.76,123.84a1.5,1.5,0,0,1,1.3,1.45,1.14,1.14,0,0,1-1.11,1.17h-.19a1.5,1.5,0,0,1-1.3-1.45,1.15,1.15,0,0,1,1.12-1.17Z" style="fill:#fff"/><path id="Path_1666" data-name="Path 1666" d="M300.85,125.2a1,1,0,0,1,.85,1,.74.74,0,0,1-.73.76h-.12A1,1,0,0,1,300,126a.75.75,0,0,1,.73-.77Z" style="fill:#fff"/><path id="Path_1667" data-name="Path 1667" d="M308.94,126.62a.39.39,0,0,1,.34.37.3.3,0,0,1-.3.31h0a.39.39,0,0,1-.33-.38.3.3,0,0,1,.29-.3Z" style="fill:#fff"/><path id="Path_1668" data-name="Path 1668" d="M179.48,104a.38.38,0,0,1,.33.37.29.29,0,0,1-.3.3h0a.38.38,0,0,1-.34-.37.29.29,0,0,1,.28-.31Z" style="fill:#fff"/><path id="Path_1669" data-name="Path 1669" d="M187.57,104.42a1,1,0,0,1,.85,1,.75.75,0,0,1-.73.77h-.12a1,1,0,0,1-.86-.95.76.76,0,0,1,.74-.76Z" style="fill:#fff"/><path id="Path_1670" data-name="Path 1670" d="M195.66,104.88a1.5,1.5,0,0,1,1.3,1.45,1.15,1.15,0,0,1-1.11,1.17h-.19a1.5,1.5,0,0,1-1.3-1.45,1.15,1.15,0,0,1,1.11-1.17Z" style="fill:#fff"/><path id="Path_1671" data-name="Path 1671" d="M203.75,105.36a2,2,0,0,1,1.73,1.92,1.52,1.52,0,0,1-1.48,1.55h-.25A2,2,0,0,1,202,106.9a1.52,1.52,0,0,1,1.48-1.55Z" style="fill:#fff"/><ellipse id="Ellipse_13" data-name="Ellipse 13" cx="211.84" cy="108" rx="1.99" ry="2.23" transform="translate(-16.28 175.08) rotate(-43.4)" style="fill:#fff"/><path id="Path_1672" data-name="Path 1672" d="M219.93,106.48a2.77,2.77,0,0,1,2.43,2.69,2.14,2.14,0,0,1-2.08,2.18l-.35,0a2.79,2.79,0,0,1-2.42-2.7,2.12,2.12,0,0,1,2.08-2.17A1.88,1.88,0,0,1,219.93,106.48Z" style="fill:#fff"/><path id="Path_1673" data-name="Path 1673" d="M228,107.14a3.06,3.06,0,0,1,2.67,3,2.36,2.36,0,0,1-2.67,2.37,3.06,3.06,0,0,1-2.67-3,2.34,2.34,0,0,1,2.28-2.4A2.56,2.56,0,0,1,228,107.14Z" style="fill:#fff"/><path id="Path_1674" data-name="Path 1674" d="M236.12,107.84A3.31,3.31,0,0,1,239,111a2.51,2.51,0,0,1-2.46,2.57,2.75,2.75,0,0,1-.41,0,3.3,3.3,0,0,1-2.87-3.2,2.5,2.5,0,0,1,2.45-2.57A2,2,0,0,1,236.12,107.84Z" style="fill:#fff"/><path id="Path_1675" data-name="Path 1675" d="M244.21,108.65a3.4,3.4,0,0,1,3,3.3,2.6,2.6,0,0,1-2.54,2.66,3,3,0,0,1-.42,0,3.39,3.39,0,0,1-3-3.29,2.59,2.59,0,0,1,2.54-2.66A3,3,0,0,1,244.21,108.65Z" style="fill:#fff"/><path id="Path_1676" data-name="Path 1676" d="M252.3,109.63a3.33,3.33,0,0,1,2.9,3.22,2.54,2.54,0,0,1-2.48,2.59,2,2,0,0,1-.42,0,3.31,3.31,0,0,1-2.89-3.22,2.52,2.52,0,0,1,2.48-2.59A1.91,1.91,0,0,1,252.3,109.63Z" style="fill:#fff"/><path id="Path_1677" data-name="Path 1677" d="M260.39,110.74a3.09,3.09,0,0,1,2.7,3,2.37,2.37,0,0,1-2.31,2.42,2.56,2.56,0,0,1-.39,0,3.08,3.08,0,0,1-2.69-3,2.35,2.35,0,0,1,2.31-2.41A1.59,1.59,0,0,1,260.39,110.74Z" style="fill:#fff"/><path id="Path_1678" data-name="Path 1678" d="M268.49,111.89a2.8,2.8,0,0,1,2.44,2.72,2.14,2.14,0,0,1-2.09,2.19,2,2,0,0,1-.35,0,2.8,2.8,0,0,1-2.45-2.72,2.14,2.14,0,0,1,2.09-2.19A2.17,2.17,0,0,1,268.49,111.89Z" style="fill:#fff"/><path id="Path_1679" data-name="Path 1679" d="M276.58,113.11a2.46,2.46,0,0,1,2.13,2.37,1.87,1.87,0,0,1-1.83,1.91,1.51,1.51,0,0,1-.3,0,2.43,2.43,0,0,1-2.13-2.37,1.87,1.87,0,0,1,1.82-1.91Z" style="fill:#fff"/><path id="Path_1680" data-name="Path 1680" d="M284.67,114.4a2,2,0,0,1,1.75,1.94,1.53,1.53,0,0,1-1.5,1.57h-.25a2,2,0,0,1-1.75-2,1.53,1.53,0,0,1,1.5-1.57Z" style="fill:#fff"/><path id="Path_1681" data-name="Path 1681" d="M292.76,115.71a1.55,1.55,0,0,1,1.35,1.5,1.18,1.18,0,0,1-1.16,1.2.61.61,0,0,1-.19,0,1.54,1.54,0,0,1-1.35-1.5,1.17,1.17,0,0,1,1.15-1.2A.66.66,0,0,1,292.76,115.71Z" style="fill:#fff"/><path id="Path_1682" data-name="Path 1682" d="M300.85,117.09a1,1,0,0,1,.88,1,.77.77,0,0,1-.75.78h-.13a1,1,0,0,1-.87-1,.76.76,0,0,1,.75-.78Z" style="fill:#fff"/><path id="Path_1683" data-name="Path 1683" d="M308.94,118.48a.43.43,0,0,1,.38.43.33.33,0,0,1-.32.34h-.06a.45.45,0,0,1-.38-.43.34.34,0,0,1,.33-.34Z" style="fill:#fff"/><path id="Path_1684" data-name="Path 1684" d="M317,119.75l0,0s0,0,0,0h0s0,0,0,0l0,0Z" style="fill:#fff"/><path id="Path_1685" data-name="Path 1685" d="M179.48,96a.36.36,0,0,1,.31.35.28.28,0,0,1-.27.28h0a.38.38,0,0,1-.32-.36.28.28,0,0,1,.27-.28Z" style="fill:#fff"/><path id="Path_1686" data-name="Path 1686" d="M187.57,96.38a.93.93,0,0,1,.81.9.72.72,0,0,1-.7.72h-.11a.93.93,0,0,1-.81-.9.71.71,0,0,1,.69-.73Z" style="fill:#fff"/><path id="Path_1687" data-name="Path 1687" d="M195.66,96.81a1.48,1.48,0,0,1,1.28,1.42,1.13,1.13,0,0,1-1.1,1.15h-.18A1.47,1.47,0,0,1,194.38,98a1.13,1.13,0,0,1,1.09-1.15Z" style="fill:#fff"/><path id="Path_1688" data-name="Path 1688" d="M203.75,97.31a1.92,1.92,0,0,1,1.68,1.87A1.48,1.48,0,0,1,204,100.7l-.25,0a1.92,1.92,0,0,1-1.68-1.87,1.47,1.47,0,0,1,1.43-1.51Z" style="fill:#fff"/><path id="Path_1689" data-name="Path 1689" d="M211.84,97.84a2.37,2.37,0,0,1,2.07,2.29,1.83,1.83,0,0,1-1.77,1.86l-.3,0a2.36,2.36,0,0,1-2.06-2.3,1.81,1.81,0,0,1,1.76-1.85Z" style="fill:#fff"/><path id="Path_1690" data-name="Path 1690" d="M219.93,98.44a2.72,2.72,0,0,1,2.38,2.64,2.07,2.07,0,0,1-2,2.13,1.37,1.37,0,0,1-.35,0,2.73,2.73,0,0,1-2.37-2.64,2.09,2.09,0,0,1,2-2.14A1.87,1.87,0,0,1,219.93,98.44Z" style="fill:#fff"/><path id="Path_1691" data-name="Path 1691" d="M228,99.09a3,3,0,0,1,2.62,2.92,2.29,2.29,0,0,1-2.24,2.35,1.59,1.59,0,0,1-.38,0,3,3,0,0,1-2.63-2.92,2.3,2.3,0,0,1,2.25-2.35A1.64,1.64,0,0,1,228,99.09Z" style="fill:#fff"/><path id="Path_1692" data-name="Path 1692" d="M236.12,99.82a3.22,3.22,0,0,1,2.8,3.12,2.46,2.46,0,0,1-2.4,2.51l-.4,0a3.21,3.21,0,0,1-2.8-3.12,2.46,2.46,0,0,1,2.4-2.52A2.69,2.69,0,0,1,236.12,99.82Z" style="fill:#fff"/><ellipse id="Ellipse_14" data-name="Ellipse 14" cx="244.21" cy="103.53" rx="2.74" ry="3.06" transform="translate(-4.39 196.01) rotate(-43.38)" style="fill:#fff"/><path id="Path_1693" data-name="Path 1693" d="M252.3,101.61a3.24,3.24,0,0,1,2.83,3.14,2.48,2.48,0,0,1-2.42,2.53,1.85,1.85,0,0,1-.41,0,3.25,3.25,0,0,1-2.83-3.14,2.49,2.49,0,0,1,2.42-2.54A2.73,2.73,0,0,1,252.3,101.61Z" style="fill:#fff"/><ellipse id="Ellipse_15" data-name="Ellipse 15" cx="260.39" cy="105.34" rx="2.5" ry="2.8" transform="translate(-1.22 207.62) rotate(-43.38)" style="fill:#fff"/><path id="Path_1694" data-name="Path 1694" d="M268.49,103.84a2.76,2.76,0,0,1,2.39,2.67,2.1,2.1,0,0,1-2.05,2.16l-.34,0a2.76,2.76,0,0,1-2.4-2.67,2.1,2.1,0,0,1,2-2.16Z" style="fill:#fff"/><path id="Path_1695" data-name="Path 1695" d="M276.58,105.06a2.4,2.4,0,0,1,2.08,2.32,1.82,1.82,0,0,1-1.78,1.87,1.51,1.51,0,0,1-.3,0,2.4,2.4,0,0,1-2.09-2.32,1.83,1.83,0,0,1,1.79-1.87A1.51,1.51,0,0,1,276.58,105.06Z" style="fill:#fff"/><path id="Path_1696" data-name="Path 1696" d="M284.67,106.33a2,2,0,0,1,1.73,1.92,1.52,1.52,0,0,1-1.48,1.55,1,1,0,0,1-.25,0,2,2,0,0,1-1.73-1.92,1.52,1.52,0,0,1,1.48-1.55Z" style="fill:#fff"/><path id="Path_1697" data-name="Path 1697" d="M292.76,107.66a1.5,1.5,0,0,1,1.3,1.45,1.13,1.13,0,0,1-1.11,1.16.59.59,0,0,1-.19,0,1.49,1.49,0,0,1-1.3-1.44,1.14,1.14,0,0,1,1.11-1.17Z" style="fill:#fff"/><path id="Path_1698" data-name="Path 1698" d="M300.85,109a1,1,0,0,1,.85.94.74.74,0,0,1-.73.77h-.12a1,1,0,0,1-.85-1,.75.75,0,0,1,.73-.76Z" style="fill:#fff"/><path id="Path_1699" data-name="Path 1699" d="M308.94,110.41a.41.41,0,0,1,.36.4.32.32,0,0,1-.31.33h-.05a.41.41,0,0,1-.36-.4.33.33,0,0,1,.31-.32Z" style="fill:#fff"/><path id="Path_1700" data-name="Path 1700" d="M179.48,88a.27.27,0,0,1,.22.25.22.22,0,0,1-.2.21s0,0,0,0a.25.25,0,0,1-.23-.24.2.2,0,0,1,.2-.21Z" style="fill:#fff"/><path id="Path_1701" data-name="Path 1701" d="M187.57,88.38a.83.83,0,0,1,.72.8.64.64,0,0,1-.62.64h-.1a.82.82,0,0,1-.72-.8.63.63,0,0,1,.61-.64Z" style="fill:#fff"/><path id="Path_1702" data-name="Path 1702" d="M195.66,88.83a1.35,1.35,0,0,1,1.17,1.3,1,1,0,0,1-1,1.05h-.17a1.34,1.34,0,0,1-1.17-1.3,1,1,0,0,1,1-1.05Z" style="fill:#fff"/><path id="Path_1703" data-name="Path 1703" d="M203.75,89.34a1.79,1.79,0,0,1,1.57,1.74A1.37,1.37,0,0,1,204,92.49h-.23a1.81,1.81,0,0,1-1.57-1.75,1.37,1.37,0,0,1,1.34-1.41Z" style="fill:#fff"/><path id="Path_1704" data-name="Path 1704" d="M211.84,89.88A2.21,2.21,0,0,1,213.77,92a1.69,1.69,0,0,1-1.65,1.73,1.32,1.32,0,0,1-.28,0,2.22,2.22,0,0,1-1.93-2.14,1.69,1.69,0,0,1,1.66-1.73A1.22,1.22,0,0,1,211.84,89.88Z" style="fill:#fff"/><path id="Path_1705" data-name="Path 1705" d="M219.93,90.47a2.59,2.59,0,0,1,2.25,2.5,2,2,0,0,1-1.92,2,1.83,1.83,0,0,1-.33,0,2.57,2.57,0,0,1-2.24-2.49,2,2,0,0,1,1.92-2Z" style="fill:#fff"/><ellipse id="Ellipse_16" data-name="Ellipse 16" cx="228.02" cy="93.62" rx="2.33" ry="2.61" transform="translate(-2.01 182.19) rotate(-43.38)" style="fill:#fff"/><path id="Path_1706" data-name="Path 1706" d="M236.12,91.88a3,3,0,0,1,2.64,3,2.31,2.31,0,0,1-2.26,2.37l-.38,0a3,3,0,0,1-2.65-3,2.32,2.32,0,0,1,2.27-2.37A2.48,2.48,0,0,1,236.12,91.88Z" style="fill:#fff"/><path id="Path_1707" data-name="Path 1707" d="M244.21,92.74a3.09,3.09,0,0,1,2.69,3,2.36,2.36,0,0,1-2.3,2.41,2.55,2.55,0,0,1-.39,0,3.09,3.09,0,0,1-2.69-3,2.36,2.36,0,0,1,2.3-2.41A2.55,2.55,0,0,1,244.21,92.74Z" style="fill:#fff"/><path id="Path_1708" data-name="Path 1708" d="M252.3,93.7A3,3,0,0,1,255,96.64,2.32,2.32,0,0,1,252.68,99a2.43,2.43,0,0,1-.38,0,3,3,0,0,1-2.65-2.94,2.32,2.32,0,0,1,2.27-2.37A1.62,1.62,0,0,1,252.3,93.7Z" style="fill:#fff"/><path id="Path_1709" data-name="Path 1709" d="M260.39,94.76a2.85,2.85,0,0,1,2.49,2.77,2.19,2.19,0,0,1-2.13,2.23l-.36,0A2.86,2.86,0,0,1,257.9,97,2.19,2.19,0,0,1,260,94.73,2.07,2.07,0,0,1,260.39,94.76Z" style="fill:#fff"/><path id="Path_1710" data-name="Path 1710" d="M268.49,95.89a2.59,2.59,0,0,1,2.26,2.52,2,2,0,0,1-1.94,2l-.32,0a2.61,2.61,0,0,1-2.27-2.52,2,2,0,0,1,1.94-2A1.83,1.83,0,0,1,268.49,95.89Z" style="fill:#fff"/><path id="Path_1711" data-name="Path 1711" d="M276.58,97.11a2.24,2.24,0,0,1,1.95,2.17,1.72,1.72,0,0,1-1.67,1.75l-.28,0a2.24,2.24,0,0,1-2-2.17,1.72,1.72,0,0,1,1.68-1.75A1.37,1.37,0,0,1,276.58,97.11Z" style="fill:#fff"/><path id="Path_1712" data-name="Path 1712" d="M284.67,98.34a1.86,1.86,0,0,1,1.61,1.81,1.4,1.4,0,0,1-1.38,1.44.87.87,0,0,1-.23,0,1.86,1.86,0,0,1-1.62-1.8,1.42,1.42,0,0,1,1.39-1.45Z" style="fill:#fff"/><path id="Path_1713" data-name="Path 1713" d="M292.76,99.66A1.38,1.38,0,0,1,294,101a1.06,1.06,0,0,1-1,1.09h-.17a1.39,1.39,0,0,1-1.21-1.35,1.05,1.05,0,0,1,1-1.08Z" style="fill:#fff"/><path id="Path_1714" data-name="Path 1714" d="M300.85,101a.84.84,0,0,1,.74.82.64.64,0,0,1-.63.66h-.11a.87.87,0,0,1-.74-.83.65.65,0,0,1,.64-.66Z" style="fill:#fff"/><path id="Path_1715" data-name="Path 1715" d="M308.94,102.41a.31.31,0,0,1,.27.3.23.23,0,0,1-.23.24h0a.32.32,0,0,1-.27-.3.23.23,0,0,1,.23-.24Z" style="fill:#fff"/><path id="Path_1716" data-name="Path 1716" d="M179.48,80a.12.12,0,0,1,.11.12.1.1,0,0,1-.1.1h0a.13.13,0,0,1-.12-.12.11.11,0,0,1,.1-.11Z" style="fill:#fff"/><path id="Path_1717" data-name="Path 1717" d="M187.57,80.44a.65.65,0,0,1,.56.63.49.49,0,0,1-.48.5h-.08a.64.64,0,0,1-.56-.63.48.48,0,0,1,.47-.5Z" style="fill:#fff"/><path id="Path_1718" data-name="Path 1718" d="M195.66,80.92a1.15,1.15,0,0,1,1,1.1.87.87,0,0,1-.85.89h-.14a1.13,1.13,0,0,1-1-1.1.87.87,0,0,1,.85-.89Z" style="fill:#fff"/><path id="Path_1719" data-name="Path 1719" d="M203.75,81.42A1.61,1.61,0,0,1,205.14,83,1.23,1.23,0,0,1,204,84.22h-.2a1.61,1.61,0,0,1-1.39-1.55,1.23,1.23,0,0,1,1.19-1.25Z" style="fill:#fff"/><path id="Path_1720" data-name="Path 1720" d="M211.84,82a2,2,0,0,1,1.75,2,1.54,1.54,0,0,1-1.5,1.57l-.25,0a2,2,0,0,1-1.75-2,1.52,1.52,0,0,1,1.5-1.56A1,1,0,0,1,211.84,82Z" style="fill:#fff"/><path id="Path_1721" data-name="Path 1721" d="M219.93,82.61a2.3,2.3,0,0,1,2,2.24,1.76,1.76,0,0,1-1.73,1.81,1.43,1.43,0,0,1-.29,0,2.32,2.32,0,0,1-2-2.25,1.76,1.76,0,0,1,1.72-1.81A1.37,1.37,0,0,1,219.93,82.61Z" style="fill:#fff"/><path id="Path_1722" data-name="Path 1722" d="M228,83.29a2.57,2.57,0,0,1,2.24,2.49,2,2,0,0,1-1.92,2,1.67,1.67,0,0,1-.32,0,2.58,2.58,0,0,1-2.25-2.5,2,2,0,0,1,1.93-2A1.77,1.77,0,0,1,228,83.29Z" style="fill:#fff"/><path id="Path_1723" data-name="Path 1723" d="M236.12,84.06a2.74,2.74,0,0,1,2.38,2.64,2.1,2.1,0,0,1-2,2.14l-.34,0a2.74,2.74,0,0,1-2.38-2.65,2.08,2.08,0,0,1,2-2.13A2,2,0,0,1,236.12,84.06Z" style="fill:#fff"/><path id="Path_1724" data-name="Path 1724" d="M244.21,84.9a2.8,2.8,0,0,1,2.44,2.72,2.14,2.14,0,0,1-2.09,2.19,2.06,2.06,0,0,1-.35,0,2.81,2.81,0,0,1-2.45-2.72,2.15,2.15,0,0,1,2.1-2.19A1.37,1.37,0,0,1,244.21,84.9Z" style="fill:#fff"/><path id="Path_1725" data-name="Path 1725" d="M252.3,85.85a2.75,2.75,0,0,1,2.4,2.67,2.11,2.11,0,0,1-2.4,2.13A2.75,2.75,0,0,1,249.9,88a2.11,2.11,0,0,1,2.4-2.13Z" style="fill:#fff"/><path id="Path_1726" data-name="Path 1726" d="M260.39,86.89a2.59,2.59,0,0,1,2.27,2.52,2,2,0,0,1-1.94,2,1.83,1.83,0,0,1-.33,0,2.59,2.59,0,0,1-2.26-2.52,2,2,0,0,1,1.94-2A1.67,1.67,0,0,1,260.39,86.89Z" style="fill:#fff"/><path id="Path_1727" data-name="Path 1727" d="M268.49,88a2.35,2.35,0,0,1,2,2.27,1.79,1.79,0,0,1-1.75,1.83,1.37,1.37,0,0,1-.29,0,2.35,2.35,0,0,1-2.05-2.27A1.79,1.79,0,0,1,268.19,88Z" style="fill:#fff"/><path id="Path_1728" data-name="Path 1728" d="M276.58,89.19a2,2,0,0,1,1.77,2,1.56,1.56,0,0,1-1.52,1.6l-.25,0a2,2,0,0,1-1.78-2,1.55,1.55,0,0,1,1.52-1.59Z" style="fill:#fff"/><path id="Path_1729" data-name="Path 1729" d="M284.67,90.46A1.62,1.62,0,0,1,286.08,92a1.23,1.23,0,0,1-1.21,1.27h-.2a1.6,1.6,0,0,1-1.41-1.57,1.23,1.23,0,0,1,1.2-1.27Z" style="fill:#fff"/><path id="Path_1730" data-name="Path 1730" d="M292.76,91.75a1.17,1.17,0,0,1,1,1.14.91.91,0,0,1-.88.93h-.15a1.17,1.17,0,0,1-1-1.15.89.89,0,0,1,.87-.92Z" style="fill:#fff"/><path id="Path_1731" data-name="Path 1731" d="M300.85,93.1a.66.66,0,0,1,.58.65.5.5,0,0,1-.49.52h-.09a.67.67,0,0,1-.58-.65.51.51,0,0,1,.5-.52Z" style="fill:#fff"/><path id="Path_1732" data-name="Path 1732" d="M308.94,94.46a.15.15,0,0,1,.14.15.13.13,0,0,1-.12.12h0a.16.16,0,0,1-.13-.15.13.13,0,0,1,.11-.13Z" style="fill:#fff"/><path id="Path_1733" data-name="Path 1733" d="M179.48,72s0,0,0,0a0,0,0,0,1,0,0h0a0,0,0,0,1,0,0,0,0,0,0,1,0,0Z" style="fill:#fff"/><path id="Path_1734" data-name="Path 1734" d="M187.57,72.6a.36.36,0,0,1,.31.35.28.28,0,0,1-.27.28h0a.38.38,0,0,1-.32-.35.29.29,0,0,1,.27-.29Z" style="fill:#fff"/><path id="Path_1735" data-name="Path 1735" d="M195.66,73.05a.88.88,0,0,1,.76.85.66.66,0,0,1-.65.68h-.11a.88.88,0,0,1-.76-.85.67.67,0,0,1,.65-.69Z" style="fill:#fff"/><path id="Path_1736" data-name="Path 1736" d="M203.75,73.58a1.32,1.32,0,0,1,1.15,1.27,1,1,0,0,1-1,1h-.17a1.32,1.32,0,0,1-1.14-1.27,1,1,0,0,1,1-1Z" style="fill:#fff"/><path id="Path_1737" data-name="Path 1737" d="M211.84,74.15a1.7,1.7,0,0,1,1.48,1.64,1.29,1.29,0,0,1-1.27,1.33h-.21a1.71,1.71,0,0,1-1.48-1.65,1.3,1.3,0,0,1,1.27-1.32A.74.74,0,0,1,211.84,74.15Z" style="fill:#fff"/><path id="Path_1738" data-name="Path 1738" d="M219.93,74.79a2,2,0,0,1,1.75,1.94,1.53,1.53,0,0,1-1.5,1.57h-.25a2,2,0,0,1-1.75-2,1.54,1.54,0,0,1,1.5-1.57A1,1,0,0,1,219.93,74.79Z" style="fill:#fff"/><path id="Path_1739" data-name="Path 1739" d="M228,75.49A2.24,2.24,0,0,1,230,77.66a1.72,1.72,0,0,1-1.67,1.75,1.27,1.27,0,0,1-.28,0,2.24,2.24,0,0,1-2-2.17,1.72,1.72,0,0,1,1.68-1.75A1.37,1.37,0,0,1,228,75.49Z" style="fill:#fff"/><path id="Path_1740" data-name="Path 1740" d="M236.12,76.26a2.39,2.39,0,0,1,2.08,2.32,1.82,1.82,0,0,1-1.78,1.87,1.51,1.51,0,0,1-.3,0A2.4,2.4,0,0,1,234,78.11a1.83,1.83,0,0,1,1.79-1.87A1.51,1.51,0,0,1,236.12,76.26Z" style="fill:#fff"/><path id="Path_1741" data-name="Path 1741" d="M244.21,77.12a2.45,2.45,0,0,1,2.13,2.37,1.87,1.87,0,0,1-1.82,1.91,1.56,1.56,0,0,1-.31,0A2.44,2.44,0,0,1,242.08,79a1.87,1.87,0,0,1,1.82-1.91Z" style="fill:#fff"/><path id="Path_1742" data-name="Path 1742" d="M252.3,78.07a2.4,2.4,0,0,1,2.09,2.32,1.83,1.83,0,0,1-1.79,1.87,1.51,1.51,0,0,1-.3,0,2.41,2.41,0,0,1-2.09-2.33A1.84,1.84,0,0,1,252,78.05Z" style="fill:#fff"/><path id="Path_1743" data-name="Path 1743" d="M260.39,79.11a2.25,2.25,0,0,1,2,2.17A1.71,1.71,0,0,1,260.67,83h-.28a2.25,2.25,0,0,1-1.95-2.18,1.72,1.72,0,0,1,1.68-1.75Z" style="fill:#fff"/><path id="Path_1744" data-name="Path 1744" d="M268.49,80.2a2,2,0,0,1,1.77,2,1.55,1.55,0,0,1-1.52,1.59l-.25,0a2,2,0,0,1-1.78-2,1.55,1.55,0,0,1,1.52-1.59A1.14,1.14,0,0,1,268.49,80.2Z" style="fill:#fff"/><path id="Path_1745" data-name="Path 1745" d="M276.58,81.37a1.73,1.73,0,0,1,1.5,1.67,1.33,1.33,0,0,1-1.29,1.35l-.21,0a1.72,1.72,0,0,1-1.5-1.67,1.32,1.32,0,0,1,1.28-1.35Z" style="fill:#fff"/><path id="Path_1746" data-name="Path 1746" d="M284.67,82.61a1.35,1.35,0,0,1,1.17,1.3,1,1,0,0,1-1,1h-.17a1.35,1.35,0,0,1-1.17-1.3,1,1,0,0,1,1-1.05Z" style="fill:#fff"/><path id="Path_1747" data-name="Path 1747" d="M292.76,83.9a.89.89,0,0,1,.78.87.68.68,0,0,1-.66.71h-.12a.89.89,0,0,1-.79-.87.68.68,0,0,1,.67-.7A.48.48,0,0,1,292.76,83.9Z" style="fill:#fff"/><path id="Path_1748" data-name="Path 1748" d="M300.85,85.23a.42.42,0,0,1,.36.4.32.32,0,0,1-.31.33h0a.41.41,0,0,1-.36-.4.33.33,0,0,1,.31-.32Z" style="fill:#fff"/><path id="Path_1749" data-name="Path 1749" d="M308.94,86.48s0,0,0,0a0,0,0,0,1,0,0h0a0,0,0,0,1,0,0s0,0,0,0Z" style="fill:#fff"/><path id="Path_1750" data-name="Path 1750" d="M187.57,64.73a.11.11,0,0,1,.09.1.08.08,0,0,1-.08.08h0a.11.11,0,0,1-.09-.1.08.08,0,0,1,.07-.08Z" style="fill:#fff"/><path id="Path_1751" data-name="Path 1751" d="M195.66,65.28a.52.52,0,0,1,.45.5.41.41,0,0,1-.39.4h-.06a.53.53,0,0,1-.45-.5.4.4,0,0,1,.38-.41Z" style="fill:#fff"/><path id="Path_1752" data-name="Path 1752" d="M203.75,65.8a1,1,0,0,1,.83.92.73.73,0,0,1-.71.75h-.12a1,1,0,0,1-.83-.92.73.73,0,0,1,.71-.75Z" style="fill:#fff"/><path id="Path_1753" data-name="Path 1753" d="M211.84,66.39A1.31,1.31,0,0,1,213,67.66a1,1,0,0,1-1,1h-.17a1.32,1.32,0,0,1-1.14-1.27,1,1,0,0,1,1-1Z" style="fill:#fff"/><path id="Path_1754" data-name="Path 1754" d="M219.93,67a1.62,1.62,0,0,1,1.42,1.57,1.25,1.25,0,0,1-1.21,1.27h-.21a1.63,1.63,0,0,1-1.41-1.58A1.23,1.23,0,0,1,219.73,67Z" style="fill:#fff"/><ellipse id="Ellipse_17" data-name="Ellipse 17" cx="228.03" cy="69.35" rx="1.51" ry="1.68" transform="translate(14.68 175.59) rotate(-43.39)" style="fill:#fff"/><path id="Path_1755" data-name="Path 1755" d="M236.12,68.52a2,2,0,0,1,1.73,1.93A1.52,1.52,0,0,1,236.37,72a1,1,0,0,1-.25,0,2,2,0,0,1-1.73-1.92,1.51,1.51,0,0,1,1.48-1.55Z" style="fill:#fff"/><path id="Path_1756" data-name="Path 1756" d="M244.21,69.41a2,2,0,0,1,1.75,2,1.54,1.54,0,0,1-1.5,1.57l-.25,0a2,2,0,0,1-1.75-2A1.52,1.52,0,0,1,244,69.4,1,1,0,0,1,244.21,69.41Z" style="fill:#fff"/><path id="Path_1757" data-name="Path 1757" d="M252.3,70.34A2,2,0,0,1,254,72.26a1.51,1.51,0,0,1-1.48,1.55,1.06,1.06,0,0,1-.25,0,2,2,0,0,1-1.73-1.92,1.52,1.52,0,0,1,1.48-1.55Z" style="fill:#fff"/><path id="Path_1758" data-name="Path 1758" d="M260.39,71.36a1.86,1.86,0,0,1,1.62,1.8,1.42,1.42,0,0,1-1.39,1.45l-.23,0a1.84,1.84,0,0,1-1.61-1.8,1.4,1.4,0,0,1,1.38-1.44A.87.87,0,0,1,260.39,71.36Z" style="fill:#fff"/><path id="Path_1759" data-name="Path 1759" d="M268.49,72.46A1.63,1.63,0,0,1,269.9,74a1.24,1.24,0,0,1-1.21,1.26h-.2a1.62,1.62,0,0,1-1.42-1.57,1.25,1.25,0,0,1,1.21-1.27Z" style="fill:#fff"/><path id="Path_1760" data-name="Path 1760" d="M276.58,73.62a1.33,1.33,0,0,1,1.16,1.3,1,1,0,0,1-1,1h-.16a1.33,1.33,0,0,1-1.17-1.3,1,1,0,0,1,1-1Z" style="fill:#fff"/><path id="Path_1761" data-name="Path 1761" d="M284.67,74.84a1,1,0,0,1,.85,1,.75.75,0,0,1-.73.76h-.12a1,1,0,0,1-.85-1,.74.74,0,0,1,.72-.76Z" style="fill:#fff"/><path id="Path_1762" data-name="Path 1762" d="M292.76,76.11a.55.55,0,0,1,.49.55.43.43,0,0,1-.42.44h-.07a.55.55,0,0,1-.49-.54.44.44,0,0,1,.42-.45Z" style="fill:#fff"/><path id="Path_1763" data-name="Path 1763" d="M300.85,77.39a.12.12,0,0,1,.11.12.09.09,0,0,1-.1.1h0a.12.12,0,0,1-.11-.12.09.09,0,0,1,.1-.1Z" style="fill:#fff"/><path id="Path_1764" data-name="Path 1764" d="M195.66,57.5a.15.15,0,0,1,.13.15.12.12,0,0,1-.11.12h0a.17.17,0,0,1-.14-.15.12.12,0,0,1,.12-.12Z" style="fill:#fff"/><path id="Path_1765" data-name="Path 1765" d="M203.75,58.07a.53.53,0,0,1,.47.52.4.4,0,0,1-.4.42h-.07a.54.54,0,0,1-.47-.52.41.41,0,0,1,.4-.43Z" style="fill:#fff"/><path id="Path_1766" data-name="Path 1766" d="M211.84,58.68a.87.87,0,0,1,.76.85.66.66,0,0,1-.65.68h-.11a.88.88,0,0,1-.76-.85.66.66,0,0,1,.65-.68Z" style="fill:#fff"/><path id="Path_1767" data-name="Path 1767" d="M219.93,59.34a1.15,1.15,0,0,1,1,1.12.88.88,0,0,1-.86.91h-.15a1.17,1.17,0,0,1-1-1.12.9.9,0,0,1,.87-.91Z" style="fill:#fff"/><path id="Path_1768" data-name="Path 1768" d="M228,60.07a1.35,1.35,0,0,1,1.18,1.32,1,1,0,0,1-1,1.07H228a1.37,1.37,0,0,1-1.19-1.33,1,1,0,0,1,1-1.06Z" style="fill:#fff"/><path id="Path_1769" data-name="Path 1769" d="M236.12,60.86a1.5,1.5,0,0,1,1.3,1.45,1.14,1.14,0,0,1-1.12,1.16.55.55,0,0,1-.18,0,1.48,1.48,0,0,1-1.3-1.44,1.13,1.13,0,0,1,1.11-1.17Z" style="fill:#fff"/><path id="Path_1770" data-name="Path 1770" d="M244.21,61.72a1.55,1.55,0,0,1,1.35,1.5,1.18,1.18,0,0,1-1.15,1.21.66.66,0,0,1-.2,0,1.55,1.55,0,0,1-1.35-1.5A1.19,1.19,0,0,1,244,61.71Z" style="fill:#fff"/><path id="Path_1771" data-name="Path 1771" d="M252.3,62.67a1.5,1.5,0,0,1,1.3,1.45,1.15,1.15,0,0,1-1.12,1.17h-.18a1.5,1.5,0,0,1-1.3-1.45,1.14,1.14,0,0,1,1.11-1.17Z" style="fill:#fff"/><path id="Path_1772" data-name="Path 1772" d="M260.39,63.67A1.4,1.4,0,0,1,261.61,65a1.07,1.07,0,0,1-1,1.08h-.18a1.4,1.4,0,0,1-1.21-1.35,1.06,1.06,0,0,1,1-1.08Z" style="fill:#fff"/><path id="Path_1773" data-name="Path 1773" d="M268.49,64.75a1.2,1.2,0,0,1,1,1.15.91.91,0,0,1-.88.93h-.15a1.19,1.19,0,0,1-1-1.15.9.9,0,0,1,.89-.92A.75.75,0,0,1,268.49,64.75Z" style="fill:#fff"/><path id="Path_1774" data-name="Path 1774" d="M276.58,65.91a.89.89,0,0,1,.78.87.69.69,0,0,1-.67.71h-.11a.9.9,0,0,1-.79-.87.69.69,0,0,1,.67-.71Z" style="fill:#fff"/><path id="Path_1775" data-name="Path 1775" d="M284.67,67.1a.56.56,0,0,1,.49.55.44.44,0,0,1-.42.45h-.07a.56.56,0,0,1-.49-.55.43.43,0,0,1,.42-.44Z" style="fill:#fff"/><path id="Path_1776" data-name="Path 1776" d="M292.76,68.35a.17.17,0,0,1,.16.17.14.14,0,0,1-.14.14h0a.18.18,0,0,1-.16-.17.15.15,0,0,1,.14-.15Z" style="fill:#fff"/><path id="Path_1777" data-name="Path 1777" d="M203.75,50.36a.1.1,0,0,1,.09.1.08.08,0,0,1-.08.08h0a.11.11,0,0,1-.09-.1.07.07,0,0,1,.08-.08Z" style="fill:#fff"/><path id="Path_1778" data-name="Path 1778" d="M211.84,51a.39.39,0,0,1,.34.37.29.29,0,0,1-.3.3h0a.37.37,0,0,1-.33-.37.29.29,0,0,1,.28-.31Z" style="fill:#fff"/><path id="Path_1779" data-name="Path 1779" d="M219.93,51.68a.67.67,0,0,1,.59.64.52.52,0,0,1-.5.53h-.09a.68.68,0,0,1-.58-.65.51.51,0,0,1,.5-.52Z" style="fill:#fff"/><path id="Path_1780" data-name="Path 1780" d="M228,52.42a.87.87,0,0,1,.74.83.66.66,0,0,1-.64.66H228a.83.83,0,0,1-.74-.82.64.64,0,0,1,.63-.66Z" style="fill:#fff"/><path id="Path_1781" data-name="Path 1781" d="M236.12,53.22a1,1,0,0,1,.85,1,.75.75,0,0,1-.73.76h-.12a1,1,0,0,1-.86-1,.75.75,0,0,1,.73-.76Z" style="fill:#fff"/><path id="Path_1782" data-name="Path 1782" d="M244.21,54.1a1,1,0,0,1,.87,1,.76.76,0,0,1-.75.78h-.12a1,1,0,0,1-.88-1,.78.78,0,0,1,.75-.79Z" style="fill:#fff"/><path id="Path_1783" data-name="Path 1783" d="M252.3,55a1,1,0,0,1,.85.95.74.74,0,0,1-.73.76h-.12a1,1,0,0,1-.85-1,.74.74,0,0,1,.73-.77Z" style="fill:#fff"/><path id="Path_1784" data-name="Path 1784" d="M260.39,56.05a.84.84,0,0,1,.74.82.65.65,0,0,1-.63.67h-.11a.86.86,0,0,1-.74-.82.66.66,0,0,1,.64-.67Z" style="fill:#fff"/><path id="Path_1785" data-name="Path 1785" d="M268.49,57.11a.68.68,0,0,1,.58.65.51.51,0,0,1-.5.52h-.08a.68.68,0,0,1-.59-.65.51.51,0,0,1,.5-.52Z" style="fill:#fff"/><path id="Path_1786" data-name="Path 1786" d="M276.58,58.24a.41.41,0,0,1,.35.4.31.31,0,0,1-.3.32h-.05a.41.41,0,0,1-.36-.4.31.31,0,0,1,.3-.32Z" style="fill:#fff"/><path id="Path_1787" data-name="Path 1787" d="M284.67,59.39a.13.13,0,0,1,.11.13.1.1,0,0,1-.1.1h0a.12.12,0,0,1-.11-.13.1.1,0,0,1,.1-.1Z" style="fill:#fff"/><path id="Path_1788" data-name="Path 1788" d="M211.84,43.24l0,0s0,0,0,0h0a0,0,0,0,1,0,0l0,0Z" style="fill:#fff"/><path id="Path_1789" data-name="Path 1789" d="M219.93,44.05a.14.14,0,0,1,.12.13.11.11,0,0,1-.1.1h0a.14.14,0,0,1-.11-.13.11.11,0,0,1,.1-.1Z" style="fill:#fff"/><path id="Path_1790" data-name="Path 1790" d="M228,44.83a.27.27,0,0,1,.24.27.21.21,0,0,1-.21.22h0a.28.28,0,0,1-.25-.27.23.23,0,0,1,.21-.23Z" style="fill:#fff"/><path id="Path_1791" data-name="Path 1791" d="M236.12,45.64a.39.39,0,0,1,.33.38.29.29,0,0,1-.29.3h0a.41.41,0,0,1-.34-.38.3.3,0,0,1,.3-.3Z" style="fill:#fff"/><path id="Path_1792" data-name="Path 1792" d="M244.21,46.5a.44.44,0,0,1,.38.43.33.33,0,0,1-.33.34h0a.43.43,0,0,1-.38-.43.33.33,0,0,1,.33-.34Z" style="fill:#fff"/><path id="Path_1793" data-name="Path 1793" d="M252.3,47.43a.43.43,0,0,1,.36.4.31.31,0,0,1-.31.32h0a.43.43,0,0,1-.36-.4.31.31,0,0,1,.31-.32Z" style="fill:#fff"/><path id="Path_1794" data-name="Path 1794" d="M260.39,48.43a.3.3,0,0,1,.27.3.23.23,0,0,1-.23.24h0a.32.32,0,0,1-.27-.3.25.25,0,0,1,.23-.25Z" style="fill:#fff"/><path id="Path_1795" data-name="Path 1795" d="M268.49,49.47a.15.15,0,0,1,.13.15.12.12,0,0,1-.12.12h0a.16.16,0,0,1-.14-.15.11.11,0,0,1,.11-.12Z" style="fill:#fff"/><path id="Path_1796" data-name="Path 1796" d="M276.58,50.49l0,0a0,0,0,0,1,0,0h0s0,0,0,0l0,0Z" style="fill:#fff"/><path id="Path_1797" data-name="Path 1797" d="M244.21,38.77s0,0,0,0a0,0,0,0,1,0,0h0l0,0s0,0,0,0Z" style="fill:#fff"/></g><g id="Group_102" data-name="Group 102"><path id="Path_1800" data-name="Path 1800" d="M200.37,173.45,177.14,206.7,212,173Z" style="fill:#efc12c"/><path id="Path_1801" data-name="Path 1801" d="M185.79,204l26-13.43-2.51,8.65Z" style="fill:#efc12c"/><path id="Path_1802" data-name="Path 1802" d="M178.08,198.94l8.66-22.07-7.44,3.3Z" style="fill:#efc12c"/></g></g></g></g></svg>