<svg xmlns="http://www.w3.org/2000/svg" width="60" height="60" viewBox="0 0 60 60">
  <g id="Group_116" data-name="Group 116" transform="translate(-158 -476)">
    <g id="Group_115" data-name="Group 115">
      <g id="Group_114" data-name="Group 114">
        <g id="Group_113" data-name="Group 113">
          <g id="Group_112" data-name="Group 112">
            <g id="Group_111" data-name="Group 111">
              <g id="Group_110" data-name="Group 110">
                <g id="Group_109" data-name="Group 109">
                  <g id="Group_108" data-name="Group 108">
                    <circle id="Ellipse_18" data-name="Ellipse 18" cx="30" cy="30" r="30" transform="translate(158 476)" fill="#ffca28"/>
                    <path id="Path_1803" data-name="Path 1803" d="M300.982,137.822a1.9,1.9,0,0,1-1.9-1.9,3.8,3.8,0,0,0-7.6,0,1.9,1.9,0,1,1-3.8,0,7.6,7.6,0,0,1,15.2,0A1.9,1.9,0,0,1,300.982,137.822Z" transform="translate(-96.006 362.625)" fill="#6d4c41"/>
                    <path id="Path_1804" data-name="Path 1804" d="M108.982,137.822a1.9,1.9,0,0,1-1.9-1.9,3.8,3.8,0,1,0-7.6,0,1.9,1.9,0,0,1-3.8,0,7.6,7.6,0,1,1,15.2,0A1.9,1.9,0,0,1,108.982,137.822Z" transform="translate(73.189 362.625)" fill="#6d4c41"/>
                    <path id="Path_1805" data-name="Path 1805" d="M113.018,289.076a1.846,1.846,0,0,0-1.478-.756h-39.3a1.831,1.831,0,0,0-1.478.753,1.932,1.932,0,0,0-.312,1.665,22.144,22.144,0,0,0,42.871,0A1.919,1.919,0,0,0,113.018,289.076Z" transform="translate(95.977 220.924)" fill="#fafafa"/>
                  </g>
                </g>
              </g>
            </g>
          </g>
        </g>
      </g>
    </g>
  </g>
</svg>
