<svg width="32" height="27" viewBox="0 0 32 27" fill="none" xmlns="http://www.w3.org/2000/svg">
<path d="M23.4375 16.1875H21.3125V17.25H23.4375V16.1875Z" fill="#6F7D95"/>
<path d="M5.90625 22.5625H4.84375V23.625H5.90625V22.5625Z" fill="#6F7D95"/>
<path d="M25.5625 22.5625H24.5V23.625H25.5625V22.5625Z" fill="#6F7D95"/>
<path d="M31.5709 13.8361L28.9875 9.05486C28.8508 8.80195 28.6483 8.59071 28.4014 8.44351C28.1545 8.2963 27.8724 8.21861 27.585 8.21867H20.3143L3.50606 0.384855C3.44293 0.355253 3.37455 0.338462 3.30488 0.335452C3.23521 0.332443 3.16564 0.343276 3.10019 0.367324C3.03456 0.391138 2.97428 0.427652 2.92277 0.47478C2.87127 0.521907 2.82956 0.578723 2.80003 0.64198L1.90222 2.57042C1.8725 2.63377 1.8556 2.70237 1.85247 2.77228C1.84935 2.84218 1.86006 2.91202 1.884 2.97777C1.90794 3.04352 1.94464 3.1039 1.99198 3.15543C2.03933 3.20696 2.09638 3.24863 2.15987 3.27804L2.1875 3.2892V6.09367C2.1875 6.23456 2.24347 6.36969 2.3431 6.46932C2.44273 6.56895 2.57785 6.62492 2.71875 6.62492C2.82382 6.62492 2.92653 6.65607 3.0139 6.71445C3.10126 6.77282 3.16935 6.85579 3.20956 6.95287C3.24977 7.04994 3.26029 7.15676 3.23979 7.25981C3.21929 7.36286 3.1687 7.45752 3.0944 7.53182C3.0201 7.60612 2.92544 7.65671 2.82239 7.67721C2.71934 7.69771 2.61252 7.68719 2.51545 7.64698C2.41838 7.60677 2.33541 7.53868 2.27703 7.45131C2.21866 7.36395 2.1875 7.26124 2.1875 7.15617H1.125C1.12506 7.44834 1.20543 7.73488 1.35733 7.98446C1.50923 8.23404 1.72681 8.43706 1.9863 8.57134C2.24579 8.70561 2.5372 8.76597 2.82868 8.74582C3.12016 8.72567 3.40048 8.62578 3.63903 8.45707C3.87757 8.28836 4.06514 8.05732 4.18125 7.78921C4.29736 7.5211 4.33753 7.22623 4.29738 6.93683C4.25722 6.64743 4.13829 6.37464 3.95357 6.14826C3.76885 5.92189 3.52546 5.75065 3.25 5.65326V3.78432L17.0625 10.2225V17.7812H0.59375C0.452854 17.7812 0.317728 17.8371 0.2181 17.9368C0.118471 18.0364 0.0625 18.1715 0.0625 18.3124V22.5624C0.0625 22.8442 0.174442 23.1145 0.373699 23.3137C0.572956 23.513 0.843207 23.6249 1.125 23.6249H2.23531C2.36017 24.3673 2.74408 25.0415 3.31887 25.5277C3.89367 26.0139 4.62216 26.2807 5.375 26.2807C6.12784 26.2807 6.85633 26.0139 7.43113 25.5277C8.00592 25.0415 8.38983 24.3673 8.51469 23.6249H21.8916C22.0164 24.3673 22.4003 25.0415 22.9751 25.5277C23.5499 26.0139 24.2784 26.2807 25.0312 26.2807C25.7841 26.2807 26.5126 26.0139 27.0874 25.5277C27.6622 25.0415 28.0461 24.3673 28.1709 23.6249H30.3438C30.7664 23.6249 31.1718 23.457 31.4707 23.1581C31.7696 22.8592 31.9375 22.4539 31.9375 22.0312V15.1823C31.9385 14.7088 31.8119 14.2437 31.5709 13.8361ZM28.0525 9.56007L30.4856 14.0624H22.375V9.28117H27.585C27.6808 9.28117 27.7749 9.30709 27.8572 9.35619C27.9395 9.40529 28.0069 9.47574 28.0525 9.56007ZM3.539 1.5722L19.1875 8.86573V10.0414L3.09062 2.53748L3.539 1.5722ZM18.125 10.7182L19.1875 11.2133V17.7812H18.125V10.7182ZM5.375 25.2187C4.95471 25.2187 4.54387 25.094 4.19441 24.8605C3.84496 24.627 3.57259 24.2952 3.41176 23.9069C3.25092 23.5186 3.20884 23.0913 3.29083 22.6791C3.37282 22.2669 3.57521 21.8883 3.8724 21.5911C4.16958 21.2939 4.54822 21.0915 4.96043 21.0095C5.37264 20.9275 5.79991 20.9696 6.1882 21.1304C6.5765 21.2913 6.90837 21.5636 7.14187 21.9131C7.37537 22.2625 7.5 22.6734 7.5 23.0937C7.5 23.6573 7.27612 24.1978 6.8776 24.5963C6.47909 24.9948 5.93859 25.2187 5.375 25.2187ZM5.375 19.9062C4.62246 19.9076 3.89463 20.1749 3.32011 20.661C2.74559 21.147 2.36136 21.8205 2.23531 22.5624H1.125V18.8437H19.1875V22.5624H8.51469C8.38864 21.8205 8.00441 21.147 7.42989 20.661C6.85537 20.1749 6.12754 19.9076 5.375 19.9062ZM25.0312 25.2187C24.611 25.2187 24.2001 25.094 23.8507 24.8605C23.5012 24.627 23.2288 24.2952 23.068 23.9069C22.9072 23.5186 22.8651 23.0913 22.9471 22.6791C23.0291 22.2669 23.2315 21.8883 23.5286 21.5911C23.8258 21.2939 24.2045 21.0915 24.6167 21.0095C25.0289 20.9275 25.4562 20.9696 25.8445 21.1304C26.2327 21.2913 26.5646 21.5636 26.7981 21.9131C27.0316 22.2625 27.1562 22.6734 27.1562 23.0937C27.1562 23.6573 26.9324 24.1978 26.5339 24.5963C26.1353 24.9948 25.5948 25.2187 25.0312 25.2187ZM30.3438 22.5624H28.1709C28.0461 21.82 27.6622 21.1458 27.0874 20.6597C26.5126 20.1735 25.7841 19.9067 25.0312 19.9067C24.2784 19.9067 23.5499 20.1735 22.9751 20.6597C22.4003 21.1458 22.0164 21.82 21.8916 22.5624H20.25V9.28117H21.3125V14.5937C21.3125 14.7346 21.3685 14.8697 21.4681 14.9693C21.5677 15.0689 21.7029 15.1249 21.8438 15.1249H30.867C30.867 15.144 30.875 15.1626 30.875 15.1823V16.1874H28.75C28.4682 16.1874 28.198 16.2994 27.9987 16.4986C27.7994 16.6979 27.6875 16.9681 27.6875 17.2499V18.3124C27.6875 18.5942 27.7994 18.8645 27.9987 19.0637C28.198 19.263 28.4682 19.3749 28.75 19.3749H30.875V20.4374H29.2812V21.4999H30.875V22.0312C30.875 22.1721 30.819 22.3072 30.7194 22.4068C30.6198 22.5064 30.4846 22.5624 30.3438 22.5624ZM30.875 17.2499V18.3124H28.75V17.2499H30.875Z" fill="#6F7D95"/>
<path d="M4.746 16.7188H11.3165C11.4247 17.0293 11.6268 17.2985 11.8949 17.489C12.163 17.6794 12.4837 17.7818 12.8125 17.7818C13.1413 17.7818 13.462 17.6794 13.7301 17.489C13.9982 17.2985 14.2003 17.0293 14.3085 16.7188H15.4688C15.6096 16.7188 15.7448 16.6628 15.8444 16.5632C15.944 16.4635 16 16.3284 16 16.1875V14.0625C16.0001 13.922 15.9445 13.7871 15.8454 13.6874L14.7877 12.6249C14.7383 12.5754 14.6796 12.5361 14.6149 12.5093C14.5503 12.4825 14.481 12.4687 14.411 12.4688H13.5403L9.97084 9.40929C9.87455 9.32669 9.75187 9.28127 9.625 9.28126H4.96912C4.67297 9.28023 4.38246 9.3622 4.13052 9.51788C3.87859 9.67357 3.67533 9.89674 3.54378 10.1621L2.39044 12.4688H1.125C0.843207 12.4688 0.572956 12.5807 0.373699 12.78C0.174442 12.9792 0.0625 13.2495 0.0625 13.5313V16.1875C0.0625 16.3284 0.118471 16.4635 0.2181 16.5632C0.317728 16.6628 0.452854 16.7188 0.59375 16.7188H1.754C1.86219 17.0293 2.06433 17.2985 2.3324 17.489C2.60046 17.6794 2.92115 17.7818 3.25 17.7818C3.57885 17.7818 3.89954 17.6794 4.1676 17.489C4.43567 17.2985 4.63781 17.0293 4.746 16.7188ZM12.8125 16.7188C12.7074 16.7188 12.6047 16.6876 12.5174 16.6292C12.43 16.5709 12.3619 16.4879 12.3217 16.3908C12.2815 16.2937 12.271 16.1869 12.2915 16.0839C12.312 15.9808 12.3626 15.8862 12.4368 15.8119C12.5111 15.7376 12.6058 15.687 12.7089 15.6665C12.8119 15.646 12.9187 15.6565 13.0158 15.6967C13.1129 15.7369 13.1958 15.805 13.2542 15.8924C13.3126 15.9797 13.3438 16.0824 13.3438 16.1875C13.3438 16.3284 13.2878 16.4635 13.1882 16.5632C13.0885 16.6628 12.9534 16.7188 12.8125 16.7188ZM11.9094 12.4688H8.03125V10.3438H9.42844L11.9094 12.4688ZM4.49419 10.6375C4.53798 10.5491 4.60569 10.4747 4.68964 10.4227C4.77359 10.3708 4.87041 10.3434 4.96912 10.3438H6.96875V12.4688H3.57831L4.49419 10.6375ZM1.125 13.5313H14.1906L14.9375 14.2819V15.6563H14.3085C14.2003 15.3457 13.9982 15.0765 13.7301 14.8861C13.462 14.6956 13.1413 14.5933 12.8125 14.5933C12.4837 14.5933 12.163 14.6956 11.8949 14.8861C11.6268 15.0765 11.4247 15.3457 11.3165 15.6563H4.746C4.63781 15.3457 4.43567 15.0765 4.1676 14.8861C3.89954 14.6956 3.57885 14.5933 3.25 14.5933C2.92115 14.5933 2.60046 14.6956 2.3324 14.8861C2.06433 15.0765 1.86219 15.3457 1.754 15.6563H1.125V13.5313ZM3.25 16.7188C3.14493 16.7188 3.04222 16.6876 2.95485 16.6292C2.86749 16.5709 2.7994 16.4879 2.75919 16.3908C2.71898 16.2937 2.70846 16.1869 2.72896 16.0839C2.74946 15.9808 2.80005 15.8862 2.87435 15.8119C2.94865 15.7376 3.04331 15.687 3.14636 15.6665C3.24941 15.646 3.35623 15.6565 3.4533 15.6967C3.55037 15.7369 3.63334 15.805 3.69172 15.8924C3.75009 15.9797 3.78125 16.0824 3.78125 16.1875C3.78125 16.3284 3.72528 16.4635 3.62565 16.5632C3.52602 16.6628 3.3909 16.7188 3.25 16.7188Z" fill="#6F7D95"/>
</svg>
