<svg width="105" height="102" viewBox="0 0 105 102" fill="none" xmlns="http://www.w3.org/2000/svg">
<path opacity="0.1" fill-rule="evenodd" clip-rule="evenodd" d="M50.4237 99.656C82.8119 89.2752 59.5588 77.3472 59.5588 49.828C59.5588 22.3088 77.9429 0 50.4237 0C22.9045 0 0.595703 22.3088 0.595703 49.828C0.595703 77.3472 18.0355 110.037 50.4237 99.656Z" fill="#00E592"/>
<path fill-rule="evenodd" clip-rule="evenodd" d="M95.4342 29.8968H23.6819C18.5995 29.8968 14.7129 33.7834 14.7129 38.8658V80.7213C14.7129 85.8038 18.5995 89.6904 23.6819 89.6904H95.4342C100.517 89.6904 104.403 85.8038 104.403 80.7213V38.8658C104.403 33.7834 100.517 29.8968 95.4342 29.8968Z" fill="#075AFD"/>
<path opacity="0.5" fill-rule="evenodd" clip-rule="evenodd" d="M85.3023 78.0638C89.4302 78.0638 92.7765 74.7175 92.7765 70.5896C92.7765 66.4617 89.4302 63.1154 85.3023 63.1154C81.1744 63.1154 77.8281 66.4617 77.8281 70.5896C77.8281 74.7175 81.1744 78.0638 85.3023 78.0638Z" fill="white"/>
<path fill-rule="evenodd" clip-rule="evenodd" d="M78.6578 78.0638C82.7857 78.0638 86.132 74.7175 86.132 70.5896C86.132 66.4617 82.7857 63.1154 78.6578 63.1154C74.5299 63.1154 71.1836 66.4617 71.1836 70.5896C71.1836 74.7175 74.5299 78.0638 78.6578 78.0638Z" fill="white"/>
<path fill-rule="evenodd" clip-rule="evenodd" d="M43.114 56.8038H49.0933C49.9902 56.8038 50.5882 57.4017 50.5882 58.2986C50.5882 59.1955 49.9902 59.7935 49.0933 59.7935H43.114C42.2171 59.7935 41.6191 59.1955 41.6191 58.2986C41.6191 57.4017 42.2171 56.8038 43.114 56.8038Z" fill="white"/>
<path fill-rule="evenodd" clip-rule="evenodd" d="M28.1667 56.8038H34.1461C35.043 56.8038 35.6409 57.4017 35.6409 58.2986C35.6409 59.1955 35.043 59.7935 34.1461 59.7935H28.1667C27.2698 59.7935 26.6719 59.1955 26.6719 58.2986C26.6719 57.4017 27.2698 56.8038 28.1667 56.8038Z" fill="white"/>
<path fill-rule="evenodd" clip-rule="evenodd" d="M28.1667 65.7728H43.1151C44.012 65.7728 44.61 66.3708 44.61 67.2677C44.61 68.1646 44.012 68.7625 43.1151 68.7625H28.1667C27.2698 68.7625 26.6719 68.1646 26.6719 67.2677C26.6719 66.3708 27.2698 65.7728 28.1667 65.7728Z" fill="white"/>
<path fill-rule="evenodd" clip-rule="evenodd" d="M61.0532 77.7316H28.1667C27.2698 77.7316 26.6719 77.1337 26.6719 76.2368C26.6719 75.3399 27.2698 74.7419 28.1667 74.7419H61.0532C61.9501 74.7419 62.548 75.3399 62.548 76.2368C62.548 77.1337 61.9501 77.7316 61.0532 77.7316Z" fill="white"/>
<path fill-rule="evenodd" clip-rule="evenodd" d="M64.0426 59.7935H58.0632C57.1663 59.7935 56.5684 59.1955 56.5684 58.2986C56.5684 57.4017 57.1663 56.8038 58.0632 56.8038H64.0426C64.9395 56.8038 65.5374 57.4017 65.5374 58.2986C65.5374 59.1955 64.9395 59.7935 64.0426 59.7935Z" fill="white"/>
</svg>
