<svg width="22" height="22" viewBox="0 0 22 22" fill="none" xmlns="http://www.w3.org/2000/svg">
<g clip-path="url(#clip0)">
<path d="M11 0C8.87493 0 7.146 1.72893 7.146 3.854V11.4285C7.146 13.5533 8.87493 15.2822 11 15.2822C13.1251 15.2822 14.854 13.5653 14.854 11.455V3.854C14.854 1.72893 13.1251 0 11 0ZM13.2479 11.4547C13.2479 12.6795 12.2394 13.6761 11 13.6761C9.76056 13.6761 8.75182 12.6679 8.75182 11.4282V3.854C8.75182 2.6143 9.7603 1.60583 11 1.60583C12.2397 1.60583 13.2482 2.6143 13.2479 3.854V11.4547Z" fill="#1E1E1E"/>
<path d="M11.8031 17.584H10.1973V21.1971H11.8031V17.584Z" fill="#1E1E1E"/>
<path d="M13.1146 20.3943H8.88592C8.44244 20.3943 8.08301 20.7537 8.08301 21.1972C8.08301 21.6407 8.44244 22.0001 8.88592 22.0001H13.1146C13.5581 22.0001 13.9176 21.6407 13.9176 21.1972C13.9176 20.7537 13.5581 20.3943 13.1146 20.3943Z" fill="#1E1E1E"/>
<path d="M17.0754 10.0901C16.6319 10.0901 16.2725 10.4495 16.2725 10.893V11.5353C16.2725 14.4424 13.9071 16.8079 10.9999 16.8079C8.09258 16.8079 5.72741 14.4425 5.72741 11.5353V10.893C5.72741 10.4495 5.36798 10.0901 4.9245 10.0901C4.48102 10.0901 4.12158 10.4495 4.12158 10.893V11.5353C4.12158 15.3281 7.20721 18.4137 10.9999 18.4137C14.7927 18.4137 17.8783 15.3281 17.8783 11.5353V10.893C17.8783 10.4496 17.5189 10.0901 17.0754 10.0901Z" fill="#1E1E1E"/>
</g>
<defs>
<clipPath id="clip0">
<rect width="22" height="22" fill="white"/>
</clipPath>
</defs>
</svg>
