<svg xmlns="http://www.w3.org/2000/svg" width="60" height="60" viewBox="0 0 60 60">
  <g id="icon" transform="translate(-158 -485)">
    <rect id="Background" width="60" height="60" rx="20" transform="translate(158 485)" fill="#ced5d9" opacity="0.5"/>
    <g id="receipt-check" transform="translate(175 502)">
      <path id="Path_1306" data-name="Path 1306" d="M22.778,4.111V20.222a2.778,2.778,0,1,1-5.556,0V17.444H5V4.111A1.111,1.111,0,0,1,6.111,3H21.667A1.111,1.111,0,0,1,22.778,4.111Z" transform="translate(0.222 0)" fill="none" stroke="#fff" stroke-linecap="round" stroke-linejoin="round" stroke-width="2"/>
      <path id="Path_1307" data-name="Path 1307" d="M20.222,21.556H5.778A2.778,2.778,0,0,1,3,18.778V16H17.444v2.778a2.778,2.778,0,0,0,2.778,2.778Z" transform="translate(0 1.444)" fill="none" stroke="#fff" stroke-linecap="round" stroke-linejoin="round" stroke-width="2"/>
    </g>
  </g>
</svg>
