<svg width="281" height="262" viewBox="0 0 281 262" fill="none" xmlns="http://www.w3.org/2000/svg">
<g clip-path="url(#clip0_47_3739)">
<path d="M262.117 72.8662L266 70.0998M143.746 16.2388L144.003 17.8133M261 92L262.383 91.1994M162.619 30.3379L164.028 31.0851M169.835 -13L165.092 -12.5997M134.34 0.805489L132 -3.35751" stroke="#FECAAE" stroke-linecap="round" stroke-linejoin="round"/>
<path d="M254.021 154C254.021 154 261.056 153.663 264.321 143.579C267.585 133.495 262.573 129.829 257.96 131.809C253.347 133.779 250.472 141.67 257.454 140.374C264.436 139.079 270.46 130.459 273.503 122.799C276.546 115.138 274.008 110.345 274.008 110.345M4.68597 26C4.68597 26 -1.39104 50.3395 9.52984 56.7573C20.4507 63.1839 29.1803 55.63 28.3375 49.2655C27.4947 42.901 18.0909 41.605 16.6803 52.3634C15.2697 63.1218 21.187 70.5603 28.6214 70.4449C36.0558 70.3295 38.4777 67.4003 38.4777 67.4003" stroke="#1009C1" stroke-linecap="round" stroke-linejoin="round"/>
<path fill-rule="evenodd" clip-rule="evenodd" d="M19 117H155V262H19V117Z" fill="#FECAAE"/>
<path fill-rule="evenodd" clip-rule="evenodd" d="M154.991 201.503V262H19V194C37.1321 208.081 66.0353 221.049 108.32 215.032C126.488 212.442 141.938 207.555 155 201.503H154.991Z" fill="#FFA075"/>
<path d="M266.185 26.8424L276 26.3388L266.797 31.1401L270.6 43L263.126 33.3454L259.686 42.4704L258.968 31.9823L253.994 35.351L258.267 28.6917L250.296 19.9834L260.289 24.6371L261.078 13.7669L264.27 24.2117L270.122 21.4333L266.185 26.8337V26.8424ZM38.8151 14.1576L29 14.6612L38.2033 9.85993L34.3996 -2L41.874 7.65464L45.3142 -1.47038L46.0323 9.01775L51.0064 5.64905L46.7328 12.3083L54.7037 21.0166L44.7113 16.3629L43.9221 27.2331L40.7302 16.7883L34.8784 19.5667L38.8151 14.1663V14.1576Z" stroke="#FFCD48" stroke-linecap="round" stroke-linejoin="round"/>
<path fill-rule="evenodd" clip-rule="evenodd" d="M62.5 70C64.9894 70 67 72.0202 67 74.5C67 76.9798 64.9798 79 62.5 79C60.0202 79 58 76.9798 58 74.5C58 72.0202 60.0202 70 62.5 70Z" fill="#FECAAE"/>
<path fill-rule="evenodd" clip-rule="evenodd" d="M71 50C75.4199 50 79 53.5801 79 58C79 62.4199 75.4199 66 71 66C66.5801 66 63 62.4199 63 58C63 53.5801 66.5801 50 71 50Z" fill="#FECAAE"/>
<path fill-rule="evenodd" clip-rule="evenodd" d="M86.5 129C114.941 129 138 151.835 138 180C138 208.165 114.941 231 86.5 231C58.0593 231 35 208.165 35 180C35 151.835 58.0593 129 86.5 129Z" fill="white"/>
<path fill-rule="evenodd" clip-rule="evenodd" d="M19 90H155V117H19V90Z" fill="white"/>
<path fill-rule="evenodd" clip-rule="evenodd" d="M87 137C110.748 137 130 156.252 130 180C130 203.748 110.748 223 87 223C63.252 223 44 203.748 44 180C44 156.252 63.252 137 87 137Z" fill="#1009C1"/>
<path fill-rule="evenodd" clip-rule="evenodd" d="M142.94 163C144.918 168.462 146 174.357 146 180.5C146 186.643 144.918 192.538 142.94 198H135C136.987 192.538 138.069 186.643 138.069 180.5C138.069 174.357 136.987 168.462 135 163H142.94Z" fill="#1009C1"/>
<path d="M131 207.298C121.863 222.125 105.512 232 86.8565 232C58.2194 232 35 208.716 35 180C35 151.284 58.2194 128 86.8565 128C105.183 128 121.294 137.536 130.52 151.935" stroke="#1009C1" stroke-linecap="round" stroke-linejoin="round"/>
<path fill-rule="evenodd" clip-rule="evenodd" d="M211.244 6.11239C211.244 6.11239 209.314 2.63269 203.133 4.60543C196.951 6.57818 197.916 9.29983 198.282 16.1679C198.649 23.036 199.73 25.3284 201.596 26.0773C203.463 26.8353 205 26.5979 205 26.5979L204.634 31L210.869 30.5342L210.216 24.7073C210.216 24.7073 211.69 22.7072 212.119 21.4285C212.548 20.1499 212.575 19.4558 212.575 19.4558C212.575 19.4558 215.514 20.8988 215.96 17.5379C216.416 14.1769 212.816 14.0582 212.816 14.0582C212.816 14.0582 213.245 8.33172 211.244 6.09412V6.11239Z" fill="#FF7D90"/>
<path fill-rule="evenodd" clip-rule="evenodd" d="M198.369 11.2204C200.036 10.7457 202.474 9.99333 204.345 9.21412C207.492 7.90647 210.002 8.47969 210.622 11.292C211.243 14.1044 213.069 14.4357 213.069 14.4357C213.069 14.4357 214.089 14.4716 214.967 15C218.655 11.3995 216.598 8.09456 214.497 6.77796C212.023 5.21058 213.734 2.0579 210.223 -0.154349C206.703 -2.3666 199.983 0.239735 197.03 2.2012C194.078 4.16267 190.478 2.46094 191.063 7.28848C191.657 12.125 198.36 11.2293 198.36 11.2293L198.369 11.2204Z" fill="#1009C1" stroke="#1009C1" stroke-linecap="round" stroke-linejoin="round"/>
<path fill-rule="evenodd" clip-rule="evenodd" d="M239 207.223L254.746 220L269 200.945L257.597 188L239 207.223Z" fill="#FF7D90"/>
<path fill-rule="evenodd" clip-rule="evenodd" d="M239 207.008L250.483 216L269 199.995L258.051 188L239 207.008Z" fill="#FF5767"/>
<path fill-rule="evenodd" clip-rule="evenodd" d="M150.823 221L150 238L172.749 237.771L175 222.416L150.823 221Z" fill="#FF5767"/>
<path fill-rule="evenodd" clip-rule="evenodd" d="M198 19.0766C198.063 19.4068 198.127 19.7126 198.201 20C198.455 20 198.73 20 199.005 19.9817C200.687 19.9144 202.031 19.6392 201.999 19.3762C201.968 19.1071 200.571 18.9481 198.889 19.0154C198.582 19.0276 198.286 19.046 198 19.0704V19.0766Z" fill="#FF5767"/>
<path fill-rule="evenodd" clip-rule="evenodd" d="M205.221 26.4368L205 29C208.717 27.7317 209 25 209 25C209 25 208.885 25.071 207.637 25.6918C206.389 26.3126 205.221 26.4368 205.221 26.4368Z" fill="#FF0F1A"/>
<path d="M203.999 20.7049C203.409 21.396 201.099 20.8217 200.665 19.5174C200.665 19.5174 202.515 19.605 202.758 17.6972C203.435 12.4993 198.99 12.1781 198 15.3318M204.633 14.2319C205.901 12.2851 208.766 12.8302 209 14.5823" stroke="#1009C1" stroke-linecap="round" stroke-linejoin="round"/>
<path fill-rule="evenodd" clip-rule="evenodd" d="M206.708 16.0287C205.086 16.2839 205 17.0337 205 17.0337C205 17.0337 205.623 17.0736 205.795 17.1294C205.967 17.1852 205.795 17.9669 206.751 17.9988C207.707 18.0387 207.717 17.0895 208.265 16.9699C208.813 16.8502 209.876 16.93 209.94 16.8742C210.445 16.4434 207.599 15.8851 206.708 16.0207V16.0287Z" fill="#1009C1"/>
<path fill-rule="evenodd" clip-rule="evenodd" d="M199.366 16.0287C198.069 16.2839 198 17.0337 198 17.0337C198 17.0337 198.498 17.0736 198.636 17.1294C198.773 17.1852 198.636 17.9669 199.401 17.9988C200.165 18.0387 200.174 17.0895 200.612 16.9699C201.05 16.8502 201.901 16.93 201.952 16.8742C202.356 16.4434 200.079 15.8851 199.366 16.0207V16.0287Z" fill="#1009C1"/>
<path d="M205 22.4675L205.584 23M212.996 14L212.826 17.6746C213.32 16.9467 214.102 15.9882 215 15.9882M214.946 17.7456L213.544 16.7692" stroke="#1009C1" stroke-linecap="round" stroke-linejoin="round"/>
<path fill-rule="evenodd" clip-rule="evenodd" d="M189.867 30.5624L222.412 28.2813C222.412 28.2813 234.126 26.0092 238.379 34.3792C238.379 34.3792 243.976 40.8094 238.812 62.453C233.649 84.0965 231.89 87.617 231.89 87.617L175.191 89L179.576 65.1741L171 65.228L174.872 45.3267C174.872 45.3267 176.411 32.6998 189.858 30.5624H189.867Z" fill="#075AFD"/>
<path fill-rule="evenodd" clip-rule="evenodd" d="M236 74.1575C233.051 85.4622 231.98 87.6172 231.98 87.6172L175.197 89L179.589 65.1784L171 65.2323L174.126 49.1956L183.343 43L180.766 59.4228C180.766 59.4228 185.052 67.4771 196.97 69.5333C208.888 71.5805 217.025 58.8122 217.025 58.8122L216.573 62.7451H217.246L236 74.1665V74.1575Z" fill="#0225FD"/>
<path d="M220 42L217 60" stroke="#1009C1" stroke-linecap="round" stroke-linejoin="round"/>
<path fill-rule="evenodd" clip-rule="evenodd" d="M232.133 87L232.294 163.622L267 189.924L244.545 218.254L204.272 180.599C204.272 180.599 199.849 179.252 199.849 166.881C199.849 154.509 198.491 128.774 198.491 128.774C198.491 128.774 184.194 158.45 182.612 172.956C181.022 187.453 177.903 233.38 177.903 233.38L142 234L150.846 177.455C150.846 177.455 155.609 154.969 158.102 147.327C160.595 139.684 174.829 88.3904 174.838 88.3727L232.133 87.0089V87Z" fill="#00E2B8"/>
<path fill-rule="evenodd" clip-rule="evenodd" d="M198.711 128.972C198.711 128.972 186.537 154.66 183.533 170C181.81 161.449 180.238 151.412 180.662 144.73C181.245 135.378 183.568 119.94 184.991 111.024C179.628 111.167 174.151 111.3 169 111.407C172.41 99.0567 175.326 88.3792 175.326 88.3703L231.973 87L232 102.34C226.116 105.917 217.299 109.797 206.185 110.304C202.112 110.491 197.289 110.66 192.156 110.82L198.384 117.805L198.702 128.98L198.711 128.972Z" fill="#0BD29B"/>
<path d="M217.104 88C217.104 88 217.22 94.0541 220.265 99.2156C223.32 104.377 232.055 105.332 232.055 105.332M232.064 207.103L253 179.925M223.694 102.548L223.48 160.535C223.48 160.535 222.687 168.047 229.473 175.568C236.259 183.081 244.647 190.787 244.647 190.787M185.055 103.767L198.172 118.244L198.492 129.345M145 216.383L179.071 218M192.945 112.482C192.945 112.482 175.891 154.427 172.499 168.339C169.106 182.25 166.862 216.851 166.844 217.143" stroke="#01A4A6" stroke-linecap="round" stroke-linejoin="round"/>
<path fill-rule="evenodd" clip-rule="evenodd" d="M112 68.0913L185.376 63L186.937 94.1271C186.937 94.1271 189.384 117.443 163.78 120.047C138.166 122.651 140.061 121.741 140.061 121.741C140.061 121.741 118.026 125.575 114.903 103.73C112.728 87.2615 112.263 73.5838 112 68.0913Z" fill="#FFCD48"/>
<path fill-rule="evenodd" clip-rule="evenodd" d="M149 65.5414L185.389 63L186.937 94.0216C186.937 94.0216 189.365 117.259 163.971 119.854C159.056 120.351 155.159 120.725 152.08 121L150.992 95.7811L149 65.5414Z" fill="#FDA91A"/>
<path fill-rule="evenodd" clip-rule="evenodd" d="M111.009 68.1153L185.448 63L186 73.9922L111.561 79C111.267 74.1892 111.116 70.4267 111 68.1153H111.009Z" fill="#FDA91A"/>
<path fill-rule="evenodd" clip-rule="evenodd" d="M149 65.6512L185.46 63L186 74.4047L149.715 77L149 65.6512Z" fill="#E78915"/>
<path fill-rule="evenodd" clip-rule="evenodd" d="M216.928 62.2854L239 62L235.23 79.9421C235.23 79.9421 233.597 91.8827 212.705 94.2637C191.813 96.6446 180.67 96.6982 180.67 96.6982C180.67 96.6982 167.425 97.8307 165.394 95.7083C163.362 93.5859 169.164 93.0776 169.164 93.0776C169.164 93.0776 162.067 93.0776 161.144 90.9017C160.213 88.7259 165.199 88.7526 165.199 88.7526C165.199 88.7526 159.228 88.4138 159.006 86.3181C158.785 84.2225 164.356 84.7041 164.356 84.7041C164.356 84.7041 161.144 84.1958 160.923 82.1804C160.701 80.165 170.273 80.3166 170.273 80.3166L170.042 77.8821C170.042 77.8821 176.687 74.1992 179.668 75.1088C182.649 76.0184 186.428 80.3166 188.229 80.3166C190.03 80.3166 213.202 76.6694 214.213 75.7598C215.225 74.8502 216.937 62.2943 216.937 62.2943L216.928 62.2854Z" fill="#FF7D90"/>
<path fill-rule="evenodd" clip-rule="evenodd" d="M216.933 62.297L239 62L238.565 64.1531L215 74C215.922 69.9907 216.933 62.297 216.933 62.297Z" fill="#FF5767"/>
<path d="M175.391 84.2067L164 84.6932M174.823 88.3291L164.843 88.7095M174.574 92.6019L168.821 93M177.664 79.9073L169.922 80.3319M183 43L180.132 60.9671" stroke="#1009C1" stroke-linecap="round" stroke-linejoin="round"/>
<path fill-rule="evenodd" clip-rule="evenodd" d="M122.186 68L122.011 60.5988C122.011 60.5988 121.564 56.1418 126.401 55.6286C131.238 55.1154 176.478 52 176.478 52C176.478 52 177.039 54.8272 175.786 56.3399C174.533 57.8526 173.779 57.7985 173.779 57.7985H177.977C177.977 57.7985 178.459 64.2904 175.041 64.2904C171.624 64.2904 157.727 65.5059 157.727 65.5059L148.491 66.1542L122.177 68H122.186Z" fill="#00E2B8"/>
<path fill-rule="evenodd" clip-rule="evenodd" d="M131.196 44.5258L173.397 42C173.397 42 173.936 45.1142 172.884 46.2187C171.833 47.3231 170.162 47.468 170.162 47.468L173.936 47.2416C173.936 47.2416 174.574 51.1616 171.833 52.0125C161.492 52.7187 138.716 54.2758 129.408 55L129.031 48.2918C129.031 48.2918 128.572 44.8426 131.196 44.5258Z" fill="#FFCD48"/>
<path d="M149.52 49.377L170.353 48M148.681 59.5684L157.228 58.9545L174.49 57.7091M148.955 65.8482L150.979 95.6945M186.599 76.2501L185.936 63.3398L112 68.3478L112.742 81.7756M235 81.1441C234.116 83.9595 230.05 92.3705 212.788 94.3088C191.973 96.6417 180.872 96.7031 180.872 96.7031C180.872 96.7031 167.675 97.817 165.651 95.7296C163.627 93.6422 169.408 93.1423 169.408 93.1423C169.408 93.1423 162.337 93.1423 161.417 91.0022C160.489 88.8622 165.457 88.8885 165.457 88.8885C165.457 88.8885 159.508 88.5552 159.287 86.4942C159.066 84.4331 164.617 84.9067 164.617 84.9067C164.617 84.9067 161.417 84.4068 161.196 82.4246C160.975 80.4424 170.513 80.5915 170.513 80.5915L170.283 78.1972C170.283 78.1972 176.903 74.5749 179.873 75.4695" stroke="#1009C1" stroke-linecap="round" stroke-linejoin="round"/>
<path fill-rule="evenodd" clip-rule="evenodd" d="M207.448 18.0309C208.828 17.896 209.974 18.2149 210 18.7547C210.026 19.2944 208.932 19.8342 207.552 19.9691C206.172 20.104 205.026 19.7851 205 19.2453C204.974 18.7056 206.068 18.1658 207.448 18.0309Z" fill="#FF5767"/>
<path d="M217 76H214" stroke="#1009C1" stroke-linecap="round" stroke-linejoin="round"/>
<path fill-rule="evenodd" clip-rule="evenodd" d="M269.726 201L290 213.041L281.056 224.472L273.66 220.778L276 230.91L254 259L255.353 219.75L269.726 201Z" fill="#1009C1" stroke="#1009C1" stroke-linecap="round" stroke-linejoin="round"/>
<path fill-rule="evenodd" clip-rule="evenodd" d="M172.518 238L174 262H159.337L157.836 253.695L151.064 262H115L149.466 238.235L172.518 238Z" fill="#1009C1" stroke="#1009C1" stroke-linecap="round" stroke-linejoin="round"/>
<path d="M157.618 120.732C146.251 121.671 139.888 121.883 139.888 121.883C139.888 121.883 117.685 125.69 114.538 104M-2 262H286" stroke="#1009C1" stroke-linecap="round" stroke-linejoin="round"/>
<path fill-rule="evenodd" clip-rule="evenodd" d="M62 207.807C67.1681 206.132 73.3237 208.283 73.3237 208.283C73.3237 208.283 68.3512 193.07 79.1945 185.904C90.0379 178.747 97.1452 189.033 97.1452 189.033C97.1452 189.033 98.2749 179.188 105.275 168.003C108.193 163.341 113.219 161.066 118.085 160C121.83 165.764 124 172.63 124 179.99C124 200.43 107.277 217 86.6488 217C77.2109 217 68.5825 213.527 62.0089 207.807H62Z" fill="#FF7D90"/>
<path fill-rule="evenodd" clip-rule="evenodd" d="M50 189.493C54.3187 188.088 59.6788 187.368 65.7124 188.721C81.4427 192.242 85.3125 214.919 85.3125 214.919C85.3125 214.919 93.1687 202.379 105.828 205.778C108.019 206.368 109.707 207.253 111 208.311C104.419 213.731 95.8892 217 86.5605 217C68.9177 217 54.1122 205.293 50 189.493Z" fill="#FFCD48"/>
<path d="M109 117H19V90H104.516" stroke="#1009C1" stroke-linecap="round" stroke-linejoin="round"/>
<path fill-rule="evenodd" clip-rule="evenodd" d="M62 99C64.7626 99 67 101.014 67 103.5C67 105.986 64.7626 108 62 108C59.2374 108 57 105.986 57 103.5C57 101.014 59.2374 99 62 99Z" fill="#FFCD48"/>
<path fill-rule="evenodd" clip-rule="evenodd" d="M78.5 99C80.9864 99 83 101.014 83 103.5C83 105.986 80.9864 108 78.5 108C76.0136 108 74 105.986 74 103.5C74 101.014 76.0136 99 78.5 99Z" fill="#00E2B8"/>
<path d="M34.9436 108.695H48.822M34.9436 103.347H48.822M34.9436 98H48.822M19 262V248.1M19 227.649V117.07H73" stroke="#1009C1" stroke-linecap="round" stroke-linejoin="round"/>
<path fill-rule="evenodd" clip-rule="evenodd" d="M69 157C73.9737 157 78 161.035 78 166C78 170.965 73.9737 175 69 175C64.0263 175 60 170.965 60 166C60 161.035 64.0263 157 69 157Z" fill="white"/>
<path fill-rule="evenodd" clip-rule="evenodd" d="M84.5 178C87.5351 178 90 180.465 90 183.5C90 186.535 87.5351 189 84.5 189C81.4649 189 79 186.535 79 183.5C79 180.465 81.4649 178 84.5 178Z" fill="white"/>
<path fill-rule="evenodd" clip-rule="evenodd" d="M94.5 4C106.923 4 117 14.2923 117 27C117 39.7077 106.931 50 94.5 50C82.0686 50 72 39.7077 72 27C72 14.2923 82.0686 4 94.5 4Z" fill="#FECAAE"/>
<path fill-rule="evenodd" clip-rule="evenodd" d="M95.1645 15.4917C95.3753 16.6499 95.6411 18.365 96.3285 20.6991C97.8958 26.0302 102.378 26.7552 101.974 33.271C101.498 40.9097 87.5022 40.9097 87.0256 33.271C86.6223 26.764 91.0951 26.0302 92.6715 20.6991C93.3589 18.365 93.6247 16.641 93.8355 15.4917C94.3121 13.6881 94.6238 13.3256 95.1737 15.4917H95.1645Z" fill="#075AFD"/>
<path fill-rule="evenodd" clip-rule="evenodd" d="M92.5 30C93.3309 30 94 30.8963 94 32C94 33.1037 93.3309 34 92.5 34C91.6691 34 91 33.1037 91 32C91 30.8963 91.6691 30 92.5 30Z" fill="white"/>
<path d="M190 224.906C190 224.906 196.96 217.028 203.689 218.1C209.794 219.066 217.851 229.24 225.809 219.447M193.191 235C193.191 235 200.151 227.122 206.88 228.194C212.985 229.16 221.041 239.333 229 229.541" stroke="#FF7D90" stroke-linecap="round" stroke-linejoin="round"/>
<path d="M249.37 98.4343L245.483 95.6829M288 93.0554L284.122 95.8245M281.184 179.056L282.365 183.656M192.707 188.204L194.091 189M208.609 -11.8511L205.246 -15.2218M247.346 1.34846L242.882 3.02053M175.029 11.2747L175.286 9.70878M68.589 -17L63.8678 -16.3542M72.9818 -0.650935L71.4111 -0.35014M10.8876 11.6993L7.10706 8.8064M-5.2195 144.535L-9 141.651M8.09212 179.905L3.61054 181.516M1.66705 89.4105L1.9244 90.9764" stroke="#FECAAE" stroke-linecap="round" stroke-linejoin="round"/>
</g>
<defs>
<clipPath id="clip0_47_3739">
<rect width="281" height="262" fill="white"/>
</clipPath>
</defs>
</svg>
