<svg width="26" height="26" viewBox="0 0 26 26" fill="none" xmlns="http://www.w3.org/2000/svg">
<path d="M20.5483 16.1061C20.016 15.5518 19.374 15.2555 18.6936 15.2555C18.0186 15.2555 17.3711 15.5463 16.8168 16.1006L15.0828 17.8291C14.9401 17.7523 14.7975 17.681 14.6603 17.6096C14.4627 17.5108 14.2761 17.4176 14.117 17.3188C12.4927 16.2871 11.0166 14.9427 9.60081 13.2032C8.91488 12.3362 8.45393 11.6063 8.11919 10.8655C8.56916 10.454 8.98621 10.0259 9.39229 9.61437C9.54594 9.46072 9.69958 9.30158 9.85323 9.14793C11.0056 7.99556 11.0056 6.50297 9.85323 5.3506L8.35515 3.85252C8.18504 3.6824 8.00944 3.50681 7.84482 3.33121C7.51557 2.99098 7.16986 2.63978 6.81317 2.31053C6.28089 1.78374 5.64434 1.50388 4.97487 1.50388C4.30539 1.50388 3.65787 1.78374 3.10912 2.31053C3.10364 2.31602 3.10364 2.31602 3.09815 2.32151L1.23241 4.20372C0.530009 4.90611 0.129423 5.76216 0.0416231 6.75539C-0.0900763 8.35774 0.381847 9.85033 0.74402 10.8271C1.63299 13.2251 2.96096 15.4476 4.94194 17.8291C7.34546 20.6991 10.2374 22.9654 13.5408 24.5623C14.8029 25.1604 16.4876 25.8683 18.3698 25.989C18.485 25.9945 18.6058 26 18.7155 26C19.9831 26 21.0477 25.5445 21.8818 24.6391C21.8873 24.6281 21.8982 24.6226 21.9037 24.6116C22.1891 24.2659 22.5183 23.9531 22.864 23.6184C23.1 23.3934 23.3415 23.1575 23.5774 22.9105C24.1207 22.3453 24.406 21.6868 24.406 21.0119C24.406 20.3314 24.1152 19.6784 23.561 19.1297L20.5483 16.1061ZM22.5128 21.8844C22.5074 21.8844 22.5074 21.8899 22.5128 21.8844C22.2988 22.1148 22.0793 22.3234 21.8434 22.5538C21.4867 22.8941 21.1245 23.2508 20.7843 23.6513C20.2301 24.244 19.577 24.5238 18.721 24.5238C18.6387 24.5238 18.5509 24.5238 18.4686 24.5184C16.8388 24.4141 15.3243 23.7775 14.1883 23.2343C11.0824 21.7307 8.35515 19.5961 6.08882 16.8908C4.21759 14.6354 2.96645 12.5502 2.13784 10.3113C1.6275 8.9449 1.44093 7.88033 1.52324 6.87612C1.57812 6.23408 1.82505 5.7018 2.28051 5.24634L4.15174 3.37511C4.42063 3.12268 4.70598 2.98549 4.98584 2.98549C5.33155 2.98549 5.61141 3.19402 5.78701 3.36962C5.7925 3.37511 5.79799 3.38059 5.80347 3.38608C6.13821 3.69887 6.45648 4.02263 6.79122 4.36834C6.96133 4.54394 7.13693 4.71954 7.31253 4.90062L8.81061 6.39871C9.39229 6.98038 9.39229 7.51815 8.81061 8.09982C8.65148 8.25896 8.49783 8.4181 8.33869 8.57175C7.87774 9.04367 7.43874 9.48267 6.96133 9.91069C6.95036 9.92167 6.93938 9.92715 6.9339 9.93813C6.46197 10.4101 6.54977 10.871 6.64855 11.1838C6.65403 11.2002 6.65952 11.2167 6.66501 11.2332C7.05462 12.177 7.60337 13.066 8.43746 14.1251L8.44295 14.1306C9.9575 15.9963 11.5544 17.4505 13.3158 18.5644C13.5408 18.7071 13.7713 18.8224 13.9908 18.9321C14.1883 19.0309 14.3749 19.1242 14.5341 19.2229C14.556 19.2339 14.578 19.2504 14.5999 19.2614C14.7865 19.3546 14.9621 19.3985 15.1432 19.3985C15.5986 19.3985 15.884 19.1132 15.9773 19.0199L17.854 17.1432C18.0406 16.9566 18.3369 16.7316 18.6826 16.7316C19.0228 16.7316 19.3027 16.9456 19.4728 17.1322C19.4783 17.1377 19.4783 17.1377 19.4838 17.1432L22.5074 20.1668C23.0726 20.7265 23.0726 21.3027 22.5128 21.8844Z" fill="#1E1E1E"/>
<path d="M14.0512 6.18467C15.4889 6.42612 16.7949 7.10657 17.8376 8.14919C18.8802 9.19181 19.5551 10.4978 19.8021 11.9356C19.8624 12.2977 20.1752 12.5501 20.5319 12.5501C20.5758 12.5501 20.6142 12.5447 20.6581 12.5392C21.0642 12.4733 21.3331 12.0892 21.2672 11.6831C20.9709 9.9436 20.1478 8.35772 18.8912 7.10108C17.6345 5.84445 16.0486 5.02133 14.3091 4.72501C13.903 4.65916 13.5244 4.92804 13.4531 5.32863C13.3817 5.72921 13.6451 6.11883 14.0512 6.18467Z" fill="#1E1E1E"/>
<path d="M25.9702 11.4693C25.4818 8.60487 24.1319 5.99832 22.0576 3.92405C19.9833 1.84978 17.3768 0.499863 14.5123 0.0114771C14.1117 -0.0598601 13.7331 0.214514 13.6618 0.6151C13.5959 1.02117 13.8648 1.39981 14.2709 1.47115C16.828 1.90466 19.1602 3.11739 21.015 4.96667C22.8698 6.82144 24.077 9.15362 24.5105 11.7108C24.5709 12.073 24.8837 12.3254 25.2403 12.3254C25.2842 12.3254 25.3227 12.3199 25.3666 12.3144C25.7671 12.254 26.0415 11.8699 25.9702 11.4693Z" fill="#1E1E1E"/>
</svg>
