<svg width="34" height="16" viewBox="0 0 34 16" fill="none" xmlns="http://www.w3.org/2000/svg">
<path d="M32.9967 9.95343C32.8904 9.80931 32.7225 9.72399 32.5435 9.7233H29.0978C29.3007 9.37994 29.4086 8.98863 29.41 8.58993H31.677C31.9899 8.58993 32.2435 8.33605 32.2435 8.02314V5.18961C32.2435 4.25064 31.4824 3.48945 30.5434 3.48945H29.1086L26.9551 0.904272C26.5255 0.387744 25.8884 0.0891258 25.2165 0.0893564H19.5494C18.7914 0.0886646 18.0833 0.467529 17.6634 1.09866L16.0455 3.52588L12.7619 3.93657C11.9122 4.04425 11.2753 4.76716 11.2755 5.62382V8.02314C11.2755 8.33628 11.5292 8.58993 11.8421 8.58993H14.109C14.1113 8.98886 14.2199 9.38017 14.424 9.7233H10.1419V2.35608C10.1419 2.04317 9.88826 1.78952 9.57535 1.78952H3.34173C3.14619 1.78952 2.96471 1.89006 2.86117 2.05585L0.027648 6.58931C-0.0290779 6.69192 -0.0585938 6.80722 -0.0585938 6.92436V12.5568C-0.0585938 12.8697 0.195058 13.1234 0.508203 13.1234H1.65563C1.81959 14.8372 3.34173 16.0932 5.05526 15.9292C6.54213 15.7872 7.71884 14.6103 7.86112 13.1234H9.00878V13.6902C9.00878 14.0031 9.26243 14.2568 9.57535 14.2568H15.8092C16.1221 14.2568 16.3758 14.0031 16.3758 13.6902V13.1234H22.6239C22.7879 14.8372 24.3098 16.0932 26.0233 15.9292C27.5102 15.7872 28.6871 14.6103 28.8292 13.1234H33.3771C33.6901 13.1234 33.9437 12.8697 33.9437 12.5568V11.4235C33.943 11.3019 33.9034 11.1839 33.8305 11.0868L32.9967 9.95343ZM3.65557 2.92288H5.25703L4.57701 6.32643L1.51682 6.34972L3.65557 2.92288ZM2.34188 10.8896C2.22796 11.0317 2.1265 11.1834 2.03888 11.343C2.03035 11.3587 2.01836 11.3723 2.00982 11.3882C1.9162 11.5694 1.84011 11.7592 1.78315 11.955C1.77969 11.9663 1.77347 11.9753 1.7707 11.9866H1.07477V10.8567H2.36355C2.35502 10.8668 2.34995 10.8793 2.34188 10.8896ZM4.75849 14.8235C3.66294 14.8235 2.77493 13.9355 2.77493 12.8402C2.77655 12.7983 2.7807 12.7567 2.78738 12.7155L2.79984 12.6198C2.91329 11.5381 3.88224 10.7534 4.96395 10.8668C5.88886 10.9639 6.61984 11.6949 6.71692 12.6198L6.72937 12.7155C6.73606 12.7567 6.74021 12.7983 6.74182 12.8402C6.74182 13.9355 5.85381 14.8235 4.75849 14.8235ZM9.00878 11.99H7.7449C7.7449 11.9787 7.73591 11.9697 7.73245 11.9584C7.67549 11.7624 7.59963 11.5727 7.50577 11.3916C7.49724 11.3764 7.48594 11.3633 7.47741 11.3481C7.39002 11.1866 7.28832 11.0335 7.17372 10.8901C7.16565 10.88 7.16058 10.8675 7.15204 10.8574H9.00855V11.99H9.00878ZM9.00878 9.7233H1.07477V7.48655L4.99762 7.45634H5.04627C5.31399 7.45426 5.54366 7.26541 5.59716 7.00299L6.41323 2.92288H9.00878V9.7233ZM23.1764 1.22272H25.2165C25.5529 1.22295 25.8718 1.37238 26.0869 1.63087L27.6335 3.48968H23.1764V1.22272ZM23.1764 4.62304H30.5434C30.8565 4.62304 31.1102 4.8767 31.1102 5.18961V7.45634H29.0989C29.0549 7.38209 29.0069 7.31014 28.9551 7.24119C28.9481 7.23266 28.9431 7.22229 28.9364 7.21375C28.8704 7.12843 28.7987 7.04773 28.7215 6.97255C28.6989 6.95042 28.674 6.93105 28.65 6.9096C28.5935 6.8591 28.5368 6.80976 28.4761 6.76502C28.4443 6.74173 28.4109 6.72075 28.3781 6.6993C28.3214 6.66195 28.2647 6.6262 28.2029 6.59392C28.1667 6.57478 28.1298 6.55587 28.0896 6.53719C28.0283 6.50837 27.9656 6.48047 27.9015 6.45972C27.8634 6.44611 27.8256 6.43181 27.788 6.42005C27.7184 6.39907 27.6464 6.38316 27.5745 6.3684C27.5399 6.36148 27.506 6.35249 27.4707 6.34742C27.2531 6.3126 27.031 6.3126 26.8133 6.34742C26.7783 6.35249 26.7448 6.36148 26.7102 6.3684C26.6376 6.38316 26.5657 6.39884 26.4956 6.42005C26.4568 6.43181 26.4195 6.44611 26.3821 6.45972C26.318 6.48277 26.2557 6.50837 26.1939 6.53673C26.1566 6.55426 26.1197 6.57294 26.0805 6.59346C26.0205 6.62574 25.9622 6.66148 25.905 6.69884C25.8727 6.72075 25.8391 6.74127 25.8079 6.76456C25.7471 6.80976 25.6887 6.85818 25.6329 6.9096C25.6096 6.93059 25.5847 6.94996 25.5621 6.97186C25.4849 7.04727 25.4132 7.12797 25.3472 7.21329C25.3398 7.22298 25.3343 7.23382 25.3269 7.24327C25.2757 7.31153 25.2282 7.38255 25.1846 7.45588H23.1762V4.62304H23.1764ZM18.6093 1.72772C18.8189 1.41319 19.1715 1.22364 19.5494 1.22272H22.0428V3.48945H17.4344L18.6093 1.72772ZM14.4201 7.45634H12.4089V5.62382C12.4089 5.33765 12.6217 5.09645 12.9053 5.06094L16.411 4.62304H22.043V7.45657H18.3316C18.2876 7.38209 18.2396 7.31014 18.1878 7.24119C18.1808 7.23266 18.1758 7.22252 18.1691 7.21398C18.1031 7.12843 18.0314 7.04773 17.9542 6.97255C17.9316 6.95042 17.9067 6.93105 17.8827 6.9096C17.8262 6.8591 17.7695 6.80999 17.7088 6.76502C17.677 6.74173 17.6436 6.72075 17.6108 6.6993C17.5541 6.66195 17.4974 6.6262 17.4356 6.59392C17.3994 6.57478 17.3625 6.5561 17.3223 6.53743C17.261 6.50837 17.1983 6.4807 17.1342 6.45972C17.0961 6.44611 17.0583 6.43204 17.0207 6.42005C16.9511 6.39907 16.8791 6.38316 16.8072 6.3684C16.7726 6.36171 16.7385 6.35249 16.7034 6.34742C16.4858 6.3126 16.2637 6.3126 16.046 6.34742C16.011 6.35249 15.9775 6.36171 15.9429 6.3684C15.8703 6.38316 15.7984 6.39907 15.728 6.42005C15.6895 6.43204 15.6522 6.44611 15.6148 6.45972C15.5507 6.48301 15.4884 6.50837 15.4266 6.53673C15.3893 6.55449 15.3524 6.57294 15.3132 6.59346C15.2532 6.62574 15.1949 6.66148 15.1377 6.69884C15.1052 6.72098 15.0718 6.74127 15.0406 6.76456C14.9797 6.80976 14.9214 6.85818 14.8656 6.9096C14.8423 6.93059 14.8174 6.94996 14.7948 6.97209C14.7176 7.04727 14.6459 7.12797 14.5799 7.21329C14.5725 7.22298 14.567 7.23382 14.5596 7.2435C14.5093 7.31176 14.4628 7.38301 14.4201 7.45634ZM15.2424 12.5568V13.1234H10.1421V10.8567H15.2424V12.5568ZM15.2424 8.58993C15.2424 7.96387 15.7499 7.45634 16.3758 7.45634C17.0018 7.45634 17.5094 7.96387 17.5094 8.58993C17.5094 9.21576 17.0018 9.7233 16.3758 9.7233C15.752 9.71799 15.2477 9.21369 15.2424 8.58993ZM23.3101 10.8896C23.196 11.0317 23.0945 11.1834 23.0069 11.343C22.9984 11.3587 22.9864 11.3723 22.9779 11.3882C22.8842 11.5694 22.8081 11.7592 22.7512 11.955C22.7477 11.9663 22.7415 11.9753 22.7387 11.9866H16.3758V10.8567H23.3316C23.3231 10.8668 23.318 10.8793 23.3101 10.8896ZM18.3275 9.7233C18.5316 9.38017 18.6404 8.98909 18.6427 8.58993H24.8763C24.8789 8.98886 24.9875 9.38017 25.1916 9.7233H18.3275ZM25.7265 14.8235C24.631 14.8235 23.743 13.9355 23.743 12.8402C23.7446 12.7983 23.7487 12.7567 23.7554 12.7155L23.7679 12.6198C23.8816 11.5381 24.8505 10.7534 25.9322 10.8668C26.8569 10.9639 27.5879 11.6949 27.685 12.6198L27.6974 12.7155C27.7041 12.7567 27.7085 12.7983 27.7099 12.8402C27.7101 13.9355 26.8218 14.8235 25.7265 14.8235ZM27.1433 9.7233C26.526 9.71453 26.033 9.207 26.0417 8.58993C26.0507 7.97264 26.558 7.47963 27.1753 7.48839C27.78 7.49715 28.2681 7.98509 28.2767 8.58993C28.2767 9.21576 27.7691 9.7233 27.1433 9.7233ZM32.8103 11.99H28.7132C28.7102 11.9787 28.7039 11.9697 28.7007 11.9584C28.6438 11.7624 28.5679 11.5727 28.4738 11.3916C28.4655 11.3764 28.454 11.3633 28.4457 11.3481C28.3581 11.1866 28.2566 11.0335 28.1418 10.8901C28.1339 10.88 28.1288 10.8675 28.1203 10.8574H32.2532L32.8103 11.6098V11.99Z" fill="#02AAF1"/>
</svg>
