<svg width="22" height="22" viewBox="0 0 22 22" fill="none" xmlns="http://www.w3.org/2000/svg">
<g clip-path="url(#clip0)">
<path d="M21.769 9.99438C21.5429 9.52761 21.166 9.15074 20.6993 8.92472L3.30963 0.509935C2.16407 -0.0450601 0.785564 0.433724 0.230568 1.57928C-0.0521738 2.16295 -0.075942 2.83877 0.165161 3.44085L3.18903 10.999L0.165161 18.558C-0.305836 19.7437 0.273603 21.0868 1.45936 21.5578C1.72747 21.6643 2.01318 21.7196 2.30168 21.7209C2.65073 21.7209 2.99528 21.6421 3.30963 21.4904L20.6993 13.0733C21.8449 12.5185 22.3238 11.14 21.769 9.99438ZM2.64047 20.1053C2.25856 20.2901 1.79909 20.1304 1.61421 19.7485C1.51999 19.5539 1.51216 19.3287 1.59256 19.128L4.53652 11.7673H19.8718L2.64047 20.1053ZM4.53657 10.2308L1.5926 2.87001C1.47007 2.5766 1.54615 2.23776 1.78234 2.02493C2.01097 1.80215 2.3562 1.74989 2.64047 1.89511L19.8718 10.2308H4.53657Z" fill="#1E1E1E" fill-opacity="0.7"/>
</g>
<defs>
<clipPath id="clip0">
<rect width="22" height="22" fill="white"/>
</clipPath>
</defs>
</svg>
