<svg xmlns="http://www.w3.org/2000/svg" width="645.875" height="556.052" viewBox="0 0 645.875 556.052">
  <g id="back" transform="translate(-540.239 -414.415)">
    <g id="logo" transform="translate(540.239 414.415)">
      <g id="Group_83" data-name="Group 83" transform="translate(0)">
        <path id="Path_1271" data-name="Path 1271" d="M1158.1,817.328H685.78v214.69h558.195V903.2H1115.16v85.876h-42.938V903.2H857.532v85.876H814.594V903.2H771.656v85.876H728.718V860.258h515.257V817.32H1158.1Zm0,128.806h42.938v42.938H1158.1Zm-257.62,0h128.814v42.938H900.478Z" transform="translate(-599.904 -561.299)" fill="#1ca6eb"/>
        <path id="Path_1272" data-name="Path 1272" d="M1201.038,602.29v85.876H728.728V645.228H1158.1V602.29H685.79V731.1h558.178V602.29Z" transform="translate(-599.906 -516.834)" fill="#1ca6eb"/>
        <path id="Path_1273" data-name="Path 1273" d="M1136.455,1008.039H621.2V537.533h515.257V494.76H599.522a21.223,21.223,0,0,0-21.261,21.18v513.693a21.222,21.222,0,0,0,21.261,21.179h601.548a21.222,21.222,0,0,0,21.261-21.179v-21.594h-85.876Z" transform="translate(-578.26 -494.76)" fill="#1ca6eb"/>
        <path id="Path_1274" data-name="Path 1274" d="M1376.1,538H1333.16V495.06h21.684a21.249,21.249,0,0,1,21.254,21.253Z" transform="translate(-730.223 -494.82)" fill="#1ca6eb"/>
      </g>
    </g>
  </g>
</svg>
