<svg xmlns="http://www.w3.org/2000/svg" width="33.655" height="35.007" viewBox="0 0 33.655 35.007">
  <path id="Path_13331" data-name="Path 13331" d="M4.208,5.47V1.094a1.053,1.053,0,1,1,2.1,0V5.47a1.053,1.053,0,1,1-2.1,0Zm17.88,1.094A1.073,1.073,0,0,0,23.139,5.47V1.094a1.053,1.053,0,1,0-2.1,0V5.47A1.073,1.073,0,0,0,22.088,6.564ZM33.656,26.255a8.588,8.588,0,0,1-8.414,8.752,8.588,8.588,0,0,1-8.414-8.752A8.588,8.588,0,0,1,25.243,17.5,8.588,8.588,0,0,1,33.656,26.255Zm-2.1,0a6.448,6.448,0,0,0-6.311-6.564,6.569,6.569,0,0,0,0,13.128A6.448,6.448,0,0,0,31.553,26.255ZM8.415,13.128H4.208V17.5H8.415ZM4.208,24.067H8.415V19.691H4.208Zm6.31-6.564h4.207V13.128H10.518Zm0,6.564h4.207V19.691H10.518ZM2.1,26.037V10.94H25.243v4.376h2.1V6.782a2.344,2.344,0,0,0-2.278-2.406h-.877V5.47a2.1,2.1,0,1,1-4.207,0V4.376H7.363V5.47a2.15,2.15,0,0,1-2.1,2.188,2.15,2.15,0,0,1-2.1-2.188V4.376H2.28A2.345,2.345,0,0,0,0,6.782V26.037A2.347,2.347,0,0,0,2.28,28.443H14.725V26.255H2.28A.2.2,0,0,1,2.1,26.037ZM21.036,17.5V13.128H16.829V17.5ZM28.4,26.255H25.243V22.973a1.052,1.052,0,1,0-2.1,0v4.376a1.073,1.073,0,0,0,1.051,1.094H28.4a1.1,1.1,0,0,0,0-2.188Z" transform="translate(-0.001)" fill="#1caaf1"/>
</svg>
