<svg width="21" height="20" viewBox="0 0 21 20" fill="none" xmlns="http://www.w3.org/2000/svg">
<path d="M19.541 5.16348H15.3955M5.72255 5.16348H1.57701M10.559 11.3403V16.1768M10.559 11.3403L14.7046 8.89447M10.559 11.3403L6.41347 8.89447M18.1592 1.01794H2.95886C2.19568 1.01794 1.57701 1.63662 1.57701 2.39979V17.6001C1.57701 18.3633 2.19568 18.982 2.95886 18.982H18.1592C18.9223 18.982 19.541 18.3633 19.541 17.6001V2.39979C19.541 1.63662 18.9223 1.01794 18.1592 1.01794ZM5.72255 11.3818C5.72255 14.0529 7.88791 16.2183 10.559 16.2183C13.2301 16.2183 15.3955 14.0529 15.3955 11.3818C15.3955 8.71069 13.2301 6.54533 10.559 6.54533C7.88791 6.54533 5.72255 8.71069 5.72255 11.3818Z" stroke="#8A8A8A" stroke-width="1.38185" stroke-linecap="round" stroke-linejoin="round"/>
</svg>
