<svg xmlns="http://www.w3.org/2000/svg" width="35" height="31.244" viewBox="0 0 35 31.244">
  <g id="Group_3338" data-name="Group 3338" transform="translate(-310 -557.378)">
    <path id="Path_13355" data-name="Path 13355" d="M6.168,0a2.651,2.651,0,0,0-2.5,1.838L0,12.865v14.7a1.879,1.879,0,0,0,.516,1.3,1.727,1.727,0,0,0,1.246.538H3.524a1.727,1.727,0,0,0,1.246-.538,1.879,1.879,0,0,0,.516-1.3V25.73h9.34a13.194,13.194,0,0,1,1.082-10.015,12.631,12.631,0,0,1,4.4-4.688H3.524l2.643-8.27H25.552l2.079,6.488a11.916,11.916,0,0,1,3.154.79l-2.731-8.2A2.651,2.651,0,0,0,25.552,0Zm18.5,12.865a.463.463,0,0,0-.458.386l-.335,2.426a8.7,8.7,0,0,0-1.5.864L20.2,15.622c-.194,0-.423,0-.546.239l-1.762,3.18a.468.468,0,0,0,.106.588l1.868,1.507a8.013,8.013,0,0,0,0,1.838l-1.868,1.507a.492.492,0,0,0-.106.588l1.762,3.18c.106.239.335.239.546.239l2.185-.919a7.167,7.167,0,0,0,1.5.864l.335,2.426a.449.449,0,0,0,.458.386H28.2a.455.455,0,0,0,.423-.386l.335-2.426a9.256,9.256,0,0,0,1.48-.864l2.168.919c.229,0,.458,0,.582-.239l1.762-3.18a.492.492,0,0,0-.106-.588l-1.886-1.507a8.064,8.064,0,0,0,.07-.919,5.382,5.382,0,0,0-.07-.919l1.868-1.507a.492.492,0,0,0,.106-.588l-1.762-3.18c-.106-.239-.335-.239-.564-.239l-2.168.919a7.647,7.647,0,0,0-1.5-.864L28.6,13.251a.424.424,0,0,0-.405-.386ZM6.168,14.7a2.589,2.589,0,0,1,1.869.807,2.841,2.841,0,0,1,0,3.9,2.567,2.567,0,0,1-3.738,0,2.841,2.841,0,0,1,0-3.9A2.589,2.589,0,0,1,6.168,14.7ZM26.433,19.3a2.759,2.759,0,1,1-2.643,2.757A2.7,2.7,0,0,1,26.433,19.3Z" transform="translate(310 557.378)" fill="#1caaf1"/>
  </g>
</svg>
