<svg width="123" height="123" viewBox="0 0 123 123" fill="none" xmlns="http://www.w3.org/2000/svg">
<g clip-path="url(#clip0_47_2110)">
<path d="M91.3422 5.37795C92.0342 6.79092 92.4378 8.36248 92.3801 9.93404C92.3081 11.8805 91.4863 13.8413 90.0014 15.1101C88.6031 16.2924 86.7578 16.8114 84.9413 17.0133C80.6885 17.4891 76.3925 17.2296 72.2117 18.2677C68.2617 19.2481 64.3692 20.0843 60.5057 21.5405L60.3615 21.5982C59.3091 22.0019 58.2711 22.4345 57.2332 22.8958C57.2332 22.8958 56.9448 23.0256 56.9304 23.0256C55.878 23.5014 54.8545 23.9916 53.8165 24.5251L53.5426 24.6692C52.5479 25.1739 51.5676 25.7218 50.5728 26.2841C50.4287 26.385 50.2701 26.4715 50.1403 26.558C49.2754 27.0626 48.4248 27.6105 47.5887 28.1584C47.5022 28.2161 47.358 28.3026 47.1706 28.4179C43.5233 30.8546 40.0345 33.6949 36.8052 36.9245C36.7764 36.9534 36.7476 36.9822 36.7188 37.0255C36.8485 36.7227 36.9494 36.4343 37.0936 36.1316L37.1512 35.9874C37.7279 34.7042 38.3478 33.4498 39.0254 32.1954C44.5756 21.901 52.9804 13.1493 63.1439 7.35322C68.0454 4.55613 73.3362 2.42226 78.7856 0.966044C81.4526 0.259562 84.3647 -0.273904 86.9019 0.821864C88.5454 1.52835 89.8573 2.86922 90.7944 4.38311C90.9962 4.70031 91.1836 5.03192 91.3422 5.37795Z" fill="#FFB515"/>
<path d="M86.181 86.1188C86.1234 86.263 86.0657 86.3927 86.008 86.5225C85.9071 86.7676 85.8206 86.9839 85.7485 87.1569C81.2074 97.7541 73.1198 106.996 63.5907 113.412C58.1413 117.074 52.1873 119.612 45.9595 121.645C43.3646 122.495 40.611 123.288 37.9296 122.798C32.7686 121.861 28.8329 115.589 31.053 110.601C32.2928 107.789 35.1328 106.001 38.1891 106.001C38.2324 106.001 38.2756 106.001 38.3189 106.001C46.4641 106.001 54.6093 104.545 62.3364 101.618C63.3312 101.229 64.3115 100.825 65.2918 100.393C65.2918 100.393 65.508 100.306 65.5513 100.292C66.0703 100.061 66.5892 99.8303 67.1371 99.5708L67.1947 99.5275C67.5407 99.3689 67.8867 99.2103 68.3048 98.9941L68.3913 98.9508C68.3913 98.9508 68.5643 98.8643 68.5787 98.8643L68.7229 98.8066C68.9535 98.6913 69.1698 98.5759 69.3716 98.475C69.3716 98.475 69.4725 98.4317 69.5302 98.3885L69.6023 98.3452C69.6023 98.3452 69.6888 98.302 69.7464 98.2732C69.9915 98.1434 70.2222 98.028 70.4384 97.8983C70.5537 97.855 70.6835 97.7685 70.8853 97.6676C70.8853 97.6676 70.9718 97.6243 71.0006 97.6099C71.3755 97.3937 71.7647 97.1774 72.1539 96.9467C72.1539 96.9467 72.3269 96.8458 72.3414 96.8314C72.3846 96.8025 72.572 96.7016 72.7594 96.5862C73.0622 96.4276 73.3505 96.2546 73.6244 96.0816C73.6244 96.0816 73.8262 95.9663 73.8551 95.9374C73.956 95.8798 74.1434 95.7644 74.3596 95.6202C74.7921 95.3463 75.2246 95.0579 75.6715 94.7696C75.6715 94.7696 75.7148 94.7263 75.8013 94.6975C76.2049 94.4235 76.623 94.1352 77.1276 93.7747C77.488 93.5296 77.834 93.2701 78.2088 92.9962C78.7999 92.5636 79.3765 92.1311 79.9532 91.6697C79.9532 91.6697 80.0685 91.5832 80.0973 91.5399C80.4001 91.3093 80.7028 91.0497 81.0632 90.7758C81.0632 90.7758 81.193 90.6749 81.2506 90.6172C81.6543 90.3 82.0291 89.9828 82.3751 89.6656C83.6582 88.5698 84.898 87.4164 86.1089 86.2053L86.1954 86.1188H86.181Z" fill="#005AE4"/>
<path d="M36.8619 86.2918C36.6168 86.1909 36.3573 86.09 36.0834 85.9746L35.8528 85.8737C25.7181 81.332 17.0539 74.1519 10.653 65.2127C8.13019 61.6947 5.98216 57.9028 4.2522 53.9378C2.53666 50.0305 0.8067 45.6042 0.201215 41.3653C-0.0582785 39.5631 0.0426357 37.6743 0.792284 36.0307C1.46985 34.5168 2.6664 33.2912 4.05037 32.3685C5.53525 31.3736 7.26521 30.7248 9.03842 30.6527C11.6189 30.5374 14.2715 31.7629 15.6699 33.9256C16.7367 35.5837 17.0251 37.6022 17.0827 39.5775C17.1692 42.4755 17.299 45.2438 17.7026 48.1274C18.409 53.0439 19.6488 57.8739 21.4076 62.5165C23.1664 67.1447 25.4586 71.6431 28.2986 75.8964C30.735 79.5586 33.575 83.0189 36.7898 86.263C36.8187 86.2918 36.8331 86.3062 36.8619 86.3206V86.2918Z" fill="#005AE4"/>
<path d="M42.8014 0.562352C43.3925 0.778622 44.0124 1.06698 44.6467 1.42743C46.8668 2.69622 48.6112 4.98868 48.7698 7.55508C49.1446 13.452 42.8591 17.2728 39.774 21.454C36.9052 25.3325 34.4688 29.4993 32.4938 33.8968C30.4467 38.4385 28.9041 43.2252 27.895 48.2427C27.0444 52.5104 26.5831 56.9368 26.5831 61.4784V61.7091C26.4389 61.3631 26.2803 61.0171 26.165 60.6854C23.4547 53.5485 22.0996 46.0223 22.0996 38.4817C22.0996 33.1038 22.7916 27.7259 24.1611 22.4921C25.3 18.21 26.8714 14.0432 28.9041 10.1071C31.7874 4.48405 36.0114 -1.93196 42.8014 0.57677V0.562352Z" fill="#00C895"/>
<path d="M122.928 40.702C122.87 41.4662 122.712 42.2736 122.438 43.0954C121.183 46.8585 116.959 49.5402 113.096 48.6319C108.829 47.6371 105.643 43.0089 102.269 40.4425C98.2039 37.357 93.7925 34.7185 89.1216 32.6279C86.9735 31.6619 84.7678 30.7968 82.4901 30.0615C82.1441 29.9318 81.7981 29.8308 81.4377 29.7299C81.0773 29.629 80.7169 29.4992 80.2844 29.3983L80.1835 29.3695C79.6068 29.1964 79.0446 29.0523 78.4823 28.8937C77.9201 28.7495 77.3146 28.5909 76.6803 28.4611L76.6226 28.4323C76.0316 28.2881 75.4117 28.1728 74.8062 28.0286C74.8062 28.0286 74.7341 28.0286 74.662 27.9997C74.4025 27.9565 74.0709 27.8844 73.6961 27.8123C73.6961 27.8123 73.5087 27.7691 73.4943 27.7691C73.4943 27.7691 73.4366 27.7691 73.3934 27.7691C73.3934 27.7691 73.3357 27.7691 73.2636 27.7402C73.1339 27.7402 73.033 27.697 72.9465 27.697C72.4996 27.6105 72.0238 27.5384 71.5193 27.4663H71.4328C71.0147 27.3798 70.5678 27.3221 70.1497 27.2644C69.8614 27.2212 69.6307 27.2068 69.4721 27.1923C69.0685 27.1347 68.6648 27.0914 68.2323 27.0482C68.2323 27.0482 68.0449 27.0482 68.0305 27.0482C67.5548 27.0049 67.0646 26.9472 66.5024 26.904C64.8301 26.7742 63.1434 26.7165 61.4278 26.7165H61.3125C61.6441 26.5724 61.9757 26.4282 62.3072 26.2984C69.4433 23.5878 76.9975 22.2325 84.5372 22.2325C89.9001 22.2325 95.2773 22.9246 100.51 24.2943C107.82 26.2119 123.649 30.9843 122.913 40.702H122.928Z" fill="#00C895"/>
<path d="M100.771 84.6914C100.771 90.0549 100.079 95.4328 98.7091 100.652C97.5558 105.006 95.9412 109.26 93.8508 113.268C92.1353 116.541 90.3044 120.78 86.7147 122.366C84.7685 123.216 82.5196 123.144 80.4725 122.568C78.9011 122.121 77.4018 121.385 76.2629 120.217C74.7636 118.689 73.9996 116.483 74.1726 114.349C74.533 109.707 79.5787 106.261 82.2601 102.8C85.4894 98.6192 88.2285 94.0631 90.3909 89.2331C90.8666 88.195 91.2991 87.1425 91.7316 86.0467C91.9479 85.5132 92.1353 84.9942 92.3227 84.4319L92.3659 84.3598C92.4957 83.9849 92.611 83.6389 92.7696 83.2064L92.8128 83.0766C92.9282 82.745 93.0291 82.4278 93.1156 82.1394C93.1156 82.1394 93.1733 81.952 93.1877 81.9087C93.3318 81.4618 93.4904 80.986 93.6346 80.4093C93.8076 79.8614 93.9517 79.3279 94.0815 78.7944C94.1103 78.7224 94.1536 78.5493 94.2112 78.3187C94.2977 77.987 94.3842 77.641 94.4563 77.3238C94.4563 77.3238 94.4996 77.1075 94.514 77.0931C94.5428 76.9778 94.5861 76.7759 94.6437 76.5164C94.7591 76.0118 94.8744 75.5071 94.9753 75.0025C94.9753 75.0025 94.9753 74.9448 95.0041 74.8583C95.0906 74.3681 95.206 73.8491 95.2925 73.2868C95.379 72.8398 95.4366 72.3929 95.5087 71.9603C95.6384 71.225 95.7249 70.5185 95.8114 69.7976C95.8114 69.7976 95.8403 69.6534 95.8403 69.5958C95.8835 69.2065 95.9268 68.8316 95.9844 68.3991C95.9844 68.3991 95.9844 68.2116 96.0133 68.1684C96.0565 67.6637 96.0998 67.1447 96.143 66.6689C96.2728 64.982 96.3304 63.2951 96.3304 61.5793V61.4496C96.4746 61.7956 96.6188 62.1417 96.7485 62.4877C99.4588 69.6246 100.814 77.1652 100.814 84.7058L100.771 84.6914Z" fill="#FFB515"/>
<path d="M61.5574 96.4277C61.2258 96.5718 60.8654 96.716 60.5339 96.8458C53.3978 99.5564 45.8581 100.912 38.3183 100.912C32.9555 100.912 27.5782 100.22 22.345 98.8499C17.8472 97.6676 13.479 95.9663 9.37036 93.8036C6.08344 92.0734 1.59997 90.0549 0.345746 86.2341C-0.173242 84.6626 -0.057911 82.9468 0.288081 81.3176C0.634072 79.7028 1.21072 78.088 2.29195 76.8336C3.93541 74.9016 6.64568 74.0077 9.16853 74.3825C13.6664 75.0602 16.9678 79.8902 20.4133 82.5287C24.5363 85.6863 29.0198 88.3536 33.7628 90.5019C38.3039 92.5636 43.0901 94.1064 48.107 95.1012C52.4175 95.9807 56.8721 96.4277 61.4565 96.4277C61.4998 96.4277 61.5286 96.4277 61.5718 96.4277H61.5574Z" fill="#00C895"/>
<path d="M117.824 91.6552C116.411 92.3473 114.839 92.751 113.268 92.6933C111.322 92.6212 109.361 91.7994 108.092 90.3143C106.91 88.9158 106.391 87.0703 106.19 85.2536C105.714 81.0003 105.973 76.7037 104.935 72.5225C103.955 68.572 103.119 64.6791 101.663 60.8151L101.605 60.6709C101.201 59.6184 100.769 58.5803 100.308 57.5422C100.308 57.5422 100.178 57.2539 100.178 57.2394C99.7022 56.1869 99.212 55.1632 98.6786 54.1251L98.5345 53.8512C98.0299 52.8564 97.4821 51.8759 96.9198 50.8811C96.8189 50.7369 96.7324 50.5783 96.6459 50.4486C96.1414 49.5835 95.5935 48.7328 95.0457 47.8966C94.9881 47.8101 94.9016 47.6659 94.7862 47.4784C92.3499 43.8307 89.5099 40.3415 86.2806 37.1119C86.2518 37.0831 86.2229 37.0542 86.1797 37.0254C86.4824 37.1552 86.7708 37.2561 87.0735 37.4003L87.2177 37.4579C88.5007 38.0346 89.7549 38.6546 91.0092 39.3323C101.302 44.8832 110.053 53.2889 115.848 63.4536C118.645 68.3557 120.779 73.6471 122.235 79.0971C122.941 81.7645 123.475 84.6769 122.379 87.2145C121.673 88.8581 120.332 90.1702 118.818 91.1073C118.501 91.3092 118.169 91.4966 117.824 91.6552Z" fill="#005AE4"/>
<path d="M61.8603 39.2169C58.1841 55.3795 55.3873 58.0757 39.1113 61.1611C55.272 64.8377 57.9679 67.6348 61.053 83.9127C64.7291 67.7502 67.5259 65.054 83.8019 61.983C67.6412 58.3064 64.9454 55.5093 61.8747 39.2313L61.8603 39.2169Z" fill="#FFB515"/>
</g>
<defs>
<clipPath id="clip0_47_2110">
<rect width="123" height="123" fill="white"/>
</clipPath>
</defs>
</svg>
