<svg width="31" height="31" viewBox="0 0 31 31" fill="none" xmlns="http://www.w3.org/2000/svg">
<g clip-path="url(#clip0_47_2793)">
<path d="M7.97922 1.35539C7.80481 1.7115 7.70308 2.10759 7.71761 2.50367C7.73578 2.99424 7.94288 3.48843 8.31712 3.80821C8.66956 4.10618 9.13463 4.237 9.59244 4.28787C10.6643 4.40779 11.747 4.34238 12.8007 4.60401C13.7963 4.85111 14.7773 5.06187 15.751 5.42888L15.7874 5.44342C16.0526 5.54517 16.3142 5.65418 16.5758 5.77046C16.5758 5.77046 16.6485 5.80317 16.6521 5.80317C16.9173 5.92308 17.1753 6.04663 17.4369 6.18108L17.5059 6.21742C17.7566 6.3446 18.0037 6.48269 18.2544 6.62441C18.2907 6.64984 18.3307 6.67165 18.3634 6.69345C18.5814 6.82063 18.7958 6.95872 19.0065 7.0968C19.0283 7.11134 19.0647 7.13314 19.1119 7.16221C20.0311 7.77632 20.9104 8.49218 21.7243 9.30616C21.7316 9.31342 21.7388 9.32069 21.7461 9.33159C21.7134 9.25528 21.688 9.18261 21.6516 9.1063L21.6371 9.06996C21.4918 8.74655 21.3355 8.43041 21.1648 8.11427C19.7659 5.51973 17.6476 3.31401 15.0861 1.85322C13.8508 1.14826 12.5173 0.610458 11.1439 0.243444C10.4717 0.0653872 9.73777 -0.0690636 9.0983 0.207106C8.68409 0.385162 8.35345 0.723106 8.11728 1.10466C8.06642 1.1846 8.01918 1.26818 7.97922 1.35539Z" fill="white"/>
<path d="M9.28037 21.7047C9.29491 21.741 9.30944 21.7738 9.32397 21.8065C9.34941 21.8682 9.37121 21.9227 9.38938 21.9663C10.5339 24.6372 12.5722 26.9665 14.9739 28.5835C16.3473 29.5065 17.8479 30.146 19.4175 30.6584C20.0715 30.8728 20.7655 31.0727 21.4413 30.9491C22.742 30.7129 23.734 29.1322 23.1744 27.8749C22.8619 27.1663 22.1462 26.7157 21.3759 26.7157C21.365 26.7157 21.3541 26.7157 21.3432 26.7157C19.2903 26.7157 17.2375 26.3487 15.29 25.6111C15.0393 25.5129 14.7922 25.4112 14.5451 25.3022C14.5451 25.3022 14.4906 25.2804 14.4797 25.2767C14.3489 25.2186 14.2181 25.1605 14.0801 25.0951L14.0655 25.0842C13.9783 25.0442 13.8911 25.0042 13.7858 24.9497L13.764 24.9388C13.764 24.9388 13.7204 24.917 13.7167 24.917L13.6804 24.9025C13.6223 24.8734 13.5678 24.8443 13.5169 24.8189C13.5169 24.8189 13.4915 24.808 13.4769 24.7971L13.4588 24.7862C13.4588 24.7862 13.437 24.7753 13.4224 24.768C13.3607 24.7353 13.3025 24.7062 13.248 24.6735C13.219 24.6626 13.1863 24.6408 13.1354 24.6154C13.1354 24.6154 13.1136 24.6045 13.1063 24.6009C13.0119 24.5463 12.9138 24.4918 12.8157 24.4337C12.8157 24.4337 12.7721 24.4083 12.7684 24.4046C12.7575 24.3974 12.7103 24.3719 12.6631 24.3429C12.5868 24.3029 12.5141 24.2593 12.445 24.2157C12.445 24.2157 12.3942 24.1866 12.3869 24.1793C12.3615 24.1648 12.3142 24.1357 12.2597 24.0994C12.1507 24.0303 12.0417 23.9577 11.9291 23.885C11.9291 23.885 11.9182 23.8741 11.8964 23.8668C11.7947 23.7978 11.6893 23.7251 11.5621 23.6343C11.4713 23.5725 11.3841 23.5071 11.2896 23.438C11.1407 23.329 10.9953 23.22 10.85 23.1037C10.85 23.1037 10.8209 23.0819 10.8137 23.071C10.7374 23.0129 10.6611 22.9475 10.5702 22.8784C10.5702 22.8784 10.5375 22.853 10.523 22.8385C10.4213 22.7585 10.3268 22.6786 10.2396 22.5986C9.91622 22.3225 9.60375 22.0318 9.29854 21.7265L9.27674 21.7047H9.28037Z" fill="white"/>
<path d="M21.7102 21.7483C21.772 21.7229 21.8374 21.6974 21.9064 21.6684L21.9646 21.6429C24.5188 20.4983 26.7025 18.6886 28.3157 16.4357C28.9516 15.549 29.4929 14.5933 29.9289 13.5941C30.3613 12.6093 30.7973 11.4937 30.9499 10.4254C31.0153 9.97115 30.9899 9.49512 30.801 9.08086C30.6302 8.69932 30.3286 8.39044 29.9798 8.15788C29.6056 7.90715 29.1696 7.74362 28.7227 7.72546C28.0723 7.69639 27.4037 8.00526 27.0513 8.55033C26.7824 8.96822 26.7098 9.47695 26.6952 9.97478C26.6734 10.7052 26.6407 11.4029 26.539 12.1296C26.361 13.3688 26.0485 14.5861 25.6052 15.7562C25.1619 16.9226 24.5842 18.0564 23.8685 19.1283C23.2544 20.0513 22.5386 20.9234 21.7284 21.741C21.7211 21.7483 21.7175 21.7519 21.7102 21.7556V21.7483Z" fill="white"/>
<path d="M20.2122 0.141726C20.0632 0.196234 19.9069 0.26891 19.7471 0.359755C19.1875 0.67953 18.7479 1.2573 18.7079 1.90412C18.6135 3.39035 20.1976 4.35331 20.9752 5.40711C21.6982 6.38461 22.3122 7.43478 22.81 8.54309C23.326 9.68774 23.7147 10.8942 23.9691 12.1587C24.1834 13.2343 24.2997 14.3499 24.2997 15.4946V15.5527C24.336 15.4655 24.376 15.3783 24.4051 15.2947C25.0881 13.496 25.4297 11.5991 25.4297 9.69864C25.4297 8.34323 25.2553 6.98782 24.9101 5.66875C24.6231 4.58951 24.227 3.53934 23.7147 2.54731C22.9881 1.13012 21.9235 -0.486922 20.2122 0.14536V0.141726Z" fill="white"/>
<path d="M0.0178089 10.2582C0.032342 10.4508 0.0723076 10.6543 0.141342 10.8614C0.457446 11.8099 1.52203 12.4858 2.49577 12.2568C3.57125 12.0061 4.37423 10.8396 5.22444 10.1928C6.24905 9.41519 7.36087 8.75021 8.53808 8.22331C9.07946 7.97984 9.63536 7.76181 10.2094 7.57649C10.2966 7.54379 10.3838 7.51835 10.4747 7.49291C10.5655 7.46748 10.6563 7.43477 10.7653 7.40933L10.7908 7.40207C10.9361 7.35846 11.0778 7.32212 11.2195 7.28215C11.3612 7.24581 11.5138 7.20584 11.6737 7.17314L11.6882 7.16587C11.8372 7.12953 11.9934 7.10046 12.146 7.06412C12.146 7.06412 12.1642 7.06412 12.1824 7.05685C12.2478 7.04595 12.3313 7.02778 12.4258 7.00962C12.4258 7.00962 12.473 6.99871 12.4767 6.99871C12.4767 6.99871 12.4912 6.99871 12.5021 6.99871C12.5021 6.99871 12.5166 6.99871 12.5348 6.99145C12.5675 6.99145 12.5929 6.98054 12.6147 6.98054C12.7274 6.95874 12.8473 6.94057 12.9744 6.9224H12.9962C13.1016 6.9006 13.2142 6.88607 13.3196 6.87153C13.3923 6.86063 13.4504 6.857 13.4904 6.85336C13.5921 6.83883 13.6938 6.82793 13.8029 6.81702C13.8029 6.81702 13.8501 6.81702 13.8537 6.81702C13.9736 6.80612 14.0972 6.79159 14.2389 6.78069C14.6603 6.74798 15.0854 6.73345 15.5178 6.73345H15.5469C15.4633 6.69711 15.3797 6.66077 15.2962 6.62807C13.4976 5.94491 11.5938 5.60333 9.6935 5.60333C8.34188 5.60333 6.98663 5.77776 5.66771 6.12297C3.82559 6.60626 -0.163862 7.80905 0.0214405 10.2582H0.0178089Z" fill="white"/>
<path d="M5.60284 21.345C5.60284 22.6968 5.77724 24.0522 6.12241 25.3676C6.41308 26.465 6.82002 27.537 7.34686 28.5472C7.77923 29.3721 8.24067 30.4404 9.14538 30.8401C9.63589 31.0545 10.2027 31.0364 10.7186 30.891C11.1147 30.7784 11.4925 30.593 11.7796 30.2987C12.1575 29.9135 12.35 29.3575 12.3064 28.8197C12.2156 27.6497 10.9439 26.7812 10.2681 25.9091C9.45422 24.8553 8.76388 23.707 8.21887 22.4896C8.09897 22.228 7.98997 21.9627 7.88097 21.6866C7.82646 21.5521 7.77923 21.4213 7.732 21.2796L7.7211 21.2614C7.6884 21.1669 7.65933 21.0797 7.61936 20.9707L7.60846 20.938C7.5794 20.8544 7.55396 20.7745 7.53216 20.7018C7.53216 20.7018 7.51763 20.6546 7.51399 20.6437C7.47766 20.531 7.43769 20.4111 7.40136 20.2658C7.35776 20.1277 7.32142 19.9932 7.28872 19.8588C7.28146 19.8406 7.27056 19.797 7.25602 19.7389C7.23422 19.6553 7.21242 19.5681 7.19426 19.4881C7.19426 19.4881 7.18336 19.4336 7.17972 19.43C7.17246 19.4009 7.16156 19.35 7.14702 19.2846C7.11796 19.1574 7.08889 19.0303 7.06346 18.9031C7.06346 18.9031 7.06345 18.8885 7.05619 18.8667C7.03439 18.7432 7.00532 18.6124 6.98352 18.4707C6.96172 18.358 6.94719 18.2454 6.92902 18.1363C6.89632 17.951 6.87452 17.773 6.85272 17.5913C6.85272 17.5913 6.84545 17.5549 6.84545 17.5404C6.83455 17.4423 6.82365 17.3478 6.80912 17.2388C6.80912 17.2388 6.80912 17.1916 6.80185 17.1807C6.79095 17.0535 6.78005 16.9227 6.76915 16.8027C6.73645 16.3776 6.72192 15.9524 6.72192 15.52V15.4873C6.68558 15.5745 6.64925 15.6617 6.61655 15.7489C5.93347 17.5477 5.59194 19.4482 5.59194 21.3486L5.60284 21.345Z" fill="white"/>
<path d="M15.4855 24.3029C15.5691 24.3393 15.6599 24.3756 15.7435 24.4083C17.542 25.0915 19.4423 25.433 21.3425 25.433C22.6941 25.433 24.0494 25.2586 25.3683 24.9134C26.5019 24.6154 27.6028 24.1866 28.6383 23.6416C29.4668 23.2055 30.5967 22.6968 30.9128 21.7338C31.0436 21.3377 31.0146 20.9053 30.9274 20.4947C30.8402 20.0877 30.6948 19.6807 30.4223 19.3646C30.0081 18.8777 29.3251 18.6524 28.6892 18.7468C27.5556 18.9176 26.7236 20.1349 25.8552 20.7999C24.816 21.5957 23.6861 22.268 22.4907 22.8094C21.3462 23.3291 20.1399 23.7179 18.8755 23.9686C17.7891 24.1903 16.6664 24.3029 15.5109 24.3029C15.5 24.3029 15.4928 24.3029 15.4819 24.3029H15.4855Z" fill="white"/>
<path d="M1.30403 23.1001C1.6601 23.2745 2.05614 23.3763 2.45218 23.3617C2.94268 23.3436 3.43682 23.1364 3.75656 22.7622C4.05449 22.4097 4.1853 21.9445 4.23616 21.4867C4.35606 20.4147 4.29067 19.3318 4.55227 18.278C4.79934 17.2824 5.01008 16.3012 5.37705 15.3274L5.39158 15.291C5.49331 15.0258 5.60231 14.7641 5.71858 14.5025C5.71858 14.5025 5.75129 14.4298 5.75129 14.4262C5.87119 14.1609 5.99472 13.9029 6.12916 13.6413L6.16549 13.5723C6.29266 13.3215 6.43073 13.0744 6.57243 12.8237C6.59786 12.7874 6.61966 12.7474 6.64146 12.7147C6.76863 12.4966 6.9067 12.2823 7.04477 12.0715C7.0593 12.0497 7.0811 12.0134 7.11017 11.9661C7.72421 11.0468 8.43999 10.1674 9.25386 9.35341C9.26113 9.34614 9.2684 9.33887 9.2793 9.3316C9.203 9.36431 9.13033 9.38974 9.05403 9.42608L9.01769 9.44062C8.69432 9.58597 8.37822 9.74222 8.06211 9.91301C5.46788 11.312 3.26242 13.4305 1.8018 15.9924C1.09692 17.2279 0.559183 18.5615 0.192212 19.9351C0.0141764 20.6073 -0.120258 21.3413 0.155879 21.9809C0.333915 22.3951 0.67182 22.7258 1.05332 22.962C1.13326 23.0129 1.21682 23.0601 1.30403 23.1001Z" fill="white"/>
<path d="M15.4091 9.88397C16.3356 13.9575 17.0405 14.637 21.1426 15.4146C17.0696 16.3412 16.3901 17.0462 15.6126 21.1488C14.6861 17.0753 13.9812 16.3958 9.8791 15.6218C13.9521 14.6951 14.6316 13.9902 15.4055 9.88761L15.4091 9.88397Z" fill="#FFCD48"/>
</g>
<defs>
<clipPath id="clip0_47_2793">
<rect width="31" height="31" fill="white" transform="matrix(-1 0 0 1 31 0)"/>
</clipPath>
</defs>
</svg>
