<svg width="192" height="149" viewBox="0 0 192 149" fill="none" xmlns="http://www.w3.org/2000/svg">
<g filter="url(#filter0_f_47_3628)">
<ellipse cx="94.4988" cy="114.08" rx="67.5438" ry="13.0301" fill="#1F88F8" fill-opacity="0.35"/>
</g>
<path d="M95.2412 140.088C133.925 140.088 165.285 108.728 165.285 70.0439C165.285 31.3597 133.925 0 95.2412 0C56.557 0 25.1973 31.3597 25.1973 70.0439C25.1973 108.728 56.557 140.088 95.2412 140.088Z" fill="url(#paint0_linear_47_3628)"/>
<g filter="url(#filter1_d_47_3628)">
<path d="M153.915 47.4023L93.8919 89.2907L33.8691 47.4023L88.8153 9.04116C90.3054 8.0026 92.0781 7.4458 93.8944 7.4458C95.7107 7.4458 97.4834 8.0026 98.9735 9.04116L109.934 16.7034L112.803 18.6962L141.699 38.8732L144.743 41.0105L153.915 47.4023Z" fill="url(#paint1_linear_47_3628)"/>
</g>
<path d="M84.1322 82.4804L33.8691 118.221V47.4023L84.1322 82.4804Z" fill="#075AFD"/>
<g filter="url(#filter2_f_47_3628)">
<ellipse cx="123.218" cy="46.0042" rx="22.3373" ry="7.17985" fill="#FF4C77" fill-opacity="0.3"/>
</g>
<path d="M103.656 82.4804L153.919 118.221V47.4023L103.656 82.4804Z" fill="#075AFD"/>
<path d="M33.8691 118.221L88.7505 79.2023C90.2525 78.1327 92.0505 77.558 93.8944 77.558C95.7383 77.558 97.5363 78.1327 99.0383 79.2023L153.915 118.221H33.8691Z" fill="url(#paint2_linear_47_3628)"/>
<path d="M124.133 40.8418C125.785 40.8418 126.939 39.7141 126.939 38.1406C126.939 36.5671 125.785 35.4394 124.133 35.4394C122.507 35.4394 121.327 36.5671 121.327 38.1406C121.327 39.7141 122.507 40.8418 124.133 40.8418ZM126.388 34.4691C126.388 32.6333 127.28 31.9252 128.644 31.2172C130.479 30.2731 131.843 28.7258 131.843 26.5229C131.843 23.2447 128.722 20.9369 124.552 20.9369C120.147 20.9369 117 23.5332 116.685 27.1785L121.746 28.0964C121.93 26.418 122.926 25.1854 124.343 25.1854C125.47 25.1854 126.336 25.9721 126.336 27.0474C126.336 28.1226 125.365 28.7258 124.526 29.2765C122.69 30.4829 121.904 31.8466 121.904 34.4691H126.388Z" fill="white"/>
<g filter="url(#filter3_d_47_3628)">
<path d="M40.2112 34.5697C31.0094 38.8741 21.1212 41.5238 11 42.3974C12.3676 45.5764 22.0847 61.4896 50.93 74.6017C51.7098 74.7217 69.7224 66.3422 79.6074 60.5959C79.2715 61.0758 48.9026 49.9011 40.2112 34.5697Z" fill="url(#paint3_linear_47_3628)"/>
</g>
<path d="M123.908 51.9857C134.969 51.9857 143.936 43.0191 143.936 31.9582C143.936 20.8973 134.969 11.9307 123.908 11.9307C112.847 11.9307 103.881 20.8973 103.881 31.9582C103.881 43.0191 112.847 51.9857 123.908 51.9857Z" fill="#00E592"/>
<path d="M123.567 43.6207C125.673 43.6207 127.144 42.1831 127.144 40.1772C127.144 38.1712 125.673 36.7336 123.567 36.7336C121.494 36.7336 119.99 38.1712 119.99 40.1772C119.99 42.1831 121.494 43.6207 123.567 43.6207ZM126.442 35.4966C126.442 33.1563 127.579 32.2536 129.317 31.351C131.658 30.1474 133.396 28.1749 133.396 25.3665C133.396 21.1875 129.418 18.2454 124.102 18.2454C118.485 18.2454 114.473 21.5552 114.072 26.2024L120.525 27.3725C120.759 25.2328 122.029 23.6615 123.834 23.6615C125.272 23.6615 126.375 24.6645 126.375 26.0352C126.375 27.4059 125.138 28.1749 124.068 28.877C121.728 30.4149 120.725 32.1533 120.725 35.4966H126.442Z" fill="white"/>
<path d="M40.9226 42.4816C40.4992 42.1878 39.9628 42.1085 39.4725 42.2671L23.3729 47.4758C22.7962 47.6624 22.5907 48.3728 22.9787 48.8384C23.2912 49.2134 23.8027 49.3567 24.2645 49.1985L40.7748 43.5434C41.2407 43.3839 41.3272 42.7623 40.9226 42.4816Z" fill="#C9DFFF"/>
<path d="M40.6451 48.8967C40.2367 48.5133 39.6506 48.3855 39.1197 48.5642L27.9742 52.3152C27.4828 52.4806 27.3092 53.087 27.6388 53.4873C27.9081 53.8144 28.3517 53.9405 28.7528 53.804L40.4449 49.8229C40.8396 49.6885 40.9491 49.1822 40.6451 48.8967Z" fill="#C9DFFF"/>
<path d="M46.6265 52.0733C46.2004 51.7321 45.6272 51.6377 45.1142 51.8241L32.2759 56.4902C31.7721 56.6733 31.6204 57.3125 31.9883 57.7025C32.2698 58.0008 32.702 58.1026 33.0871 57.9613L46.4668 53.0514C46.8828 52.8988 46.9723 52.3503 46.6265 52.0733Z" fill="#C9DFFF"/>
<path d="M51.1146 61.7042C50.7199 61.268 50.0979 61.1188 49.5483 61.3285L42.2112 64.1284C41.7607 64.3003 41.5983 64.8545 41.8847 65.2424C42.1531 65.606 42.6316 65.7449 43.053 65.5817L50.9173 62.5359C51.2564 62.4045 51.3586 61.9739 51.1146 61.7042Z" fill="#C9DFFF"/>
<g filter="url(#filter4_d_47_3628)">
<path d="M146.579 56.7617C157.737 61.9811 169.727 65.194 181.999 66.2532C180.341 70.108 168.558 89.4037 133.582 105.303C132.636 105.448 110.795 95.2877 98.8086 88.32C99.2159 88.9019 136.04 75.352 146.579 56.7617Z" fill="url(#paint4_linear_47_3628)"/>
</g>
<path d="M145.715 66.3555C146.229 65.9993 146.879 65.9031 147.473 66.0955L166.995 72.4113C167.694 72.6376 167.944 73.4989 167.473 74.0636C167.094 74.5183 166.474 74.6919 165.914 74.5002L145.894 67.6431C145.329 67.4496 145.224 66.6959 145.715 66.3555Z" fill="#C9DFFF"/>
<path d="M140.25 71.5545C140.745 71.0896 141.456 70.9346 142.099 71.1513L155.614 75.6996C156.21 75.9001 156.42 76.6354 156.021 77.1208C155.694 77.5174 155.156 77.6704 154.67 77.5048L140.492 72.6776C140.014 72.5146 139.881 71.9006 140.25 71.5545Z" fill="#C9DFFF"/>
<path d="M134.633 75.8702C135.149 75.4565 135.844 75.3419 136.467 75.568L152.034 81.2259C152.645 81.448 152.829 82.223 152.382 82.6959C152.041 83.0576 151.517 83.1811 151.05 83.0098L134.826 77.0562C134.322 76.8712 134.213 76.2061 134.633 75.8702Z" fill="#C9DFFF"/>
<path d="M121.994 84.5049C122.472 83.9759 123.226 83.795 123.893 84.0493L132.789 87.4443C133.336 87.6528 133.533 88.3248 133.185 88.7952C132.86 89.236 132.28 89.4045 131.769 89.2066L122.233 85.5133C121.822 85.354 121.698 84.8319 121.994 84.5049Z" fill="#C9DFFF"/>
<path d="M127.801 79.8937C128.328 79.5634 128.978 79.495 129.562 79.7085L150.06 87.2035C150.716 87.443 150.874 88.2972 150.349 88.7561C150.001 89.0597 149.516 89.1493 149.083 88.9898L127.937 81.2002C127.367 80.9901 127.286 80.2166 127.801 79.8937Z" fill="#C9DFFF"/>
<path d="M55.5548 54.1784C55.1205 53.906 54.5847 53.8496 54.1032 54.0257L37.1977 60.2068C36.6574 60.4044 36.5265 61.1088 36.9598 61.4873C37.2464 61.7376 37.6468 61.8115 38.0038 61.68L55.4428 55.2559C55.9131 55.0826 55.9794 54.4448 55.5548 54.1784Z" fill="#C9DFFF"/>
<path d="M152.759 16.487C152.759 17.8216 151.677 18.9035 150.342 18.9035C149.007 18.9035 147.926 17.8216 147.926 16.487C147.926 15.1524 149.007 14.0705 150.342 14.0705C151.677 14.0705 152.759 15.1524 152.759 16.487Z" stroke="url(#paint5_linear_47_3628)" stroke-width="2.61276"/>
<circle cx="46.633" cy="124.983" r="2.4165" stroke="url(#paint6_linear_47_3628)" stroke-width="2.61276"/>
<circle cx="136.514" cy="130.833" r="2.4165" stroke="url(#paint7_linear_47_3628)" stroke-width="2.61276"/>
<path d="M55.7694 22.7769C56.2843 20.6439 59.3182 20.6439 59.8331 22.7769L59.9836 23.4002C60.1676 24.1625 60.7627 24.7576 61.525 24.9416L62.1483 25.0921C64.2813 25.607 64.2813 28.6409 62.1483 29.1558L61.525 29.3062C60.7627 29.4902 60.1676 30.0854 59.9836 30.8476L59.8331 31.471C59.3182 33.6039 56.2843 33.6039 55.7694 31.471L55.619 30.8476C55.435 30.0854 54.8398 29.4902 54.0776 29.3062L53.4542 29.1558C51.3213 28.6409 51.3213 25.607 53.4542 25.0921L54.0776 24.9416C54.8398 24.7576 55.435 24.1625 55.619 23.4002L55.7694 22.7769Z" fill="url(#paint8_linear_47_3628)"/>
<path d="M162.338 115.284C162.853 113.151 165.887 113.151 166.401 115.284L166.552 115.907C166.736 116.669 167.331 117.264 168.093 117.448L168.717 117.599C170.85 118.114 170.85 121.148 168.717 121.662L168.093 121.813C167.331 121.997 166.736 122.592 166.552 123.354L166.401 123.978C165.887 126.111 162.853 126.111 162.338 123.978L162.187 123.354C162.003 122.592 161.408 121.997 160.646 121.813L160.023 121.662C157.89 121.148 157.89 118.114 160.023 117.599L160.646 117.448C161.408 117.264 162.003 116.669 162.187 115.907L162.338 115.284Z" fill="url(#paint9_linear_47_3628)"/>
<path d="M26.0118 101.931C27.3358 101.719 28.3928 103.02 27.9144 104.273L26.7807 107.241C26.3023 108.494 24.6473 108.759 23.8017 107.719L21.7976 105.252C20.952 104.212 21.5499 102.646 22.8739 102.434L26.0118 101.931Z" fill="url(#paint10_linear_47_3628)"/>
<path d="M165.53 50.2491C165.199 48.9498 166.398 47.7791 167.689 48.1419L170.748 49.0016C172.039 49.3644 172.453 50.9885 171.494 51.925L169.22 54.1446C168.26 55.0812 166.646 54.6277 166.315 53.3284L165.53 50.2491Z" fill="url(#paint11_linear_47_3628)"/>
<defs>
<filter id="filter0_f_47_3628" x="5.18208" y="79.2766" width="178.634" height="69.6062" filterUnits="userSpaceOnUse" color-interpolation-filters="sRGB">
<feFlood flood-opacity="0" result="BackgroundImageFix"/>
<feBlend mode="normal" in="SourceGraphic" in2="BackgroundImageFix" result="shape"/>
<feGaussianBlur stdDeviation="10.8865" result="effect1_foregroundBlur_47_3628"/>
</filter>
<filter id="filter1_d_47_3628" x="30.3855" y="7.4458" width="127.012" height="88.8123" filterUnits="userSpaceOnUse" color-interpolation-filters="sRGB">
<feFlood flood-opacity="0" result="BackgroundImageFix"/>
<feColorMatrix in="SourceAlpha" type="matrix" values="0 0 0 0 0 0 0 0 0 0 0 0 0 0 0 0 0 0 127 0" result="hardAlpha"/>
<feOffset dy="3.48368"/>
<feGaussianBlur stdDeviation="1.74184"/>
<feComposite in2="hardAlpha" operator="out"/>
<feColorMatrix type="matrix" values="0 0 0 0 0 0 0 0 0 0 0 0 0 0 0 0 0 0 0.25 0"/>
<feBlend mode="normal" in2="BackgroundImageFix" result="effect1_dropShadow_47_3628"/>
<feBlend mode="normal" in="SourceGraphic" in2="effect1_dropShadow_47_3628" result="shape"/>
</filter>
<filter id="filter2_f_47_3628" x="79.1079" y="17.0513" width="88.2198" height="57.9057" filterUnits="userSpaceOnUse" color-interpolation-filters="sRGB">
<feFlood flood-opacity="0" result="BackgroundImageFix"/>
<feBlend mode="normal" in="SourceGraphic" in2="BackgroundImageFix" result="shape"/>
<feGaussianBlur stdDeviation="10.8865" result="effect1_foregroundBlur_47_3628"/>
</filter>
<filter id="filter3_d_47_3628" x="0.548963" y="27.6023" width="89.5095" height="60.9354" filterUnits="userSpaceOnUse" color-interpolation-filters="sRGB">
<feFlood flood-opacity="0" result="BackgroundImageFix"/>
<feColorMatrix in="SourceAlpha" type="matrix" values="0 0 0 0 0 0 0 0 0 0 0 0 0 0 0 0 0 0 127 0" result="hardAlpha"/>
<feOffset dy="3.48368"/>
<feGaussianBlur stdDeviation="5.22552"/>
<feComposite in2="hardAlpha" operator="out"/>
<feColorMatrix type="matrix" values="0 0 0 0 0.0196078 0 0 0 0 0.168627 0 0 0 0 0.396078 0 0 0 0.15 0"/>
<feBlend mode="normal" in2="BackgroundImageFix" result="effect1_dropShadow_47_3628"/>
<feBlend mode="normal" in="SourceGraphic" in2="effect1_dropShadow_47_3628" result="shape"/>
</filter>
<filter id="filter4_d_47_3628" x="78.7227" y="55.0199" width="112.803" height="78.154" filterUnits="userSpaceOnUse" color-interpolation-filters="sRGB">
<feFlood flood-opacity="0" result="BackgroundImageFix"/>
<feColorMatrix in="SourceAlpha" type="matrix" values="0 0 0 0 0 0 0 0 0 0 0 0 0 0 0 0 0 0 127 0" result="hardAlpha"/>
<feOffset dx="-5.28021" dy="13.0638"/>
<feGaussianBlur stdDeviation="7.40282"/>
<feComposite in2="hardAlpha" operator="out"/>
<feColorMatrix type="matrix" values="0 0 0 0 0.021441 0 0 0 0 0.168056 0 0 0 0 0.395833 0 0 0 0.15 0"/>
<feBlend mode="normal" in2="BackgroundImageFix" result="effect1_dropShadow_47_3628"/>
<feBlend mode="normal" in="SourceGraphic" in2="effect1_dropShadow_47_3628" result="shape"/>
</filter>
<linearGradient id="paint0_linear_47_3628" x1="94.7013" y1="-22.808" x2="96.1361" y2="223.176" gradientUnits="userSpaceOnUse">
<stop stop-color="#CAE0FF" stop-opacity="0"/>
<stop offset="1" stop-color="#BCD8FF"/>
</linearGradient>
<linearGradient id="paint1_linear_47_3628" x1="93.8919" y1="7.4458" x2="93.8919" y2="89.2907" gradientUnits="userSpaceOnUse">
<stop stop-color="#EDF4FF"/>
<stop offset="1" stop-color="#ABCCFF"/>
</linearGradient>
<linearGradient id="paint2_linear_47_3628" x1="93.8919" y1="77.558" x2="93.8919" y2="118.221" gradientUnits="userSpaceOnUse">
<stop stop-color="#70A8FF"/>
<stop offset="1" stop-color="#5597FD"/>
</linearGradient>
<linearGradient id="paint3_linear_47_3628" x1="18.4457" y1="52.3864" x2="63.3863" y2="43.611" gradientUnits="userSpaceOnUse">
<stop stop-color="#C6DDFF"/>
<stop offset="1" stop-color="white"/>
</linearGradient>
<linearGradient id="paint4_linear_47_3628" x1="172.971" y1="78.3655" x2="118.478" y2="67.7248" gradientUnits="userSpaceOnUse">
<stop stop-color="#C6DDFF"/>
<stop offset="1" stop-color="white"/>
</linearGradient>
<linearGradient id="paint5_linear_47_3628" x1="145.766" y1="14.1602" x2="157.4" y2="24.2431" gradientUnits="userSpaceOnUse">
<stop stop-color="#94BFFF"/>
<stop offset="1" stop-color="#4C94FE"/>
</linearGradient>
<linearGradient id="paint6_linear_47_3628" x1="42.057" y1="122.656" x2="53.691" y2="132.739" gradientUnits="userSpaceOnUse">
<stop stop-color="#94BFFF"/>
<stop offset="1" stop-color="#4C94FE"/>
</linearGradient>
<linearGradient id="paint7_linear_47_3628" x1="131.938" y1="128.506" x2="143.572" y2="138.589" gradientUnits="userSpaceOnUse">
<stop stop-color="#94BFFF"/>
<stop offset="1" stop-color="#4C94FE"/>
</linearGradient>
<linearGradient id="paint8_linear_47_3628" x1="57.8013" y1="14.3597" x2="57.8013" y2="39.8881" gradientUnits="userSpaceOnUse">
<stop stop-color="#70A8FF"/>
<stop offset="1" stop-color="#5597FD"/>
</linearGradient>
<linearGradient id="paint9_linear_47_3628" x1="164.37" y1="106.866" x2="164.37" y2="132.395" gradientUnits="userSpaceOnUse">
<stop stop-color="#70A8FF"/>
<stop offset="1" stop-color="#5597FD"/>
</linearGradient>
<linearGradient id="paint10_linear_47_3628" x1="28.9908" y1="101.454" x2="20.7359" y2="108.162" gradientUnits="userSpaceOnUse">
<stop stop-color="#70A8FF"/>
<stop offset="1" stop-color="#5597FD"/>
</linearGradient>
<linearGradient id="paint11_linear_47_3628" x1="164.785" y1="47.3257" x2="172.214" y2="54.9379" gradientUnits="userSpaceOnUse">
<stop stop-color="#70A8FF"/>
<stop offset="1" stop-color="#5597FD"/>
</linearGradient>
</defs>
</svg>
