<svg id="logo" xmlns="http://www.w3.org/2000/svg" width="151" height="130" viewBox="0 0 151 130">
  <g id="Group_83" data-name="Group 83" transform="translate(0 0)">
    <path id="Path_1271" data-name="Path 1271" d="M796.2,817.321H685.779v50.193h130.5V837.4H786.165v20.077H776.126V837.4H725.933v20.077H715.895V837.4H705.856v20.077H695.818V827.358H816.28V817.319H796.2Zm0,30.114h10.038v10.039H796.2Zm-60.229,0h30.115v10.039H735.974Z" transform="translate(-665.702 -757.464)" fill="#fff"/>
    <path id="Path_1272" data-name="Path 1272" d="M806.25,602.29v20.077H695.828V612.328H796.212V602.29H685.79v30.116h130.5V602.29Z" transform="translate(-665.711 -582.311)" fill="#fff"/>
    <path id="Path_1273" data-name="Path 1273" d="M708.761,614.76H588.3v-110H708.761v-10H583.231a4.962,4.962,0,0,0-4.971,4.952v120.1a4.962,4.962,0,0,0,4.971,4.952H723.867a4.962,4.962,0,0,0,4.971-4.952V614.76H708.761Z" transform="translate(-578.26 -494.76)" fill="#fff"/>
    <path id="Path_1274" data-name="Path 1274" d="M1343.2,505.1H1333.16V495.06h5.07a4.968,4.968,0,0,1,4.969,4.969Z" transform="translate(-1192.198 -495.004)" fill="#efc12c"/>
  </g>
</svg>
