<svg xmlns="http://www.w3.org/2000/svg" width="151" height="42.999" viewBox="0 0 151 42.999">
  <g id="Group_3311" data-name="Group 3311" transform="translate(-114 -712)">
    <path id="Path_1275" data-name="Path 1275" d="M560.188,1329.98a.7.7,0,0,1-.131.416.905.905,0,0,1-.474.3,4.751,4.751,0,0,1-.912.186,12.173,12.173,0,0,1-1.444.069,11.941,11.941,0,0,1-1.421-.069,4.5,4.5,0,0,1-.9-.186,1,1,0,0,1-.474-.3.666.666,0,0,1-.142-.416v-24.339h-.048l-8.877,24.317a1.113,1.113,0,0,1-.307.5,1.5,1.5,0,0,1-.58.311,3.946,3.946,0,0,1-.935.15c-.378.023-.836.035-1.373.035s-.995-.019-1.373-.058a4.19,4.19,0,0,1-.935-.185,1.726,1.726,0,0,1-.58-.313.892.892,0,0,1-.284-.439l-8.57-24.317h-.048v24.339a.7.7,0,0,1-.13.416.91.91,0,0,1-.486.3,5.009,5.009,0,0,1-.912.186,14.711,14.711,0,0,1-2.853,0,4.78,4.78,0,0,1-.912-.186.925.925,0,0,1-.474-.3.7.7,0,0,1-.131-.416v-26.651a2.409,2.409,0,0,1,.639-1.8,2.336,2.336,0,0,1,1.705-.624H530.9a8.7,8.7,0,0,1,1.87.174,3.678,3.678,0,0,1,1.35.577,3.309,3.309,0,0,1,.947,1.063,7.454,7.454,0,0,1,.663,1.629l6.629,17.822h.094l6.865-17.775a9.276,9.276,0,0,1,.674-1.641,3.86,3.86,0,0,1,.852-1.087,2.819,2.819,0,0,1,1.148-.589,6.071,6.071,0,0,1,1.538-.174h4.19a3.364,3.364,0,0,1,1.1.161,1.893,1.893,0,0,1,.758.474,2.068,2.068,0,0,1,.449.763,3.182,3.182,0,0,1,.154,1.029v26.653Z" transform="translate(-410.48 -588.354)" fill="#fff"/>
    <path id="Path_1276" data-name="Path 1276" d="M805.876,1318.957a13.724,13.724,0,0,1-.829,4.926,9.636,9.636,0,0,1-2.439,3.676,10.638,10.638,0,0,1-3.977,2.289,17.258,17.258,0,0,1-5.446.786,17.65,17.65,0,0,1-5.185-.705,10.125,10.125,0,0,1-3.883-2.138,9.321,9.321,0,0,1-2.427-3.573,13.649,13.649,0,0,1-.841-5.006v-18.2a.673.673,0,0,1,.142-.416,1.014,1.014,0,0,1,.509-.3,5.37,5.37,0,0,1,.958-.186,13.337,13.337,0,0,1,1.515-.069,13.073,13.073,0,0,1,1.492.069,5.073,5.073,0,0,1,.947.186,1.1,1.1,0,0,1,.509.3.638.638,0,0,1,.154.416v17.667a9.528,9.528,0,0,0,.449,3.087,5.657,5.657,0,0,0,1.29,2.163,5.344,5.344,0,0,0,2.012,1.283,7.58,7.58,0,0,0,2.615.428,7.406,7.406,0,0,0,2.629-.439,5.219,5.219,0,0,0,1.964-1.283,5.756,5.756,0,0,0,1.242-2.082,8.377,8.377,0,0,0,.438-2.81v-18.014a.673.673,0,0,1,.142-.416,1.01,1.01,0,0,1,.5-.3,5.111,5.111,0,0,1,.958-.186,13.4,13.4,0,0,1,1.5-.069,12.724,12.724,0,0,1,1.479.069,5.065,5.065,0,0,1,.935.186,1.009,1.009,0,0,1,.5.3.673.673,0,0,1,.142.416v17.946Z" transform="translate(-624.492 -587.637)" fill="#fff"/>
    <path id="Path_1277" data-name="Path 1277" d="M981.413,1319.083a9.094,9.094,0,0,1-.9,4.141,8.612,8.612,0,0,1-2.439,2.972,10.742,10.742,0,0,1-3.6,1.793,15.656,15.656,0,0,1-4.4.6,16.066,16.066,0,0,1-2.948-.255,17,17,0,0,1-2.4-.614,10.5,10.5,0,0,1-1.74-.752,5,5,0,0,1-1.006-.694,1.711,1.711,0,0,1-.438-.867,7.69,7.69,0,0,1-.131-1.63c0-.478.015-.878.048-1.2a3.383,3.383,0,0,1,.154-.786.862.862,0,0,1,.284-.428.7.7,0,0,1,.415-.128,2,2,0,0,1,.935.381,16.332,16.332,0,0,0,1.551.844,14.254,14.254,0,0,0,2.26.844,10.918,10.918,0,0,0,3.042.381,7.157,7.157,0,0,0,2.036-.266,4.585,4.585,0,0,0,1.527-.752,3.21,3.21,0,0,0,.958-1.2,3.749,3.749,0,0,0,.332-1.6,2.76,2.76,0,0,0-.568-1.747,5.581,5.581,0,0,0-1.48-1.295,15.457,15.457,0,0,0-2.072-1.064q-1.16-.5-2.391-1.053a21.691,21.691,0,0,1-2.391-1.261,9.64,9.64,0,0,1-2.072-1.688,7.956,7.956,0,0,1-1.48-2.325,8.232,8.232,0,0,1-.568-3.216,8.357,8.357,0,0,1,.816-3.782,7.8,7.8,0,0,1,2.2-2.706,9.47,9.47,0,0,1,3.266-1.608,14.567,14.567,0,0,1,3.988-.533,14.974,14.974,0,0,1,2.178.161,15.368,15.368,0,0,1,2.036.439,11.608,11.608,0,0,1,1.68.625,3.981,3.981,0,0,1,.971.578,1.68,1.68,0,0,1,.319.394,1.871,1.871,0,0,1,.142.428,4.407,4.407,0,0,1,.083.672c.015.27.023.605.023,1.006q0,.671-.035,1.133a4,4,0,0,1-.119.763.908.908,0,0,1-.236.439.6.6,0,0,1-.415.139,2.013,2.013,0,0,1-.829-.325q-.568-.325-1.4-.705a13.385,13.385,0,0,0-1.918-.694,8.661,8.661,0,0,0-2.391-.311,5.85,5.85,0,0,0-1.776.242,3.716,3.716,0,0,0-1.267.67,2.653,2.653,0,0,0-.758,1.03,3.3,3.3,0,0,0-.248,1.272,2.747,2.747,0,0,0,.557,1.723,5.27,5.27,0,0,0,1.492,1.295,16.149,16.149,0,0,0,2.118,1.064q1.185.5,2.416,1.052a23.938,23.938,0,0,1,2.414,1.261,9.648,9.648,0,0,1,2.107,1.689,7.628,7.628,0,0,1,2.065,5.455Z" transform="translate(-775.22 -585.59)" fill="#fff"/>
    <path id="Path_1278" data-name="Path 1278" d="M1118.953,1327.838a7.893,7.893,0,0,1,.355,1.318.779.779,0,0,1-.19.728,1.571,1.571,0,0,1-.923.3c-.443.039-1.049.058-1.822.058q-1.207,0-1.882-.035a4.732,4.732,0,0,1-1.029-.139.948.948,0,0,1-.5-.289,1.571,1.571,0,0,1-.236-.486l-2.06-6.011h-11.506l-1.941,5.848a1.881,1.881,0,0,1-.248.544,1.007,1.007,0,0,1-.5.347,3.743,3.743,0,0,1-.972.173q-.627.046-1.646.047a16.058,16.058,0,0,1-1.705-.069,1.314,1.314,0,0,1-.852-.336.884.884,0,0,1-.165-.752,7.359,7.359,0,0,1,.355-1.294l9.446-26.539a2.274,2.274,0,0,1,.332-.636,1.171,1.171,0,0,1,.6-.369,4.892,4.892,0,0,1,1.148-.161q.734-.034,1.941-.034c.932,0,1.672.011,2.225.034a6.086,6.086,0,0,1,1.29.161,1.241,1.241,0,0,1,.663.381,2.236,2.236,0,0,1,.344.694Zm-14.062-21.938h-.023l-4.332,12.715h8.689Z" transform="translate(-883.498 -587.645)" fill="#fff"/>
    <path id="Path_1279" data-name="Path 1279" d="M1310.764,1328.244a2.253,2.253,0,0,1-.19.949,2.018,2.018,0,0,1-.509.694,1.986,1.986,0,0,1-.758.405,3.211,3.211,0,0,1-.887.127h-2.652a5.577,5.577,0,0,1-1.432-.161,2.9,2.9,0,0,1-1.114-.589,5.209,5.209,0,0,1-.983-1.155q-.473-.728-1.066-1.884l-7.623-13.986q-.664-1.248-1.35-2.693t-1.231-2.809h-.048q.094,1.665.142,3.317t.048,3.411v15.65a.7.7,0,0,1-.131.416.961.961,0,0,1-.449.311,3.648,3.648,0,0,1-.864.2,11.363,11.363,0,0,1-1.4.069,11.137,11.137,0,0,1-1.373-.069,3.442,3.442,0,0,1-.853-.2.892.892,0,0,1-.426-.311.749.749,0,0,1-.119-.416v-26.884a2,2,0,0,1,.651-1.629,2.416,2.416,0,0,1,1.6-.544h3.337a6.518,6.518,0,0,1,1.515.15,3.171,3.171,0,0,1,1.1.5,3.883,3.883,0,0,1,.912.96,12.092,12.092,0,0,1,.876,1.515l5.966,10.935q.521.994,1.029,1.954t.983,1.918q.474.958.924,1.884t.876,1.849h.023q-.072-1.619-.107-3.375t-.035-3.352v-14.032a.674.674,0,0,1,.142-.416,1.154,1.154,0,0,1,.474-.324,3.209,3.209,0,0,1,.876-.2,13.6,13.6,0,0,1,1.4-.058,13.051,13.051,0,0,1,1.35.058,2.749,2.749,0,0,1,.841.2.953.953,0,0,1,.415.324.758.758,0,0,1,.119.416v26.879Z" transform="translate(-1045.764 -587.912)" fill="#fff"/>
    <path id="Path_1280" data-name="Path 1280" d="M529.522,1520.4a.533.533,0,0,1,.038.159.107.107,0,0,1-.035.092.223.223,0,0,1-.121.041,2.089,2.089,0,0,1-.225.008c-.094,0-.169,0-.225-.007a.491.491,0,0,1-.127-.023.13.13,0,0,1-.063-.043.37.37,0,0,1-.038-.068l-.5-1.418h-2.439l-.481,1.4a.221.221,0,0,1-.036.071.165.165,0,0,1-.066.049.43.43,0,0,1-.122.03,1.8,1.8,0,0,1-.207.008,1.553,1.553,0,0,1-.215-.011.214.214,0,0,1-.117-.043.112.112,0,0,1-.031-.092.584.584,0,0,1,.038-.159l1.968-5.412a.228.228,0,0,1,.048-.08.189.189,0,0,1,.086-.049.729.729,0,0,1,.145-.025c.06,0,.134-.007.225-.007s.177,0,.24.007a.766.766,0,0,1,.154.025.2.2,0,0,1,.091.053.233.233,0,0,1,.049.084ZM527,1515.621h-.005l-1.011,2.9h2.039Z" transform="translate(-410.509 -765.76)" fill="#fff"/>
    <path id="Path_1281" data-name="Path 1281" d="M566.961,1517.791a4.036,4.036,0,0,1-.2,1.321,2.4,2.4,0,0,1-.568.937,2.353,2.353,0,0,1-.919.556,4.049,4.049,0,0,1-1.3.184h-1.243a.314.314,0,0,1-.2-.071.29.29,0,0,1-.093-.246v-5.2a.3.3,0,0,1,.093-.246.325.325,0,0,1,.2-.071h1.328a3.73,3.73,0,0,1,1.287.2,2.3,2.3,0,0,1,1.421,1.453A3.538,3.538,0,0,1,566.961,1517.791Zm-.82.031a3.185,3.185,0,0,0-.117-.88,1.87,1.87,0,0,0-.37-.7,1.72,1.72,0,0,0-.636-.464,2.514,2.514,0,0,0-.993-.166h-.793v4.533h.8a2.782,2.782,0,0,0,.947-.139,1.588,1.588,0,0,0,.644-.428,1.887,1.887,0,0,0,.388-.722A3.713,3.713,0,0,0,566.141,1517.822Z" transform="translate(-442.181 -765.877)" fill="#fff"/>
    <path id="Path_1282" data-name="Path 1282" d="M597.282,1520.547a.2.2,0,0,1-.05.08.212.212,0,0,1-.088.049.7.7,0,0,1-.145.025c-.06.005-.132.007-.22.007-.066,0-.124,0-.175,0a.938.938,0,0,1-.129-.012c-.036-.007-.068-.013-.093-.02a.278.278,0,0,1-.066-.03.136.136,0,0,1-.043-.043.421.421,0,0,1-.03-.061l-1.917-5.412a.539.539,0,0,1-.038-.159.1.1,0,0,1,.038-.092.258.258,0,0,1,.132-.041c.061-.007.142-.008.245-.008.084,0,.152,0,.2.007a.422.422,0,0,1,.116.025.131.131,0,0,1,.061.048.386.386,0,0,1,.038.074l1.682,4.9h0l1.636-4.895a.439.439,0,0,1,.031-.08.115.115,0,0,1,.063-.049.493.493,0,0,1,.127-.025c.055,0,.127-.007.218-.007a1.536,1.536,0,0,1,.221.012.187.187,0,0,1,.111.043.116.116,0,0,1,.023.092.7.7,0,0,1-.043.159Z" transform="translate(-468.759 -765.768)" fill="#fff"/>
    <path id="Path_1283" data-name="Path 1283" d="M630.232,1520.4a.534.534,0,0,1,.038.159.107.107,0,0,1-.035.092.224.224,0,0,1-.121.041,2.085,2.085,0,0,1-.225.008c-.094,0-.169,0-.225-.007a.477.477,0,0,1-.127-.023.13.13,0,0,1-.063-.043.37.37,0,0,1-.038-.068l-.5-1.418h-2.439l-.481,1.4a.22.22,0,0,1-.036.071.164.164,0,0,1-.066.049.432.432,0,0,1-.122.03,1.8,1.8,0,0,1-.207.008,1.556,1.556,0,0,1-.215-.011.214.214,0,0,1-.117-.043.112.112,0,0,1-.031-.092.586.586,0,0,1,.038-.159l1.968-5.412a.23.23,0,0,1,.048-.08.19.19,0,0,1,.086-.049.73.73,0,0,1,.145-.025c.06,0,.134-.007.225-.007s.177,0,.24.007a.766.766,0,0,1,.154.025.2.2,0,0,1,.091.053.235.235,0,0,1,.05.084Zm-2.525-4.776h0l-1.011,2.9h2.039Z" transform="translate(-494.578 -765.76)" fill="#fff"/>
    <path id="Path_1284" data-name="Path 1284" d="M667.622,1520.4a.356.356,0,0,1-.03.153.277.277,0,0,1-.079.1.341.341,0,0,1-.111.059.45.45,0,0,1-.122.018h-.258a.818.818,0,0,1-.213-.025.466.466,0,0,1-.173-.09.923.923,0,0,1-.164-.177,2.3,2.3,0,0,1-.173-.289l-1.79-3.314c-.094-.171-.188-.349-.283-.538s-.183-.369-.266-.547h-.008c.007.217.01.437.013.661s.005.448.005.671v3.516a.106.106,0,0,1-.02.061.119.119,0,0,1-.064.044.654.654,0,0,1-.119.026,1.436,1.436,0,0,1-.188.011,1.175,1.175,0,0,1-.188-.011.735.735,0,0,1-.117-.026.131.131,0,0,1-.063-.044.1.1,0,0,1-.02-.061v-5.377a.3.3,0,0,1,.1-.256.371.371,0,0,1,.225-.077h.383a.963.963,0,0,1,.226.023.463.463,0,0,1,.164.074.613.613,0,0,1,.141.144,1.989,1.989,0,0,1,.142.231l1.376,2.557c.084.156.167.309.245.458s.155.3.228.44.145.286.216.425l.213.42h0c-.007-.237-.01-.484-.011-.74s0-.5,0-.74v-3.161a.1.1,0,0,1,.02-.059.155.155,0,0,1,.064-.048.445.445,0,0,1,.119-.029,1.524,1.524,0,0,1,.193-.01,1.454,1.454,0,0,1,.182.01.414.414,0,0,1,.119.029.161.161,0,0,1,.063.048.1.1,0,0,1,.02.059v5.377Z" transform="translate(-526.275 -765.811)" fill="#fff"/>
    <path id="Path_1285" data-name="Path 1285" d="M703.318,1519.649c0,.047,0,.09-.005.126a.493.493,0,0,1-.016.1.406.406,0,0,1-.03.072.416.416,0,0,1-.063.077,1.429,1.429,0,0,1-.19.138,2.416,2.416,0,0,1-.36.181,3.031,3.031,0,0,1-.494.149,2.822,2.822,0,0,1-.61.061,2.688,2.688,0,0,1-1.031-.189,2.086,2.086,0,0,1-.785-.558,2.554,2.554,0,0,1-.5-.911,4.534,4.534,0,0,1,.013-2.541,2.791,2.791,0,0,1,.529-.962,2.251,2.251,0,0,1,.813-.6,2.6,2.6,0,0,1,1.049-.207,2.569,2.569,0,0,1,.494.048,2.927,2.927,0,0,1,.445.12,1.924,1.924,0,0,1,.362.167,1.181,1.181,0,0,1,.22.156.542.542,0,0,1,.079.092.383.383,0,0,1,.03.074.692.692,0,0,1,.018.1,1.156,1.156,0,0,1,.007.139,1,1,0,0,1-.01.153.445.445,0,0,1-.028.107.153.153,0,0,1-.043.062.1.1,0,0,1-.061.02.347.347,0,0,1-.178-.087,2.751,2.751,0,0,0-.294-.194,2.437,2.437,0,0,0-.438-.194,1.907,1.907,0,0,0-.618-.087,1.625,1.625,0,0,0-.714.156,1.49,1.49,0,0,0-.549.458,2.239,2.239,0,0,0-.354.737,4.017,4.017,0,0,0,0,1.973,2.03,2.03,0,0,0,.347.711,1.446,1.446,0,0,0,.554.432,1.815,1.815,0,0,0,.744.146,1.965,1.965,0,0,0,.613-.085,2.382,2.382,0,0,0,.446-.192,3.245,3.245,0,0,0,.3-.192.366.366,0,0,1,.187-.085.111.111,0,0,1,.055.013.088.088,0,0,1,.036.053.46.46,0,0,1,.02.105A.619.619,0,0,1,703.318,1519.649Z" transform="translate(-556.22 -765.559)" fill="#fff"/>
    <path id="Path_1286" data-name="Path 1286" d="M736.034,1520.47a1.131,1.131,0,0,1-.008.141.323.323,0,0,1-.031.1.171.171,0,0,1-.053.059.129.129,0,0,1-.066.018h-2.816a.314.314,0,0,1-.2-.071.29.29,0,0,1-.093-.246v-5.2a.3.3,0,0,1,.093-.246.326.326,0,0,1,.2-.071h2.783a.127.127,0,0,1,.066.018.117.117,0,0,1,.048.059.508.508,0,0,1,.03.1.783.783,0,0,1,.012.151.708.708,0,0,1-.012.141.443.443,0,0,1-.03.1.117.117,0,0,1-.048.056.131.131,0,0,1-.066.018h-2.294v1.828h1.968a.115.115,0,0,1,.066.02.162.162,0,0,1,.05.056.321.321,0,0,1,.03.1.986.986,0,0,1,.01.149.849.849,0,0,1-.01.139.312.312,0,0,1-.03.1.124.124,0,0,1-.116.069h-1.968v2.084h2.325a.128.128,0,0,1,.066.018.173.173,0,0,1,.053.056.3.3,0,0,1,.031.1A1.05,1.05,0,0,1,736.034,1520.47Z" transform="translate(-584.36 -765.877)" fill="#fff"/>
    <path id="Path_1287" data-name="Path 1287" d="M766.391,1517.791a4.034,4.034,0,0,1-.2,1.321,2.4,2.4,0,0,1-.568.937,2.352,2.352,0,0,1-.919.556,4.049,4.049,0,0,1-1.3.184h-1.243a.314.314,0,0,1-.2-.071.29.29,0,0,1-.093-.246v-5.2a.3.3,0,0,1,.093-.246.325.325,0,0,1,.2-.071H763.5a3.73,3.73,0,0,1,1.287.2,2.3,2.3,0,0,1,1.421,1.453A3.537,3.537,0,0,1,766.391,1517.791Zm-.82.031a3.185,3.185,0,0,0-.117-.88,1.871,1.871,0,0,0-.37-.7,1.72,1.72,0,0,0-.636-.464,2.514,2.514,0,0,0-.993-.166h-.793v4.533h.8a2.782,2.782,0,0,0,.947-.139,1.587,1.587,0,0,0,.644-.428,1.887,1.887,0,0,0,.388-.722A3.713,3.713,0,0,0,765.571,1517.822Z" transform="translate(-608.66 -765.877)" fill="#fff"/>
    <path id="Path_1288" data-name="Path 1288" d="M828.172,1520.4a.535.535,0,0,1,.038.159.107.107,0,0,1-.035.092.223.223,0,0,1-.121.041,2.089,2.089,0,0,1-.225.008c-.094,0-.169,0-.225-.007a.478.478,0,0,1-.127-.023.13.13,0,0,1-.063-.043.367.367,0,0,1-.038-.068l-.5-1.418h-2.439l-.481,1.4a.22.22,0,0,1-.036.071.164.164,0,0,1-.066.049.43.43,0,0,1-.122.03,1.8,1.8,0,0,1-.207.008,1.553,1.553,0,0,1-.215-.011.214.214,0,0,1-.117-.043.112.112,0,0,1-.031-.092.584.584,0,0,1,.038-.159l1.968-5.412a.229.229,0,0,1,.048-.08.189.189,0,0,1,.086-.049.712.712,0,0,1,.145-.025c.059,0,.134-.007.225-.007s.177,0,.24.007a.766.766,0,0,1,.154.025.2.2,0,0,1,.091.053.235.235,0,0,1,.05.084Zm-2.525-4.776h-.005l-1.011,2.9h2.039Z" transform="translate(-659.814 -765.76)" fill="#fff"/>
    <path id="Path_1289" data-name="Path 1289" d="M864.6,1518.52a2.7,2.7,0,0,1-.157.949,1.937,1.937,0,0,1-.446.7,1.887,1.887,0,0,1-.707.437,2.824,2.824,0,0,1-.947.149,2.645,2.645,0,0,1-.884-.14,1.867,1.867,0,0,1-.684-.412,1.8,1.8,0,0,1-.44-.683,2.685,2.685,0,0,1-.154-.945v-3.616a.11.11,0,0,1,.018-.062.118.118,0,0,1,.063-.043.667.667,0,0,1,.117-.026,1.554,1.554,0,0,1,.375,0,.8.8,0,0,1,.121.026.119.119,0,0,1,.061.043.114.114,0,0,1,.018.062v3.521a2.272,2.272,0,0,0,.1.707,1.313,1.313,0,0,0,.288.5,1.2,1.2,0,0,0,.453.3,1.664,1.664,0,0,0,.6.1,1.729,1.729,0,0,0,.6-.1,1.156,1.156,0,0,0,.449-.3,1.312,1.312,0,0,0,.281-.49,2.188,2.188,0,0,0,.1-.684v-3.562a.112.112,0,0,1,.018-.062.115.115,0,0,1,.063-.043.657.657,0,0,1,.121-.026,1.432,1.432,0,0,1,.188-.012,1.131,1.131,0,0,1,.183.012.735.735,0,0,1,.117.026.131.131,0,0,1,.063.043.1.1,0,0,1,.02.062v3.556Z" transform="translate(-690.719 -765.76)" fill="#fff"/>
    <path id="Path_1290" data-name="Path 1290" d="M898.03,1515.3a.988.988,0,0,1-.01.15.341.341,0,0,1-.03.1.129.129,0,0,1-.05.056.128.128,0,0,1-.066.018h-1.651v5.052a.111.111,0,0,1-.018.062.115.115,0,0,1-.063.043.665.665,0,0,1-.121.026,1.509,1.509,0,0,1-.373,0,.88.88,0,0,1-.122-.026.1.1,0,0,1-.081-.105v-5.052H893.8a.128.128,0,0,1-.066-.018.124.124,0,0,1-.048-.056.472.472,0,0,1-.03-.1.794.794,0,0,1-.012-.15.824.824,0,0,1,.012-.151.44.44,0,0,1,.03-.107.134.134,0,0,1,.048-.059.129.129,0,0,1,.066-.018h4.08a.122.122,0,0,1,.116.077.366.366,0,0,1,.03.107A1.026,1.026,0,0,1,898.03,1515.3Z" transform="translate(-718.65 -765.885)" fill="#fff"/>
    <path id="Path_1291" data-name="Path 1291" d="M928.675,1517.392a4.524,4.524,0,0,1-.167,1.274,2.672,2.672,0,0,1-.5.965,2.178,2.178,0,0,1-.836.612,2.981,2.981,0,0,1-1.175.213,3.065,3.065,0,0,1-1.145-.2,2,2,0,0,1-.8-.57,2.425,2.425,0,0,1-.469-.927,4.778,4.778,0,0,1-.154-1.274,4.417,4.417,0,0,1,.167-1.252,2.587,2.587,0,0,1,.5-.957,2.216,2.216,0,0,1,.839-.608,3.362,3.362,0,0,1,2.3-.02,2.044,2.044,0,0,1,.8.565,2.387,2.387,0,0,1,.476.919A4.583,4.583,0,0,1,928.675,1517.392Zm-.825.054a4.614,4.614,0,0,0-.088-.921,2.121,2.121,0,0,0-.294-.739,1.425,1.425,0,0,0-.55-.489,1.869,1.869,0,0,0-.851-.176,1.747,1.747,0,0,0-.851.189,1.586,1.586,0,0,0-.558.5,2.073,2.073,0,0,0-.307.737,4.15,4.15,0,0,0-.093.885,4.811,4.811,0,0,0,.086.946,2.128,2.128,0,0,0,.289.745,1.379,1.379,0,0,0,.545.486,1.9,1.9,0,0,0,.858.174,1.807,1.807,0,0,0,.861-.189,1.554,1.554,0,0,0,.562-.51,2.167,2.167,0,0,0,.3-.745A4.461,4.461,0,0,0,927.85,1517.446Z" transform="translate(-743.518 -765.459)" fill="#fff"/>
    <path id="Path_1292" data-name="Path 1292" d="M970.681,1520.7a.111.111,0,0,1-.018.062.127.127,0,0,1-.066.043.738.738,0,0,1-.119.026,1.191,1.191,0,0,1-.188.011,1.23,1.23,0,0,1-.185-.011.847.847,0,0,1-.122-.026.116.116,0,0,1-.063-.043.1.1,0,0,1-.018-.062v-5.075h-.01l-2.067,5.1a.157.157,0,0,1-.038.054.2.2,0,0,1-.073.038.6.6,0,0,1-.114.023,1.438,1.438,0,0,1-.157.007,1.561,1.561,0,0,1-.164-.008.751.751,0,0,1-.114-.025.2.2,0,0,1-.069-.038.122.122,0,0,1-.035-.049l-1.976-5.1h0v5.075a.11.11,0,0,1-.018.062.126.126,0,0,1-.066.043.71.71,0,0,1-.121.026,1.494,1.494,0,0,1-.192.011,1.194,1.194,0,0,1-.187-.011.823.823,0,0,1-.119-.026.111.111,0,0,1-.061-.043.113.113,0,0,1-.016-.062v-5.357a.327.327,0,0,1,.1-.271.35.35,0,0,1,.226-.081h.479a1.209,1.209,0,0,1,.258.026.543.543,0,0,1,.193.086.526.526,0,0,1,.139.149,1.055,1.055,0,0,1,.1.212l1.677,4.22h.023l1.745-4.205a1.2,1.2,0,0,1,.111-.23.636.636,0,0,1,.13-.151.457.457,0,0,1,.159-.08.755.755,0,0,1,.2-.025h.5a.428.428,0,0,1,.13.02.27.27,0,0,1,.106.063.3.3,0,0,1,.071.108.418.418,0,0,1,.028.159v5.356Z" transform="translate(-777.635 -765.902)" fill="#fff"/>
    <path id="Path_1293" data-name="Path 1293" d="M1015.311,1520.4a.535.535,0,0,1,.038.159.107.107,0,0,1-.035.092.223.223,0,0,1-.121.041,2.088,2.088,0,0,1-.225.008c-.094,0-.169,0-.225-.007a.492.492,0,0,1-.127-.023.13.13,0,0,1-.063-.043.367.367,0,0,1-.038-.068l-.5-1.418h-2.439l-.481,1.4a.257.257,0,0,1-.036.071.176.176,0,0,1-.066.049.429.429,0,0,1-.122.03,1.8,1.8,0,0,1-.207.008,1.553,1.553,0,0,1-.215-.011.213.213,0,0,1-.117-.043.112.112,0,0,1-.031-.092.582.582,0,0,1,.038-.159l1.968-5.412a.228.228,0,0,1,.048-.08.189.189,0,0,1,.086-.049.731.731,0,0,1,.145-.025c.059,0,.134-.007.225-.007s.177,0,.24.007a.786.786,0,0,1,.154.025.2.2,0,0,1,.091.053.234.234,0,0,1,.05.084Zm-2.525-4.776h-.005l-1.011,2.9h2.039Z" transform="translate(-816.034 -765.76)" fill="#fff"/>
    <path id="Path_1294" data-name="Path 1294" d="M1043.929,1515.3a1.28,1.28,0,0,1-.008.15.339.339,0,0,1-.03.1.126.126,0,0,1-.116.074h-1.651v5.052a.11.11,0,0,1-.018.062.115.115,0,0,1-.063.043.7.7,0,0,1-.121.026,1.509,1.509,0,0,1-.373,0,.888.888,0,0,1-.122-.026.1.1,0,0,1-.081-.105v-5.052H1039.7a.128.128,0,0,1-.066-.018.136.136,0,0,1-.048-.056.483.483,0,0,1-.03-.1.794.794,0,0,1-.012-.15.824.824,0,0,1,.012-.151.548.548,0,0,1,.03-.107.135.135,0,0,1,.048-.059.129.129,0,0,1,.066-.018h4.08a.122.122,0,0,1,.116.077.364.364,0,0,1,.03.107A1.331,1.331,0,0,1,1043.929,1515.3Z" transform="translate(-840.444 -765.885)" fill="#fff"/>
    <path id="Path_1295" data-name="Path 1295" d="M1073.7,1520.555a.11.11,0,0,1-.018.062.114.114,0,0,1-.063.043.663.663,0,0,1-.121.026,1.541,1.541,0,0,1-.373,0,.844.844,0,0,1-.122-.026.1.1,0,0,1-.081-.1v-5.592a.1.1,0,0,1,.02-.062.133.133,0,0,1,.068-.043.756.756,0,0,1,.122-.026,1.122,1.122,0,0,1,.178-.011,1.2,1.2,0,0,1,.188.011.93.93,0,0,1,.121.026.117.117,0,0,1,.063.043.115.115,0,0,1,.018.062Z" transform="translate(-868.308 -765.76)" fill="#fff"/>
    <path id="Path_1296" data-name="Path 1296" d="M1087.981,1520.547a.2.2,0,0,1-.049.08.212.212,0,0,1-.088.049.7.7,0,0,1-.145.025c-.059.005-.132.007-.22.007-.066,0-.124,0-.175,0a.937.937,0,0,1-.129-.012c-.036-.007-.068-.013-.093-.02a.278.278,0,0,1-.066-.03.132.132,0,0,1-.043-.043.413.413,0,0,1-.03-.061l-1.917-5.412a.544.544,0,0,1-.038-.159.1.1,0,0,1,.038-.092.257.257,0,0,1,.131-.041c.061-.007.142-.008.244-.008.084,0,.152,0,.2.007a.425.425,0,0,1,.116.025.14.14,0,0,1,.061.048.386.386,0,0,1,.038.074l1.682,4.9h.005l1.636-4.895a.44.44,0,0,1,.031-.08.114.114,0,0,1,.065-.049.493.493,0,0,1,.127-.025c.054,0,.127-.007.218-.007a1.562,1.562,0,0,1,.223.012.187.187,0,0,1,.111.043.115.115,0,0,1,.023.092.7.7,0,0,1-.043.159Z" transform="translate(-878.383 -765.768)" fill="#fff"/>
    <path id="Path_1297" data-name="Path 1297" d="M1125.575,1520.47a.876.876,0,0,1-.01.141.326.326,0,0,1-.031.1.169.169,0,0,1-.053.059.13.13,0,0,1-.066.018H1122.6a.315.315,0,0,1-.2-.071.29.29,0,0,1-.092-.246v-5.2a.3.3,0,0,1,.092-.246.326.326,0,0,1,.2-.071h2.783a.126.126,0,0,1,.066.018.117.117,0,0,1,.048.059.554.554,0,0,1,.03.1.8.8,0,0,1,.011.151.723.723,0,0,1-.011.141.449.449,0,0,1-.03.1.117.117,0,0,1-.048.056.131.131,0,0,1-.066.018h-2.293v1.828h1.968a.115.115,0,0,1,.066.02.161.161,0,0,1,.05.056.319.319,0,0,1,.03.1.985.985,0,0,1,.01.149.848.848,0,0,1-.01.139.31.31,0,0,1-.03.1.124.124,0,0,1-.116.069h-1.968v2.084h2.325a.127.127,0,0,1,.066.018.17.17,0,0,1,.053.056.267.267,0,0,1,.031.1A.853.853,0,0,1,1125.575,1520.47Z" transform="translate(-909.538 -765.877)" fill="#fff"/>
    <path id="Path_1298" data-name="Path 1298" d="M1181.039,1518.73a1.677,1.677,0,0,1-.152.729,1.566,1.566,0,0,1-.422.543,1.8,1.8,0,0,1-.634.335,2.638,2.638,0,0,1-.786.113,2.848,2.848,0,0,1-.547-.049,3.018,3.018,0,0,1-.449-.121,1.979,1.979,0,0,1-.331-.149.928.928,0,0,1-.185-.13.32.32,0,0,1-.078-.138.805.805,0,0,1-.025-.223,1.123,1.123,0,0,1,.01-.164.405.405,0,0,1,.028-.107.114.114,0,0,1,.045-.056.134.134,0,0,1,.065-.016.369.369,0,0,1,.178.077,3.13,3.13,0,0,0,.3.167,2.817,2.817,0,0,0,.438.169,2.023,2.023,0,0,0,.592.079,1.54,1.54,0,0,0,.464-.067,1.083,1.083,0,0,0,.364-.192.831.831,0,0,0,.233-.3.977.977,0,0,0,.081-.411.759.759,0,0,0-.114-.423,1.154,1.154,0,0,0-.3-.309,2.653,2.653,0,0,0-.425-.243c-.159-.074-.321-.15-.487-.225a5.423,5.423,0,0,1-.486-.255,2.119,2.119,0,0,1-.421-.328,1.55,1.55,0,0,1-.3-.443,1.458,1.458,0,0,1-.116-.611,1.525,1.525,0,0,1,.134-.652,1.35,1.35,0,0,1,.372-.479,1.641,1.641,0,0,1,.567-.3,2.411,2.411,0,0,1,.709-.1,2.247,2.247,0,0,1,.392.035,2.792,2.792,0,0,1,.372.09,2.207,2.207,0,0,1,.311.126.716.716,0,0,1,.178.113.313.313,0,0,1,.056.067.237.237,0,0,1,.023.064.629.629,0,0,1,.013.092c0,.036,0,.082,0,.14a1.258,1.258,0,0,1-.007.144.693.693,0,0,1-.02.107.134.134,0,0,1-.038.063.087.087,0,0,1-.056.02.38.38,0,0,1-.157-.062c-.071-.043-.159-.089-.261-.141a2.38,2.38,0,0,0-.365-.144,1.628,1.628,0,0,0-.474-.066,1.239,1.239,0,0,0-.426.066.85.85,0,0,0-.3.174.688.688,0,0,0-.177.256.836.836,0,0,0-.059.315.749.749,0,0,0,.114.419,1.166,1.166,0,0,0,.3.31,2.7,2.7,0,0,0,.428.248c.16.075.324.151.489.227s.329.161.489.253a2.055,2.055,0,0,1,.428.325,1.492,1.492,0,0,1,.3.442A1.42,1.42,0,0,1,1181.039,1518.73Z" transform="translate(-955.551 -765.451)" fill="#fff"/>
    <path id="Path_1299" data-name="Path 1299" d="M1210.946,1517.392a4.465,4.465,0,0,1-.168,1.274,2.672,2.672,0,0,1-.5.965,2.178,2.178,0,0,1-.836.612,2.981,2.981,0,0,1-1.175.213,3.064,3.064,0,0,1-1.145-.2,2,2,0,0,1-.8-.57,2.427,2.427,0,0,1-.469-.927,4.789,4.789,0,0,1-.154-1.274,4.363,4.363,0,0,1,.168-1.252,2.612,2.612,0,0,1,.5-.957,2.229,2.229,0,0,1,.839-.608,3.362,3.362,0,0,1,2.3-.02,2.044,2.044,0,0,1,.8.565,2.386,2.386,0,0,1,.476.919A4.583,4.583,0,0,1,1210.946,1517.392Zm-.826.054a4.624,4.624,0,0,0-.088-.921,2.124,2.124,0,0,0-.294-.739,1.426,1.426,0,0,0-.55-.489,1.869,1.869,0,0,0-.851-.176,1.742,1.742,0,0,0-.851.189,1.587,1.587,0,0,0-.559.5,2.107,2.107,0,0,0-.307.737,4.158,4.158,0,0,0-.093.885,4.821,4.821,0,0,0,.086.946,2.117,2.117,0,0,0,.289.745,1.379,1.379,0,0,0,.545.486,1.9,1.9,0,0,0,.858.174,1.806,1.806,0,0,0,.861-.189,1.552,1.552,0,0,0,.562-.51,2.167,2.167,0,0,0,.3-.745A4.461,4.461,0,0,0,1210.12,1517.446Z" transform="translate(-979.15 -765.459)" fill="#fff"/>
    <path id="Path_1300" data-name="Path 1300" d="M1249.69,1515.321a.982.982,0,0,1-.01.149.3.3,0,0,1-.031.1.143.143,0,0,1-.053.056.121.121,0,0,1-.061.018h-2.148v1.981h2.031a.12.12,0,0,1,.061.016.148.148,0,0,1,.053.053.239.239,0,0,1,.031.1.984.984,0,0,1,.01.156.9.9,0,0,1-.01.146.278.278,0,0,1-.031.1.191.191,0,0,1-.053.059.109.109,0,0,1-.061.02h-2.031v2.427a.118.118,0,0,1-.018.061.107.107,0,0,1-.063.044.661.661,0,0,1-.117.026,1.538,1.538,0,0,1-.375,0,.813.813,0,0,1-.122-.026.116.116,0,0,1-.063-.044.119.119,0,0,1-.018-.061v-5.394a.294.294,0,0,1,.093-.246.325.325,0,0,1,.2-.07h2.639a.121.121,0,0,1,.061.018.158.158,0,0,1,.053.059.281.281,0,0,1,.031.107C1249.687,1515.215,1249.69,1515.264,1249.69,1515.321Z" transform="translate(-1013.3 -765.902)" fill="#fff"/>
    <path id="Path_1301" data-name="Path 1301" d="M1274.168,1515.3a1.28,1.28,0,0,1-.008.15.336.336,0,0,1-.03.1.126.126,0,0,1-.116.074h-1.651v5.052a.11.11,0,0,1-.018.062.114.114,0,0,1-.063.043.7.7,0,0,1-.121.026,1.509,1.509,0,0,1-.373,0,.888.888,0,0,1-.122-.026.1.1,0,0,1-.081-.105v-5.052h-1.651a.127.127,0,0,1-.066-.018.125.125,0,0,1-.048-.056.455.455,0,0,1-.03-.1.8.8,0,0,1-.012-.15.835.835,0,0,1,.012-.151.547.547,0,0,1,.03-.107.126.126,0,0,1,.048-.059.128.128,0,0,1,.066-.018h4.08a.122.122,0,0,1,.116.077.36.36,0,0,1,.03.107A1.331,1.331,0,0,1,1274.168,1515.3Z" transform="translate(-1032.643 -765.885)" fill="#fff"/>
    <path id="Path_1302" data-name="Path 1302" d="M1306.23,1520.494a.232.232,0,0,1-.055.1.243.243,0,0,1-.1.059.854.854,0,0,1-.157.03,2.285,2.285,0,0,1-.23.008c-.094,0-.173,0-.238-.008a.839.839,0,0,1-.16-.03.191.191,0,0,1-.1-.059.254.254,0,0,1-.05-.1l-1.229-4.4h-.01l-1.134,4.4a.239.239,0,0,1-.045.1.2.2,0,0,1-.091.059.744.744,0,0,1-.152.03c-.061.007-.14.008-.238.008s-.183,0-.25-.008a.888.888,0,0,1-.164-.03.205.205,0,0,1-.1-.059.22.22,0,0,1-.048-.1l-1.55-5.38a.793.793,0,0,1-.03-.163.1.1,0,0,1,.036-.09.242.242,0,0,1,.124-.041,2.194,2.194,0,0,1,.231-.008c.094,0,.169,0,.222.007a.49.49,0,0,1,.125.025.113.113,0,0,1,.06.049.361.361,0,0,1,.025.08l1.319,4.881h0l1.251-4.872a.412.412,0,0,1,.033-.084.135.135,0,0,1,.066-.053.48.48,0,0,1,.129-.028,2.019,2.019,0,0,1,.22-.008c.084,0,.152,0,.2.008a.489.489,0,0,1,.121.028.128.128,0,0,1,.066.053.423.423,0,0,1,.035.084l1.347,4.872h.01l1.292-4.876c.01-.03.018-.056.026-.079a.1.1,0,0,1,.056-.053.513.513,0,0,1,.122-.028,1.885,1.885,0,0,1,.211-.008,1.466,1.466,0,0,1,.215.012.229.229,0,0,1,.116.043.11.11,0,0,1,.035.09,1.009,1.009,0,0,1-.025.162Z" transform="translate(-1057.961 -765.752)" fill="#fff"/>
    <path id="Path_1303" data-name="Path 1303" d="M1353.541,1520.4a.54.54,0,0,1,.038.159.107.107,0,0,1-.035.092.224.224,0,0,1-.121.041,2.088,2.088,0,0,1-.225.008c-.094,0-.169,0-.225-.007a.491.491,0,0,1-.127-.023.13.13,0,0,1-.063-.043.363.363,0,0,1-.038-.068l-.5-1.418H1349.8l-.481,1.4a.254.254,0,0,1-.036.071.174.174,0,0,1-.066.049.429.429,0,0,1-.122.03,1.8,1.8,0,0,1-.207.008,1.553,1.553,0,0,1-.215-.011.215.215,0,0,1-.117-.043.113.113,0,0,1-.031-.092.583.583,0,0,1,.038-.159l1.968-5.412a.228.228,0,0,1,.048-.08.189.189,0,0,1,.086-.049.728.728,0,0,1,.146-.025c.059,0,.134-.007.225-.007s.177,0,.24.007a.791.791,0,0,1,.154.025.2.2,0,0,1,.091.053.237.237,0,0,1,.05.084Zm-2.525-4.776h-.005l-1.011,2.9h2.039Z" transform="translate(-1098.38 -765.76)" fill="#fff"/>
    <path id="Path_1304" data-name="Path 1304" d="M1390.39,1520.68a.146.146,0,0,1-.013.062.1.1,0,0,1-.06.044.551.551,0,0,1-.127.028,1.961,1.961,0,0,1-.218.008c-.079,0-.142,0-.193-.008a.475.475,0,0,1-.121-.03.169.169,0,0,1-.069-.056.355.355,0,0,1-.043-.09l-.539-1.374c-.065-.156-.129-.3-.2-.43a1.366,1.366,0,0,0-.243-.338.987.987,0,0,0-.33-.22,1.2,1.2,0,0,0-.458-.079h-.521v2.482a.1.1,0,0,1-.02.062.128.128,0,0,1-.063.043.6.6,0,0,1-.117.026,1.552,1.552,0,0,1-.377,0,.928.928,0,0,1-.121-.026.1.1,0,0,1-.081-.1v-5.393a.294.294,0,0,1,.092-.246.324.324,0,0,1,.2-.071h1.246c.149,0,.271,0,.37.011l.264.025a2.3,2.3,0,0,1,.6.184,1.426,1.426,0,0,1,.438.32,1.287,1.287,0,0,1,.264.443,1.781,1.781,0,0,1,.008,1.077,1.264,1.264,0,0,1-.23.41,1.514,1.514,0,0,1-.359.309,2.228,2.228,0,0,1-.468.22,1.105,1.105,0,0,1,.263.159,1.275,1.275,0,0,1,.22.232,2.246,2.246,0,0,1,.193.31c.061.117.121.249.182.4l.526,1.284c.043.108.069.184.081.226A.369.369,0,0,1,1390.39,1520.68Zm-1.173-4.092a1.045,1.045,0,0,0-.154-.579.86.86,0,0,0-.517-.34,1.384,1.384,0,0,0-.256-.044c-.1-.01-.22-.013-.373-.013h-.658v1.963h.762a1.7,1.7,0,0,0,.532-.074,1.036,1.036,0,0,0,.374-.207.812.812,0,0,0,.22-.314A1.053,1.053,0,0,0,1389.217,1516.588Z" transform="translate(-1130.061 -765.885)" fill="#fff"/>
    <path id="Path_1305" data-name="Path 1305" d="M1421.915,1520.47a.86.86,0,0,1-.01.141.323.323,0,0,1-.031.1.171.171,0,0,1-.053.059.13.13,0,0,1-.066.018h-2.816a.314.314,0,0,1-.2-.071.291.291,0,0,1-.093-.246v-5.2a.3.3,0,0,1,.093-.246.325.325,0,0,1,.2-.071h2.783a.127.127,0,0,1,.066.018.118.118,0,0,1,.048.059.546.546,0,0,1,.03.1.778.778,0,0,1,.012.151.7.7,0,0,1-.012.141.443.443,0,0,1-.03.1.117.117,0,0,1-.048.056.131.131,0,0,1-.066.018h-2.294v1.828h1.968a.115.115,0,0,1,.066.02.163.163,0,0,1,.05.056.323.323,0,0,1,.03.1.969.969,0,0,1,.01.149.835.835,0,0,1-.01.139.314.314,0,0,1-.03.1.124.124,0,0,1-.116.069h-1.968v2.084h2.325a.128.128,0,0,1,.066.018.173.173,0,0,1,.053.056.267.267,0,0,1,.031.1A.852.852,0,0,1,1421.915,1520.47Z" transform="translate(-1156.915 -765.877)" fill="#fff"/>
  </g>
</svg>
