<svg xmlns="http://www.w3.org/2000/svg" xmlns:xlink="http://www.w3.org/1999/xlink" width="343" height="556.001" viewBox="0 0 343 556.001">
  <defs>
    <clipPath id="clip-path">
      <path id="Rectangle_655" data-name="Rectangle 655" d="M14.8,0H235.858a14.8,14.8,0,0,1,14.8,14.8V472.626a14.8,14.8,0,0,1-14.8,14.8H14.8A14.8,14.8,0,0,1,0,472.626V14.8A14.8,14.8,0,0,1,14.8,0Z" fill="none"/>
    </clipPath>
    <clipPath id="clip-path-2">
      <path id="Path_1876" data-name="Path 1876" d="M178.757,255.689S199.9,297,197.466,317.65,181.43,341.7,181.43,341.7s5.346,19.44,13.364,22.841c0,0,6.8,23.571-17.493,29.888s-39.122-19.925-39.122-19.925,2.673-10.691-2.916-25.271S127,327.612,127,327.612l6.074-13.121-2.916-7.047s-16.522.971-21.382-9.72-4.132-23.083,11.419-17.981l-4.374-14.094S142.552,275.127,178.757,255.689Z" transform="translate(-106.122 -255.689)" fill="none"/>
    </clipPath>
  </defs>
  <g id="Group_3311" data-name="Group 3311" transform="translate(-32 -76.001)">
    <g id="_1" data-name="1" transform="translate(98 112.246)">
      <g id="text" transform="translate(-66 -36.245)">
        <g id="Group_116" data-name="Group 116" transform="translate(72.775)">
          <path id="Path_1817" data-name="Path 1817" d="M158.055,130.873v5.894h-2.224a8.767,8.767,0,0,1-5.894-1.845,8.827,8.827,0,0,1-5.894,1.845h-5.7q-10.32,0-10.32-8.853t10.32-8.853h.971v5.917h-.971q-4.425,0-4.426,2.935,0,2.961,4.426,2.959h5.7q2.936,0,2.935-4.426v-7.385h5.894v7.434q.023,4.378,2.959,4.378Zm-17.4-13.468a2.946,2.946,0,0,1-2.083-5.042,2.838,2.838,0,0,1,2.083-.85,2.887,2.887,0,0,1,2.083.85,2.959,2.959,0,0,1-2.083,5.042Zm3.811-2.912a2.949,2.949,0,0,1,2.935-2.957,2.873,2.873,0,0,1,2.107.876,2.832,2.832,0,0,1,.852,2.081,2.947,2.947,0,1,1-5.894,0Z" transform="translate(-128.019 -111.512)" fill="#02aaf1"/>
          <path id="Path_1818" data-name="Path 1818" d="M158.975,130.29v5.894h-13.16V130.29h2.224q2.936,0,2.935-4.426V112.372h5.894v13.492a16.951,16.951,0,0,1-.522,4.426Z" transform="translate(-115.966 -110.93)" fill="#02aaf1"/>
          <path id="Path_1819" data-name="Path 1819" d="M188.609,130.29v5.894H153.576V130.29h5.065V112.372h5.917V123.8a15.951,15.951,0,0,1,3.67-1.894,11.243,11.243,0,0,1,3.692-.686h4.4q7.361,0,7.385,7.362v1.7Zm-16.689-3.172a7.051,7.051,0,0,0-4.047,1.184,4.8,4.8,0,0,0-1.089.995,1.588,1.588,0,0,0-.4.922v.07h11.432v-1.7a1.321,1.321,0,0,0-1.491-1.468Z" transform="translate(-110.71 -110.93)" fill="#02aaf1"/>
          <path id="Path_1820" data-name="Path 1820" d="M198.851,127.824v5.894H174.378v-5.894h7.668l-4.616-5.894h-.023v-5.917h7.053q10.32,0,10.32,8.853a11.614,11.614,0,0,1-.354,2.959Zm-15.5-5.894,4.143,5.327a2.5,2.5,0,0,0,1.4-2.392q0-2.934-4.426-2.935Z" transform="translate(-96.622 -108.464)" fill="#02aaf1"/>
          <path id="Path_1821" data-name="Path 1821" d="M196.591,119.061h5.9v7.385q0,10.32-8.854,10.32H188.9v-5.894h4.733q2.961,0,2.959-4.426Zm-2.554-1.657a2.964,2.964,0,0,1-2.085-5.042,3.006,3.006,0,0,1,4.19,0,2.973,2.973,0,0,1,0,4.166A2.872,2.872,0,0,1,194.036,117.4Zm8.851-4.993a2.832,2.832,0,0,1,.852,2.081,2.889,2.889,0,0,1-.852,2.085,2.958,2.958,0,0,1-5.04-2.085,2.945,2.945,0,0,1,5.04-2.081Z" transform="translate(-86.787 -111.512)" fill="#02aaf1"/>
        </g>
        <g id="Group_117" data-name="Group 117" transform="translate(37.712 36.687)">
          <path id="Path_1822" data-name="Path 1822" d="M150.785,160.66v8.569h-30.8q-12.871,0-12.871-15h8.569q0,6.438,4.3,6.436H131.1v-.034h3.234q4.267,0,4.269-6.4V134.611h8.6v19.614a23.6,23.6,0,0,1-.792,6.436Zm-16.622-4.025H120.156v-4.956h1.894a8.856,8.856,0,0,1,.55-3.234,8.7,8.7,0,0,1,11.115-5.127l.242.1.206.069-1.79,4.612-.344-.139a3.734,3.734,0,0,0-4.784,2.2,4.149,4.149,0,0,0-.206,1.513h7.123Z" transform="translate(-107.114 -132.511)" fill="#02aaf1"/>
          <path id="Path_1823" data-name="Path 1823" d="M144.253,144.337h8.569v10.736q0,15-12.871,15h-6.882v-8.569h6.882q4.3,0,4.3-6.436Zm-3.717-2.409a4.308,4.308,0,0,1-3.027-7.331,4.364,4.364,0,0,1,6.09,0,4.321,4.321,0,0,1,0,6.058A4.174,4.174,0,0,1,140.536,141.928Zm12.871-7.263a4.127,4.127,0,0,1,1.24,3.029,4.2,4.2,0,0,1-1.24,3.029,4.3,4.3,0,0,1-7.33-3.029,4.283,4.283,0,0,1,7.33-3.029Z" transform="translate(-89.536 -133.359)" fill="#02aaf1"/>
          <path id="Path_1824" data-name="Path 1824" d="M169.558,139.925v24.3a13.22,13.22,0,0,1-13.215,13.249,12.687,12.687,0,0,1-9.361-3.888l-.173-.173-.138-.138,6.263-5.884.1.138a4.508,4.508,0,0,0,3.3,1.377,4.4,4.4,0,0,0,3.269-1.377,4.509,4.509,0,0,0,1.375-3.3v-24.3Z" transform="translate(-80.323 -128.912)" fill="#02aaf1"/>
          <path id="Path_1825" data-name="Path 1825" d="M177.536,160.66v8.569h-3.2q-12.869,0-12.87-15V134.611h8.569v19.614q0,6.438,4.3,6.436Z" transform="translate(-70.304 -132.511)" fill="#02aaf1"/>
          <path id="Path_1826" data-name="Path 1826" d="M198.117,157.042v8.6h-3.234q-5.437,0-8.569-2.719-3.168,2.72-8.569,2.719h-6.883v-8.6h6.883q4.267,0,4.267-6.4V139.9h8.569v10.807q.033,6.332,4.3,6.332Zm-19.787,11.563a4.061,4.061,0,0,1,3.027,1.273,4.283,4.283,0,0,1-6.057,6.057,4.3,4.3,0,0,1,3.029-7.33Zm9.807.069a4.176,4.176,0,0,1,3.063,1.273,4.319,4.319,0,0,1,0,6.057,4.232,4.232,0,0,1-3.063,1.239,4.259,4.259,0,0,1-2.994-7.3A4.025,4.025,0,0,1,188.138,168.674Z" transform="translate(-63.94 -128.926)" fill="#02aaf1"/>
          <path id="Path_1827" data-name="Path 1827" d="M235.264,139.9V150.64q0,15-12.871,15H187.05v-8.569h7.469q4.3,0,4.3-6.436V139.9h8.567V150.64a23.671,23.671,0,0,1-.79,6.436h2.992q4.269,0,4.269-6.436V139.9h8.569V150.64a24.634,24.634,0,0,1-.758,6.436h.723q4.3,0,4.3-6.436V139.9Z" transform="translate(-52.977 -128.926)" fill="#02aaf1"/>
        </g>
        <path id="Path_1828" data-name="Path 1828" d="M84.315,137.846a18.545,18.545,0,0,0,1.221,6.892,31.047,31.047,0,0,0,3.019,5.778,46.406,46.406,0,0,0,3.977,5.141,57.794,57.794,0,0,1,3.977,4.983,30.282,30.282,0,0,1,3.019,5.3,13.367,13.367,0,0,1,.553,1.471,6.407,6.407,0,0,0,6.088,4.572h.74a6.254,6.254,0,0,0,6.055-8.039l-.023-.07a32.1,32.1,0,0,0-2.861-6.415,38.53,38.53,0,0,0-3.71-5.248q-2.015-2.385-3.713-4.718a30.458,30.458,0,0,1-2.861-4.772,12.621,12.621,0,0,1-1.167-5.511,10.473,10.473,0,0,1,.48-3.128,8.055,8.055,0,0,1,1.483-2.757,7.249,7.249,0,0,1,2.652-1.961,9.624,9.624,0,0,1,3.973-.743c.5,0,1.08.037,1.751.106s1.4.178,2.174.319a22.652,22.652,0,0,1,3.975,1.008q2.385.795,4.612,1.749l.052.023a4.876,4.876,0,0,0,6.712-3.343l.433-1.832a4.843,4.843,0,0,0-2.521-5.446l-.436-.218a43.464,43.464,0,0,0-5.246-2.172,58.486,58.486,0,0,0-6.2-1.751,30.293,30.293,0,0,0-6.679-.741,24.982,24.982,0,0,0-8.056,1.325,18.989,18.989,0,0,0-7.318,4.718,23.5,23.5,0,0,0-3.073,4.134,26.43,26.43,0,0,0-2.122,4.877A20.41,20.41,0,0,0,84.315,137.846Z" transform="translate(-84.315 -108.254)" fill="#e8bc05"/>
        <path id="Path_1829" data-name="Path 1829" d="M102.85,156.955a7.24,7.24,0,0,0-7.315,7.314,7.242,7.242,0,0,0,2.12,5.248,6.98,6.98,0,0,0,5.2,2.174,7.416,7.416,0,0,0,7.42-7.422,6.978,6.978,0,0,0-2.172-5.194A7.249,7.249,0,0,0,102.85,156.955Z" transform="translate(-76.716 -80.691)" fill="#e8bc05"/>
      </g>
      <g id="car" transform="translate(26.342 2.486)">
        <g id="Group_112" data-name="Group 112" transform="translate(48.75 97.364)">
          <path id="Path_1808" data-name="Path 1808" d="M149.82,305.334s-38.785-33.361-12.2-84.914c17.992-34.89,74.282-29.54,74.282-29.54s14.735,0,42.747-14.664c52.964-27.728,120.149,61.918,29.691,129.119Z" transform="translate(-128.307 -171.044)" fill="#b2dbea"/>
          <g id="Group_111" data-name="Group 111" transform="translate(153.984 41.733)">
            <path id="Path_1809" data-name="Path 1809" d="M253.565,201.983H220.114s.161-1.466,3.878-2.637,6.384,1.83,10.585,0,6.431-4.46,11.843-2.994A10.852,10.852,0,0,1,253.565,201.983Z" transform="translate(-220.114 -195.925)" fill="#fff"/>
          </g>
        </g>
        <g id="Group_115" data-name="Group 115" transform="translate(70.239 130.193)">
          <g id="Group_113" data-name="Group 113">
            <path id="Path_1810" data-name="Path 1810" d="M185.52,229.541a4.174,4.174,0,0,1,.837.931A7.867,7.867,0,0,0,185.52,229.541Z" transform="translate(-111.048 -164.255)" fill="#fff"/>
            <path id="Path_1811" data-name="Path 1811" d="M187.55,233.885a12.632,12.632,0,0,0-1.531-3.789A7.644,7.644,0,0,1,187.55,233.885Z" transform="translate(-110.71 -163.879)" fill="#fff"/>
            <path id="Path_1812" data-name="Path 1812" d="M145.827,214.74c-1.915,3.442,2.511,6.788,5.04,6.93s5.449-3.663,6.795-1.994a2.288,2.288,0,0,1,.124,3.024s-1.364-1.4-3.542.357a4.789,4.789,0,0,0-1.654,4.415s-3.237-.07-2.286,4.111,5.976,5.731,5.976,5.731-1.09.877-.468,3.608,5.679,3.016,5.679,3.016c2.12,4.366,6.3,1.843,6.3,1.843,5.736,4.059,7.581-1.724,7.581-1.724,3.217-.731,3.541-4.619,3.541-4.619,1.776,1.256,5.761-1.223,5.761-1.223l-1.776,1.751a2.89,2.89,0,0,0-2.33,2.147c-.455,1.9,1.459,3.584,1.459,3.584s-1.27,2.206,2.2,3.3,5.132-3.051,5.132-3.051-.439,2.434,4.44.874c2.675-.854,3.373-2.417,3.458-3.656a1.917,1.917,0,0,0,1.4,1.295c1.86.384,5.805-2.982,7.206-5.5a3.433,3.433,0,0,1,4.173-1.488c-1.55.981-.354,3.76-.354,3.76s-4.441,1.011-3.937,3.23-1.674,3.611-1.674,3.611-2.638-.577-3.675,1.285,1.409,3.271,1.409,3.271-2,1.665,1.6,4.213c5.433,3.844,9.465-3.089,12.184-.939-3.812-3.623-7.59,1.038-9.582-.371-1.728-1.223-2.439-2.227-.181-3.279a9.852,9.852,0,0,0,3.705-3.537s1.151.1,3.885-1.691.384-6.1.384-6.1,1.759-.76,1.535-5.285-3.769-4.529-3.769-4.529c.486-.874-2.1-3.2-3.7-2.12s-2.6,1.669-2.6,1.669c.715-1.285-1.417-1.563-1.417-1.563-1.515-6.657-5.475-2.883-5.475-2.883-3.663-7.6-17.433-.163-17.433-.163-.951-.673-2.31-.079-3.128.4a4.264,4.264,0,0,0,.362-2.647c3.073,2.174,11.243-5.1,11.243-5.1,3.136.332,4.257-1.115,4.257-1.115s2.429,5.012,7.286,2.291,1.508-8.242,1.508-8.242c1.171-8.036-4.945-7.222-4.945-7.222s-.156-.683-1.884-1.905a3.155,3.155,0,0,0-3.526.084s.567-2.462-2.9-7.777S179.07,197.3,179.07,197.3c-1.412-4.436-5.964-2.144-5.964-2.144-.127-3.742-5.064-1.721-5.064-1.721s-4.076-4.817-7.591-1.863-2.511,5.956-2.511,5.956-5.887-1.8-9.995,1.736-3.066,6.352-3.066,6.352-2.259-.023-3.569,4.134S145.827,214.74,145.827,214.74Zm12.43,10.843a6.3,6.3,0,0,0-.728,3.314c.3,1.32-.166,1.712-1.39,1.991s1.92,3.628,1.92,3.628-2.762-1.593-3.115-3.147.431-.887.924-1.669-.852-1.857.267-3.635S158.257,225.583,158.257,225.583Zm-8.688-23.574a7.677,7.677,0,0,1,5.594-1.827,5.73,5.73,0,0,0-4.755,4.326c-.315.5-.867-.362-.867-.362-1.349.307-.379,2.214-1.662,2.507S147.369,204.176,149.569,202.009Z" transform="translate(-141.119 -190.617)" fill="#fff"/>
          </g>
          <path id="Path_1813" data-name="Path 1813" d="M158.136,197.481s-1.8-1.962-4.034-1.454-2.033,2.157-2.033,2.157-3.621-.424-5.035,1.822a4,4,0,0,0-.394,4.014,3.015,3.015,0,0,0-1.917,3.4c.559,2.461,4.358,2.445,4.358,2.445s-3.973-2.008-2.887-3.735,1.932-1.328,1.932-1.328a3.219,3.219,0,0,1-.193-3.883c1.372-2.182,4.923-2.239,4.923-2.239S155.159,195.606,158.136,197.481Z" transform="translate(-138.733 -187.009)" fill="#e6e6e6"/>
          <path id="Path_1814" data-name="Path 1814" d="M169.943,218.044a3.322,3.322,0,0,1-1.9,4.134s.107,3.678-2.6,4.294a4.345,4.345,0,0,1-4.242-1.256,33.738,33.738,0,0,1-3.968.163,3.06,3.06,0,0,1-2.922-2.669s-3.757-.344-3.056-3.237c0,0,2.145,1.84,4.259,1.36,0,0,.517,4.077,6.052,2.819,0,0,.287,1.169,2.516.661a4.625,4.625,0,0,0,3.058-2.67S170.53,220.627,169.943,218.044Z" transform="translate(-134.31 -172.041)" fill="#e6e6e6"/>
          <path id="Path_1815" data-name="Path 1815" d="M158.2,213.2c1.2-2.326,4.384-2.155,5.208-1.957-.109-1.793,0-4.961,1.872-6.53,2.7-2.256,6.674.5,6.674.5s.652-4.1,4.641-3.926,4.359,4.512,4.359,4.512c.288,1.266,3.552,6.927,8.5,4.259,1.865-1.006,2.568-2.055,2.722-2.97a4.845,4.845,0,0,1-2.5,5.574c-4.857,2.72-7.286-2.291-7.286-2.291s-1.12,1.447-4.257,1.115c0,0-8.17,7.278-11.243,5.1a4.272,4.272,0,0,1-.359,2.64C163.409,219.623,155.928,217.617,158.2,213.2Z" transform="translate(-129.835 -183.396)" fill="#e6e6e6"/>
          <g id="Group_114" data-name="Group 114" transform="translate(41.741 45.551)">
            <path id="Path_1816" data-name="Path 1816" d="M171.262,226.628c-.335.533-3.749.112-4.23-2s2.922-3.75,3.484-1.286,5.847-2.194,5.847-2.194-.553,3,1.795,2.464a8.192,8.192,0,0,0,4.072-2.935s.153,1.972,2.873,1.354,3.7-3.712,5.694-4.166a3.311,3.311,0,0,1,3.19,1c-1.291.294-.765,2.888-.456,4.247s-.636,1.8-2.279,2.177-1.662,4.081-1.969,5.9-1.573-.309-3.682.171-.649,2.878-.649,2.878-2.445-1.407-1.409-3.271,3.675-1.285,3.675-1.285,2.179-1.392,1.674-3.611,3.937-3.23,3.937-3.23-1.2-2.779.354-3.76a3.433,3.433,0,0,0-4.173,1.488c-1.4,2.518-5.345,5.884-7.206,5.5a1.917,1.917,0,0,1-1.4-1.295c-.086,1.24-.783,2.8-3.459,3.656-4.879,1.56-4.44-.874-4.44-.874s-1.66,4.146-5.132,3.051A5.318,5.318,0,0,1,166,229.98a9.743,9.743,0,0,1,3.529-1.409C172.233,227.958,171.6,226.093,171.262,226.628Z" transform="translate(-166.005 -217.775)" fill="#e6e6e6"/>
          </g>
        </g>
        <ellipse id="Ellipse_21" data-name="Ellipse 21" cx="16.853" cy="2.386" rx="16.853" ry="2.386" transform="translate(149.22 277.892)" fill="#d4ebf5"/>
        <g id="Group_150" data-name="Group 150" clip-path="url(#clip-path)">
          <g id="Group_149" data-name="Group 149" transform="translate(86.309 108.921)">
            <rect id="Rectangle_654" data-name="Rectangle 654" width="39.749" height="0.914" transform="matrix(0.54, -0.842, 0.842, 0.54, 66.734, 90.621)" fill="#0c2d2d"/>
            <path id="Path_1830" data-name="Path 1830" d="M467.047,321.763H156.274s-2.177-36.737-2.177-41.227c0-2.752,3.412-7.343,12-8.968,0,0,86.508-12.667,92.9-17.566s45.719-65.311,45.719-65.311c-4.482-1.033-8.613-.305-6.278-3.47,3.63-4.919,70.217,3.822,80.161,5.511,9.383,1.593,61.576,11.417,56.943,17.267-1.089,1.427-3.47,1.1-3.47,1.1s13.879,34.56,17.553,38.369,15.649,8.029,17.417,12.247S475.891,303.19,467.047,321.763Z" transform="translate(-148.4 -174.005)" fill="#1c4391"/>
            <g id="Group_119" data-name="Group 119" transform="translate(6.069 115.511)">
              <path id="Path_1831" data-name="Path 1831" d="M466.9,279.05H156.124s-1.182-19.954-1.8-32.247H471.113C471.618,258.371,470.841,270.766,466.9,279.05Z" transform="translate(-154.319 -246.803)" fill="#2f54b2"/>
            </g>
            <path id="Path_1832" data-name="Path 1832" d="M397.055,242.2a2.582,2.582,0,0,1-2.271,3.573L225.814,253.26a2.888,2.888,0,0,1-2.554-4.45L262.344,188.2a2.89,2.89,0,0,1,2.521-1.322c11.3.357,78.41,3.136,117.282,19.547Z" transform="translate(-101.871 -171.876)" fill="#8cd9f2"/>
            <g id="Group_120" data-name="Group 120" transform="translate(5.697 104.919)">
              <path id="Path_1833" data-name="Path 1833" d="M170.142,257.026c-2.357,1.107-6.852,1.92-15.335.5-.393-7.283-.71-13.708-.71-15.422a4.5,4.5,0,0,1,.337-1.612C165.729,244.4,178.572,253.071,170.142,257.026Z" transform="translate(-154.097 -240.488)" fill="#ecd492"/>
            </g>
            <g id="Group_121" data-name="Group 121" transform="translate(313.578 83.915)">
              <path id="Path_1834" data-name="Path 1834" d="M341.4,227.965h0c3.229,2.07,4.634,19.267,4.757,21.251C333.452,250.205,337.786,229.785,341.4,227.965Z" transform="translate(-337.659 -227.965)" fill="#cb250c"/>
            </g>
            <g id="Group_124" data-name="Group 124" transform="translate(120.927 42.607)">
              <g id="Group_122" data-name="Group 122" transform="translate(0 12.867)">
                <path id="Path_1835" data-name="Path 1835" d="M241.32,220.972s-3.4-8.98,0-9.933,12.791,20.546,10.116,21.09-7.393-6.394-7.393-6.394a33.215,33.215,0,0,1,3.945,9.185,21.028,21.028,0,0,0-3.163,1.156l-19.01.842a2.888,2.888,0,0,1-2.554-4.45l8.854-13.732h0C238.146,217.455,241.32,220.972,241.32,220.972Z" transform="translate(-222.798 -211.009)" fill="#0cb0c1"/>
              </g>
              <g id="Group_123" data-name="Group 123" transform="translate(50.879)">
                <path id="Path_1836" data-name="Path 1836" d="M272.616,220.853c-11.7-15.139,12.519-17.516,12.519-17.516l-2.87,34.8-29.132,1.333C258.161,225.108,272.616,220.853,272.616,220.853Z" transform="translate(-253.133 -203.337)" fill="#0cb0c1"/>
                <path id="Path_1837" data-name="Path 1837" d="M312.73,222.157l.076,0,0,.007Z" transform="translate(-212.77 -190.593)" fill="#0cb0c1"/>
                <path id="Path_1838" data-name="Path 1838" d="M308.373,221.406c-3.079-3.747-13.9-12.321,3.1-18.069l5.88,32.084-26.108.951A25.381,25.381,0,0,1,308.373,221.406Z" transform="translate(-227.319 -203.337)" fill="#0cb0c1"/>
                <path id="Path_1839" data-name="Path 1839" d="M330.791,212.247c2.12,5.087,4.072,9.773,5.325,12.781a2.583,2.583,0,0,1-.2,2.378,2.552,2.552,0,0,1-.342.416l-22.794,1.043C316.588,211.534,330.791,212.247,330.791,212.247Z" transform="translate(-212.739 -197.306)" fill="#0cb0c1"/>
              </g>
            </g>
            <g id="Group_125" data-name="Group 125" transform="translate(315.363 92.586)">
              <path id="Path_1840" data-name="Path 1840" d="M343.884,233.135a124.434,124.434,0,0,1,1.557,12.579c-3.217.25-5.34-.876-6.66-2.721-.034-.384-.057-.773-.057-1.171C338.723,237.254,340.994,233.512,343.884,233.135Z" transform="translate(-338.723 -233.135)" fill="#e7410c"/>
            </g>
            <g id="Group_126" data-name="Group 126" transform="translate(135.482 15.503)" opacity="0.2">
              <path id="Path_1841" data-name="Path 1841" d="M267,188.007c22.655,2.018,38.436,4.29,38.436,4.29,40.009,11.38,65.472,38.5,65.472,38.5.465,1.11,4.113,9.866,4.669,11.2-48.812-35-112.23-52.5-121.075-54.826C258.094,187.377,262.314,187.647,267,188.007Z" transform="translate(-215.879 -187.177)" fill="#f2f2f2"/>
              <path id="Path_1842" data-name="Path 1842" d="M231.476,221.7l17.46-27.074c44.746,3.177,115.711,45.014,118.783,46.836l-51.839,2.3h-.017Z" transform="translate(-231.476 -182.129)" fill="#f2f2f2"/>
            </g>
            <g id="Group_127" data-name="Group 127" transform="translate(5.697 104.919)">
              <path id="Path_1843" data-name="Path 1843" d="M170.142,257.026c-2.357,1.107-6.852,1.92-15.335.5-.393-7.283-.71-13.708-.71-15.422a4.5,4.5,0,0,1,.337-1.612C165.729,244.4,178.572,253.071,170.142,257.026Z" transform="translate(-154.097 -240.488)" fill="#f2c161"/>
            </g>
            <g id="Group_128" data-name="Group 128" transform="translate(5.95 113.114)">
              <path id="Path_1844" data-name="Path 1844" d="M161.2,246.5a19.062,19.062,0,0,1,9.762,6.7,7.51,7.51,0,0,1-.917.512c-2.357,1.107-6.852,1.92-15.335.5-.173-3.227-.332-6.283-.456-8.839A22.131,22.131,0,0,1,161.2,246.5Z" transform="translate(-154.248 -245.374)" fill="#f2e58f"/>
            </g>
            <path id="Path_1845" data-name="Path 1845" d="M311.471,194.761c-4.97,4.347,4.014,43.579,11.633,51.606l-10.478.216c-2.375-14.423-6.652-44.847-15.1-55.188Z" transform="translate(-51.263 -168.817)" fill="#bd4959"/>
            <path id="Path_1846" data-name="Path 1846" d="M273.858,186.284c6.421,5.147-6.4,57.557-12.11,67.38l11.7-.708c-1.124-12.511,2.781-53.1,17.281-64.767Z" transform="translate(-75.492 -172.279)" fill="#bd4959"/>
            <g id="Group_129" data-name="Group 129" transform="translate(103.818 81.012)">
              <path id="Path_1847" data-name="Path 1847" d="M212.6,285.429h2.14a185.908,185.908,0,0,1,9.321-58.447l-2.006-.748A188.147,188.147,0,0,0,212.6,285.429Z" transform="translate(-212.598 -226.234)" fill="#263d84"/>
            </g>
            <g id="Group_130" data-name="Group 130" transform="translate(100.606 71.887)">
              <path id="Path_1848" data-name="Path 1848" d="M218.237,230.029l191.941-9.235a9.736,9.736,0,0,0,1.129,1.578l-200.624,9.747C213.858,231.366,216.443,230.661,218.237,230.029Z" transform="translate(-210.683 -220.794)" fill="#263d84"/>
            </g>
            <g id="Group_132" data-name="Group 132" transform="translate(243.121 87.889)">
              <ellipse id="Ellipse_22" data-name="Ellipse 22" cx="8.546" cy="2.349" rx="8.546" ry="2.349" fill="#0c969d"/>
              <g id="Group_131" data-name="Group 131" transform="translate(1.153 2.349)">
                <ellipse id="Ellipse_23" data-name="Ellipse 23" cx="7.393" cy="1.174" rx="7.393" ry="1.174" fill="#0c7471"/>
              </g>
            </g>
            <g id="Group_134" data-name="Group 134" transform="translate(163.26 87.889)">
              <ellipse id="Ellipse_24" data-name="Ellipse 24" cx="8.546" cy="2.349" rx="8.546" ry="2.349" fill="#a82945"/>
              <g id="Group_133" data-name="Group 133" transform="translate(1.153 2.349)">
                <ellipse id="Ellipse_25" data-name="Ellipse 25" cx="7.393" cy="1.174" rx="7.393" ry="1.174" fill="#871d33"/>
              </g>
            </g>
            <g id="Group_135" data-name="Group 135" transform="translate(112.846 67.707)">
              <path id="Path_1849" data-name="Path 1849" d="M219.984,228.8c1.535.9,3.2.907,3.71.027s-.315-2.321-1.85-3.217-3.2-.907-3.712-.027S218.448,227.9,219.984,228.8Z" transform="translate(-217.98 -213.814)" fill="#4b4353"/>
              <path id="Path_1850" data-name="Path 1850" d="M219.239,227.287l6.8-5.714.857,1.835s-4.748,3.219-6.11,7.412Z" transform="translate(-217.128 -216.086)" fill="#4b4353"/>
              <path id="Path_1851" data-name="Path 1851" d="M243.226,225.526c.433,5.337-24.495,7.216-20.37-4.218C225.508,213.956,242.936,221.957,243.226,225.526Z" transform="translate(-214.99 -218.302)" fill="#4b4353"/>
            </g>
            <g id="Group_136" data-name="Group 136" transform="translate(232.655 26.226)">
              <path id="Path_1852" data-name="Path 1852" d="M291.45,307.88c9.1-28.341,39.81-28.669,40.118-28.669h1.578l-.582-1.466C319.7,245.385,312.6,194.083,312.53,193.57l-2.123.288c.071.51,7.006,50.63,19.622,83.286-6.57.481-32.252,4.035-40.617,30.078Z" transform="translate(-289.412 -193.57)" fill="#a82945"/>
            </g>
            <g id="Group_137" data-name="Group 137" transform="translate(185.187 17.823)">
              <path id="Path_1853" data-name="Path 1853" d="M263.248,309.12c4.564-71.352,19.537-119.439,19.688-119.916l-2.043-.644c-.151.478-15.2,48.815-19.782,120.42Z" transform="translate(-261.111 -188.56)" fill="#a82945"/>
            </g>
            <g id="Group_138" data-name="Group 138" transform="translate(7.324 120.639)">
              <path id="Path_1854" data-name="Path 1854" d="M469.34,267.535a39.886,39.886,0,0,1-2.95,9.445H155.617s-.235-3.963-.55-9.445h49.405c8.046-25.1,39.231-21.984,45.579,0H391.7c4.836-18.977,34.416-27.517,45.227,0Z" transform="translate(-155.067 -249.86)" fill="#263d84"/>
            </g>
            <path id="Path_1855" data-name="Path 1855" d="M330.541,274.383h23.43c5-13.656,3.92-19.933,3.92-19.933H334.459Z" transform="translate(-28.902 -126.113)" fill="#e5d8c6"/>
            <g id="Group_139" data-name="Group 139" transform="translate(301.639 138.313)">
              <path id="Path_1856" data-name="Path 1856" d="M353.971,270.354h-23.43L332.5,260.4h24.436A77.526,77.526,0,0,1,353.971,270.354Z" transform="translate(-330.541 -260.398)" fill="#b7afbc"/>
            </g>
            <g id="Group_141" data-name="Group 141" transform="translate(244.343 123.37)">
              <ellipse id="Ellipse_26" data-name="Ellipse 26" cx="23.819" cy="20.659" rx="23.819" ry="20.659" transform="translate(0 47.568) rotate(-86.906)" fill="#655b6d"/>
              <g id="Group_140" data-name="Group 140" transform="translate(1.608 1.088)">
                <path id="Path_1857" data-name="Path 1857" d="M318.1,252.138c10.162.075,18.445,8.594,19.963,19.743H297.339C299.174,260.608,307.842,252.063,318.1,252.138Z" transform="translate(-297.339 -252.138)" fill="#4b4353"/>
              </g>
              <ellipse id="Ellipse_27" data-name="Ellipse 27" cx="14.432" cy="12.098" rx="14.432" ry="12.098" transform="translate(8.851 38.464) rotate(-86.05)" fill="#4b4353"/>
              <ellipse id="Ellipse_28" data-name="Ellipse 28" cx="13.749" cy="11.526" rx="13.749" ry="11.526" transform="matrix(0.069, -0.998, 0.998, 0.069, 9.469, 37.822)" fill="#988770"/>
              <path id="Path_1858" data-name="Path 1858" d="M316.084,290.479c11.414.084,20.867-10.508,21.115-23.658a27.054,27.054,0,0,0-.589-6.181,26.662,26.662,0,0,1,1.605,9.7c-.248,13.15-9.7,23.742-21.115,23.658-9.557-.07-17.455-7.61-19.624-17.782C300.541,284.562,307.668,290.417,316.084,290.479Z" transform="translate(-295.637 -245.29)" fill="#4b4353"/>
              <path id="Path_1859" data-name="Path 1859" d="M312.7,280.672c6.37.037,11.684-6.085,11.87-13.673a15.89,15.89,0,0,0-.612-4.78,15.529,15.529,0,0,1,1.429,6.969c-.186,7.588-5.5,13.71-11.868,13.673-4.958-.029-9.082-3.787-10.584-9.027C304.841,277.9,308.466,280.649,312.7,280.672Z" transform="translate(-291.94 -244.222)" fill="#81705c"/>
              <path id="Path_1860" data-name="Path 1860" d="M309.774,266.217c.555,2.98,2.58,5.1,4.519,4.74s3.063-3.071,2.506-6.051-2.581-5.1-4.52-4.74S309.217,263.238,309.774,266.217Z" transform="translate(-287.406 -245.64)" fill="#ecd492"/>
            </g>
            <g id="Group_143" data-name="Group 143" transform="translate(58.023 123.371)">
              <ellipse id="Ellipse_29" data-name="Ellipse 29" cx="23.819" cy="20.659" rx="23.819" ry="20.659" transform="matrix(0.054, -0.999, 0.999, 0.054, 0, 47.568)" fill="#655b6d"/>
              <g id="Group_142" data-name="Group 142" transform="translate(1.608 1.088)">
                <path id="Path_1861" data-name="Path 1861" d="M207.011,252.138c10.163.075,18.445,8.594,19.963,19.743H186.253C188.088,260.608,196.756,252.063,207.011,252.138Z" transform="translate(-186.253 -252.138)" fill="#4b4353"/>
              </g>
              <ellipse id="Ellipse_30" data-name="Ellipse 30" cx="14.432" cy="12.098" rx="14.432" ry="12.098" transform="matrix(0.069, -0.998, 0.998, 0.069, 8.851, 38.463)" fill="#4b4353"/>
              <ellipse id="Ellipse_31" data-name="Ellipse 31" cx="13.749" cy="11.526" rx="13.749" ry="11.526" transform="translate(9.468 37.822) rotate(-86.049)" fill="#988770"/>
              <path id="Path_1862" data-name="Path 1862" d="M205,290.479c11.414.084,20.867-10.508,21.115-23.658a27.056,27.056,0,0,0-.589-6.181,26.664,26.664,0,0,1,1.605,9.7c-.248,13.15-9.7,23.742-21.115,23.658-9.557-.07-17.455-7.61-19.624-17.782C189.455,284.562,196.582,290.417,205,290.479Z" transform="translate(-184.552 -245.291)" fill="#4b4353"/>
              <path id="Path_1863" data-name="Path 1863" d="M201.615,280.672c6.37.037,11.686-6.085,11.87-13.673a15.886,15.886,0,0,0-.612-4.78,15.529,15.529,0,0,1,1.429,6.969c-.184,7.588-5.5,13.71-11.868,13.673-4.958-.029-9.082-3.787-10.583-9.027C193.755,277.9,197.38,280.649,201.615,280.672Z" transform="translate(-180.854 -244.222)" fill="#81705c"/>
              <path id="Path_1864" data-name="Path 1864" d="M198.688,266.217c.555,2.98,2.58,5.1,4.52,4.74s3.061-3.071,2.5-6.051-2.581-5.1-4.52-4.74S198.131,263.238,198.688,266.217Z" transform="translate(-176.32 -245.64)" fill="#ecd492"/>
            </g>
            <g id="Group_144" data-name="Group 144" transform="translate(301.639 145.923)">
              <path id="Path_1865" data-name="Path 1865" d="M353.971,267.282h-23.43l.461-2.347h23.792C354.539,265.693,354.267,266.473,353.971,267.282Z" transform="translate(-330.541 -264.935)" fill="#877991"/>
            </g>
            <g id="Group_147" data-name="Group 147" transform="translate(0 127.847)">
              <path id="Path_1866" data-name="Path 1866" d="M201.07,274.091H154.718c-5-13.656-3.92-19.933-3.92-19.933h11.108s2.5,10.535,14.008,10.535h23.663Z" transform="translate(-150.7 -254.158)" fill="#e5d8c6"/>
              <g id="Group_145" data-name="Group 145" transform="translate(1.163 10.466)">
                <path id="Path_1867" data-name="Path 1867" d="M175.446,260.467h23.663l1.491,9.4H154.249a78.756,78.756,0,0,1-2.855-9.466h22.564C174.44,260.438,174.931,260.467,175.446,260.467Z" transform="translate(-151.394 -260.398)" fill="#b7afbc"/>
              </g>
              <g id="Group_146" data-name="Group 146" transform="translate(3.367 18.076)">
                <path id="Path_1868" data-name="Path 1868" d="M199.71,266.792H153.359c-.235-.641-.443-1.248-.651-1.857h46.708Z" transform="translate(-152.708 -264.935)" fill="#877991"/>
              </g>
            </g>
            <g id="Group_148" data-name="Group 148" transform="translate(149.371 12.61)">
              <path id="Path_1869" data-name="Path 1869" d="M239.95,186.059a.789.789,0,0,1-.19-.607c72.258,1.342,123.247,17.1,137.517,21.665a3.987,3.987,0,0,1-2.747.852l-.466-.03s-24.082-8.165-62.657-14.287-64.7-6.124-64.7-6.124Z" transform="translate(-239.757 -185.452)" fill="#263d84"/>
            </g>
            <path id="Path_1870" data-name="Path 1870" d="M233.057,261.146s-24.144-54.068-55.41-83.212a54.469,54.469,0,0,1,26.8,16.853c12.049,13.732,32.9,65.272,32.9,65.272Z" transform="translate(-132.451 -177.934)" fill="#1c4391"/>
            <path id="Path_1871" data-name="Path 1871" d="M180.793,178.858c29.1,27.727,51.809,76.493,54.224,81.791l-1.961.5s-24.144-54.068-55.41-83.212A32.322,32.322,0,0,1,180.793,178.858Z" transform="translate(-132.451 -177.934)" fill="#263d84"/>
          </g>
        </g>
      </g>
      <g id="person" transform="translate(-66 144.756)">
        <ellipse id="Ellipse_32" data-name="Ellipse 32" cx="127.815" cy="13.101" rx="127.815" ry="13.101" transform="translate(8.369 340.254)" fill="#d4ebf5"/>
        <path id="Path_1872" data-name="Path 1872" d="M159.577,321.693l-60.65,31.261A28.62,28.62,0,0,0,85.01,387.805l49.054,140.914H307.556L282.194,330.178l-66-18.447Z" transform="translate(-83.326 -170.603)" fill="#e7e7e7"/>
        <path id="Path_1873" data-name="Path 1873" d="M139.883,343.41S109.51,325.186,99.3,306.718,89.827,271,104.65,264.682c0,0,3.193-12.635,14.352-18.466s21.114-7.274,26.955-7.29c9.751-.025,13.591,2.17,20.654,3.4,0,0,54.187,10.934,25.028,29.159S139.883,343.41,139.883,343.41Z" transform="translate(-74.809 -238.926)" fill="#1e1e1e"/>
        <path id="Path_1874" data-name="Path 1874" d="M178.757,255.689S199.9,297,197.466,317.65,181.43,341.7,181.43,341.7s5.346,19.44,13.364,22.841c0,0-14.727,25.587-16.093,25.053-28.893-11.272-40.523-15.091-40.523-15.091s2.673-10.691-2.916-25.271S127,327.612,127,327.612l6.074-13.121-2.916-7.047s-16.522.971-21.382-9.72-4.132-23.083,11.419-17.981l-4.374-14.094S142.552,275.127,178.757,255.689Z" transform="translate(-61.938 -223.128)" fill="#ffc2bd"/>
        <g id="Group_153" data-name="Group 153" transform="translate(44.184 32.561)">
          <g id="Group_152" data-name="Group 152" clip-path="url(#clip-path-2)">
            <path id="Path_1875" data-name="Path 1875" d="M177.04,283.46s-2.747,24.785-16.718,27.458S128,300.1,128,300.1s13,66.821,42.523,64.026S177.04,283.46,177.04,283.46Z" transform="translate(-85.499 -229.517)" opacity="0.1"/>
          </g>
        </g>
        <path id="Path_1877" data-name="Path 1877" d="M141.4,352.226l59.411,48.84v-80.55H232.88l11.787,130.171c1.688,18.655-19.144,30.818-34.559,20.178L97.832,405.473c-12.3-7.8-19.848-38.761-9.805-51.707C96.257,343.153,112.247,331.083,141.4,352.226Z" transform="translate(-83.369 -162.242)" fill="#e7e7e7"/>
        <path id="Path_1878" data-name="Path 1878" d="M173.277,410.1H144.345c-7.533,0-38.149-6.736-41.064-3.821S121.99,417.7,121.99,417.7s-36.447,12.15-35.231,17.738,35.476-7.775,35.476-7.775-34.262,15.551-32.318,19.925,33.775-11.179,33.775-11.179S96.233,452.45,97.935,456.1s30.373-10.691,30.373-10.691-15.287,10.269-14.094,11.462,11.179-1.014,22.355-5.874,35.771-14.376,43.642-14.376Z" transform="translate(-80.203 -82.186)" fill="#ffc2bd"/>
        <path id="Path_1879" data-name="Path 1879" d="M233.228,320.864c-7.8.14-18.177,6.493-24.434,35.105a72.733,72.733,0,0,0,6.451,48.9l28.4,54.988L130.6,487.068l8.261,31.588,132.468-16.9a21.118,21.118,0,0,0,17.843-25.382c-8.121-37.671-25.683-113.033-42.939-147.279A14.523,14.523,0,0,0,233.228,320.864Z" transform="translate(-38.897 -161.998)" fill="#e7e7e7"/>
        <path id="Path_1880" data-name="Path 1880" d="M162.36,407.2,87.865,361.322,91,370.33Z" transform="translate(-79.132 -123.788)" fill="#e7e7e7" style="mix-blend-mode: multiply;isolation: isolate"/>
        <path id="Path_1881" data-name="Path 1881" d="M131.938,420.677l106.655-21.84-6.467-4.912Z" transform="translate(-37.622 -93.142)" fill="#dbdbdb"/>
        <path id="Path_1882" data-name="Path 1882" d="M177.105,352.224l12.073,80.707,6.453,4.986Z" transform="translate(4.938 -132.373)" fill="#dbdbdb"/>
        <g id="Group_154" data-name="Group 154" transform="translate(110.545 162.869)">
          <rect id="Rectangle_656" data-name="Rectangle 656" width="9.484" height="46.599" transform="translate(0.584 2.064) rotate(-8.973)" fill="#c2c2c2"/>
          <path id="Path_1883" data-name="Path 1883" d="M157.6,370.038l-9.368,1.48a.582.582,0,0,1-.666-.486L140.3,325a.585.585,0,0,1,.486-.67l9.368-1.478a.581.581,0,0,1,.664.486l7.269,46.029A.581.581,0,0,1,157.6,370.038Zm-8.974.235,8.214-1.3L149.755,324.1l-8.214,1.3Z" transform="translate(-140.29 -322.849)" fill="#848383"/>
        </g>
        <g id="Group_158" data-name="Group 158" transform="translate(115.551 177.843)">
          <g id="Group_155" data-name="Group 155">
            <path id="Path_1884" data-name="Path 1884" d="M148.5,333.127a2.682,2.682,0,1,1-3.069-2.234A2.685,2.685,0,0,1,148.5,333.127Z" transform="translate(-142.584 -330.278)" fill="#fff"/>
            <path id="Path_1885" data-name="Path 1885" d="M146.643,337.053a3.266,3.266,0,1,1,2.717-3.735A3.268,3.268,0,0,1,146.643,337.053Zm-.837-5.3a2.1,2.1,0,1,0,2.4,1.748A2.1,2.1,0,0,0,145.806,331.752Z" transform="translate(-142.867 -330.56)" fill="#c9c9c8"/>
          </g>
          <g id="Group_156" data-name="Group 156" transform="translate(1.816 11.505)">
            <path id="Path_1886" data-name="Path 1886" d="M149.437,339.05a2.683,2.683,0,1,1-3.069-2.232A2.684,2.684,0,0,1,149.437,339.05Z" transform="translate(-143.519 -336.199)" fill="#fff"/>
            <path id="Path_1887" data-name="Path 1887" d="M147.58,342.98a3.268,3.268,0,1,1,2.715-3.737A3.269,3.269,0,0,1,147.58,342.98Zm-.837-5.3a2.1,2.1,0,1,0,2.4,1.746A2.1,2.1,0,0,0,146.743,337.679Z" transform="translate(-143.802 -336.483)" fill="#c9c9c8"/>
          </g>
          <g id="Group_157" data-name="Group 157" transform="translate(3.634 23.014)">
            <path id="Path_1888" data-name="Path 1888" d="M150.371,344.975a2.682,2.682,0,1,1-3.069-2.232A2.686,2.686,0,0,1,150.371,344.975Z" transform="translate(-144.455 -342.124)" fill="#fff"/>
            <path id="Path_1889" data-name="Path 1889" d="M148.514,348.9a3.266,3.266,0,1,1,2.717-3.733A3.266,3.266,0,0,1,148.514,348.9Zm-.837-5.3a2.1,2.1,0,1,0,2.4,1.748A2.1,2.1,0,0,0,147.677,343.6Z" transform="translate(-144.738 -342.408)" fill="#c9c9c8"/>
          </g>
        </g>
        <path id="Path_1890" data-name="Path 1890" d="M173.931,319.032l-27.339,30.9-4.785-25.522,28.251-20.116Z" transform="translate(-28.317 -177.433)" fill="#c2c2c2" stroke="#757575" stroke-miterlimit="10" stroke-width="0.25"/>
        <path id="Path_1891" data-name="Path 1891" d="M123.238,325.674l41.6,17.858-4.614-24.848-39.4-8.1Z" transform="translate(-48.081 -171.507)" fill="#c2c2c2" stroke="#757575" stroke-miterlimit="10" stroke-width="0.25"/>
        <path id="Path_1892" data-name="Path 1892" d="M158.267,366.7s-.73-18.589-5.833-25.15S126.058,316.88,130.2,310.486c3.372-5.206,8.566,9.737,26.972,8.1s20.417-36.63,20.417-36.63,2.636-6.927,5.917-.639,1.094,25.879,1.094,25.879,8.2-2.916,8.657,9.66c0,0,8.564,1.548,6.468,10.66,0,0,7.016.728,5.742,7.927s-14.58,17.5-17.4,31.255Z" transform="translate(-39.755 -201.542)" fill="#ffc2bd"/>
        <path id="Path_1893" data-name="Path 1893" d="M141.566,353.757,200.976,402.6V322.047h32.075l11.785,130.172c1.688,18.655-19.142,30.818-34.557,20.178L98,407.006c-12.3-7.8-19.848-38.761-9.807-51.707C96.428,344.686,112.418,332.614,141.566,353.757Z" transform="translate(-83.208 -160.803)" fill="#dbdbdb"/>
      </g>
    </g>
  </g>
</svg>
