<svg xmlns="http://www.w3.org/2000/svg" width="113.028" height="160.436" viewBox="0 0 113.028 160.436">
  <g id="Group_1" data-name="Group 1" transform="translate(-1512 81)">
    <path id="Path_13236" data-name="Path 13236" d="M83.371,234.688l-27.338,14a12.791,12.791,0,0,0-6.273,15.614l22.112,63.129h78.2L138.642,238.49l-29.75-8.265Z" transform="translate(1463 -248)" fill="#e7e7e7"/>
    <path id="Path_13237" data-name="Path 13237" d="M78.333,213.809s-13.691-8.164-18.293-16.438-4.27-16,2.412-18.832c0,0,1.439-5.661,6.469-8.273A27.359,27.359,0,0,1,81.071,167c4.4-.011,6.126.972,9.31,1.523,0,0,24.425,4.9,11.281,13.064S78.333,213.809,78.333,213.809Z" transform="translate(1463 -248)" fill="#1e1e1e"/>
    <path id="Path_13238" data-name="Path 13238" d="M101.657,181.587s9.531,18.508,8.434,27.759-7.229,10.774-7.229,10.774,2.41,8.71,6.024,10.233c0,0-6.638,11.463-7.254,11.224-13.024-5.05-18.266-6.761-18.266-6.761s1.2-4.789-1.314-11.321-3.724-9.686-3.724-9.686l2.738-5.878-1.314-3.157s-7.447.435-9.638-4.355-1.862-10.341,5.147-8.055l-1.972-6.314S85.338,190.3,101.657,181.587Z" transform="translate(1463 -248)" fill="#ffc2bd"/>
    <path id="Path_13239" data-name="Path 13239" d="M110.179,205.754s-1.238,11.1-7.535,12.3-14.57-4.846-14.57-4.846,5.86,29.935,19.168,28.683S110.179,205.754,110.179,205.754Z" transform="translate(1463 -248)" opacity="0.1"/>
    <path id="Path_13240" data-name="Path 13240" d="M75.158,252.113l26.78,21.88V237.907h14.456l5.313,58.316a9.958,9.958,0,0,1-15.578,9.04l-50.609-29.3c-5.544-3.495-8.947-17.365-4.42-23.165C54.81,248.048,62.017,242.641,75.158,252.113Z" transform="translate(1463 -248)" fill="#e7e7e7"/>
    <path id="Path_13241" data-name="Path 13241" d="M136.6,238.172c-3.516.063-8.194,2.909-11.014,15.727a32.4,32.4,0,0,0,2.908,21.907l12.8,24.635L90.336,312.632l3.724,14.151,59.711-7.571a9.528,9.528,0,0,0,6.525-3.937,9.419,9.419,0,0,0,1.518-7.434c-3.661-16.877-11.577-50.639-19.355-65.981a6.554,6.554,0,0,0-5.862-3.688Z" transform="translate(1463 -248)" fill="#e7e7e7"/>
    <path id="Path_13242" data-name="Path 13242" d="M86.516,293.969,52.937,273.415l1.413,4.036Z" transform="translate(1463 -248)" fill="#e7e7e7"/>
    <path id="Path_13243" data-name="Path 13243" d="M91.514,313.736l48.076-9.784-2.915-2.2Z" transform="translate(1463 -248)" fill="#dbdbdb"/>
    <path id="Path_13244" data-name="Path 13244" d="M131.058,265.493,136.5,301.65l2.908,2.234Z" transform="translate(1463 -248)" fill="#dbdbdb"/>
    <path id="Path_13245" data-name="Path 13245" d="M103.315,240.227l-4.222.663,3.276,20.621,4.222-.663Z" transform="translate(1463 -248)" fill="#c2c2c2"/>
    <path id="Path_13246" data-name="Path 13246" d="M106.632,261.106l-4.223.663a.251.251,0,0,1-.1,0,.264.264,0,0,1-.093-.043.257.257,0,0,1-.1-.171l-3.275-20.622a.261.261,0,0,1,.047-.2.263.263,0,0,1,.076-.07.257.257,0,0,1,.1-.035l4.223-.662a.261.261,0,0,1,.195.047.26.26,0,0,1,.069.075.252.252,0,0,1,.035.1l3.276,20.621a.257.257,0,0,1-.122.265.263.263,0,0,1-.1.035Zm-4.045.105,3.7-.582-3.193-20.1-3.7.582Z" transform="translate(1463 -248)" fill="#848383"/>
    <path id="Path_13247" data-name="Path 13247" d="M103.753,247.95a1.2,1.2,0,0,1-.565,1.211,1.212,1.212,0,0,1-1.341-.053,1.2,1.2,0,0,1,.522-2.159,1.216,1.216,0,0,1,.9.216,1.2,1.2,0,0,1,.484.785Z" transform="translate(1463 -248)" fill="#fff"/>
    <path id="Path_13248" data-name="Path 13248" d="M102.788,249.583a1.474,1.474,0,0,1-1.485-.682,1.461,1.461,0,0,1,.747-2.137,1.479,1.479,0,0,1,1.59.381,1.454,1.454,0,0,1,.109,1.853,1.475,1.475,0,0,1-.961.585Zm-.377-2.375a.95.95,0,0,0-.5.238A.937.937,0,0,0,102,248.9a.95.95,0,0,0,1.417-.366.94.94,0,0,0-.3-1.155.949.949,0,0,0-.7-.169Z" transform="translate(1463 -248)" fill="#c9c9c8"/>
    <path id="Path_13249" data-name="Path 13249" d="M104.572,253.1a1.2,1.2,0,0,1-.563,1.213,1.215,1.215,0,0,1-1.343-.053,1.2,1.2,0,0,1-.423-.557,1.2,1.2,0,0,1,.314-1.3,1.211,1.211,0,0,1,2.015.695Z" transform="translate(1463 -248)" fill="#fff"/>
    <path id="Path_13250" data-name="Path 13250" d="M103.607,254.739a1.476,1.476,0,0,1-1.487-.681,1.458,1.458,0,0,1,.064-1.626,1.479,1.479,0,0,1,2.274-.133,1.458,1.458,0,0,1,.11,1.854,1.477,1.477,0,0,1-.961.586Zm-.377-2.375a.953.953,0,0,0-.5.238.938.938,0,0,0,.085,1.452.95.95,0,0,0,1.417-.366.944.944,0,0,0-1.007-1.324Z" transform="translate(1463 -248)" fill="#c9c9c8"/>
    <path id="Path_13251" data-name="Path 13251" d="M105.391,258.261a1.2,1.2,0,0,1-.564,1.212,1.21,1.21,0,0,1-1.765-.609,1.2,1.2,0,0,1,.314-1.3,1.211,1.211,0,0,1,1.531-.089,1.209,1.209,0,0,1,.484.784Z" transform="translate(1463 -248)" fill="#fff"/>
    <path id="Path_13252" data-name="Path 13252" d="M104.426,259.892a1.471,1.471,0,0,1-1.485-.681,1.46,1.46,0,0,1,.747-2.137,1.48,1.48,0,0,1,1.591.381,1.461,1.461,0,0,1-.853,2.437Zm-.377-2.374a.953.953,0,0,0-.5.238.935.935,0,0,0-.247,1.016.946.946,0,1,0,.742-1.254Z" transform="translate(1463 -248)" fill="#c9c9c8"/>
    <path id="Path_13253" data-name="Path 13253" d="M114.637,230.436,102.314,244.28l-2.157-11.434,12.734-9.012Z" transform="translate(1463 -248)" fill="#c2c2c2" stroke="#757575" stroke-miterlimit="10" stroke-width="0.25"/>
    <path id="Path_13254" data-name="Path 13254" d="M82.878,236.067l18.751,8L99.55,232.935l-17.76-3.628Z" transform="translate(1463 -248)" fill="#c2c2c2" stroke="#757575" stroke-miterlimit="10" stroke-width="0.25"/>
    <path id="Path_13255" data-name="Path 13255" d="M102.421,240.991s-.329-8.328-2.63-11.267S87.9,218.672,89.769,215.807c1.52-2.332,3.861,4.362,12.158,3.629s9.2-16.41,9.2-16.41,1.188-3.1,2.667-.287.493,11.594.493,11.594,3.7-1.306,3.9,4.328a3.708,3.708,0,0,1,2.915,4.775,2.887,2.887,0,0,1,2.588,3.552c-.574,3.225-6.572,7.84-7.843,14Z" transform="translate(1463 -248)" fill="#ffc2bd"/>
    <path id="Path_13256" data-name="Path 13256" d="M75.306,253.444l26.779,21.881V239.237h14.458l5.312,58.317a9.957,9.957,0,0,1-15.576,9.04L55.668,277.3c-5.544-3.494-8.947-17.365-4.421-23.165C54.959,249.38,62.167,243.971,75.306,253.444Z" transform="translate(1463 -248)" fill="#dbdbdb"/>
  </g>
</svg>
