<svg xmlns="http://www.w3.org/2000/svg" width="35" height="35" viewBox="0 0 35 35">
  <g id="Group_3330" data-name="Group 3330" transform="translate(-0.23 -0.438)">
    <path id="Path_13336" data-name="Path 13336" d="M7.879,6.945l-.023-.006H.831l.072-.7C1.159,3.751,2.861,1.074,6,1.074H8.651v6Z" fill="#1caaf1"/>
    <path id="Path_13337" data-name="Path 13337" d="M14.811,34.8c-3.317,0-6.16-3.468-6.16-6.306V1.074H23.3c1.991,0,4.4,1.635,4.4,3.666v23.4c0,.021.009.042.012.063l.11.732H21.406C21.406,31.841,18.077,34.8,14.811,34.8Z" fill="#fff"/>
    <path id="Path_13338" data-name="Path 13338" d="M16.71,34.8l1.768-1.168a6.271,6.271,0,0,0,2.89-4.147l.076-.55H34.63l-.072.7C34.3,32.124,32.6,34.8,29.466,34.8H16.71Z" fill="#efc12c"/>
    <path id="Path_13339" data-name="Path 13339" d="M29.466,35.438H14.811a.637.637,0,0,1,0-1.274c2.9,0,5.958-2.688,5.958-5.229a.636.636,0,0,1,.636-.637H34.594a.636.636,0,0,1,.636.637C35.23,32.088,33.21,35.438,29.466,35.438ZM18.829,34.164H29.466c2.674,0,4.22-2.262,4.459-4.592H22A6.938,6.938,0,0,1,18.829,34.164Z"/>
    <path id="Path_13340" data-name="Path 13340" d="M7.918,7.576H.867A.636.636,0,0,1,.23,6.939C.23,3.787,2.251.438,6,.438H23.3a.637.637,0,0,1,0,1.274H6c-2.675,0-4.221,2.262-4.46,4.591H7.918a.637.637,0,0,1,0,1.274Z"/>
    <path id="Path_13341" data-name="Path 13341" d="M14.811,35.438c-3.764,0-6.8-3.8-6.8-6.943V1.074a.636.636,0,1,1,1.273,0v27.42c0,2.5,2.6,5.669,5.524,5.669a.637.637,0,0,1,0,1.274Z"/>
    <path id="Path_13342" data-name="Path 13342" d="M27.7,28.839a.636.636,0,0,1-.636-.637V4.74a.636.636,0,1,1,1.273,0V28.2A.636.636,0,0,1,27.7,28.839Z"/>
    <path id="Path_13343" data-name="Path 13343" d="M27.7,5.377a.636.636,0,0,1-.636-.637c0-1.631-2.068-3.029-3.76-3.029a.637.637,0,0,1,0-1.274c2.327,0,5.032,1.879,5.032,4.3A.636.636,0,0,1,27.7,5.377Z"/>
    <path id="Path_13344" data-name="Path 13344" d="M25.271,21.568H22.3V20.295h2.967Z"/>
    <path id="Path_13345" data-name="Path 13345" d="M25.271,25.133H22.3V23.86h2.967Z"/>
    <path id="Path_13346" data-name="Path 13346" d="M16.555,7.3H11.03V6.029h5.525Z"/>
    <path id="Path_13347" data-name="Path 13347" d="M25.271,10.869H22.3V9.6h2.967Z"/>
    <path id="Path_13348" data-name="Path 13348" d="M25.271,14.435H22.3V13.161h2.967Z"/>
    <path id="Path_13349" data-name="Path 13349" d="M25.271,18H22.3V16.728h2.967Z"/>
    <path id="Path_13350" data-name="Path 13350" d="M19.337,10.869H11.03V9.6h8.308Z"/>
    <path id="Path_13351" data-name="Path 13351" d="M19.337,14.435H11.03V13.161h8.308Z"/>
    <path id="Path_13352" data-name="Path 13352" d="M19.337,18H11.03V16.728h8.308Z"/>
    <path id="Path_13353" data-name="Path 13353" d="M19.337,21.568H11.03V20.295h8.308Z"/>
    <path id="Path_13354" data-name="Path 13354" d="M19.337,25.133H11.03V23.86h8.308Z"/>
  </g>
</svg>
