<svg width="25" height="24" viewBox="0 0 25 24" fill="none" xmlns="http://www.w3.org/2000/svg">
<path d="M21.9609 6L18.9609 2H6.96094L3.96094 6M21.9609 6V20C21.9609 20.5304 21.7502 21.0391 21.3752 21.4142C21.0001 21.7893 20.4914 22 19.9609 22H5.96094C5.4305 22 4.9218 21.7893 4.54672 21.4142C4.17165 21.0391 3.96094 20.5304 3.96094 20V6M21.9609 6H3.96094M8.96094 10C8.96094 11.0609 9.38236 12.0783 10.1325 12.8284C10.8827 13.5786 11.9001 14 12.9609 14C14.0218 14 15.0392 13.5786 15.7894 12.8284C16.5395 12.0783 16.9609 11.0609 16.9609 10" stroke="#8A8A8A" stroke-width="1.5" stroke-linecap="round" stroke-linejoin="round"/>
</svg>
