<svg width="24" height="24" viewBox="0 0 24 24" fill="none" xmlns="http://www.w3.org/2000/svg">
<path opacity="0.3" fill-rule="evenodd" clip-rule="evenodd" d="M9.49943 16.5016C9.17825 16.6714 9.16071 16.7342 9.13212 17.8181C9.10395 18.8875 9.07389 19.0217 8.79746 19.3131C8.61043 19.5102 8.23989 19.6874 8.01329 19.6879C7.64995 19.6889 7.32198 19.9421 7.26065 20.269C7.21581 20.5081 7.34876 20.8185 7.55643 20.9596C7.86242 21.1675 8.57173 21.0891 9.1577 20.7825C9.49888 20.604 9.99087 20.1227 10.1887 19.774C10.451 19.3116 10.52 18.92 10.52 17.8946C10.52 17.0786 10.5109 16.9743 10.4249 16.7965C10.3558 16.6538 10.2759 16.5739 10.1332 16.5048C9.89163 16.3879 9.71634 16.387 9.49943 16.5016ZM11.6562 16.5143C11.3038 16.7163 11.305 16.7086 11.3051 18.741C11.3052 20.7502 11.3062 20.7569 11.6236 20.969C11.9524 21.1886 12.4304 21.0599 12.6095 20.7034C12.6823 20.5587 12.6903 20.3642 12.6903 18.741C12.6904 17.0751 12.684 16.9272 12.6048 16.7784C12.5008 16.5828 12.217 16.4112 11.9977 16.4112C11.9088 16.4112 11.7552 16.4576 11.6562 16.5143ZM13.8588 16.5057C13.7203 16.5743 13.6378 16.6577 13.5702 16.7973C13.4846 16.9741 13.4755 17.0799 13.4755 17.8946C13.4755 18.92 13.5445 19.3116 13.8068 19.774C14.0046 20.1227 14.4966 20.604 14.8378 20.7825C15.4237 21.0891 16.1331 21.1675 16.439 20.9596C16.6467 20.8185 16.7797 20.5081 16.7348 20.269C16.6735 19.9421 16.3455 19.6889 15.9822 19.6879C15.7556 19.6874 15.385 19.5102 15.198 19.3131C14.9216 19.0217 14.8915 18.8875 14.8634 17.8181C14.8346 16.7286 14.8174 16.6683 14.4862 16.4994C14.261 16.3845 14.1005 16.3861 13.8588 16.5057Z" fill="white"/>
<path fill-rule="evenodd" clip-rule="evenodd" d="M2.4457 3.13125C2.31044 3.16399 2.02182 3.27893 1.80431 3.38671C1.11426 3.72867 0.591827 4.34083 0.306346 5.14195L0.199395 5.44211L0.185356 9.21174C0.169516 13.4541 0.163328 13.3599 0.504271 14.0546C0.86267 14.7848 1.58561 15.3793 2.39144 15.6063C2.54189 15.6487 2.93248 15.6884 3.34966 15.7036L4.0539 15.7294L4.05459 14.7188C4.05538 13.5677 4.09615 13.3117 4.36653 12.7615C4.61572 12.2545 5.14595 11.7309 5.67018 11.4743C6.36864 11.1324 6.08852 11.1469 11.9968 11.1469C17.905 11.1469 17.6249 11.1324 18.3233 11.4743C18.8476 11.7309 19.3778 12.2545 19.627 12.7615C19.8974 13.3117 19.9381 13.5677 19.9389 14.7188L19.9396 15.7294L20.6439 15.7036C21.061 15.6884 21.4516 15.6487 21.6021 15.6063C22.4079 15.3793 23.1308 14.7848 23.4892 14.0546C23.8302 13.3599 23.824 13.4541 23.8082 9.21174L23.7941 5.44211L23.6872 5.14195C23.3933 4.31737 22.8731 3.71851 22.1486 3.37087C21.9115 3.25709 21.6074 3.1415 21.4728 3.11393C21.0884 3.03529 2.77339 3.05196 2.4457 3.13125ZM17.0127 5.81441C17.3425 6.06096 17.4345 6.41668 17.2509 6.73514C17.0734 7.04306 16.9301 7.08693 16.1529 7.0716C15.5674 7.06005 15.4679 7.0468 15.3607 6.96603C15.0328 6.71893 14.9794 6.27828 15.2376 5.94999C15.4103 5.73041 15.5588 5.69499 16.2536 5.70769C16.809 5.7178 16.9008 5.73069 17.0127 5.81441ZM20.3081 5.77701C20.3965 5.82138 20.5178 5.93046 20.5778 6.01935C20.7263 6.23977 20.7056 6.65077 20.537 6.83123C20.328 7.05502 20.2219 7.08148 19.5331 7.08148C18.9426 7.08148 18.8786 7.07308 18.7342 6.97665C18.2913 6.68078 18.3303 6.02416 18.8047 5.78934C19.0647 5.66068 20.0603 5.65251 20.3081 5.77701ZM6.69125 12.5806C6.23989 12.6692 5.76 13.0508 5.56881 13.4731C5.46999 13.6914 5.46131 13.7802 5.44759 14.7126L5.43282 15.717H11.9968H18.5607L18.5459 14.7126C18.5322 13.7802 18.5235 13.6914 18.4247 13.4731C18.3029 13.2041 17.971 12.8597 17.6988 12.72C17.5966 12.6675 17.4016 12.6034 17.2654 12.5776C16.9589 12.5195 6.988 12.5223 6.69125 12.5806Z" fill="white"/>
</svg>
