<svg width="30" height="30" viewBox="0 0 30 30" fill="none" xmlns="http://www.w3.org/2000/svg">
<path d="M21.9997 0.5H7.99969C3.85756 0.5 0.499695 3.85786 0.499695 8V22C0.499695 26.1421 3.85756 29.5 7.99969 29.5H21.9997C26.1418 29.5 29.4997 26.1421 29.4997 22V8C29.4997 3.85786 26.1418 0.5 21.9997 0.5Z" fill="#1CAAF1" stroke="#E8BC05"/>
<path d="M22.2846 14.2084L7.65918 14.2084L7.65918 21.9303L24.9438 21.9303L24.9438 17.297L20.955 17.297L20.955 20.3858L19.6254 20.3858L19.6254 17.297L12.9775 17.297L12.9775 20.3858L11.6479 20.3858L11.6479 17.297L10.3183 17.297L10.3183 20.3858L8.98876 20.3858L8.98876 15.7525L24.9438 15.7525L24.9438 14.2081L22.2846 14.2081L22.2846 14.2084ZM22.2846 18.8413L23.6142 18.8413L23.6142 20.3857L22.2846 20.3857L22.2846 18.8413ZM14.3074 18.8413L18.2961 18.8413L18.2961 20.3857L14.3073 20.3857L14.3074 18.8413Z" fill="white"/>
<path d="M23.6139 8.07428L23.6139 11.1631L8.98876 11.1631L8.98876 9.61867L22.2843 9.61867L22.2843 8.07428L7.65918 8.07428L7.65918 12.7073L24.9432 12.7073L24.9432 8.07428L23.6139 8.07428Z" fill="white"/>
<path d="M22.2842 23.4615L6.32931 23.4615L6.32931 6.53845L22.2843 6.53846L22.2843 5L5.65804 5C5.48378 4.99964 5.31652 5.07969 5.19306 5.22255C5.0696 5.36541 5.00005 5.55938 4.99969 5.7618L4.99969 24.2382C5.00005 24.4407 5.0696 24.6346 5.19306 24.7775C5.31652 24.9203 5.48378 25.0004 5.65804 25L24.2851 25C24.4593 25.0004 24.6266 24.9203 24.75 24.7775C24.8735 24.6346 24.9431 24.4407 24.9434 24.2382L24.9434 23.4615L22.2842 23.4615Z" fill="white"/>
<path d="M24.9997 6.55294L23.67 6.55294L23.67 5.00848L24.3415 5.00848C24.4279 5.00846 24.5135 5.02822 24.5934 5.06662C24.6732 5.10503 24.7458 5.16134 24.8069 5.23232C24.868 5.30331 24.9165 5.38759 24.9496 5.48035C24.9826 5.5731 24.9996 5.67251 24.9996 5.77291L24.9997 6.55294Z" fill="#E8BC05"/>
</svg>
