<svg width="18" height="19" viewBox="0 0 18 19" fill="none" xmlns="http://www.w3.org/2000/svg">
<path d="M3.99976 19H13.9998C16.1998 19 17.9998 17.2 17.9998 15V8.49997C17.9998 7.19997 17.3998 6.09997 16.3998 5.29997L11.3998 1.49997C9.99976 0.499971 7.99976 0.49997 6.59976 1.59997L1.59976 5.29997C0.599756 6.09997 -0.000244141 7.19997 -0.000244141 8.49997V15C-0.000244141 17.2 1.79976 19 3.99976 19ZM1.99976 8.49997C1.99976 7.89997 2.29976 7.29997 2.79976 6.89997L7.79976 3.09997C8.19976 2.79997 8.59976 2.69997 8.99976 2.69997C9.39976 2.69997 9.79976 2.79997 10.1998 3.09997L15.1998 6.89997C15.6998 7.29997 15.9998 7.89997 15.9998 8.49997V15C15.9998 16.1 15.0998 17 13.9998 17H3.99976C2.89976 17 1.99976 16.1 1.99976 15V8.49997Z" fill="#1CAAF1"/>
</svg>
