<svg width="27" height="22" viewBox="0 0 27 22" fill="none" xmlns="http://www.w3.org/2000/svg">
<path d="M6.37915 13.2189V9.64667L4.14648 10.8672L0.574219 4.67526L8.4332 0.150391H9.95142C10.269 1.10299 10.646 1.93652 11.0826 2.65098C11.5192 3.36543 12.3329 3.72266 13.5237 3.72266C14.7144 3.72266 15.5281 3.36543 15.9647 2.65098C16.4013 1.93652 16.7784 1.10299 17.0959 0.150391H18.6142L26.4434 4.70503L22.9009 10.8672L20.6682 9.64667V15.3623L18.7928 16.9996C18.6539 17.1187 18.4951 17.2131 18.3165 17.283C18.1379 17.3528 17.9592 17.3874 17.7806 17.3866C17.6616 17.3866 17.5226 17.3469 17.3639 17.2675C17.2051 17.1881 17.0463 17.0889 16.8876 16.9698L13.7321 14.2608C13.097 13.7052 12.3825 13.2983 11.5887 13.0403C10.7949 12.7823 9.99111 12.6533 9.17743 12.6533C8.70112 12.6533 8.22959 12.6982 7.76281 12.7879C7.29603 12.8776 6.83481 13.0213 6.37915 13.2189ZM4.77163 19.649L3.22365 17.8331L5.81354 15.6302C6.27 15.2333 6.79115 14.9304 7.377 14.7217C7.96286 14.5129 8.57292 14.4089 9.2072 14.4097C9.84227 14.4097 10.4476 14.5141 11.0231 14.7229C11.5986 14.9316 12.1146 15.2341 12.5711 15.6302L16.0243 18.5773C16.2624 18.7758 16.5454 18.9298 16.8733 19.0393C17.2011 19.1489 17.5334 19.2033 17.8699 19.2025C18.2272 19.2025 18.5598 19.1529 18.8678 19.0536C19.1758 18.9544 19.4485 18.7956 19.6858 18.5773L22.2757 16.3447L23.8237 18.1903L21.2338 20.3932C20.7774 20.7901 20.2614 21.0878 19.6858 21.2863C19.1103 21.4848 18.505 21.584 17.8699 21.584C17.2349 21.584 16.6244 21.4848 16.0386 21.2863C15.4527 21.0878 14.932 20.7901 14.4763 20.3932L11.0231 17.4461C10.7849 17.2477 10.5119 17.0936 10.2039 16.9841C9.89585 16.8745 9.56402 16.8202 9.20839 16.821C8.87101 16.821 8.53839 16.8757 8.21053 16.9853C7.88268 17.0948 7.60007 17.2484 7.36272 17.4461L4.77163 19.649Z" fill="white"/>
</svg>
