<svg width="54" height="54" viewBox="0 0 54 54" fill="none" xmlns="http://www.w3.org/2000/svg">
<circle cx="26.9762" cy="27.1797" r="26.4235" fill="#075AFD"/>
<path opacity="0.3" fill-rule="evenodd" clip-rule="evenodd" d="M24.4994 32.5016C24.1783 32.6714 24.1607 32.7342 24.1321 33.8181C24.104 34.8875 24.0739 35.0217 23.7975 35.3131C23.6104 35.5102 23.2399 35.6874 23.0133 35.6879C22.6499 35.6889 22.322 35.9421 22.2607 36.269C22.2158 36.5081 22.3488 36.8185 22.5564 36.9596C22.8624 37.1675 23.5717 37.0891 24.1577 36.7825C24.4989 36.604 24.9909 36.1227 25.1887 35.774C25.451 35.3116 25.52 34.92 25.52 33.8946C25.52 33.0786 25.5109 32.9743 25.4249 32.7965C25.3558 32.6538 25.2759 32.5739 25.1332 32.5048C24.8916 32.3879 24.7163 32.387 24.4994 32.5016ZM26.6562 32.5143C26.3038 32.7163 26.305 32.7086 26.3051 34.741C26.3052 36.7502 26.3062 36.7569 26.6236 36.969C26.9524 37.1886 27.4304 37.0599 27.6095 36.7034C27.6823 36.5587 27.6903 36.3642 27.6903 34.741C27.6904 33.0751 27.684 32.9272 27.6048 32.7784C27.5008 32.5828 27.217 32.4112 26.9977 32.4112C26.9088 32.4112 26.7552 32.4576 26.6562 32.5143ZM28.8588 32.5057C28.7203 32.5743 28.6378 32.6577 28.5702 32.7973C28.4846 32.9741 28.4755 33.0799 28.4755 33.8946C28.4755 34.92 28.5445 35.3116 28.8068 35.774C29.0046 36.1227 29.4966 36.604 29.8378 36.7825C30.4237 37.0891 31.1331 37.1675 31.439 36.9596C31.6467 36.8185 31.7797 36.5081 31.7348 36.269C31.6735 35.9421 31.3455 35.6889 30.9822 35.6879C30.7556 35.6874 30.385 35.5102 30.198 35.3131C29.9216 35.0217 29.8915 34.8875 29.8634 33.8181C29.8346 32.7286 29.8174 32.6683 29.4862 32.4994C29.261 32.3845 29.1005 32.3861 28.8588 32.5057Z" fill="white"/>
<path fill-rule="evenodd" clip-rule="evenodd" d="M17.4457 19.1312C17.3104 19.164 17.0218 19.2789 16.8043 19.3867C16.1143 19.7287 15.5918 20.3408 15.3063 21.1419L15.1994 21.4421L15.1854 25.2117C15.1695 29.4541 15.1633 29.3599 15.5043 30.0546C15.8627 30.7848 16.5856 31.3793 17.3914 31.6063C17.5419 31.6487 17.9325 31.6884 18.3497 31.7036L19.0539 31.7294L19.0546 30.7188C19.0554 29.5677 19.0962 29.3117 19.3665 28.7615C19.6157 28.2545 20.1459 27.7309 20.6702 27.4743C21.3686 27.1324 21.0885 27.1469 26.9968 27.1469C32.905 27.1469 32.6249 27.1324 33.3233 27.4743C33.8476 27.7309 34.3778 28.2545 34.627 28.7615C34.8974 29.3117 34.9381 29.5677 34.9389 30.7188L34.9396 31.7294L35.6439 31.7036C36.061 31.6884 36.4516 31.6487 36.6021 31.6063C37.4079 31.3793 38.1308 30.7848 38.4892 30.0546C38.8302 29.3599 38.824 29.4541 38.8082 25.2117L38.7941 21.4421L38.6872 21.1419C38.3933 20.3174 37.8731 19.7185 37.1486 19.3709C36.9115 19.2571 36.6074 19.1415 36.4728 19.1139C36.0884 19.0353 17.7734 19.052 17.4457 19.1312ZM32.0127 21.8144C32.3425 22.061 32.4345 22.4167 32.2509 22.7351C32.0734 23.0431 31.9301 23.0869 31.1529 23.0716C30.5674 23.0601 30.4679 23.0468 30.3607 22.966C30.0328 22.7189 29.9794 22.2783 30.2376 21.95C30.4103 21.7304 30.5588 21.695 31.2536 21.7077C31.809 21.7178 31.9008 21.7307 32.0127 21.8144ZM35.3081 21.777C35.3965 21.8214 35.5178 21.9305 35.5778 22.0194C35.7263 22.2398 35.7056 22.6508 35.537 22.8312C35.328 23.055 35.2219 23.0815 34.5331 23.0815C33.9426 23.0815 33.8786 23.0731 33.7342 22.9767C33.2913 22.6808 33.3303 22.0242 33.8047 21.7893C34.0647 21.6607 35.0603 21.6525 35.3081 21.777ZM21.6913 28.5806C21.2399 28.6692 20.76 29.0508 20.5688 29.4731C20.47 29.6914 20.4613 29.7802 20.4476 30.7126L20.4328 31.717H26.9968H33.5607L33.5459 30.7126C33.5322 29.7802 33.5235 29.6914 33.4247 29.4731C33.3029 29.2041 32.971 28.8597 32.6988 28.72C32.5966 28.6675 32.4016 28.6034 32.2654 28.5776C31.9589 28.5195 21.988 28.5223 21.6913 28.5806Z" fill="white"/>
</svg>
