<svg width="134" height="106" viewBox="0 0 134 106" fill="none" xmlns="http://www.w3.org/2000/svg">
<g clip-path="url(#clip0_47_3335)">
<path d="M132.976 64.7377C132.976 28.984 103.991 0 68.2377 0C32.484 0 3.5 28.984 3.5 64.7377C3.5 78.5936 7.85509 91.4309 15.2683 101.96H121.208C128.62 91.4309 132.976 78.5936 132.976 64.7377Z" fill="#00E592"/>
<path d="M36.9195 101.718H21.0021C20.5676 101.718 20.1458 101.656 19.7487 101.537H19.7424C17.8864 100.995 16.5332 99.2802 16.5332 97.2493V77.5596C16.5332 74.8388 18.9442 72.7521 21.6402 73.1366C22.8833 73.3133 24.0575 73.5647 25.1656 73.8867H25.1678C30.8109 75.5224 34.7518 79.0059 37.3166 83.978C38.6073 86.4744 39.5508 89.3468 40.1889 92.5479C40.4925 94.063 40.7273 95.6509 40.8977 97.3077C41.1388 99.667 39.2909 101.718 36.9195 101.718Z" fill="#FFB031"/>
<path d="M36.9194 101.822H21.002C20.5676 101.822 20.1408 101.761 19.7333 101.641L19.7135 101.637C17.7802 101.072 16.4297 99.2676 16.4297 97.2497V77.5601C16.4297 76.2348 17.0035 74.9764 18.0046 74.108C19.0079 73.2374 20.3387 72.8466 21.655 73.0336C22.8818 73.2081 24.0677 73.4604 25.1803 73.7833L25.1965 73.7874C30.6418 75.3659 34.7508 78.7788 37.4091 83.9308C38.6706 86.3706 39.6402 89.2632 40.291 92.5277C40.5909 94.0239 40.8297 95.6289 41.0015 97.2974C41.1193 98.4523 40.7411 99.609 39.9636 100.47C39.1873 101.329 38.0779 101.822 36.9194 101.822ZM19.7576 101.433L19.7783 101.438C20.1709 101.554 20.5829 101.614 21.002 101.614H36.9194C38.019 101.614 39.0722 101.146 39.8093 100.33C40.5473 99.5132 40.9066 98.415 40.7942 97.3185C40.6233 95.6568 40.3854 94.0585 40.0868 92.5686C39.4396 89.323 38.4763 86.4488 37.2239 84.0262C34.5952 78.9313 30.5343 75.5552 25.1525 73.9911L25.1363 73.9871C24.0291 73.6651 22.8476 73.4137 21.6253 73.2401C20.3688 73.0593 19.0979 73.4343 18.1404 74.2654C17.1848 75.0943 16.6366 76.2955 16.6366 77.5605V97.2502C16.6366 99.1714 17.9192 100.89 19.7567 101.434L19.7576 101.433Z" fill="#390075"/>
<g opacity="0.65">
<path d="M29.9358 75.9344C27.9696 75.0031 25.7475 74.3487 23.2511 73.9952C20.5555 73.6107 18.1441 75.6974 18.1441 78.4182V98.1079C18.1441 99.4858 18.7679 100.719 19.7487 101.537C17.8905 100.999 16.5332 99.2821 16.5332 97.2494V77.5597C16.5332 74.8389 18.9442 72.7522 21.6402 73.1367C24.8431 73.5918 27.595 74.5398 29.9358 75.9344Z" fill="white"/>
</g>
<path d="M40.1885 92.5479H16.5332V83.978H37.3161C38.6068 86.4744 39.5503 89.3468 40.1885 92.5479Z" fill="white"/>
<path d="M36.9191 102.342H21.0008C18.1928 102.342 15.9082 100.057 15.9082 97.2498V77.5606C15.9082 76.0851 16.5473 74.6842 17.6621 73.7168C18.7792 72.7468 20.2606 72.3097 21.7267 72.5188C27.7889 73.3804 32.5366 76.0437 35.8371 80.4348C38.9159 84.5308 40.7737 90.0295 41.5157 97.2444C41.6493 98.5445 41.2243 99.8465 40.3487 100.817C39.474 101.786 38.2238 102.342 36.9191 102.342ZM21.0067 73.715C20.0834 73.715 19.1853 74.046 18.4793 74.659C17.6378 75.3893 17.1553 76.4471 17.1553 77.561V97.2502C17.1553 99.3702 18.88 101.095 21.0004 101.095H36.9187C37.8716 101.095 38.7841 100.69 39.4227 99.9818C40.0618 99.2735 40.3725 98.3224 40.275 97.373C38.8026 83.0611 32.6774 75.3354 21.5504 73.7537C21.3692 73.7281 21.187 73.7155 21.0062 73.7155L21.0067 73.715Z" fill="#390075"/>
<g opacity="0.3">
<path d="M36.9188 101.718H21.0014C20.567 101.718 20.1451 101.656 19.748 101.537C32.61 102.115 35.5607 81.112 25.1667 73.8868C30.8098 75.5225 34.7507 79.006 37.3155 83.9781C38.6062 86.4745 39.5497 89.3469 40.1878 92.548C40.4914 94.0631 40.7262 95.6511 40.8966 97.3078C41.1376 99.6671 39.2897 101.718 36.9184 101.718H36.9188Z" fill="#390075"/>
</g>
<g opacity="0.3">
<path d="M21.0432 79.2713C23.9637 80.6367 23.9637 86.6198 21.0432 87.9851C20.4402 88.2671 19.748 87.8178 19.748 87.1518V80.1047C19.748 79.4386 20.4402 78.9894 21.0432 79.2713Z" fill="white"/>
</g>
<path d="M23.8059 68.1376H17.8476C17.1206 68.1376 16.5312 68.7269 16.5312 69.4539V71.761C16.5312 72.488 17.1206 73.0773 17.8476 73.0773H23.8059C24.5329 73.0773 25.1223 72.488 25.1223 71.761V69.4539C25.1223 68.7269 24.5329 68.1376 23.8059 68.1376Z" fill="#19AFF9"/>
<g opacity="0.3">
<path d="M25.1233 69.4535V71.7605C25.1233 72.4882 24.5328 73.0764 23.8074 73.0764H21.1738C21.9015 73.0764 22.4897 72.4882 22.4897 71.7605V69.4535C22.4897 68.7258 21.9015 68.1376 21.1738 68.1376H23.8074C24.5328 68.1376 25.1233 68.7258 25.1233 69.4535Z" fill="#390075"/>
</g>
<g opacity="0.65">
<path d="M19.3395 73.0764H17.8491C17.1214 73.0764 16.5332 72.4882 16.5332 71.7605V69.4535C16.5332 68.7258 17.1214 68.1376 17.8491 68.1376H19.3395C18.6118 68.1376 18.0218 68.7258 18.0218 69.4535V71.7605C18.0218 72.4882 18.6123 73.0764 19.3395 73.0764Z" fill="white"/>
</g>
<path d="M23.8066 73.7015H17.8483C16.7789 73.7015 15.9082 72.8309 15.9082 71.7614V69.4544C15.9082 68.3849 16.7789 67.5143 17.8483 67.5143H23.8066C24.8761 67.5143 25.7467 68.3849 25.7467 69.4544V71.7614C25.7467 72.8309 24.8761 73.7015 23.8066 73.7015ZM17.8483 68.7614C17.466 68.7614 17.1553 69.0721 17.1553 69.4544V71.7614C17.1553 72.1437 17.466 72.4545 17.8483 72.4545H23.8066C24.1889 72.4545 24.4997 72.1437 24.4997 71.7614V69.4544C24.4997 69.0721 24.1889 68.7614 23.8066 68.7614H17.8483Z" fill="#390075"/>
<path d="M38.2611 52.4576H73.5956C75.9472 52.4576 77.8567 54.3667 77.8567 56.7187V97.4576C77.8567 99.8092 75.9477 101.719 73.5956 101.719H38.2611C35.9095 101.719 34 99.8096 34 97.4576V56.7187C34 54.3672 35.9091 52.4576 38.2611 52.4576Z" fill="#D0E1E8"/>
<path d="M73.596 101.822H38.2615C35.8546 101.822 33.8965 99.864 33.8965 97.4571V56.7183C33.8965 54.3114 35.8546 52.3533 38.2615 52.3533H73.596C76.0029 52.3533 77.961 54.3114 77.961 56.7183V97.4571C77.961 99.864 76.0029 101.822 73.596 101.822ZM38.2615 52.5615C35.9692 52.5615 34.1043 54.4265 34.1043 56.7187V97.4575C34.1043 99.7498 35.9692 101.615 38.2615 101.615H73.596C75.8882 101.615 77.7532 99.7498 77.7532 97.4575V56.7187C77.7532 54.4265 75.8882 52.5615 73.596 52.5615H38.2615Z" fill="#390075"/>
<path d="M77.3218 54.3657C76.6877 53.9875 75.9457 53.7734 75.1559 53.7734H39.8214C37.4685 53.7734 35.5603 55.6816 35.5603 58.0345V98.7734C35.5603 99.6445 35.8203 100.453 36.2691 101.126C35.0157 100.387 34.1738 99.0207 34.1738 97.4579V56.7191C34.1738 54.3662 36.082 52.458 38.4349 52.458H73.7695C75.2513 52.458 76.5586 53.2167 77.3218 54.3662V54.3657Z" fill="white"/>
<g opacity="0.3">
<path d="M60.5473 97.351C67.9322 97.351 73.9189 91.3643 73.9189 83.9794C73.9189 76.5945 67.9322 70.6079 60.5473 70.6079C53.1624 70.6079 47.1758 76.5945 47.1758 83.9794C47.1758 91.3643 53.1624 97.351 60.5473 97.351Z" fill="#390075"/>
</g>
<path d="M88.4572 56.7187V97.4576C88.4572 99.8105 86.549 101.719 84.1961 101.719H73.5957C75.9486 101.719 77.8568 99.8105 77.8568 97.4576V56.7187C77.8568 54.3658 75.9486 52.4576 73.5957 52.4576H84.1961C86.549 52.4576 88.4572 54.3658 88.4572 56.7187Z" fill="#D0E1E8"/>
<path d="M84.1961 101.822H73.5957V101.614C75.8879 101.614 77.7529 99.7493 77.7529 97.4571V56.7183C77.7529 54.426 75.8879 52.561 73.5957 52.561V52.3533H84.1961C86.603 52.3533 88.5611 54.3114 88.5611 56.7183V97.4571C88.5611 99.864 86.603 101.822 84.1961 101.822ZM74.9278 101.614H84.1961C86.4883 101.614 88.3533 99.7493 88.3533 97.4571V56.7183C88.3533 54.426 86.4883 52.561 84.1961 52.561H74.9278C76.6853 53.1254 77.9602 54.7755 77.9602 56.7183V97.4571C77.9602 99.3994 76.6853 101.049 74.9278 101.614Z" fill="#390075"/>
<path d="M57.2895 95.1361C64.6744 95.1361 70.661 89.1495 70.661 81.7646C70.661 74.3797 64.6744 68.3931 57.2895 68.3931C49.9046 68.3931 43.918 74.3797 43.918 81.7646C43.918 89.1495 49.9046 95.1361 57.2895 95.1361Z" fill="#4089FF"/>
<g opacity="0.3">
<path d="M57.2895 95.1361C64.6744 95.1361 70.661 89.1495 70.661 81.7646C70.661 74.3797 64.6744 68.3931 57.2895 68.3931C49.9046 68.3931 43.918 74.3797 43.918 81.7646C43.918 89.1495 49.9046 95.1361 57.2895 95.1361Z" fill="#390075"/>
</g>
<path d="M57.2907 95.7599C49.5735 95.7599 43.2949 89.4818 43.2949 81.7646C43.2949 74.0474 49.5735 67.7693 57.2907 67.7693C65.0079 67.7693 71.286 74.0474 71.286 81.7646C71.286 89.4818 65.0079 95.7599 57.2907 95.7599ZM57.2907 69.0164C50.2611 69.0164 44.5424 74.735 44.5424 81.7646C44.5424 88.7942 50.2611 94.5128 57.2907 94.5128C64.3203 94.5128 70.0389 88.7942 70.0389 81.7646C70.0389 74.735 64.3203 69.0164 57.2907 69.0164Z" fill="#390075"/>
<g opacity="0.3">
<path d="M88.4572 58.7285V97.4576C88.4572 99.8105 86.549 101.719 84.1961 101.719H73.5957C75.9486 101.719 77.8568 99.8105 77.8568 97.4576V56.7187C77.8568 55.8917 77.6198 55.1204 77.2124 54.4679H84.1961C86.549 54.4679 88.4572 56.3761 88.4572 58.729V58.7285Z" fill="#390075"/>
</g>
<path d="M73.5959 102.342H38.2614C35.568 102.342 33.377 100.151 33.377 97.4578V56.719C33.377 54.0256 35.5684 51.8346 38.2614 51.8346H73.5959C76.2893 51.8346 78.4803 54.0261 78.4803 56.719V97.4578C78.4803 100.151 76.2888 102.342 73.5959 102.342ZM38.2614 53.0817C36.2556 53.0817 34.624 54.7133 34.624 56.719V97.4578C34.624 99.4636 36.2556 101.095 38.2614 101.095H73.5959C75.6016 101.095 77.2332 99.4636 77.2332 97.4578V56.719C77.2332 54.7133 75.6016 53.0817 73.5959 53.0817H38.2614Z" fill="#390075"/>
<path d="M84.1968 102.342H73.5964C73.2519 102.342 72.9727 102.063 72.9727 101.718C72.9727 101.374 73.2519 101.094 73.5964 101.094C75.6022 101.094 77.2338 99.4628 77.2338 97.4571V56.7182C77.2338 54.7125 75.6022 53.0809 73.5964 53.0809C73.2519 53.0809 72.9727 52.8016 72.9727 52.4571C72.9727 52.1127 73.2519 51.8334 73.5964 51.8334H84.1968C86.8902 51.8334 89.0812 54.0249 89.0812 56.7178V97.4566C89.0812 100.15 86.8897 102.341 84.1968 102.341V102.342ZM76.8528 101.095H84.1968C86.2025 101.095 87.8341 99.4633 87.8341 97.4575V56.7187C87.8341 54.7129 86.2025 53.0813 84.1968 53.0813H76.8528C77.8512 53.9763 78.4808 55.2751 78.4808 56.7187V97.4575C78.4808 98.9007 77.8517 100.2 76.8528 101.095Z" fill="#390075"/>
<path d="M53.5727 95.1361C60.9576 95.1361 66.9442 89.1495 66.9442 81.7646C66.9442 74.3797 60.9576 68.3931 53.5727 68.3931C46.1878 68.3931 40.2012 74.3797 40.2012 81.7646C40.2012 89.1495 46.1878 95.1361 53.5727 95.1361Z" fill="#4089FF"/>
<g opacity="0.55">
<path d="M41.3965 82.7521C41.3965 86.6201 43.0407 90.1059 45.6657 92.5479C42.3526 90.114 40.2012 86.192 40.2012 81.7645C40.2012 74.3797 46.1874 68.3934 53.5723 68.3934C57.0868 68.3934 60.2879 69.7507 62.6742 71.9683C60.4606 70.3407 57.7272 69.3806 54.7676 69.3806C47.3828 69.3806 41.3965 75.3668 41.3965 82.7517V82.7521Z" fill="white"/>
</g>
<path d="M88.4578 63.6817H34.0007C33.6562 63.6817 33.377 63.4025 33.377 63.058C33.377 62.7135 33.6562 62.4342 34.0007 62.4342H88.4578C88.8023 62.4342 89.0816 62.7135 89.0816 63.058C89.0816 63.4025 88.8023 63.6817 88.4578 63.6817Z" fill="#390075"/>
<path d="M62.5118 81.7646C62.5118 86.2249 59.2423 89.9229 54.9731 90.5921C54.518 90.665 54.0503 90.7023 53.574 90.7023C52.2914 90.7023 51.0695 90.432 49.9659 89.9436C49.2738 89.6383 48.6275 89.2475 48.0411 88.786C47.2222 88.1376 46.5175 87.3496 45.9647 86.4583C45.1229 85.0947 44.6367 83.4879 44.6367 81.765C44.6367 77.2111 48.0433 73.4528 52.4457 72.8979C52.8158 72.852 53.1918 72.8273 53.5745 72.8273C54.2585 72.8273 54.9236 72.9042 55.5613 73.0499C56.3034 73.2181 57.0121 73.478 57.671 73.8189C59.1964 74.6086 60.4664 75.8247 61.3209 77.3087C62.0796 78.6201 62.5118 80.1415 62.5118 81.765V81.7646Z" fill="#40E6FF"/>
<path d="M53.5744 90.8061C52.303 90.8061 51.0748 90.548 49.924 90.0385C49.2296 89.7318 48.5748 89.3378 47.9772 88.8674C47.1425 88.2063 46.4355 87.4139 45.877 86.5127C44.9978 85.0888 44.5332 83.4469 44.5332 81.7645C44.5332 77.2187 47.9295 73.3624 52.433 72.7944C53.5177 72.6604 54.571 72.717 55.5846 72.9482C56.3289 73.1168 57.0471 73.3786 57.719 73.7262C59.266 74.5272 60.5428 75.7477 61.4112 77.2565C62.1991 78.6187 62.616 80.1779 62.616 81.7645C62.616 86.246 59.4086 90.002 54.9897 90.6946C54.5264 90.7684 54.0506 90.8061 53.5748 90.8061H53.5744ZM53.5744 72.9306C53.2097 72.9306 52.8341 72.954 52.4586 73.0008C48.059 73.5553 44.741 77.3231 44.741 81.7645C44.741 83.4082 45.1947 85.0124 46.0537 86.4029C46.5997 87.2835 47.2904 88.0579 48.1062 88.7041C48.6895 89.1638 49.3299 89.5487 50.0085 89.8482C51.1329 90.3456 52.3327 90.5979 53.5748 90.5979C54.0394 90.5979 54.5044 90.561 54.9573 90.4891C59.275 89.8123 62.4087 86.1425 62.4087 81.7641C62.4087 80.2139 62.0017 78.6907 61.2318 77.3599C60.3832 75.8858 59.1356 74.6931 57.6241 73.9106C56.9684 73.5715 56.2669 73.3156 55.5392 73.151C54.8997 73.0049 54.2391 72.9311 53.5753 72.9311L53.5744 72.9306Z" fill="#390075"/>
<g opacity="0.3">
<path d="M55.5614 73.0494L48.0412 88.786C47.2223 88.1376 46.5176 87.3496 45.9648 86.4583L52.4458 72.8979C52.8159 72.852 53.1919 72.8273 53.5746 72.8273C54.2586 72.8273 54.9237 72.9042 55.5614 73.0499V73.0494Z" fill="white"/>
</g>
<g opacity="0.3">
<path d="M61.3198 77.3083L54.972 90.5922C54.5169 90.665 54.0492 90.7023 53.5729 90.7023C52.2903 90.7023 51.0685 90.4321 49.9648 89.9437L57.6699 73.8185C59.1954 74.6082 60.4654 75.8242 61.3198 77.3083Z" fill="white"/>
</g>
<g opacity="0.3">
<path d="M61.4561 77.5493C59.8641 76.0778 57.7315 75.178 55.3912 75.178C50.4546 75.178 46.4534 79.1791 46.4534 84.1157C46.4534 85.6394 46.8339 87.0753 47.5071 88.3309C45.7402 86.6971 44.6348 84.3608 44.6348 81.765C44.6348 76.8284 48.6359 72.8273 53.5725 72.8273C56.9854 72.8273 59.9495 74.7395 61.4561 77.5498V77.5493Z" fill="#390075"/>
</g>
<g opacity="0.55">
<path d="M63.7235 82.7C63.7235 87.6366 59.7223 91.6377 54.7857 91.6377C52.462 91.6377 50.3461 90.75 48.7559 89.2951C50.1464 90.1869 51.7987 90.7023 53.5737 90.7023C58.5103 90.7023 62.5115 86.7012 62.5115 81.7646C62.5115 79.158 61.3953 76.8114 59.6162 75.178C62.0874 76.7682 63.7235 79.543 63.7235 82.7Z" fill="white"/>
</g>
<path d="M53.5734 95.7599C45.8562 95.7599 39.5781 89.4818 39.5781 81.7646C39.5781 74.0474 45.8562 67.7693 53.5734 67.7693C61.2906 67.7693 67.5687 74.0474 67.5687 81.7646C67.5687 89.4818 61.2906 95.7599 53.5734 95.7599ZM53.5734 69.0164C46.5443 69.0164 40.8252 74.735 40.8252 81.7646C40.8252 88.7942 46.5438 94.5128 53.5734 94.5128C60.603 94.5128 66.3216 88.7942 66.3216 81.7646C66.3216 74.735 60.603 69.0164 53.5734 69.0164Z" fill="#390075"/>
<path d="M70.6621 60.1613C72.0396 60.1613 73.1563 59.0446 73.1563 57.6671C73.1563 56.2896 72.0396 55.173 70.6621 55.173C69.2846 55.173 68.168 56.2896 68.168 57.6671C68.168 59.0446 69.2846 60.1613 70.6621 60.1613Z" fill="#4089FF"/>
<path d="M63.041 60.1613C64.4185 60.1613 65.5352 59.0446 65.5352 57.6671C65.5352 56.2896 64.4185 55.173 63.041 55.173C61.6635 55.173 60.5469 56.2896 60.5469 57.6671C60.5469 59.0446 61.6635 60.1613 63.041 60.1613Z" fill="#4089FF"/>
<g opacity="0.3">
<path d="M67.3133 58.4295C67.3133 59.8074 66.1971 60.9236 64.8192 60.9236C64.1145 60.9236 63.4763 60.6304 63.0234 60.1609H63.0401C64.418 60.1609 65.5342 59.0447 65.5342 57.6667C65.5342 56.9935 65.268 56.3823 64.8358 55.9353C66.2057 55.9434 67.3133 57.0578 67.3133 58.4295Z" fill="#390075"/>
</g>
<g opacity="0.3">
<path d="M74.952 58.4295C74.952 59.8074 73.8358 60.9236 72.4578 60.9236C71.7531 60.9236 71.115 60.6304 70.6621 60.1609H70.6787C72.0567 60.1609 73.1729 59.0447 73.1729 57.6667C73.1729 56.9935 72.9067 56.3823 72.4745 55.9353C73.8443 55.9434 74.952 57.0578 74.952 58.4295Z" fill="#390075"/>
</g>
<g opacity="0.55">
<path d="M64.8182 55.9204C64.6 55.8561 64.3693 55.8229 64.1301 55.8229C62.7539 55.8229 61.6359 56.9391 61.6359 58.317C61.6359 58.9965 61.9062 59.6118 62.351 60.0628C61.3094 59.7656 60.5449 58.8054 60.5449 57.6663C60.5449 56.2901 61.6634 55.1721 63.0391 55.1721C63.7352 55.1721 64.3671 55.459 64.8182 55.9204Z" fill="white"/>
</g>
<g opacity="0.55">
<path d="M72.4412 55.9204C72.2231 55.8561 71.9924 55.8229 71.7531 55.8229C70.377 55.8229 69.259 56.9391 69.259 58.317C69.259 58.9965 69.5293 59.6118 69.974 60.0628C68.9325 59.7656 68.168 58.8054 68.168 57.6663C68.168 56.2901 69.2864 55.1721 70.6621 55.1721C71.3583 55.1721 71.9901 55.459 72.4412 55.9204Z" fill="white"/>
</g>
<path d="M70.6609 60.785C68.9416 60.785 67.543 59.3864 67.543 57.6671C67.543 55.9478 68.9416 54.5492 70.6609 54.5492C72.3802 54.5492 73.7788 55.9478 73.7788 57.6671C73.7788 59.3864 72.3802 60.785 70.6609 60.785ZM70.6609 55.7967C69.6292 55.7967 68.79 56.6359 68.79 57.6671C68.79 58.6983 69.6292 59.5379 70.6609 59.5379C71.6925 59.5379 72.5313 58.6988 72.5313 57.6671C72.5313 56.6355 71.6921 55.7967 70.6609 55.7967Z" fill="#390075"/>
<path d="M63.0398 60.785C61.3205 60.785 59.9219 59.3864 59.9219 57.6671C59.9219 55.9478 61.3205 54.5492 63.0398 54.5492C64.7591 54.5492 66.1577 55.9478 66.1577 57.6671C66.1577 59.3864 64.7591 60.785 63.0398 60.785ZM63.0398 55.7967C62.0086 55.7967 61.1694 56.6359 61.1694 57.6671C61.1694 58.6983 62.0086 59.5379 63.0398 59.5379C64.071 59.5379 64.9106 58.6988 64.9106 57.6671C64.9106 56.6355 64.0714 55.7967 63.0398 55.7967Z" fill="#390075"/>
<path d="M49.0357 58.7065H40.5139C39.9401 58.7065 39.4746 58.2411 39.4746 57.6672C39.4746 57.0934 39.9401 56.6279 40.5139 56.6279H49.0357C49.6095 56.6279 50.075 57.0934 50.075 57.6672C50.075 58.2411 49.6095 58.7065 49.0357 58.7065Z" fill="#390075"/>
<path d="M53.5728 91.3261C48.3007 91.3261 44.0117 87.0366 44.0117 81.7645C44.0117 76.4925 48.3012 72.2035 53.5728 72.2035C58.8444 72.2035 63.1338 76.4929 63.1338 81.7645C63.1338 87.0362 58.8444 91.3261 53.5728 91.3261ZM53.5728 73.4506C48.9883 73.4506 45.2588 77.1801 45.2588 81.7645C45.2588 86.349 48.9883 90.0785 53.5728 90.0785C58.1572 90.0785 61.8868 86.349 61.8868 81.7645C61.8868 77.1801 58.1572 73.4506 53.5728 73.4506Z" fill="#390075"/>
<path d="M120.23 82.8038H90.8542C89.7827 82.8038 88.9141 83.6723 88.9141 84.7437C88.9141 85.8151 89.7827 86.6836 90.8542 86.6836H120.23C121.302 86.6836 122.17 85.8151 122.17 84.7437C122.17 83.6723 121.302 82.8038 120.23 82.8038Z" fill="#19AFF9"/>
<path d="M91.4594 86.6841H119.623V99.2763C119.623 100.624 118.529 101.719 117.181 101.719H93.9014C92.5536 101.719 91.459 100.625 91.459 99.2763V86.6841H91.4594Z" fill="#19AFF9"/>
<g opacity="0.3">
<path d="M120.23 82.8038H90.8542C89.7827 82.8038 88.9141 83.6723 88.9141 84.7437C88.9141 85.8151 89.7827 86.6836 90.8542 86.6836H120.23C121.302 86.6836 122.17 85.8151 122.17 84.7437C122.17 83.6723 121.302 82.8038 120.23 82.8038Z" fill="#390075"/>
</g>
<g opacity="0.3">
<path d="M91.4594 86.6841H119.623V99.2763C119.623 100.624 118.529 101.719 117.181 101.719H93.9014C92.5536 101.719 91.459 100.625 91.459 99.2763V86.6841H91.4594Z" fill="#390075"/>
</g>
<path d="M94.3872 72.9658H113.44C116.155 72.9658 118.359 75.1699 118.359 77.8849C118.359 80.5998 116.155 82.8039 113.44 82.8039H94.4219C93.4851 82.8039 92.7246 82.0434 92.7246 81.1067V74.6284C92.7246 73.7106 93.4698 72.9658 94.3872 72.9658Z" fill="#1CDB7C"/>
<path d="M113.441 82.9078H94.4222C93.4292 82.9078 92.6211 82.0996 92.6211 81.1067V74.6284C92.6211 73.6543 93.4135 72.8619 94.388 72.8619H113.441C116.211 72.8619 118.464 75.115 118.464 77.8849C118.464 80.6547 116.211 82.9078 113.441 82.9078ZM94.388 73.0697C93.5282 73.0697 92.8289 73.769 92.8289 74.6284V81.1067C92.8289 81.9854 93.5439 82.7 94.4222 82.7H113.441C116.096 82.7 118.256 80.54 118.256 77.8844C118.256 75.2288 116.096 73.0693 113.441 73.0693H94.388V73.0697Z" fill="#390075"/>
<path d="M113.439 83.4276H94.4206C93.1407 83.4276 92.0996 82.3865 92.0996 81.1066V74.6284C92.0996 73.3679 93.1254 72.342 94.386 72.342H113.439C116.495 72.342 118.982 74.8285 118.982 77.8848C118.982 80.9411 116.495 83.4276 113.439 83.4276H113.439ZM94.3864 73.5896C93.8135 73.5896 93.3471 74.0559 93.3471 74.6289V81.1071C93.3471 81.6994 93.8288 82.181 94.4211 82.181H113.44C115.808 82.181 117.735 80.254 117.735 77.8853C117.735 75.5166 115.808 73.59 113.44 73.59H94.3869L94.3864 73.5896Z" fill="#390075"/>
<path d="M112.574 66.6606H95.8771C94.136 66.6606 92.7246 68.072 92.7246 69.813C92.7246 71.5539 94.136 72.9653 95.8771 72.9653H112.574C114.315 72.9653 115.727 71.5539 115.727 69.813C115.727 68.072 114.315 66.6606 112.574 66.6606Z" fill="#FF613A"/>
<path d="M112.575 73.0696H95.8775C94.0818 73.0696 92.6211 71.6089 92.6211 69.8132C92.6211 68.0175 94.0818 66.5568 95.8775 66.5568H112.575C114.37 66.5568 115.831 68.0175 115.831 69.8132C115.831 71.6089 114.37 73.0696 112.575 73.0696ZM95.8775 66.7645C94.1965 66.7645 92.8289 68.1321 92.8289 69.8132C92.8289 71.4942 94.1965 72.8618 95.8775 72.8618H112.575C114.256 72.8618 115.623 71.4942 115.623 69.8132C115.623 68.1321 114.256 66.7645 112.575 66.7645H95.8775Z" fill="#390075"/>
<g opacity="0.3">
<path d="M94.3872 72.9658H113.44C116.155 72.9658 118.359 75.1699 118.359 77.8849C118.359 80.5998 116.155 82.8039 113.44 82.8039H94.4219C93.4851 82.8039 92.7246 82.0434 92.7246 81.1067V74.6284C92.7246 73.7106 93.4698 72.9658 94.3872 72.9658Z" fill="#390075"/>
</g>
<g opacity="0.3">
<path d="M112.574 66.6606H95.8771C94.136 66.6606 92.7246 68.072 92.7246 69.813C92.7246 71.5539 94.136 72.9653 95.8771 72.9653H112.574C114.315 72.9653 115.727 71.5539 115.727 69.813C115.727 68.072 114.315 66.6606 112.574 66.6606Z" fill="#390075"/>
</g>
<path d="M112.575 73.5895H95.8774C93.7952 73.5895 92.1016 71.8954 92.1016 69.8137C92.1016 67.7319 93.7957 66.0378 95.8774 66.0378H112.575C114.657 66.0378 116.35 67.7319 116.35 69.8137C116.35 71.8954 114.656 73.5895 112.575 73.5895ZM95.8774 67.2845C94.4828 67.2845 93.3486 68.4187 93.3486 69.8132C93.3486 71.2078 94.4828 72.342 95.8774 72.342H112.575C113.969 72.342 115.103 71.2078 115.103 69.8132C115.103 68.4187 113.969 67.2845 112.575 67.2845H95.8774Z" fill="#390075"/>
<path d="M120.231 87.3073H90.8544C89.441 87.3073 88.291 86.1569 88.291 84.7435C88.291 83.33 89.441 82.1801 90.8544 82.1801H120.231C121.644 82.1801 122.794 83.33 122.794 84.7435C122.794 86.1569 121.644 87.3073 120.231 87.3073ZM90.8544 83.4276C90.1286 83.4276 89.5381 84.0181 89.5381 84.7439C89.5381 85.4698 90.1286 86.0602 90.8544 86.0602H120.231C120.956 86.0602 121.547 85.4698 121.547 84.7439C121.547 84.0181 120.956 83.4276 120.231 83.4276H90.8544Z" fill="#390075"/>
<path d="M117.181 102.342H93.9017C92.2112 102.342 90.8359 100.966 90.8359 99.2762V86.6841C90.8359 86.3396 91.1152 86.0603 91.4597 86.0603H119.623C119.968 86.0603 120.247 86.3396 120.247 86.6841V99.2762C120.247 100.967 118.872 102.342 117.181 102.342H117.181ZM92.083 87.3074V99.2758C92.083 100.279 92.8988 101.094 93.9017 101.094H117.181C118.184 101.094 119 100.279 119 99.2758V87.3074H92.083Z" fill="#390075"/>
<path d="M113.51 82.8038H84.1335C83.062 82.8038 82.1934 83.6723 82.1934 84.7437C82.1934 85.8151 83.062 86.6836 84.1335 86.6836H113.51C114.581 86.6836 115.45 85.8151 115.45 84.7437C115.45 83.6723 114.581 82.8038 113.51 82.8038Z" fill="#19AFF9"/>
<path d="M84.7407 86.6841H112.904V99.2763C112.904 100.624 111.81 101.719 110.462 101.719H87.1827C85.8349 101.719 84.7402 100.625 84.7402 99.2763V86.6841H84.7407Z" fill="#19AFF9"/>
<g opacity="0.3">
<path d="M115.451 84.743C115.451 85.2791 115.233 85.7634 114.884 86.1169C114.532 86.4659 114.048 86.6845 113.512 86.6845H109.459C109.995 86.6845 110.479 86.4664 110.831 86.1169C111.18 85.7634 111.398 85.2791 111.398 84.743C111.398 83.6727 110.529 82.8038 109.459 82.8038H113.512C114.582 82.8038 115.451 83.6727 115.451 84.743Z" fill="#390075"/>
</g>
<g opacity="0.3">
<path d="M112.904 86.6844V99.2762C112.904 100.625 111.81 101.719 110.461 101.719H106.408C107.757 101.719 108.851 100.625 108.851 99.2762V86.6844H112.904Z" fill="#390075"/>
</g>
<g opacity="0.65">
<path d="M86.4891 86.6845H83.6833C82.613 86.6845 81.7441 85.8156 81.7441 84.743C81.7441 84.2088 81.9623 83.7226 82.3117 83.3714C82.6629 83.0201 83.1473 82.8038 83.6833 82.8038H86.4891C85.9531 82.8038 85.4687 83.0201 85.1175 83.3714C84.7685 83.7226 84.5499 84.2092 84.5499 84.743C84.5499 85.8156 85.4188 86.6845 86.4891 86.6845Z" fill="white"/>
</g>
<g opacity="0.65">
<path d="M89.5393 101.718H86.7334C85.3843 101.718 84.291 100.625 84.291 99.2758V86.6841H87.0968V99.2758C87.0968 100.625 88.1901 101.718 89.5393 101.718Z" fill="white"/>
</g>
<path d="M113.51 87.3073H84.1342C82.7207 87.3073 81.5703 86.1569 81.5703 84.7435C81.5703 83.33 82.7207 82.1801 84.1342 82.1801H113.51C114.924 82.1801 116.074 83.33 116.074 84.7435C116.074 86.1569 114.924 87.3073 113.51 87.3073ZM84.1342 83.4276C83.4083 83.4276 82.8178 84.0181 82.8178 84.7439C82.8178 85.4698 83.4083 86.0602 84.1342 86.0602H113.51C114.236 86.0602 114.827 85.4698 114.827 84.7439C114.827 84.0181 114.236 83.4276 113.51 83.4276H84.1342Z" fill="#390075"/>
<path d="M110.462 102.342H87.1829C85.4924 102.342 84.1172 100.966 84.1172 99.2762V86.6841C84.1172 86.3396 84.3965 86.0603 84.741 86.0603H112.905C113.249 86.0603 113.528 86.3396 113.528 86.6841V99.2762C113.528 100.967 112.153 102.342 110.463 102.342H110.462ZM85.3643 87.3074V99.2758C85.3643 100.279 86.1801 101.094 87.1829 101.094H110.462C111.465 101.094 112.281 100.279 112.281 99.2758V87.3074H85.3643Z" fill="#390075"/>
<path d="M93.783 90.7023C93.783 90.1856 93.3641 89.7668 92.8475 89.7668C92.3309 89.7668 91.9121 90.1856 91.9121 90.7023V97.1454C91.9121 97.662 92.3309 98.0808 92.8475 98.0808C93.3641 98.0808 93.783 97.662 93.783 97.1454V90.7023Z" fill="#390075"/>
<path d="M99.7576 90.7023C99.7576 90.1856 99.3388 89.7668 98.8221 89.7668C98.3055 89.7668 97.8867 90.1856 97.8867 90.7023V97.1454C97.8867 97.662 98.3055 98.0808 98.8221 98.0808C99.3388 98.0808 99.7576 97.662 99.7576 97.1454V90.7023Z" fill="#390075"/>
<path d="M104.799 98.0809C104.282 98.0809 103.863 97.6622 103.863 97.1455V90.7019C103.863 90.1852 104.282 89.7665 104.799 89.7665C105.315 89.7665 105.734 90.1852 105.734 90.7019V97.1455C105.734 97.6622 105.315 98.0809 104.799 98.0809Z" fill="#390075"/>
<path d="M87.1646 72.9658H106.217C108.932 72.9658 111.136 75.1699 111.136 77.8849C111.136 80.5998 108.932 82.8039 106.217 82.8039H87.1992C86.2624 82.8039 85.502 82.0434 85.502 81.1067V74.6284C85.502 73.7106 86.2471 72.9658 87.1646 72.9658Z" fill="#1CDB7C"/>
<path d="M106.218 82.9078H87.1996C86.2061 82.9078 85.3984 82.0996 85.3984 81.1067V74.6284C85.3984 73.6543 86.1908 72.8619 87.1649 72.8619H106.218C108.988 72.8619 111.241 75.115 111.241 77.8849C111.241 80.6547 108.988 82.9078 106.218 82.9078ZM87.1649 73.0697C86.3055 73.0697 85.6062 73.769 85.6062 74.6284V81.1067C85.6062 81.9854 86.3213 82.7 87.1996 82.7H106.218C108.873 82.7 111.033 80.54 111.033 77.8844C111.033 75.2288 108.873 73.0693 106.218 73.0693H87.1649V73.0697Z" fill="#390075"/>
<g opacity="0.3">
<path d="M111.137 77.8839C111.137 79.2411 110.587 80.4716 109.697 81.3634C108.805 82.2529 107.575 82.8038 106.217 82.8038H102.615C103.975 82.8038 105.203 82.2529 106.095 81.3634C106.984 80.4716 107.535 79.2411 107.535 77.8839C107.535 75.1671 105.332 72.9662 102.615 72.9662H106.217C108.934 72.9662 111.137 75.1671 111.137 77.8839Z" fill="#390075"/>
</g>
<g opacity="0.65">
<path d="M105.092 77.6078C105.092 78.2105 104.847 78.7551 104.451 79.1499C104.056 79.5448 103.512 79.7903 102.909 79.7903H87.4763V81.1062C87.4763 82.0434 88.2372 82.8043 89.1744 82.8043H86.7486C85.8114 82.8043 85.0527 82.0434 85.0527 81.1062V74.6298C85.0527 73.711 85.797 72.9672 86.7153 72.9672H89.1389C88.2224 72.9672 87.4763 73.7114 87.4763 74.6298V77.6083H105.092V77.6078Z" fill="white"/>
</g>
<path d="M106.219 83.4276H87.1999C85.92 83.4276 84.8789 82.3865 84.8789 81.1066V74.6284C84.8789 73.3679 85.9047 72.342 87.1653 72.342H106.219C109.275 72.342 111.761 74.8285 111.761 77.8848C111.761 80.9411 109.275 83.4276 106.219 83.4276ZM87.1653 73.5896C86.5923 73.5896 86.126 74.0559 86.126 74.6289V81.1071C86.126 81.6994 86.6076 82.181 87.1999 82.181H106.219C108.587 82.181 110.514 80.254 110.514 77.8853C110.514 75.5166 108.587 73.59 106.219 73.59H87.1653V73.5896Z" fill="#390075"/>
<path d="M85.5014 77.261C86.399 77.2507 87.2971 77.252 88.1947 77.2534C89.0924 77.2534 89.9905 77.2534 90.8881 77.2664C92.6839 77.2902 94.4791 77.2952 96.2749 77.3339C98.0706 77.3631 99.8663 77.4081 101.662 77.4512C103.457 77.4958 105.253 77.5754 107.048 77.8326C107.077 77.8366 107.097 77.8632 107.093 77.892C107.089 77.9153 107.071 77.9333 107.048 77.9365C105.253 78.1937 103.457 78.2738 101.662 78.3178C99.8659 78.361 98.0702 78.406 96.2749 78.4348C94.4791 78.4734 92.6839 78.4788 90.8881 78.5022C89.9905 78.5153 89.0924 78.5157 88.1947 78.5153C87.2971 78.5166 86.399 78.518 85.5014 78.5076C85.1569 78.5036 84.8812 78.2212 84.8848 77.8767C84.8888 77.5376 85.1636 77.2646 85.5014 77.2606V77.261Z" fill="#390075"/>
<path d="M105.352 66.6606H88.6545C86.9134 66.6606 85.502 68.072 85.502 69.813C85.502 71.5539 86.9134 72.9653 88.6545 72.9653H105.352C107.093 72.9653 108.504 71.5539 108.504 69.813C108.504 68.072 107.093 66.6606 105.352 66.6606Z" fill="#FF613A"/>
<path d="M105.352 73.0696H88.6549C86.8591 73.0696 85.3984 71.6089 85.3984 69.8132C85.3984 68.0175 86.8591 66.5568 88.6549 66.5568H105.352C107.148 66.5568 108.609 68.0175 108.609 69.8132C108.609 71.6089 107.148 73.0696 105.352 73.0696ZM88.6549 66.7645C86.9738 66.7645 85.6062 68.1321 85.6062 69.8132C85.6062 71.4942 86.9738 72.8618 88.6549 72.8618H105.352C107.033 72.8618 108.401 71.4942 108.401 69.8132C108.401 68.1321 107.033 66.7645 105.352 66.7645H88.6549Z" fill="#390075"/>
<g opacity="0.3">
<path d="M108.504 69.8133C108.504 70.6844 108.15 71.4718 107.581 72.0434C107.009 72.6128 106.224 72.9663 105.353 72.9663H102.58C103.451 72.9663 104.239 72.6128 104.81 72.0434C105.38 71.4718 105.733 70.6839 105.733 69.8133C105.733 68.0715 104.322 66.6603 102.58 66.6603H105.353C107.092 66.6603 108.504 68.0715 108.504 69.8133Z" fill="#390075"/>
</g>
<g opacity="0.65">
<path d="M90.8543 72.9663H88.4285C86.689 72.9663 85.2773 71.555 85.2773 69.8133C85.2773 68.9422 85.6308 68.1547 86.2002 67.5831C86.7718 67.0138 87.5574 66.6603 88.4285 66.6603H90.8543C89.9832 66.6603 89.1958 67.0138 88.6242 67.5831C88.0548 68.1547 87.7013 68.9426 87.7013 69.8133C87.7013 71.555 89.1126 72.9663 90.8543 72.9663Z" fill="white"/>
</g>
<path d="M105.352 73.5895H88.6548C86.5726 73.5895 84.8789 71.8954 84.8789 69.8137C84.8789 67.7319 86.573 66.0378 88.6548 66.0378H105.352C107.434 66.0378 109.128 67.7319 109.128 69.8137C109.128 71.8954 107.434 73.5895 105.352 73.5895ZM88.6548 67.2845C87.2602 67.2845 86.126 68.4187 86.126 69.8132C86.126 71.2078 87.2602 72.342 88.6548 72.342H105.352C106.747 72.342 107.881 71.2078 107.881 69.8132C107.881 68.4187 106.747 67.2845 105.352 67.2845H88.6548Z" fill="#390075"/>
<path d="M127.398 101.944C124.884 102.293 122.37 102.376 119.856 102.419C118.599 102.443 117.342 102.448 116.085 102.441C114.828 102.443 113.57 102.427 112.313 102.416C109.799 102.395 107.285 102.39 104.771 102.393H21.804L18.0326 102.395L16.147 102.411L14.2613 102.439C11.7469 102.447 9.23297 102.427 6.71903 101.944C6.59491 101.92 6.51351 101.8 6.53735 101.675C6.55579 101.581 6.62999 101.511 6.71903 101.494C9.23342 101.011 11.7474 100.991 14.2613 100.999L16.147 101.027L18.0326 101.043L21.804 101.044H104.771C107.285 101.047 109.799 101.042 112.313 101.022C113.57 101.01 114.827 100.994 116.084 100.996C117.341 100.99 118.598 100.995 119.855 101.018C122.37 101.061 124.884 101.144 127.397 101.494C127.522 101.511 127.608 101.626 127.591 101.75C127.576 101.853 127.495 101.93 127.397 101.944H127.398Z" fill="#390075"/>
<path d="M108.333 36.4494C108.282 36.4494 108.23 36.4413 108.179 36.4247L104.337 35.1614C103.573 34.91 102.735 34.9213 101.978 35.1938L98.8978 36.3001C98.6401 36.3923 98.3564 36.2588 98.2637 36.0011C98.1711 35.7434 98.3051 35.4596 98.5628 35.367L101.642 34.2606C102.606 33.9144 103.673 33.9 104.647 34.2197L108.489 35.483C108.749 35.5684 108.89 35.8486 108.805 36.1085C108.736 36.3172 108.542 36.4494 108.334 36.4494H108.333Z" fill="#390075"/>
<path d="M103.145 34.9806C102.872 34.9806 102.65 34.7589 102.65 34.485V33.4102C102.65 32.9101 102.828 32.4293 103.152 32.0561C104.265 30.7735 104.308 29.9109 104.065 29.6442C103.788 29.338 102.93 29.4149 101.887 30.1582C101.664 30.3174 101.355 30.2653 101.196 30.0427C101.037 29.8196 101.089 29.5102 101.311 29.3514C102.722 28.3454 104.091 28.1988 104.798 28.9773C105.376 29.6132 105.444 30.9264 103.9 32.7055C103.733 32.8984 103.64 33.1484 103.64 33.4102V34.485C103.64 34.7584 103.419 34.9806 103.145 34.9806H103.145Z" fill="#390075"/>
<path d="M117.944 39.7566V42.1608C117.944 42.9735 117.236 43.6058 116.428 43.5127L112.164 43.0252V57.083C112.164 58.2604 111.209 59.2138 110.031 59.2138H96.2566C95.0792 59.2138 94.1236 58.2604 94.1236 57.083V43.0252L89.858 43.5127C89.0512 43.6058 88.3438 42.9735 88.3438 42.1608V39.7566C88.3438 39.1819 88.7067 38.6683 89.2495 38.474L98.2745 35.2666C98.6869 35.1218 99.1249 35.3795 99.2081 35.8099C99.9911 39.7921 106.297 39.7921 107.077 35.8099C107.163 35.3799 107.601 35.1222 108.011 35.2666L117.038 38.474C117.581 38.6683 117.943 39.1819 117.943 39.7566H117.944Z" fill="#4089FF"/>
<g opacity="0.55">
<path d="M95.6118 57.8264C95.6118 58.3557 95.8043 58.8392 96.1213 59.2102C95.0074 59.1387 94.125 58.2149 94.125 57.0834V43.9395L94.3328 43.7974C94.8751 43.4263 95.6118 43.8144 95.6118 44.4719V57.8268V57.8264Z" fill="white"/>
</g>
<g opacity="0.55">
<path d="M98.985 35.8099C99.0088 35.9349 99.0403 36.0577 99.0763 36.1746L90.5132 39.2174C89.9699 39.4117 89.6074 39.9253 89.6074 40.5V42.9042C89.6074 43.1201 89.6569 43.3224 89.7464 43.501L89.6353 43.5127C88.8285 43.6058 88.1211 42.9735 88.1211 42.1608V39.7566C88.1211 39.1819 88.484 38.6683 89.0268 38.474L98.0518 35.2666C98.4642 35.1218 98.9022 35.3795 98.9854 35.8099H98.985Z" fill="white"/>
</g>
<g opacity="0.55">
<path d="M117.642 38.904L109.499 36.01C109.089 35.8652 108.651 36.1229 108.566 36.5533C107.961 39.6375 104.043 40.3332 101.941 38.6386C104.031 39.2017 106.6 38.2582 107.079 35.8099C107.165 35.38 107.603 35.1223 108.013 35.2666L117.04 38.474C117.284 38.5613 117.49 38.7119 117.642 38.904Z" fill="white"/>
</g>
<path d="M90.8775 43.8459C90.6292 43.8459 90.4277 43.6445 90.4277 43.3962V37.8961C90.4277 37.6479 90.6292 37.4464 90.8775 37.4464C91.1257 37.4464 91.3272 37.6479 91.3272 37.8961V43.3962C91.3272 43.6445 91.1257 43.8459 90.8775 43.8459Z" fill="#390075"/>
<path d="M115.303 43.8459C115.055 43.8459 114.854 43.6445 114.854 43.3962V37.8961C114.854 37.6479 115.055 37.4464 115.303 37.4464C115.551 37.4464 115.753 37.6479 115.753 37.8961V43.3962C115.753 43.6445 115.551 43.8459 115.303 43.8459Z" fill="#390075"/>
<path d="M112.165 43.9827H94.125V48.6071H112.165V43.9827Z" fill="white"/>
<path d="M112.165 50.3593H94.125V52.6704H112.165V50.3593Z" fill="white"/>
<path d="M110.033 59.8083H96.2569C94.7535 59.8083 93.5307 58.5855 93.5307 57.0821V43.6917L89.9275 44.1041C89.3735 44.1661 88.819 43.9907 88.4034 43.6202C87.9884 43.2496 87.75 42.7176 87.75 42.1608V39.7571C87.75 38.9318 88.2726 38.1911 89.0506 37.9146L98.0769 34.7071C98.4331 34.5808 98.8257 34.6154 99.1536 34.802C99.4859 34.9914 99.7193 35.317 99.7931 35.6943C100.133 37.4262 101.721 38.2015 103.144 38.2015C104.568 38.2015 106.156 37.4262 106.496 35.6943C106.57 35.3165 106.803 34.9914 107.135 34.802C107.463 34.6154 107.856 34.5808 108.212 34.7071L117.238 37.9146C118.016 38.1911 118.539 38.9314 118.539 39.7571V42.1608C118.539 42.7176 118.3 43.2491 117.885 43.6202C117.47 43.9907 116.912 44.1657 116.362 44.1041L112.759 43.6917V57.0821C112.759 58.5855 111.536 59.8083 110.032 59.8083H110.033ZM94.1252 42.4302C94.2705 42.4302 94.4117 42.4833 94.521 42.5809C94.6474 42.6937 94.7198 42.8552 94.7198 43.0247V57.0816C94.7198 57.9289 95.4092 58.6183 96.2565 58.6183H110.032C110.88 58.6183 111.569 57.9289 111.569 57.0816V43.0247C111.569 42.8552 111.641 42.6937 111.768 42.5809C111.894 42.468 112.062 42.4158 112.231 42.4338L116.497 42.9213C116.715 42.9465 116.928 42.879 117.093 42.732C117.258 42.5845 117.349 42.3816 117.349 42.1604V39.7566C117.349 39.4333 117.144 39.1432 116.84 39.0353L107.813 35.8279C107.783 35.8166 107.753 35.8193 107.724 35.8355C107.705 35.8458 107.673 35.8715 107.662 35.9232C107.193 38.3189 105.055 39.3905 103.144 39.3905C101.234 39.3905 99.096 38.3184 98.6265 35.9232C98.6161 35.8715 98.5838 35.8458 98.5649 35.8355C98.5365 35.8193 98.5069 35.8162 98.4749 35.8279L89.4486 39.0353C89.1437 39.1436 88.9391 39.4337 88.9391 39.7566V42.1604C88.9391 42.3816 89.0299 42.5845 89.195 42.732C89.3604 42.8795 89.5723 42.9474 89.7922 42.9213L94.0573 42.4338C94.0798 42.4315 94.1028 42.4302 94.1248 42.4302H94.1252Z" fill="#390075"/>
<g opacity="0.3">
<path d="M133.342 103.08C133.342 104.693 103.492 106 66.6711 106C29.8497 106 0 104.693 0 103.08C0 102.589 2.77163 102.126 7.66503 101.719H125.677C130.57 102.126 133.342 102.59 133.342 103.08Z" fill="#262F6A"/>
</g>
</g>
<defs>
<clipPath id="clip0_47_3335">
<rect width="133.342" height="106" fill="white"/>
</clipPath>
</defs>
</svg>
