<svg width="19" height="20" viewBox="0 0 19 20" fill="none" xmlns="http://www.w3.org/2000/svg">
<path d="M3.99976 0H1.99976C0.899756 0 -0.000244141 0.9 -0.000244141 2V4C-0.000244141 5.1 0.899756 6 1.99976 6H3.99976C5.09976 6 5.99976 5.1 5.99976 4V2C5.99976 0.9 5.09976 0 3.99976 0ZM1.99976 4V2H3.99976V4H1.99976Z" fill="#CED5D9"/>
<path d="M3.99976 7H1.99976C0.899756 7 -0.000244141 7.9 -0.000244141 9V11C-0.000244141 12.1 0.899756 13 1.99976 13H3.99976C5.09976 13 5.99976 12.1 5.99976 11V9C5.99976 7.9 5.09976 7 3.99976 7ZM1.99976 11V9H3.99976V11H1.99976Z" fill="#CED5D9"/>
<path d="M3.99976 14H1.99976C0.899756 14 -0.000244141 14.9 -0.000244141 16V18C-0.000244141 19.1 0.899756 20 1.99976 20H3.99976C5.09976 20 5.99976 19.1 5.99976 18V16C5.99976 14.9 5.09976 14 3.99976 14ZM1.99976 18V16H3.99976V18H1.99976Z" fill="#CED5D9"/>
<path d="M8.99976 4H17.9998C18.5998 4 18.9998 3.6 18.9998 3C18.9998 2.4 18.5998 2 17.9998 2H8.99976C8.39976 2 7.99976 2.4 7.99976 3C7.99976 3.6 8.39976 4 8.99976 4Z" fill="#CED5D9"/>
<path d="M17.9998 9H8.99976C8.39976 9 7.99976 9.4 7.99976 10C7.99976 10.6 8.39976 11 8.99976 11H17.9998C18.5998 11 18.9998 10.6 18.9998 10C18.9998 9.4 18.5998 9 17.9998 9Z" fill="#CED5D9"/>
<path d="M17.9998 16H8.99976C8.39976 16 7.99976 16.4 7.99976 17C7.99976 17.6 8.39976 18 8.99976 18H17.9998C18.5998 18 18.9998 17.6 18.9998 17C18.9998 16.4 18.5998 16 17.9998 16Z" fill="#CED5D9"/>
</svg>
