<svg width="24" height="20" viewBox="0 0 24 20" fill="none" xmlns="http://www.w3.org/2000/svg">
<path d="M22.6109 7.87581L21.6165 7.18757L20.6141 2.81737C20.3166 1.52059 19.1797 0.614929 17.8492 0.614929H6.15031C4.81985 0.614929 3.68291 1.52059 3.38545 2.81737L2.38301 7.18757L1.38856 7.87581C0.518927 8.47766 -0.000244141 9.4684 -0.000244141 10.526V15.0366C-0.000244141 15.7693 0.571226 16.3706 1.29178 16.4192V18.3746C1.29178 18.9318 1.74502 19.385 2.30215 19.385H4.48502C5.04215 19.385 5.49539 18.9318 5.49539 18.3746V16.4228H8.6552C8.73183 17.2986 9.46877 17.988 10.3641 17.988H14.5122C15.4076 17.988 16.1446 17.2986 16.2212 16.4228H18.5041V18.3746C18.5041 18.9318 18.9574 19.385 19.5145 19.385H21.6974C22.2545 19.385 22.7077 18.9318 22.7077 18.3746V16.4192C23.4283 16.3707 23.9998 15.7693 23.9998 15.0366V10.526C23.9998 9.4684 23.4806 8.47766 22.6109 7.87581ZM0.881201 10.526C0.881201 9.75758 1.2584 9.03779 1.89022 8.60053L3.02517 7.81505C3.11561 7.75246 3.17936 7.65832 3.20393 7.5512L4.24456 3.0144C4.44965 2.12061 5.23331 1.49637 6.15031 1.49637H17.8492C18.7662 1.49637 19.5499 2.12061 19.7549 3.01446L20.7956 7.55126C20.8201 7.65844 20.8839 7.75258 20.9743 7.81511L22.1093 8.60059C22.7411 9.03785 23.1183 9.75763 23.1183 10.526V13.5811H0.881201V10.526ZM4.61401 18.3747C4.61395 18.4458 4.55612 18.5036 4.48502 18.5036H2.30215C2.23105 18.5036 2.17322 18.4458 2.17322 18.3747V16.4228H4.61401V18.3747ZM14.5123 17.1067H10.3642C9.95557 17.1067 9.61527 16.8112 9.54405 16.4228H15.3326C15.2613 16.8112 14.9209 17.1067 14.5123 17.1067ZM21.8264 18.3747C21.8264 18.4457 21.7685 18.5036 21.6974 18.5036H19.5145C19.4434 18.5036 19.3856 18.4458 19.3856 18.3747V16.4228H21.8264V18.3747ZM23.1184 15.0367C23.1184 15.315 22.892 15.5414 22.6137 15.5414H1.38592C1.10762 15.5414 0.881201 15.315 0.881201 15.0367V14.4625H23.1184V15.0367Z" fill="#CED5D9"/>
<path d="M4.10082 7.89314H19.8987C20.0329 7.89314 20.1598 7.83197 20.2434 7.72701C20.327 7.62206 20.3583 7.48468 20.3282 7.35387L19.3539 3.10648C19.1918 2.40061 18.573 1.90759 17.849 1.90759H6.15041C5.4264 1.90759 4.80756 2.40061 4.64549 3.10654L3.6712 7.35393C3.64117 7.48473 3.67244 7.62206 3.75606 7.72707C3.83968 7.83208 3.9666 7.89314 4.10082 7.89314ZM5.50467 3.30368C5.57424 3.0007 5.83979 2.78904 6.15047 2.78904H17.849C18.1597 2.78904 18.4252 3.0007 18.4948 3.30363L19.3454 7.01175H4.65407L5.50467 3.30368Z" fill="#CED5D9"/>
<path d="M5.90702 10.4138H2.28557C2.04217 10.4138 1.84485 10.6111 1.84485 10.8545C1.84485 12.096 2.85487 13.106 4.0963 13.106C5.33773 13.106 6.34775 12.096 6.34775 10.8545C6.34775 10.6112 6.15042 10.4138 5.90702 10.4138ZM4.0963 12.2246C3.49497 12.2246 2.98291 11.8352 2.79898 11.2953H5.39361C5.20974 11.8352 4.69762 12.2246 4.0963 12.2246Z" fill="#CED5D9"/>
<path d="M21.714 10.4138H18.0926C17.8492 10.4138 17.6519 10.6111 17.6519 10.8545C17.6519 12.096 18.6619 13.106 19.9033 13.106C21.1447 13.106 22.1547 12.096 22.1547 10.8545C22.1547 10.6112 21.9574 10.4138 21.714 10.4138ZM19.9033 12.2246C19.302 12.2246 18.7899 11.8352 18.606 11.2953H21.2006C21.0167 11.8352 20.5046 12.2246 19.9033 12.2246Z" fill="#CED5D9"/>
<path d="M16.5136 12.069C16.5376 12.0849 16.4901 12.0531 16.5136 12.069V12.069Z" fill="#CED5D9"/>
<path d="M16.5136 12.069C16.1817 11.8452 15.7385 12.1692 15.8445 12.5523C15.8925 12.726 16.0442 12.8544 16.2234 12.8733C16.4184 12.8938 16.6082 12.7778 16.6794 12.5954C16.7535 12.4056 16.6841 12.1815 16.5136 12.069Z" fill="#CED5D9"/>
<path d="M15.0989 11.9944H7.73052C7.48712 11.9944 7.28979 12.1918 7.28979 12.4352C7.28979 12.6786 7.48712 12.8759 7.73052 12.8759H15.0989C15.3423 12.8759 15.5396 12.6786 15.5396 12.4352C15.5396 12.1918 15.3423 11.9944 15.0989 11.9944Z" fill="#CED5D9"/>
<path d="M8.04232 11.1665C8.28507 10.9165 8.15397 10.4831 7.80768 10.4209C7.47355 10.3608 7.19055 10.7077 7.32365 11.0231C7.44252 11.3109 7.82155 11.3808 8.04232 11.1665Z" fill="#CED5D9"/>
<path d="M7.32366 11.0231C7.31248 10.9965 7.33484 11.05 7.32366 11.0231V11.0231Z" fill="#CED5D9"/>
<path d="M16.269 10.4138H8.90068C8.65729 10.4138 8.45996 10.6111 8.45996 10.8545C8.45996 11.0979 8.65729 11.2953 8.90068 11.2953H16.269C16.5124 11.2953 16.7098 11.0979 16.7098 10.8545C16.7098 10.6112 16.5124 10.4138 16.269 10.4138Z" fill="#CED5D9"/>
</svg>
