<svg width="16" height="20" viewBox="0 0 16 20" fill="none" xmlns="http://www.w3.org/2000/svg">
<path d="M1.74997 3.18784L1.74976 14.875C1.74976 16.739 3.26079 18.25 5.12476 18.25L12.8117 18.2503C12.4781 18.9873 11.7363 19.5 10.8748 19.5H5.12476C2.57044 19.5 0.499756 17.4293 0.499756 14.875V5.125C0.499756 4.26324 1.01272 3.52129 1.74997 3.18784ZM8.87844 0.5C9.44202 0.5 9.98252 0.723883 10.381 1.1224L14.8774 5.61872C15.2759 6.01723 15.4998 6.55774 15.4998 7.12132V14.875C15.4998 16.0486 14.5484 17 13.3748 17H5.12476C3.95115 17 2.99976 16.0486 2.99976 14.875V2.625C2.99976 1.45139 3.95115 0.5 5.12476 0.5H8.87844ZM8.49976 1.75H5.12476C4.64151 1.75 4.24976 2.14175 4.24976 2.625V14.875C4.24976 15.3582 4.64151 15.75 5.12476 15.75H13.3748C13.858 15.75 14.2498 15.3582 14.2498 14.875V7.5H10.6248C9.48567 7.5 8.55591 6.60375 8.50221 5.47796L8.49976 5.375V1.75ZM13.7408 6.25L9.74976 2.259V5.375C9.74976 5.83409 10.1033 6.2106 10.553 6.2471L10.6248 6.25H13.7408Z" fill="#CED5D9"/>
</svg>
