<svg width="28" height="28" viewBox="0 0 28 28" fill="none" xmlns="http://www.w3.org/2000/svg">
<path d="M11.6658 2.333C9.19138 2.33591 6.81919 3.32014 5.06954 5.06979C3.3199 6.81943 2.33567 9.19163 2.33276 11.666V16.333C2.33567 18.8074 3.3199 21.1796 5.06954 22.9292C6.81919 24.6789 9.19138 25.6631 11.6658 25.666H16.3328C18.8071 25.6631 21.1793 24.6789 22.929 22.9292C24.6786 21.1796 25.6628 18.8074 25.6658 16.333V11.666C25.6628 9.19163 24.6786 6.81943 22.929 5.06979C21.1793 3.32014 18.8071 2.33591 16.3328 2.333H11.6658ZM11.6658 4.28635e-08H16.3328C17.8648 -0.000131286 19.3819 0.301522 20.7974 0.887734C22.2129 1.47395 23.4991 2.33324 24.5825 3.41654C25.6659 4.49984 26.5253 5.78593 27.1116 7.20138C27.698 8.61683 27.9998 10.1339 27.9998 11.666V16.333C27.9999 17.8652 27.6982 19.3824 27.1119 20.7979C26.5257 22.2135 25.6663 23.4997 24.5829 24.5831C23.4995 25.6665 22.2132 26.5259 20.7977 27.1122C19.3821 27.6984 17.8649 28.0001 16.3328 28H11.6658C10.1337 28 8.61659 27.6982 7.20114 27.1119C5.78569 26.5255 4.4996 25.6661 3.41629 24.5828C2.33299 23.4994 1.4737 22.2132 0.88749 20.7977C0.301278 19.3822 -0.000375427 17.8651 -0.000244098 16.333L-0.000244098 11.666C-0.000244098 8.57199 1.22885 5.60469 3.41665 3.41689C5.60445 1.22909 8.57174 4.28635e-08 11.6658 4.28635e-08Z" fill="#EFC12C"/>
<path d="M18.6667 15.166H9.33373C9.17767 15.1706 9.02227 15.1438 8.87675 15.0872C8.73123 15.0307 8.59854 14.9455 8.48654 14.8367C8.37454 14.7279 8.2855 14.5978 8.2247 14.454C8.1639 14.3102 8.13257 14.1556 8.13257 13.9995C8.13257 13.8434 8.1639 13.6889 8.2247 13.545C8.2855 13.4012 8.37454 13.2711 8.48654 13.1623C8.59854 13.0536 8.73123 12.9684 8.87675 12.9118C9.02227 12.8552 9.17767 12.8284 9.33373 12.833H18.6667C18.8228 12.8284 18.9782 12.8552 19.1237 12.9118C19.2692 12.9684 19.4019 13.0536 19.5139 13.1623C19.6259 13.2711 19.715 13.4012 19.7758 13.545C19.8366 13.6889 19.8679 13.8434 19.8679 13.9995C19.8679 14.1556 19.8366 14.3102 19.7758 14.454C19.715 14.5978 19.6259 14.7279 19.5139 14.8367C19.4019 14.9455 19.2692 15.0307 19.1237 15.0872C18.9782 15.1438 18.8228 15.1706 18.6667 15.166Z" fill="#EFC12C"/>
<path d="M13.9998 19.833C13.6904 19.833 13.3938 19.7102 13.1749 19.4915C12.9561 19.2729 12.833 18.9763 12.8328 18.667V9.33397C12.8282 9.17791 12.855 9.02252 12.9116 8.877C12.9681 8.73148 13.0533 8.59879 13.1621 8.48679C13.2709 8.37478 13.401 8.28574 13.5448 8.22494C13.6886 8.16414 13.8431 8.13281 13.9993 8.13281C14.1554 8.13281 14.3099 8.16414 14.4537 8.22494C14.5975 8.28574 14.7277 8.37478 14.8365 8.48679C14.9452 8.59879 15.0304 8.73148 15.087 8.877C15.1436 9.02252 15.1703 9.17791 15.1658 9.33397V18.667C15.1655 18.9761 15.0426 19.2726 14.824 19.4912C14.6054 19.7098 14.3089 19.8327 13.9998 19.833Z" fill="#EFC12C"/>
</svg>
