<svg width="82" height="82" viewBox="0 0 82 82" fill="none" xmlns="http://www.w3.org/2000/svg">
<path d="M47.8806 47.5216L69.6875 26.0094" stroke="#00E592" stroke-width="5.89375" stroke-miterlimit="10"/>
<path d="M26.3681 57.2462L16.6434 66.9709C15.17 68.4443 15.17 71.0965 16.6434 72.8647L21.6531 77.8743C23.1266 79.3478 25.7787 79.3478 27.5469 77.8743L42.2812 63.14" stroke="#FFB515" stroke-width="5.89375" stroke-miterlimit="10"/>
<path d="M17.2328 35.1447L23.4212 41.3331C25.4841 43.396 29.0203 43.396 31.0831 41.3331C33.1459 39.2703 33.1459 35.7341 31.0831 33.6713L24.8947 27.4828C30.7884 24.536 38.4503 25.7147 43.1653 30.4297C47.5856 35.1447 48.7644 41.3331 47.2909 46.9322L65.8562 65.4975C68.8031 68.4444 68.8031 73.1594 65.8562 76.1063C62.9094 79.0531 58.1944 79.0531 55.2475 76.1063L36.6822 57.541C31.0831 59.3091 24.8947 57.8356 20.4744 53.71C15.4647 48.7003 14.2859 41.3331 17.2328 35.1447Z" stroke="#075AFD" stroke-width="5.89375" stroke-miterlimit="10"/>
</svg>
