<svg width="24" height="24" viewBox="0 0 24 24" fill="none" xmlns="http://www.w3.org/2000/svg">
<path d="M5 15.5C4.4 16 4 16.7 4 17.5C4 18.9 5.1 20 6.5 20H9.2C9.6 21.2 10.7 22 12 22C13.3 22 14.4 21.2 14.8 20H17.5C18.9 20 20 18.9 20 17.5C20 16.7 19.6 16 19 15.5V9.99998C19 8.09998 18.3 6.39998 16.9 5.09998C16.5 4.69998 16 4.29998 15.5 3.99998C13.4 2.79998 10.6 2.79998 8.5 3.99998C6.3 5.19998 5 7.49998 5 9.99998V15.5ZM17.5 18H14H10H6.5C6.2 18 6 17.8 6 17.5C6 17.2 6.2 17 6.5 17H17.5C17.8 17 18 17.2 18 17.5C18 17.8 17.8 18 17.5 18ZM7 9.99998C7 8.19998 8 6.59998 9.5 5.69998C11 4.79998 13 4.79998 14.5 5.69998C14.9 5.89998 15.2 6.19998 15.5 6.49998C16.5 7.39998 17 8.69998 17 9.99998V15H7V9.99998Z" fill="#1CAAF1"/>
<path d="M18.5 4.4C18.8 4.7 19.1 5 19.3 5.4C19.5 5.8 19.7 6.2 19.8 6.6C19.9 7 20.3 7.3 20.8 7.3C20.9 7.3 21 7.3 21.1 7.3C21.6 7.2 22 6.6 21.8 6.1C21.6 5.5 21.4 4.9 21.1 4.4C20.8 3.9 20.4 3.4 20 3C19.7 2.7 19.4 2.4 19 2.2C18.5 1.9 17.9 2 17.6 2.5C17.3 3 17.4 3.6 17.9 3.9C18.1 4 18.3 4.2 18.5 4.4Z" fill="#1CAAF1"/>
<path d="M2.89998 6.90002C2.99998 7.00002 3.09998 7.00002 3.19998 7.00002C3.59998 7.00002 3.99998 6.70002 4.09998 6.30002C4.19998 5.90002 4.39998 5.50002 4.69998 5.20002C4.99998 4.80002 5.19998 4.50002 5.59998 4.30002C5.79998 4.10002 5.99998 3.90002 6.29998 3.80002C6.79998 3.50002 6.99998 2.90002 6.69998 2.40002C6.39998 1.90002 5.79998 1.80002 5.29998 2.00002C4.89998 2.20002 4.49998 2.50002 4.29998 2.70002C3.79998 3.10002 3.39998 3.60002 3.09998 4.10002C2.79998 4.60002 2.49998 5.10002 2.29998 5.70002C2.09998 6.20002 2.29998 6.80002 2.89998 6.90002Z" fill="#1CAAF1"/>
</svg>
