<svg width="21" height="21" viewBox="0 0 21 21" fill="none" xmlns="http://www.w3.org/2000/svg">
<path opacity="0.3" fill-rule="evenodd" clip-rule="evenodd" d="M8.69183 4.19881C8.36282 4.28114 8.11653 4.42173 7.86845 4.66888C7.61294 4.92345 7.45847 5.20378 7.38732 5.54213C7.36094 5.6674 7.34375 6.20382 7.34375 6.89998V8.05077H13.7911H20.2385V6.89998C20.2385 6.18987 20.2215 5.6699 20.1942 5.54213C20.0501 4.8691 19.5089 4.3276 18.8396 4.18685C18.5264 4.12093 8.95789 4.13223 8.69183 4.19881ZM15.2379 5.58956C15.4113 5.67803 15.5495 5.90314 15.5495 6.09703C15.5495 6.39568 15.2606 6.68315 14.9605 6.68315C14.7787 6.68315 14.5373 6.53119 14.4514 6.36266C14.3071 6.0798 14.3976 5.77099 14.6739 5.60371C14.861 5.49047 15.0351 5.48609 15.2379 5.58956ZM17.5824 5.58956C17.7558 5.67803 17.894 5.90314 17.894 6.09703C17.894 6.39568 17.6051 6.68315 17.305 6.68315C17.1232 6.68315 16.8818 6.53119 16.7958 6.36266C16.6515 6.0798 16.7421 5.77099 17.0184 5.60371C17.2055 5.49047 17.3795 5.48609 17.5824 5.58956Z" fill="white"/>
<path fill-rule="evenodd" clip-rule="evenodd" d="M1.58051 0.212956C1.2515 0.295287 1.00521 0.435878 0.757119 0.683027C0.501608 0.9376 0.347145 1.21792 0.27599 1.55627C0.246371 1.6971 0.232422 2.63185 0.232422 4.47712V7.19091H3.20211H6.17181V6.40777C6.17181 5.54187 6.21913 5.20446 6.4018 4.76753C6.68459 4.09118 7.27876 3.49615 7.96062 3.20648C8.47793 2.98673 8.65502 2.97082 10.5856 2.97082H12.3456V2.36708C12.3456 2.03502 12.3257 1.67018 12.3013 1.55627C12.1573 0.883247 11.6161 0.341747 10.9468 0.200999C10.6341 0.135197 1.84633 0.146451 1.58051 0.212956ZM3.43758 3.36208C3.53687 3.41272 3.61987 3.49572 3.67051 3.59501C3.7426 3.73638 3.74916 3.8243 3.74916 4.65104C3.74916 5.47779 3.7426 5.56571 3.67051 5.70708C3.58157 5.8814 3.3567 6.01867 3.16015 6.01867C2.97841 6.01867 2.737 5.8667 2.65104 5.69817C2.58438 5.56751 2.57707 5.46122 2.57856 4.64284C2.58039 3.61153 2.5961 3.54421 2.87361 3.37623C3.0607 3.26299 3.23474 3.25861 3.43758 3.36208ZM0.232422 13.4605C0.232422 17.1128 0.245005 18.6166 0.276734 18.7649C0.420413 19.4362 0.959955 19.9758 1.63126 20.1195C1.77318 20.1498 2.612 20.1638 4.29766 20.1638H6.75695L6.62113 19.9514C6.48198 19.7339 6.36659 19.4737 6.25609 19.1283C6.20037 18.954 6.19232 18.3628 6.18177 13.648L6.16989 8.36316H3.20117H0.232422V13.4605ZM7.34405 13.8903C7.34405 17.2222 7.35675 18.6171 7.38837 18.7649C7.53204 19.4362 8.07159 19.9758 8.74289 20.1195C9.03342 20.1816 18.5449 20.1823 18.8399 20.1202C19.503 19.9805 20.0568 19.4269 20.1954 18.7649C20.2258 18.6199 20.2388 17.159 20.2388 13.8903V9.22281H13.7914H7.34405V13.8903ZM3.43758 9.61406C3.53687 9.66471 3.61987 9.7477 3.67051 9.84699C3.74573 9.99446 3.74916 10.0746 3.74916 11.6845C3.74916 13.2945 3.74573 13.3746 3.67051 13.5221C3.58157 13.6964 3.3567 13.8336 3.16015 13.8336C2.97841 13.8336 2.737 13.6817 2.65104 13.5132C2.58156 13.377 2.57703 13.2619 2.57856 11.6763C2.58039 9.77247 2.57516 9.80889 2.87361 9.62821C3.0607 9.51497 3.23474 9.51059 3.43758 9.61406ZM14.7097 10.5097C16.0117 10.8493 17.0321 11.8758 17.3924 13.2084C17.4668 13.4832 17.4823 13.6385 17.4823 14.1072C17.4823 14.5759 17.4668 14.7311 17.3924 15.0059C17.0324 16.3377 16.026 17.3512 14.7097 17.7078C14.2471 17.8332 13.3585 17.8329 12.8927 17.7074C11.5575 17.3475 10.5539 16.3488 10.1888 15.017C10.0686 14.5786 10.0686 13.6357 10.1888 13.1973C10.5925 11.7243 11.7789 10.6665 13.303 10.4205C13.5738 10.3767 14.4012 10.4292 14.7097 10.5097ZM13.2444 11.6281C12.5429 11.7787 11.8497 12.323 11.5303 12.974C11.3469 13.3479 11.2529 13.7317 11.2529 14.1072C11.2529 15.0414 11.8228 15.9583 12.6582 16.3682C13.4107 16.7375 14.1722 16.7375 14.9246 16.3682C15.5842 16.0446 16.1225 15.3523 16.2727 14.6347C16.3922 14.0632 16.3201 13.5195 16.0525 12.974C15.8238 12.508 15.3906 12.0748 14.9246 11.8461C14.3811 11.5794 13.8137 11.5058 13.2444 11.6281Z" fill="white"/>
</svg>
